<svg xmlns="http://www.w3.org/2000/svg" width="22" height="52" viewBox="0 0 22 52">
  <metadata><?xpacket begin="﻿" id="W5M0MpCehiHzreSzNTczkc9d"?>
<x:xmpmeta xmlns:x="adobe:ns:meta/" x:xmptk="Adobe XMP Core 5.6-c138 79.159824, 2016/09/14-01:09:01        ">
   <rdf:RDF xmlns:rdf="http://www.w3.org/1999/02/22-rdf-syntax-ns#">
      <rdf:Description rdf:about=""/>
   </rdf:RDF>
</x:xmpmeta>
                                                                                                    
                                                                                                    
                                                                                                    
                                                                                                    
                                                                                                    
                                                                                                    
                                                                                                    
                                                                                                    
                                                                                                    
                                                                                                    
                                                                                                    
                                                                                                    
                                                                                                    
                                                                                                    
                                                                                                    
                                                                                                    
                                                                                                    
                                                                                                    
                                                                                                    
                                                                                                    
                           
<?xpacket end="w"?></metadata>
<defs>
    <style>
      .cls-1 {
        fill: #fff;
        fill-rule: evenodd;
      }
    </style>
  </defs>
  <path class="cls-1" d="M0,21a11,11,0,0,0,22,0V11A11,11,0,0,0,0,11V21ZM2,11a9,9,0,0,1,18,0V21A9,9,0,0,1,2,21V11Zm9-3a1,1,0,0,1,1,1v6a1,1,0,0,1-2,0V9A1,1,0,0,1,11,8Zm0,30h0a1,1,0,0,1,1,1V51a1,1,0,0,1-1,1h0a1,1,0,0,1-1-1V39A1,1,0,0,1,11,38Zm3.47,6.105a0.975,0.975,0,0,1,.424,1.309l-3.078,6.073a0.971,0.971,0,1,1-1.729-.883l3.079-6.073A0.968,0.968,0,0,1,14.47,44.106Zm-6.94,0a0.975,0.975,0,0,0-.424,1.309l3.079,6.073a0.97,0.97,0,1,0,1.728-.883L8.834,44.532A0.968,0.968,0,0,0,7.53,44.106Z"/>
</svg>
