<svg id="Layer_1" data-name="Layer 1" xmlns="http://www.w3.org/2000/svg" xmlns:xlink="http://www.w3.org/1999/xlink" viewBox="0 0 300 446.4"><defs><style>.cls-1,.cls-2,.cls-3,.cls-4,.cls-5,.cls-6,.cls-7{fill:none;}.cls-2,.cls-3,.cls-4,.cls-5,.cls-6,.cls-7{stroke-miterlimit:10;}.cls-2{stroke:url(#Безымянный_градиент_106);}.cls-3{stroke:url(#Безымянный_градиент_97);}.cls-4{stroke:url(#Безымянный_градиент_26);}.cls-5{stroke:url(#Безымянный_градиент_28);}.cls-6{stroke:url(#Безымянный_градиент_9);}.cls-7{stroke:url(#Безымянный_градиент_95);}.cls-8{isolation:isolate;}.cls-9{fill:#fff;}.cls-10{clip-path:url(#clip-path);}.cls-11{fill:url(#Безымянный_градиент_394);}.cls-12{clip-path:url(#clip-path-2);}.cls-13{fill:url(#Безымянный_градиент_70);}.cls-14{clip-path:url(#clip-path-3);}.cls-15{fill:url(#Безымянный_градиент_3);}.cls-16{clip-path:url(#clip-path-4);}.cls-17{fill:url(#Безымянный_градиент_4);}.cls-18{clip-path:url(#clip-path-5);}.cls-19{fill:url(#Безымянный_градиент_11);}.cls-20{clip-path:url(#clip-path-6);}.cls-21{fill:url(#Безымянный_градиент_94);}</style><linearGradient id="Безымянный_градиент_106" x1="957.97" y1="369.41" x2="988.14" y2="369.41" gradientTransform="translate(-823.3)" gradientUnits="userSpaceOnUse"><stop offset="0.15" stop-color="#00e600"/><stop offset="1" stop-color="#9cf900"/></linearGradient><linearGradient id="Безымянный_градиент_97" x1="25.49" y1="344.99" x2="89.2" y2="344.99" gradientUnits="userSpaceOnUse"><stop offset="0.1" stop-color="#45a4dd"/><stop offset="0.79" stop-color="#5f3cb7"/><stop offset="1" stop-color="#6e00a1"/></linearGradient><linearGradient id="Безымянный_градиент_26" x1="201.22" y1="321" x2="284.46" y2="321" gradientUnits="userSpaceOnUse"><stop offset="0.08" stop-color="#f8be35"/><stop offset="1" stop-color="#ff5c02"/></linearGradient><linearGradient id="Безымянный_градиент_28" x1="55.41" y1="57.34" x2="55.41" y2="143.7" gradientUnits="userSpaceOnUse"><stop offset="0.16" stop-color="#8d1ab3"/><stop offset="1" stop-color="#fc5fa2"/></linearGradient><linearGradient id="Безымянный_градиент_9" x1="189.51" y1="69.69" x2="292.71" y2="69.69" gradientUnits="userSpaceOnUse"><stop offset="0.06" stop-color="#001fa9"/><stop offset="1" stop-color="#bd00de"/></linearGradient><linearGradient id="Безымянный_градиент_95" x1="267.73" y1="88.63" x2="267.73" y2="201.12" gradientUnits="userSpaceOnUse"><stop offset="0.3" stop-color="#0993ff"/><stop offset="1" stop-color="#33cce7"/></linearGradient><clipPath id="clip-path"><polygon class="cls-1" points="0 60.67 174.58 60.67 141.04 226.83 0 163.33 0 60.67"/></clipPath><linearGradient id="Безымянный_градиент_394" x1="33.26" y1="1909.05" x2="248.82" y2="2124.61" gradientTransform="matrix(1, 0, 0, -1, 0, 2243.17)" gradientUnits="userSpaceOnUse"><stop offset="0.27" stop-color="#fc5fa2"/><stop offset="0.84" stop-color="#8d1ab3"/></linearGradient><clipPath id="clip-path-2"><polygon class="cls-1" points="300 165.81 141.04 226.83 300 217.24 300 165.81"/></clipPath><linearGradient id="Безымянный_градиент_70" x1="32.93" y1="1926.1" x2="249.15" y2="2107.53" gradientTransform="matrix(1, 0, 0, -1, 0, 2243.17)" gradientUnits="userSpaceOnUse"><stop offset="0" stop-color="#6e00a1"/><stop offset="0.21" stop-color="#5f3cb7"/><stop offset="0.71" stop-color="#45a4dd"/><stop offset="1" stop-color="#34e6f6"/></linearGradient><clipPath id="clip-path-3"><polygon class="cls-1" points="0 163.33 141.04 226.83 103.22 392.19 1.5 392.19 0 163.33"/></clipPath><linearGradient id="Безымянный_градиент_3" x1="-0.07" y1="2016.83" x2="282.15" y2="2016.83" gradientTransform="matrix(1, 0, 0, -1, 0, 2243.17)" gradientUnits="userSpaceOnUse"><stop offset="0" stop-color="#42ccfb"/><stop offset="0.38" stop-color="#0993ff"/><stop offset="1" stop-color="#9e09c7"/></linearGradient><clipPath id="clip-path-4"><polygon class="cls-1" points="103.22 392.19 141.04 226.83 159.88 390.52 103.22 392.19"/></clipPath><linearGradient id="Безымянный_градиент_4" x1="105.84" y1="167.9" x2="208.84" y2="338.9" gradientUnits="userSpaceOnUse"><stop offset="0" stop-color="#ff00e5"/><stop offset="0.04" stop-color="#f91fca"/><stop offset="0.12" stop-color="#ed5995"/><stop offset="0.2" stop-color="#e28c67"/><stop offset="0.28" stop-color="#dab542"/><stop offset="0.36" stop-color="#d3d525"/><stop offset="0.44" stop-color="#cfec11"/><stop offset="0.51" stop-color="#ccfa04"/><stop offset="0.57" stop-color="#cbff00"/><stop offset="0.6" stop-color="#befd00"/><stop offset="0.65" stop-color="#9cf900"/><stop offset="0.73" stop-color="#65f200"/><stop offset="0.82" stop-color="#19e900"/><stop offset="0.85" stop-color="#00e600"/></linearGradient><clipPath id="clip-path-5"><polygon class="cls-1" points="159.88 390.52 141.04 226.83 300 217.24 300 390.52 159.88 390.52"/></clipPath><linearGradient id="Безымянный_градиент_11" x1="243.13" y1="104.67" x2="38.95" y2="348" gradientUnits="userSpaceOnUse"><stop offset="0.13" stop-color="#ff5c02"/><stop offset="0.64" stop-color="#f8be35"/></linearGradient><clipPath id="clip-path-6"><polygon class="cls-1" points="300 60.67 174.58 60.67 141.04 226.83 300 165.81 300 60.67"/></clipPath><linearGradient id="Безымянный_градиент_94" x1="-16.87" y1="226.34" x2="298.95" y2="226.34" gradientUnits="userSpaceOnUse"><stop offset="0.17" stop-color="aqua"/><stop offset="0.57" stop-color="#001fa9"/><stop offset="0.95" stop-color="#bd00de"/></linearGradient></defs><title>pie_right</title><path class="cls-2" d="M135.17,332.1v67.42c0,5.23,3.25,6.7,8.75,6.7h20.91"/><path class="cls-3" d="M26,283.25V399.52c0,5.23,3.25,6.7,8.75,6.7H89.2"/><path class="cls-4" d="M284,235.27V399.52c0,5.23-3.25,6.7-8.75,6.7h-74"/><path class="cls-5" d="M14.87,143.7V64.54c0-5.23,3.25-6.7,8.75-6.7H96.45"/><path class="cls-6" d="M190,82V64.54c0-5.23,3.25-6.7,8.75-6.7h93.95"/><path class="cls-7" d="M242.25,89.13H284c5.5,0,8.75,1.47,8.75,6.7v96.39a8.41,8.41,0,0,1-8.41,8.41H271.25"/><g class="cls-8"><path class="cls-9" d="M134.54,422.14v-10h1.16v8.94h4.41v1.05Z"/><path class="cls-9" d="M144.8,422.28a3.44,3.44,0,0,1-2.62-1,3.92,3.92,0,0,1-1-2.81,4.34,4.34,0,0,1,.89-2.88,3,3,0,0,1,2.4-1.07,2.83,2.83,0,0,1,2.23.93,3.55,3.55,0,0,1,.82,2.44v.72h-5.16a3,3,0,0,0,.67,2,2.3,2.3,0,0,0,1.78.68,6,6,0,0,0,2.39-.51v1a5.94,5.94,0,0,1-1.14.37A6.33,6.33,0,0,1,144.8,422.28Zm-.31-6.82a1.85,1.85,0,0,0-1.44.59,2.71,2.71,0,0,0-.63,1.63h3.92a2.49,2.49,0,0,0-.48-1.64A1.68,1.68,0,0,0,144.49,415.47Z"/><path class="cls-9" d="M155.62,414.65v.72l-1.39.16a2.35,2.35,0,0,1,.34.63,2.38,2.38,0,0,1,.15.87,2.21,2.21,0,0,1-.75,1.76,3,3,0,0,1-2.06.66,3.47,3.47,0,0,1-.63-.05,1.12,1.12,0,0,0-.72,1,.49.49,0,0,0,.25.46,1.85,1.85,0,0,0,.87.15H153a3,3,0,0,1,1.87.51,1.78,1.78,0,0,1,.65,1.49,2.13,2.13,0,0,1-1,1.9,5.35,5.35,0,0,1-2.91.65,4,4,0,0,1-2.27-.55,1.77,1.77,0,0,1-.8-1.54,1.74,1.74,0,0,1,.44-1.18,2.23,2.23,0,0,1,1.23-.68,1.19,1.19,0,0,1-.48-.4,1.07,1.07,0,0,1-.2-.64,1.21,1.21,0,0,1,.22-.72,2.31,2.31,0,0,1,.69-.59,2,2,0,0,1-.95-.81,2.39,2.39,0,0,1-.37-1.31,2.43,2.43,0,0,1,.74-1.9,3,3,0,0,1,2.09-.67,3.81,3.81,0,0,1,1.06.14Zm-6,8.75a1,1,0,0,0,.51.92,2.83,2.83,0,0,0,1.47.31,4.11,4.11,0,0,0,2.12-.43,1.31,1.31,0,0,0,.69-1.16.92.92,0,0,0-.38-.84,2.93,2.93,0,0,0-1.42-.24h-1.36a1.79,1.79,0,0,0-1.2.37A1.32,1.32,0,0,0,149.65,423.4Zm.62-6.35a1.53,1.53,0,0,0,.44,1.19,1.78,1.78,0,0,0,1.24.4,1.45,1.45,0,0,0,1.66-1.61,1.49,1.49,0,0,0-1.68-1.69,1.66,1.66,0,0,0-1.23.43A1.73,1.73,0,0,0,150.26,417.05Z"/><path class="cls-9" d="M161.77,422.14l-.23-1.07h-.05a3.14,3.14,0,0,1-1.12,1,3.4,3.4,0,0,1-1.39.25,2.5,2.5,0,0,1-1.75-.57,2.09,2.09,0,0,1-.63-1.63q0-2.27,3.63-2.38l1.27,0v-.46a1.9,1.9,0,0,0-.38-1.3,1.56,1.56,0,0,0-1.21-.42,5,5,0,0,0-2.12.57l-.35-.87a5.35,5.35,0,0,1,1.21-.47,5.24,5.24,0,0,1,1.32-.17,2.85,2.85,0,0,1,2,.59,2.48,2.48,0,0,1,.65,1.91v5.11Zm-2.56-.8a2.3,2.3,0,0,0,1.67-.58,2.15,2.15,0,0,0,.6-1.63v-.68l-1.13,0a4.13,4.13,0,0,0-2,.42,1.27,1.27,0,0,0-.6,1.16,1.17,1.17,0,0,0,.37.94A1.55,1.55,0,0,0,159.2,421.34Z"/><path class="cls-9" d="M166.08,422.14h-1.13V411.51h1.13Z"/></g><path class="cls-9" d="M213.86,6.64h1.25l-3.6,10h-1.15l-3.58-10H208l2.3,6.47a18,18,0,0,1,.63,2.17,18.19,18.19,0,0,1,.64-2.21Z"/><path class="cls-9" d="M216.21,7.11a.76.76,0,0,1,.19-.57.71.71,0,0,1,1,0,.74.74,0,0,1,.2.57.75.75,0,0,1-.2.57.7.7,0,0,1-1,0A.77.77,0,0,1,216.21,7.11Zm1.23,9.52h-1.13V9.14h1.13Z"/><path class="cls-9" d="M225,15.63h-.06a2.67,2.67,0,0,1-2.35,1.14,2.78,2.78,0,0,1-2.29-1,4.42,4.42,0,0,1-.82-2.86,4.5,4.5,0,0,1,.82-2.88,2.76,2.76,0,0,1,2.28-1,2.72,2.72,0,0,1,2.34,1.11H225l0-.54,0-.53V6H226V16.63h-.92Zm-2.27.19a2.07,2.07,0,0,0,1.69-.63,3.2,3.2,0,0,0,.52-2v-.24a3.76,3.76,0,0,0-.53-2.27,2,2,0,0,0-1.69-.68,1.74,1.74,0,0,0-1.53.78,3.85,3.85,0,0,0-.53,2.19,3.7,3.7,0,0,0,.53,2.17A1.78,1.78,0,0,0,222.68,15.82Z"/><path class="cls-9" d="M231.6,16.77a3.44,3.44,0,0,1-2.62-1,3.92,3.92,0,0,1-1-2.81,4.34,4.34,0,0,1,.89-2.88A3,3,0,0,1,231.3,9a2.83,2.83,0,0,1,2.23.93,3.55,3.55,0,0,1,.82,2.44v.72h-5.16a3,3,0,0,0,.67,2,2.3,2.3,0,0,0,1.78.68,6,6,0,0,0,2.39-.51v1a5.94,5.94,0,0,1-1.14.37A6.33,6.33,0,0,1,231.6,16.77ZM231.29,10a1.85,1.85,0,0,0-1.44.59,2.71,2.71,0,0,0-.63,1.63h3.92a2.49,2.49,0,0,0-.48-1.64A1.68,1.68,0,0,0,231.29,10Z"/><path class="cls-9" d="M242.75,12.88a4.13,4.13,0,0,1-.92,2.86,3.25,3.25,0,0,1-2.55,1,3.38,3.38,0,0,1-1.78-.47,3.12,3.12,0,0,1-1.2-1.35,4.72,4.72,0,0,1-.42-2.06,4.13,4.13,0,0,1,.92-2.85,3.24,3.24,0,0,1,2.54-1,3.17,3.17,0,0,1,2.5,1A4.12,4.12,0,0,1,242.75,12.88Zm-5.71,0a3.56,3.56,0,0,0,.57,2.19,2.28,2.28,0,0,0,3.38,0,3.54,3.54,0,0,0,.58-2.19,3.49,3.49,0,0,0-.58-2.17,2,2,0,0,0-1.71-.74,2,2,0,0,0-1.68.73A3.52,3.52,0,0,0,237,12.88Z"/><path class="cls-9" d="M252.94,11.4h3.4v4.86a10.91,10.91,0,0,1-1.61.38,12.24,12.24,0,0,1-1.9.13,4.61,4.61,0,0,1-3.53-1.35A5.32,5.32,0,0,1,248,11.64a5.72,5.72,0,0,1,.63-2.73,4.24,4.24,0,0,1,1.8-1.79,5.84,5.84,0,0,1,2.75-.62,7.53,7.53,0,0,1,3,.59l-.45,1a6.66,6.66,0,0,0-2.6-.57,3.73,3.73,0,0,0-2.85,1.09,4.22,4.22,0,0,0-1,3,4.31,4.31,0,0,0,1,3.07,3.8,3.8,0,0,0,2.9,1,8.63,8.63,0,0,0,2-.24V12.44h-2.24Z"/><path class="cls-9" d="M263.18,16.63,263,15.57h-.05a3.14,3.14,0,0,1-1.12,1,3.4,3.4,0,0,1-1.39.25,2.5,2.5,0,0,1-1.75-.57,2.09,2.09,0,0,1-.63-1.63q0-2.27,3.63-2.38l1.27,0v-.46a1.9,1.9,0,0,0-.38-1.3,1.56,1.56,0,0,0-1.21-.42,5,5,0,0,0-2.12.57l-.35-.87a5.35,5.35,0,0,1,1.21-.47A5.24,5.24,0,0,1,261.39,9a2.85,2.85,0,0,1,2,.59,2.48,2.48,0,0,1,.65,1.91v5.11Zm-2.56-.8a2.3,2.3,0,0,0,1.67-.58,2.15,2.15,0,0,0,.6-1.63v-.68l-1.13,0a4.13,4.13,0,0,0-2,.42,1.27,1.27,0,0,0-.6,1.16,1.17,1.17,0,0,0,.37.94A1.55,1.55,0,0,0,260.61,15.83Z"/><path class="cls-9" d="M275.91,16.63V11.76a2,2,0,0,0-.38-1.34,1.48,1.48,0,0,0-1.19-.45,1.92,1.92,0,0,0-1.57.61,2.89,2.89,0,0,0-.51,1.87v4.18h-1.13V11.76a2,2,0,0,0-.38-1.34,1.49,1.49,0,0,0-1.2-.45,1.85,1.85,0,0,0-1.56.64,3.45,3.45,0,0,0-.5,2.09v3.93h-1.13V9.14h.92l.18,1h.05a2.24,2.24,0,0,1,.91-.85A2.77,2.77,0,0,1,269.73,9a2.22,2.22,0,0,1,2.3,1.27h.05a2.39,2.39,0,0,1,1-.93A3,3,0,0,1,274.5,9a2.54,2.54,0,0,1,1.9.65,2.93,2.93,0,0,1,.63,2.09v4.89Z"/><path class="cls-9" d="M282.54,16.77a3.44,3.44,0,0,1-2.62-1,3.92,3.92,0,0,1-1-2.81,4.34,4.34,0,0,1,.89-2.88A3,3,0,0,1,282.25,9a2.83,2.83,0,0,1,2.23.93,3.55,3.55,0,0,1,.82,2.44v.72h-5.16a3,3,0,0,0,.67,2,2.3,2.3,0,0,0,1.78.68,6,6,0,0,0,2.39-.51v1a5.94,5.94,0,0,1-1.14.37A6.33,6.33,0,0,1,282.54,16.77ZM282.24,10a1.85,1.85,0,0,0-1.44.59,2.71,2.71,0,0,0-.63,1.63h3.92a2.49,2.49,0,0,0-.48-1.64A1.68,1.68,0,0,0,282.24,10Z"/><path class="cls-9" d="M292.07,14.59a1.88,1.88,0,0,1-.78,1.61,3.66,3.66,0,0,1-2.19.57,4.76,4.76,0,0,1-2.32-.47V15.25a5.58,5.58,0,0,0,1.16.43,4.85,4.85,0,0,0,1.19.16,2.7,2.7,0,0,0,1.37-.28,1,1,0,0,0,.1-1.61,6,6,0,0,0-1.48-.73,8,8,0,0,1-1.49-.68,2,2,0,0,1-.66-.66,1.72,1.72,0,0,1-.22-.88,1.68,1.68,0,0,1,.75-1.45,3.48,3.48,0,0,1,2-.53,6,6,0,0,1,2.37.49l-.4.92a5.43,5.43,0,0,0-2-.46,2.35,2.35,0,0,0-1.22.25.78.78,0,0,0-.41.7.85.85,0,0,0,.15.51,1.52,1.52,0,0,0,.5.4,11.06,11.06,0,0,0,1.31.55,4.9,4.9,0,0,1,1.8,1A1.73,1.73,0,0,1,292.07,14.59Z"/><path class="cls-9" d="M214.14,28.34a5,5,0,0,1-1.34,3.78,5.32,5.32,0,0,1-3.87,1.31h-2.77v-10h3.06a4.49,4.49,0,0,1,4.92,4.9Zm-1.23,0a4,4,0,0,0-1-2.95,3.93,3.93,0,0,0-2.92-1h-1.69v8h1.42a4.3,4.3,0,0,0,3.12-1A4,4,0,0,0,212.91,28.38Z"/><path class="cls-9" d="M219.37,33.57a3.44,3.44,0,0,1-2.62-1,3.92,3.92,0,0,1-1-2.81,4.34,4.34,0,0,1,.89-2.88,3,3,0,0,1,2.4-1.07,2.83,2.83,0,0,1,2.23.93,3.55,3.55,0,0,1,.82,2.44v.72H217a3,3,0,0,0,.67,2,2.3,2.3,0,0,0,1.78.68,6,6,0,0,0,2.39-.51v1a5.94,5.94,0,0,1-1.14.37A6.33,6.33,0,0,1,219.37,33.57Zm-.31-6.82a1.85,1.85,0,0,0-1.44.59A2.71,2.71,0,0,0,217,29h3.92a2.49,2.49,0,0,0-.48-1.64A1.68,1.68,0,0,0,219.06,26.75Z"/><path class="cls-9" d="M225.7,33.43l-2.84-7.49h1.22l1.61,4.44a20.77,20.77,0,0,1,.64,2h.05a15.48,15.48,0,0,1,.48-1.5q.4-1.14,1.79-5h1.22L227,33.43Z"/><path class="cls-9" d="M234.23,33.57a3.44,3.44,0,0,1-2.62-1,3.92,3.92,0,0,1-1-2.81,4.34,4.34,0,0,1,.89-2.88,3,3,0,0,1,2.4-1.07,2.83,2.83,0,0,1,2.23.93,3.55,3.55,0,0,1,.82,2.44v.72h-5.16a3,3,0,0,0,.67,2,2.3,2.3,0,0,0,1.78.68,6,6,0,0,0,2.39-.51v1a5.94,5.94,0,0,1-1.14.37A6.33,6.33,0,0,1,234.23,33.57Zm-.31-6.82a1.85,1.85,0,0,0-1.44.59,2.71,2.71,0,0,0-.63,1.63h3.92a2.49,2.49,0,0,0-.48-1.64A1.68,1.68,0,0,0,233.93,26.75Z"/><path class="cls-9" d="M240.06,33.43h-1.13V22.8h1.13Z"/><path class="cls-9" d="M248.93,29.68a4.13,4.13,0,0,1-.92,2.86,3.25,3.25,0,0,1-2.55,1,3.38,3.38,0,0,1-1.78-.47,3.12,3.12,0,0,1-1.2-1.35,4.72,4.72,0,0,1-.42-2.06,4.13,4.13,0,0,1,.92-2.85,3.24,3.24,0,0,1,2.54-1,3.17,3.17,0,0,1,2.5,1A4.12,4.12,0,0,1,248.93,29.68Zm-5.71,0a3.56,3.56,0,0,0,.57,2.19,2.28,2.28,0,0,0,3.38,0,3.54,3.54,0,0,0,.58-2.19,3.49,3.49,0,0,0-.58-2.17,2,2,0,0,0-1.71-.74,2,2,0,0,0-1.68.73A3.52,3.52,0,0,0,243.22,29.68Z"/><path class="cls-9" d="M254.41,33.57a3.25,3.25,0,0,1-1.34-.27,2.52,2.52,0,0,1-1-.83H252a10.05,10.05,0,0,1,.08,1.24V36.8h-1.13V25.94h.92l.16,1h.05a2.64,2.64,0,0,1,1-.89,3.09,3.09,0,0,1,1.33-.27,2.77,2.77,0,0,1,2.3,1,4.48,4.48,0,0,1,.81,2.86,4.46,4.46,0,0,1-.82,2.87A2.78,2.78,0,0,1,254.41,33.57Zm-.16-6.8a2,2,0,0,0-1.66.64,3.28,3.28,0,0,0-.53,2v.25a3.75,3.75,0,0,0,.53,2.26,2,2,0,0,0,1.69.68,1.76,1.76,0,0,0,1.52-.79,3.73,3.73,0,0,0,.55-2.17,3.59,3.59,0,0,0-.55-2.15A1.81,1.81,0,0,0,254.24,26.77Z"/><path class="cls-9" d="M269,33.43V28.56a2,2,0,0,0-.38-1.34,1.48,1.48,0,0,0-1.19-.45,1.92,1.92,0,0,0-1.57.61,2.89,2.89,0,0,0-.51,1.87v4.18h-1.13V28.56a2,2,0,0,0-.38-1.34,1.49,1.49,0,0,0-1.2-.45,1.85,1.85,0,0,0-1.56.64,3.45,3.45,0,0,0-.5,2.09v3.93H259.5V25.94h.92l.18,1h.05a2.24,2.24,0,0,1,.91-.85,2.77,2.77,0,0,1,1.31-.31,2.22,2.22,0,0,1,2.3,1.27h.05a2.39,2.39,0,0,1,1-.93,3,3,0,0,1,1.45-.34,2.54,2.54,0,0,1,1.9.65,2.93,2.93,0,0,1,.63,2.09v4.89Z"/><path class="cls-9" d="M275.69,33.57a3.44,3.44,0,0,1-2.62-1,3.92,3.92,0,0,1-1-2.81,4.34,4.34,0,0,1,.89-2.88,3,3,0,0,1,2.4-1.07,2.83,2.83,0,0,1,2.23.93,3.55,3.55,0,0,1,.82,2.44v.72h-5.16a3,3,0,0,0,.67,2,2.3,2.3,0,0,0,1.78.68,6,6,0,0,0,2.39-.51v1a5.94,5.94,0,0,1-1.14.37A6.33,6.33,0,0,1,275.69,33.57Zm-.31-6.82a1.85,1.85,0,0,0-1.44.59,2.71,2.71,0,0,0-.63,1.63h3.92a2.49,2.49,0,0,0-.48-1.64A1.68,1.68,0,0,0,275.38,26.75Z"/><path class="cls-9" d="M285.5,33.43V28.59a2,2,0,0,0-.42-1.37,1.7,1.7,0,0,0-1.31-.45,2.16,2.16,0,0,0-1.72.64,3.21,3.21,0,0,0-.55,2.1v3.93h-1.13V25.94h.92l.18,1h.05a2.31,2.31,0,0,1,1-.86,3.17,3.17,0,0,1,1.4-.3,2.85,2.85,0,0,1,2,.65,2.78,2.78,0,0,1,.68,2.09v4.89Z"/><path class="cls-9" d="M291.39,32.63a3.74,3.74,0,0,0,.58,0l.44-.09v.87a2,2,0,0,1-.54.15,4.05,4.05,0,0,1-.65.06q-2.17,0-2.17-2.29V26.82H288v-.55l1.07-.47.48-1.6h.66v1.74h2.17v.88h-2.17v4.41a1.52,1.52,0,0,0,.32,1A1.12,1.12,0,0,0,291.39,32.63Z"/><path class="cls-9" d="M202.3,47.64a2.68,2.68,0,0,1,.48-1.57,5.14,5.14,0,0,1,1.71-1.38,8.15,8.15,0,0,1-.79-1,3.35,3.35,0,0,1-.33-.7,2.32,2.32,0,0,1-.12-.75,2,2,0,0,1,.67-1.6,2.78,2.78,0,0,1,1.87-.57,2.51,2.51,0,0,1,1.74.57,2,2,0,0,1,.64,1.59,2.2,2.2,0,0,1-.46,1.35,5.27,5.27,0,0,1-1.54,1.25l2.78,2.67a3.3,3.3,0,0,0,.61-1,8.51,8.51,0,0,0,.39-1.25h1.15a6.52,6.52,0,0,1-1.4,3l2,2h-1.57L208.89,49a4.85,4.85,0,0,1-3.5,1.35,3.3,3.3,0,0,1-2.28-.72A2.55,2.55,0,0,1,202.3,47.64Zm3.12,1.71a3.77,3.77,0,0,0,2.73-1.05l-3-2.9a6.65,6.65,0,0,0-1.07.77,2.05,2.05,0,0,0-.46.65,2,2,0,0,0-.15.79,1.61,1.61,0,0,0,.53,1.27A2.05,2.05,0,0,0,205.41,49.35Zm-1.06-7.12a1.78,1.78,0,0,0,.25.9,5.48,5.48,0,0,0,.84,1,4.47,4.47,0,0,0,1.23-.95,1.57,1.57,0,0,0,.34-1,1.12,1.12,0,0,0-.35-.86,1.31,1.31,0,0,0-.94-.33,1.46,1.46,0,0,0-1,.33A1.11,1.11,0,0,0,204.35,42.23Z"/><path class="cls-9" d="M224.73,45.14a5,5,0,0,1-1.34,3.78,5.32,5.32,0,0,1-3.87,1.31h-2.77v-10h3.06a4.49,4.49,0,0,1,4.92,4.9Zm-1.23,0a4,4,0,0,0-1-2.95,3.93,3.93,0,0,0-2.92-1h-1.69v8h1.42a4.3,4.3,0,0,0,3.12-1A4,4,0,0,0,223.5,45.18Z"/><path class="cls-9" d="M226.69,40.71a.76.76,0,0,1,.19-.57.71.71,0,0,1,1,0,.74.74,0,0,1,.2.57.75.75,0,0,1-.2.57.7.7,0,0,1-1,0A.77.77,0,0,1,226.69,40.71Zm1.23,9.52h-1.13V42.74h1.13Z"/><path class="cls-9" d="M235.16,48.19a1.88,1.88,0,0,1-.78,1.61,3.66,3.66,0,0,1-2.19.57,4.76,4.76,0,0,1-2.32-.47V48.85a5.58,5.58,0,0,0,1.16.43,4.85,4.85,0,0,0,1.19.16,2.7,2.7,0,0,0,1.37-.28,1,1,0,0,0,.1-1.61,6,6,0,0,0-1.48-.73,8,8,0,0,1-1.49-.68,2,2,0,0,1-.66-.66,1.72,1.72,0,0,1-.22-.88,1.68,1.68,0,0,1,.75-1.45,3.48,3.48,0,0,1,2-.53,6,6,0,0,1,2.37.49l-.4.92a5.43,5.43,0,0,0-2-.46,2.35,2.35,0,0,0-1.22.25.78.78,0,0,0-.41.7.85.85,0,0,0,.15.51,1.52,1.52,0,0,0,.5.4,11.06,11.06,0,0,0,1.31.55,4.9,4.9,0,0,1,1.8,1A1.73,1.73,0,0,1,235.16,48.19Z"/><path class="cls-9" d="M239.43,49.43a3.74,3.74,0,0,0,.58,0l.44-.09v.87a2,2,0,0,1-.54.15,4.05,4.05,0,0,1-.65.06q-2.17,0-2.17-2.29V43.62H236v-.55l1.07-.47.48-1.6h.66v1.74h2.17v.88h-2.17V48a1.52,1.52,0,0,0,.32,1A1.12,1.12,0,0,0,239.43,49.43Z"/><path class="cls-9" d="M245.37,42.6a4.43,4.43,0,0,1,.9.08l-.16,1.05a3.86,3.86,0,0,0-.82-.1,2,2,0,0,0-1.55.74,2.69,2.69,0,0,0-.65,1.84v4H242V42.74h.94l.13,1.39h.05a3.31,3.31,0,0,1,1-1.13A2.26,2.26,0,0,1,245.37,42.6Z"/><path class="cls-9" d="M247.57,40.71a.76.76,0,0,1,.19-.57.71.71,0,0,1,1,0,.74.74,0,0,1,.2.57.75.75,0,0,1-.2.57.7.7,0,0,1-1,0A.77.77,0,0,1,247.57,40.71Zm1.23,9.52h-1.13V42.74h1.13Z"/><path class="cls-9" d="M254.69,42.62a2.79,2.79,0,0,1,2.29,1,4.43,4.43,0,0,1,.82,2.85,4.46,4.46,0,0,1-.82,2.87,2.78,2.78,0,0,1-2.29,1,3.25,3.25,0,0,1-1.34-.27,2.52,2.52,0,0,1-1-.83h-.08l-.24,1h-.81V39.6h1.13v2.58q0,.87-.05,1.56h.05A2.7,2.7,0,0,1,254.69,42.62Zm-.16,1a2,2,0,0,0-1.67.67,3.76,3.76,0,0,0-.51,2.25,3.75,3.75,0,0,0,.53,2.26,2,2,0,0,0,1.69.68,1.75,1.75,0,0,0,1.56-.76,3.92,3.92,0,0,0,.51-2.19,3.76,3.76,0,0,0-.51-2.18A1.82,1.82,0,0,0,254.53,43.57Z"/><path class="cls-9" d="M260.85,42.74V47.6a2,2,0,0,0,.42,1.37,1.7,1.7,0,0,0,1.31.45,2.13,2.13,0,0,0,1.72-.64,3.24,3.24,0,0,0,.54-2.1V42.74H266v7.49H265l-.16-1h-.06a2.26,2.26,0,0,1-1,.85,3.25,3.25,0,0,1-1.41.29,2.86,2.86,0,0,1-2-.65,2.76,2.76,0,0,1-.68-2.08v-4.9Z"/><path class="cls-9" d="M270.8,49.43a3.74,3.74,0,0,0,.58,0l.44-.09v.87a2,2,0,0,1-.54.15,4.05,4.05,0,0,1-.65.06q-2.17,0-2.17-2.29V43.62h-1.07v-.55l1.07-.47.48-1.6h.66v1.74h2.17v.88H269.6V48a1.52,1.52,0,0,0,.32,1A1.12,1.12,0,0,0,270.8,49.43Z"/><path class="cls-9" d="M273.23,40.71a.76.76,0,0,1,.19-.57.71.71,0,0,1,1,0,.74.74,0,0,1,.2.57.75.75,0,0,1-.2.57.7.7,0,0,1-1,0A.77.77,0,0,1,273.23,40.71Zm1.23,9.52h-1.13V42.74h1.13Z"/><path class="cls-9" d="M283.33,46.48a4.13,4.13,0,0,1-.92,2.86,3.25,3.25,0,0,1-2.55,1,3.38,3.38,0,0,1-1.78-.47,3.12,3.12,0,0,1-1.2-1.35,4.72,4.72,0,0,1-.42-2.06,4.13,4.13,0,0,1,.92-2.85,3.24,3.24,0,0,1,2.54-1,3.17,3.17,0,0,1,2.5,1A4.12,4.12,0,0,1,283.33,46.48Zm-5.71,0a3.56,3.56,0,0,0,.57,2.19,2.28,2.28,0,0,0,3.38,0,3.54,3.54,0,0,0,.58-2.19,3.49,3.49,0,0,0-.58-2.17,2,2,0,0,0-1.71-.74,2,2,0,0,0-1.68.73A3.52,3.52,0,0,0,277.62,46.48Z"/><path class="cls-9" d="M290.45,50.23V45.39A2,2,0,0,0,290,44a1.7,1.7,0,0,0-1.31-.45,2.16,2.16,0,0,0-1.72.64,3.21,3.21,0,0,0-.55,2.1v3.93h-1.13V42.74h.92l.18,1h.05a2.31,2.31,0,0,1,1-.86,3.17,3.17,0,0,1,1.4-.3,2.85,2.85,0,0,1,2,.65,2.78,2.78,0,0,1,.68,2.09v4.89Z"/><g class="cls-8"><path class="cls-9" d="M243.62,77.18v4.16h-1.16v-10h2.74a4.31,4.31,0,0,1,2.72.7,2.55,2.55,0,0,1,.88,2.12,2.65,2.65,0,0,1-2,2.68l2.71,4.49h-1.37l-2.42-4.16Zm0-1h1.59a2.75,2.75,0,0,0,1.8-.49,1.82,1.82,0,0,0,.57-1.47,1.67,1.67,0,0,0-.58-1.43,3.17,3.17,0,0,0-1.88-.44h-1.51Z"/><path class="cls-9" d="M254.11,81.47a3.44,3.44,0,0,1-2.62-1,3.92,3.92,0,0,1-1-2.81,4.34,4.34,0,0,1,.89-2.88,3,3,0,0,1,2.4-1.07,2.83,2.83,0,0,1,2.23.93,3.55,3.55,0,0,1,.82,2.44v.72H251.7a3,3,0,0,0,.67,2,2.3,2.3,0,0,0,1.78.68,6,6,0,0,0,2.39-.51v1a5.94,5.94,0,0,1-1.14.37A6.33,6.33,0,0,1,254.11,81.47Zm-.31-6.82a1.85,1.85,0,0,0-1.44.59,2.71,2.71,0,0,0-.63,1.63h3.92a2.49,2.49,0,0,0-.48-1.64A1.68,1.68,0,0,0,253.8,74.65Z"/><path class="cls-9" d="M263.63,79.29a1.88,1.88,0,0,1-.78,1.61,3.66,3.66,0,0,1-2.19.57,4.76,4.76,0,0,1-2.32-.47V79.94a5.58,5.58,0,0,0,1.16.43,4.85,4.85,0,0,0,1.19.16,2.7,2.7,0,0,0,1.37-.28,1,1,0,0,0,.1-1.61,6,6,0,0,0-1.48-.73,8,8,0,0,1-1.49-.68,2,2,0,0,1-.66-.66,1.72,1.72,0,0,1-.22-.88,1.68,1.68,0,0,1,.75-1.45,3.48,3.48,0,0,1,2-.53,6,6,0,0,1,2.37.49l-.4.92a5.43,5.43,0,0,0-2-.46,2.35,2.35,0,0,0-1.22.25.78.78,0,0,0-.41.7.85.85,0,0,0,.15.51,1.52,1.52,0,0,0,.5.4,11.06,11.06,0,0,0,1.31.55,4.9,4.9,0,0,1,1.8,1A1.73,1.73,0,0,1,263.63,79.29Z"/><path class="cls-9" d="M268.64,81.47a3.44,3.44,0,0,1-2.62-1,3.92,3.92,0,0,1-1-2.81,4.34,4.34,0,0,1,.89-2.88,3,3,0,0,1,2.4-1.07,2.83,2.83,0,0,1,2.23.93,3.55,3.55,0,0,1,.82,2.44v.72h-5.16a3,3,0,0,0,.67,2,2.3,2.3,0,0,0,1.78.68,6,6,0,0,0,2.39-.51v1a5.94,5.94,0,0,1-1.14.37A6.33,6.33,0,0,1,268.64,81.47Zm-.31-6.82a1.85,1.85,0,0,0-1.44.59,2.71,2.71,0,0,0-.63,1.63h3.92a2.49,2.49,0,0,0-.48-1.64A1.68,1.68,0,0,0,268.33,74.65Z"/><path class="cls-9" d="M276.75,73.7a4.43,4.43,0,0,1,.9.08l-.16,1.05a3.86,3.86,0,0,0-.82-.1,2,2,0,0,0-1.55.74,2.69,2.69,0,0,0-.65,1.84v4h-1.13V73.84h.94l.13,1.39h.05a3.31,3.31,0,0,1,1-1.13A2.26,2.26,0,0,1,276.75,73.7Z"/><path class="cls-9" d="M280.68,81.33l-2.84-7.49h1.22l1.61,4.44a20.77,20.77,0,0,1,.64,2h.05a15.48,15.48,0,0,1,.48-1.5q.4-1.14,1.79-5h1.22L282,81.33Z"/><path class="cls-9" d="M289.22,81.47a3.44,3.44,0,0,1-2.62-1,3.92,3.92,0,0,1-1-2.81,4.34,4.34,0,0,1,.89-2.88,3,3,0,0,1,2.4-1.07,2.83,2.83,0,0,1,2.23.93,3.55,3.55,0,0,1,.82,2.44v.72h-5.16a3,3,0,0,0,.67,2,2.3,2.3,0,0,0,1.78.68,6,6,0,0,0,2.39-.51v1a5.94,5.94,0,0,1-1.14.37A6.33,6.33,0,0,1,289.22,81.47Zm-.31-6.82a1.85,1.85,0,0,0-1.44.59,2.71,2.71,0,0,0-.63,1.63h3.92a2.49,2.49,0,0,0-.48-1.64A1.68,1.68,0,0,0,288.92,74.65Z"/></g><g class="cls-8"><path class="cls-9" d="M28.91,422.14l-3.39-8.86h-.05q.1,1.05.1,2.5v6.36H24.49v-10h1.75l3.17,8.24h.05l3.19-8.24h1.74v10H33.22v-6.44q0-1.11.1-2.41h-.05l-3.42,8.85Z"/><path class="cls-9" d="M41.56,422.14l-.23-1.07h-.05a3.14,3.14,0,0,1-1.12,1,3.39,3.39,0,0,1-1.39.25,2.5,2.5,0,0,1-1.75-.57,2.1,2.1,0,0,1-.63-1.63q0-2.27,3.63-2.38l1.27,0v-.46a1.9,1.9,0,0,0-.38-1.3,1.56,1.56,0,0,0-1.21-.42,4.94,4.94,0,0,0-2.12.57l-.35-.87a5.36,5.36,0,0,1,1.21-.47,5.25,5.25,0,0,1,1.32-.17,2.85,2.85,0,0,1,2,.59,2.48,2.48,0,0,1,.65,1.91v5.11Zm-2.56-.8a2.3,2.3,0,0,0,1.66-.58,2.15,2.15,0,0,0,.61-1.63v-.68l-1.13,0a4.14,4.14,0,0,0-2,.42,1.27,1.27,0,0,0-.6,1.16A1.17,1.17,0,0,0,38,421,1.55,1.55,0,0,0,39,421.34Z"/><path class="cls-9" d="M48.16,414.52a4.45,4.45,0,0,1,.9.08l-.16,1.05a3.88,3.88,0,0,0-.82-.1,2,2,0,0,0-1.56.74,2.69,2.69,0,0,0-.65,1.84v4H44.74v-7.49h.94l.13,1.39h.05a3.29,3.29,0,0,1,1-1.13A2.26,2.26,0,0,1,48.16,414.52Z"/><path class="cls-9" d="M51.58,418.31a13.09,13.09,0,0,1,.9-1.09l2.42-2.56h1.35l-3,3.19,3.25,4.3H55.08l-2.65-3.54-.85.74v2.8H50.46V411.51h1.12v5.64q0,.38-.05,1.16Z"/><path class="cls-9" d="M61,422.28a3.44,3.44,0,0,1-2.62-1,3.92,3.92,0,0,1-1-2.81,4.34,4.34,0,0,1,.89-2.88,3,3,0,0,1,2.4-1.07,2.83,2.83,0,0,1,2.23.93,3.55,3.55,0,0,1,.82,2.44v.72H58.57a3,3,0,0,0,.67,2,2.31,2.31,0,0,0,1.78.68,6,6,0,0,0,2.39-.51v1a6,6,0,0,1-1.14.37A6.32,6.32,0,0,1,61,422.28Zm-.31-6.82a1.86,1.86,0,0,0-1.44.59,2.71,2.71,0,0,0-.63,1.63h3.92A2.5,2.5,0,0,0,62,416,1.68,1.68,0,0,0,60.66,415.47Z"/><path class="cls-9" d="M68.08,421.34a3.76,3.76,0,0,0,.58,0l.44-.09v.87a2,2,0,0,1-.54.15,4,4,0,0,1-.65.06q-2.17,0-2.17-2.29v-4.46H64.67V415l1.07-.47.48-1.6h.66v1.74h2.17v.88H66.88v4.41a1.51,1.51,0,0,0,.32,1A1.12,1.12,0,0,0,68.08,421.34Z"/><path class="cls-9" d="M70.51,412.62a.75.75,0,0,1,.19-.57.71.71,0,0,1,1,0,.74.74,0,0,1,.2.57.76.76,0,0,1-.2.57.67.67,0,0,1-.47.19.66.66,0,0,1-.48-.19A.77.77,0,0,1,70.51,412.62Zm1.23,9.52H70.6v-7.49h1.13Z"/><path class="cls-9" d="M79.27,422.14V417.3a2,2,0,0,0-.42-1.37,1.7,1.7,0,0,0-1.31-.45,2.15,2.15,0,0,0-1.72.64,3.21,3.21,0,0,0-.55,2.1v3.93H74.14v-7.49h.92l.18,1h.05a2.31,2.31,0,0,1,1-.86,3.17,3.17,0,0,1,1.4-.3,2.85,2.85,0,0,1,2,.65,2.78,2.78,0,0,1,.68,2.09v4.89Z"/><path class="cls-9" d="M88.87,414.65v.72l-1.39.16A2.44,2.44,0,0,1,88,417a2.22,2.22,0,0,1-.75,1.76,3,3,0,0,1-2.06.66,3.46,3.46,0,0,1-.63-.05,1.12,1.12,0,0,0-.72,1,.49.49,0,0,0,.25.46,1.85,1.85,0,0,0,.87.15h1.33a3,3,0,0,1,1.87.51,1.78,1.78,0,0,1,.65,1.49,2.13,2.13,0,0,1-1,1.9,5.35,5.35,0,0,1-2.91.65A4,4,0,0,1,82.6,425a1.77,1.77,0,0,1-.8-1.54,1.73,1.73,0,0,1,.44-1.18,2.22,2.22,0,0,1,1.23-.68,1.19,1.19,0,0,1-.48-.4,1.07,1.07,0,0,1-.19-.64,1.2,1.2,0,0,1,.22-.72,2.3,2.3,0,0,1,.69-.59,2,2,0,0,1-.95-.81,2.4,2.4,0,0,1-.37-1.31,2.43,2.43,0,0,1,.74-1.9,3,3,0,0,1,2.09-.67,3.82,3.82,0,0,1,1.06.14Zm-6,8.75a1,1,0,0,0,.51.92,2.82,2.82,0,0,0,1.47.31,4.11,4.11,0,0,0,2.12-.43,1.31,1.31,0,0,0,.69-1.16.92.92,0,0,0-.38-.84,2.94,2.94,0,0,0-1.42-.24H84.53a1.79,1.79,0,0,0-1.2.37A1.32,1.32,0,0,0,82.89,423.4Zm.62-6.35a1.52,1.52,0,0,0,.44,1.19,1.77,1.77,0,0,0,1.24.4A1.45,1.45,0,0,0,86.85,417a1.49,1.49,0,0,0-1.68-1.69,1.66,1.66,0,0,0-1.23.43A1.73,1.73,0,0,0,83.51,417.05Z"/></g><path class="cls-9" d="M16.24,16.63v-10H17.4v10Z"/><path class="cls-9" d="M25.1,16.63V11.79a2,2,0,0,0-.42-1.37A1.7,1.7,0,0,0,23.38,10a2.15,2.15,0,0,0-1.72.64,3.21,3.21,0,0,0-.55,2.1v3.93H20V9.14h.92l.18,1h.05a2.31,2.31,0,0,1,1-.86,3.17,3.17,0,0,1,1.4-.3,2.85,2.85,0,0,1,2,.65,2.78,2.78,0,0,1,.68,2.09v4.89Z"/><path class="cls-9" d="M31.94,10H30v6.61H28.9V10H27.56V9.51L28.9,9.1V8.68q0-2.76,2.41-2.76a5,5,0,0,1,1.39.24l-.29.91a3.75,3.75,0,0,0-1.12-.21,1.09,1.09,0,0,0-1,.43A2.38,2.38,0,0,0,30,8.66v.49h1.91Z"/><path class="cls-9" d="M36.73,9a4.45,4.45,0,0,1,.9.08l-.16,1.05a3.88,3.88,0,0,0-.82-.1,2,2,0,0,0-1.56.74,2.69,2.69,0,0,0-.65,1.84v4H33.31V9.14h.94l.13,1.39h.05a3.29,3.29,0,0,1,1-1.13A2.26,2.26,0,0,1,36.73,9Z"/><path class="cls-9" d="M43.63,16.63l-.23-1.07h-.05a3.14,3.14,0,0,1-1.12,1,3.39,3.39,0,0,1-1.39.25,2.5,2.5,0,0,1-1.75-.57,2.1,2.1,0,0,1-.63-1.63q0-2.27,3.63-2.38l1.27,0v-.46a1.9,1.9,0,0,0-.38-1.3A1.56,1.56,0,0,0,41.77,10a4.94,4.94,0,0,0-2.12.57l-.35-.87a5.36,5.36,0,0,1,1.21-.47A5.25,5.25,0,0,1,41.84,9a2.85,2.85,0,0,1,2,.59,2.48,2.48,0,0,1,.65,1.91v5.11Zm-2.56-.8a2.3,2.3,0,0,0,1.66-.58,2.15,2.15,0,0,0,.61-1.63v-.68l-1.13,0a4.14,4.14,0,0,0-2,.42,1.27,1.27,0,0,0-.6,1.16,1.17,1.17,0,0,0,.37.94A1.55,1.55,0,0,0,41.07,15.83Z"/><path class="cls-9" d="M51.65,14.59a1.88,1.88,0,0,1-.78,1.61,3.67,3.67,0,0,1-2.19.57,4.75,4.75,0,0,1-2.32-.47V15.25a5.57,5.57,0,0,0,1.16.43,4.86,4.86,0,0,0,1.19.16,2.7,2.7,0,0,0,1.37-.28,1,1,0,0,0,.1-1.61,6,6,0,0,0-1.48-.73,8.06,8.06,0,0,1-1.49-.68,2,2,0,0,1-.66-.66,1.72,1.72,0,0,1-.21-.88,1.68,1.68,0,0,1,.75-1.45,3.47,3.47,0,0,1,2-.53,6,6,0,0,1,2.37.49l-.4.92A5.44,5.44,0,0,0,49,10a2.35,2.35,0,0,0-1.22.25.78.78,0,0,0-.41.7.85.85,0,0,0,.15.51,1.51,1.51,0,0,0,.5.4,10.91,10.91,0,0,0,1.31.55,4.89,4.89,0,0,1,1.8,1A1.72,1.72,0,0,1,51.65,14.59Z"/><path class="cls-9" d="M55.91,15.83a3.76,3.76,0,0,0,.58,0l.44-.09v.87a2,2,0,0,1-.54.15,4,4,0,0,1-.65.06q-2.17,0-2.17-2.29V10H52.5V9.48L53.57,9l.48-1.6h.66V9.14h2.17V10H54.71v4.41a1.51,1.51,0,0,0,.32,1A1.12,1.12,0,0,0,55.91,15.83Z"/><path class="cls-9" d="M61.85,9a4.45,4.45,0,0,1,.9.08l-.16,1.05a3.88,3.88,0,0,0-.82-.1,2,2,0,0,0-1.56.74,2.69,2.69,0,0,0-.65,1.84v4H58.43V9.14h.94l.13,1.39h.05a3.29,3.29,0,0,1,1-1.13A2.26,2.26,0,0,1,61.85,9Z"/><path class="cls-9" d="M65.21,9.14V14a2,2,0,0,0,.42,1.37,1.7,1.7,0,0,0,1.31.45,2.13,2.13,0,0,0,1.72-.64,3.24,3.24,0,0,0,.54-2.1V9.14h1.13v7.49H69.4l-.16-1h-.06a2.26,2.26,0,0,1-1,.85,3.24,3.24,0,0,1-1.41.29,2.87,2.87,0,0,1-2-.65A2.77,2.77,0,0,1,64.07,14V9.14Z"/><path class="cls-9" d="M75.74,16.77a3.2,3.2,0,0,1-2.52-1,4.12,4.12,0,0,1-.89-2.83A4.25,4.25,0,0,1,73.23,10a3.26,3.26,0,0,1,2.58-1,5.15,5.15,0,0,1,1.08.12,3.57,3.57,0,0,1,.85.27l-.35,1a5.36,5.36,0,0,0-.82-.25,3.71,3.71,0,0,0-.79-.1q-2.28,0-2.28,2.91A3.47,3.47,0,0,0,74.06,15a1.94,1.94,0,0,0,1.65.74,5.05,5.05,0,0,0,1.92-.4v1A4.1,4.1,0,0,1,75.74,16.77Z"/><path class="cls-9" d="M81.83,15.83a3.76,3.76,0,0,0,.58,0l.44-.09v.87a2,2,0,0,1-.54.15,4,4,0,0,1-.65.06q-2.17,0-2.17-2.29V10H78.42V9.48L79.49,9,80,7.4h.66V9.14H82.8V10H80.62v4.41a1.51,1.51,0,0,0,.32,1A1.12,1.12,0,0,0,81.83,15.83Z"/><path class="cls-9" d="M85.42,9.14V14a2,2,0,0,0,.42,1.37,1.7,1.7,0,0,0,1.31.45,2.13,2.13,0,0,0,1.72-.64,3.24,3.24,0,0,0,.54-2.1V9.14h1.13v7.49H89.6l-.16-1h-.06a2.26,2.26,0,0,1-1,.85,3.24,3.24,0,0,1-1.41.29,2.87,2.87,0,0,1-2-.65A2.77,2.77,0,0,1,84.27,14V9.14Z"/><path class="cls-9" d="M96.36,9a4.45,4.45,0,0,1,.9.08l-.16,1.05a3.88,3.88,0,0,0-.82-.1,2,2,0,0,0-1.56.74,2.69,2.69,0,0,0-.65,1.84v4H92.94V9.14h.94L94,10.53h.05a3.29,3.29,0,0,1,1-1.13A2.26,2.26,0,0,1,96.36,9Z"/><path class="cls-9" d="M101.82,16.77a3.44,3.44,0,0,1-2.62-1,3.92,3.92,0,0,1-1-2.81,4.34,4.34,0,0,1,.89-2.88A3,3,0,0,1,101.53,9a2.83,2.83,0,0,1,2.23.93,3.55,3.55,0,0,1,.82,2.44v.72H99.42a3,3,0,0,0,.67,2,2.31,2.31,0,0,0,1.78.68,6,6,0,0,0,2.39-.51v1a6,6,0,0,1-1.14.37A6.32,6.32,0,0,1,101.82,16.77ZM101.51,10a1.86,1.86,0,0,0-1.44.59,2.71,2.71,0,0,0-.63,1.63h3.92a2.5,2.5,0,0,0-.48-1.64A1.68,1.68,0,0,0,101.51,10Z"/><path class="cls-9" d="M20.68,33.43l-.23-1.07H20.4a3.14,3.14,0,0,1-1.12,1,3.39,3.39,0,0,1-1.39.25A2.5,2.5,0,0,1,16.14,33a2.1,2.1,0,0,1-.63-1.63q0-2.27,3.63-2.38l1.27,0v-.46a1.9,1.9,0,0,0-.38-1.3,1.56,1.56,0,0,0-1.21-.42,4.94,4.94,0,0,0-2.12.57l-.35-.87A5.36,5.36,0,0,1,17.56,26a5.25,5.25,0,0,1,1.32-.17,2.85,2.85,0,0,1,2,.59,2.48,2.48,0,0,1,.65,1.91v5.11Zm-2.56-.8a2.3,2.3,0,0,0,1.66-.58,2.15,2.15,0,0,0,.61-1.63v-.68l-1.13,0a4.14,4.14,0,0,0-2,.42,1.27,1.27,0,0,0-.6,1.16,1.17,1.17,0,0,0,.37.94A1.55,1.55,0,0,0,18.12,32.63Z"/><path class="cls-9" d="M29,33.43V28.59a2,2,0,0,0-.42-1.37,1.7,1.7,0,0,0-1.31-.45,2.15,2.15,0,0,0-1.72.64A3.21,3.21,0,0,0,25,29.5v3.93H23.86V25.94h.92L25,27H25a2.31,2.31,0,0,1,1-.86,3.17,3.17,0,0,1,1.4-.3,2.85,2.85,0,0,1,2,.65,2.78,2.78,0,0,1,.68,2.09v4.89Z"/><path class="cls-9" d="M37.55,32.43h-.06a2.67,2.67,0,0,1-2.35,1.14,2.78,2.78,0,0,1-2.29-1A4.43,4.43,0,0,1,32,29.71a4.5,4.5,0,0,1,.82-2.88,2.76,2.76,0,0,1,2.28-1,2.73,2.73,0,0,1,2.34,1.11h.09l0-.54,0-.53v-3h1.13V33.43H37.7Zm-2.27.19A2.07,2.07,0,0,0,37,32a3.2,3.2,0,0,0,.52-2v-.24A3.76,3.76,0,0,0,37,27.44a2,2,0,0,0-1.69-.68,1.74,1.74,0,0,0-1.53.78,3.86,3.86,0,0,0-.53,2.19,3.69,3.69,0,0,0,.53,2.17A1.78,1.78,0,0,0,35.28,32.62Z"/><path class="cls-9" d="M50.48,30.77a2.45,2.45,0,0,1-1,2.06,4.15,4.15,0,0,1-2.6.74,6.5,6.5,0,0,1-2.73-.46V32a7.24,7.24,0,0,0,1.34.41,7,7,0,0,0,1.44.15,2.91,2.91,0,0,0,1.75-.44,1.45,1.45,0,0,0,.59-1.23,1.57,1.57,0,0,0-.21-.85,1.92,1.92,0,0,0-.7-.61,9.8,9.8,0,0,0-1.49-.64,4.75,4.75,0,0,1-2-1.18,2.61,2.61,0,0,1-.6-1.78A2.22,2.22,0,0,1,45.19,24a3.6,3.6,0,0,1,2.3-.68,6.78,6.78,0,0,1,2.74.55l-.36,1a6.19,6.19,0,0,0-2.41-.52,2.33,2.33,0,0,0-1.44.4,1.31,1.31,0,0,0-.52,1.1,1.69,1.69,0,0,0,.19.85,1.79,1.79,0,0,0,.65.61,8,8,0,0,0,1.39.61,5.5,5.5,0,0,1,2.16,1.2A2.37,2.37,0,0,1,50.48,30.77Z"/><path class="cls-9" d="M58.82,29.68a4.13,4.13,0,0,1-.92,2.86,3.25,3.25,0,0,1-2.55,1,3.38,3.38,0,0,1-1.78-.47,3.11,3.11,0,0,1-1.2-1.35,4.71,4.71,0,0,1-.42-2.06,4.12,4.12,0,0,1,.92-2.85,3.24,3.24,0,0,1,2.54-1,3.17,3.17,0,0,1,2.5,1A4.11,4.11,0,0,1,58.82,29.68Zm-5.71,0a3.56,3.56,0,0,0,.57,2.19,2.28,2.28,0,0,0,3.38,0,3.53,3.53,0,0,0,.58-2.19,3.48,3.48,0,0,0-.58-2.17,2,2,0,0,0-1.71-.74,2,2,0,0,0-1.68.73A3.52,3.52,0,0,0,53.11,29.68Z"/><path class="cls-9" d="M64.18,26.82H62.28v6.61H61.14V26.82H59.8v-.51l1.34-.41v-.42q0-2.76,2.41-2.76a5,5,0,0,1,1.39.24l-.29.91a3.75,3.75,0,0,0-1.12-.21,1.09,1.09,0,0,0-1,.43,2.38,2.38,0,0,0-.31,1.37v.49h1.91Z"/><path class="cls-9" d="M68,32.63a3.76,3.76,0,0,0,.58,0L69,32.5v.87a2,2,0,0,1-.54.15,4,4,0,0,1-.65.06q-2.17,0-2.17-2.29V26.82H64.56v-.55l1.07-.47.48-1.6h.66v1.74h2.17v.88H66.77v4.41a1.51,1.51,0,0,0,.32,1A1.12,1.12,0,0,0,68,32.63Z"/><path class="cls-9" d="M76.61,33.43,75.24,29q-.13-.4-.49-1.83H74.7q-.27,1.2-.48,1.85L72.8,33.43H71.49l-2-7.49h1.19l1.1,4.3a17.61,17.61,0,0,1,.43,2h.05q.07-.39.24-1t.29-1l1.37-4.3h1.23l1.34,4.3a14.67,14.67,0,0,1,.52,2h.05a7.21,7.21,0,0,1,.15-.76q.12-.51,1.43-5.52H80L78,33.43Z"/><path class="cls-9" d="M86,33.43l-.23-1.07h-.05a3.14,3.14,0,0,1-1.12,1,3.39,3.39,0,0,1-1.39.25A2.5,2.5,0,0,1,81.45,33a2.1,2.1,0,0,1-.63-1.63q0-2.27,3.63-2.38l1.27,0v-.46a1.9,1.9,0,0,0-.38-1.3,1.56,1.56,0,0,0-1.21-.42,4.94,4.94,0,0,0-2.12.57l-.35-.87A5.36,5.36,0,0,1,82.88,26a5.25,5.25,0,0,1,1.32-.17,2.85,2.85,0,0,1,2,.59,2.48,2.48,0,0,1,.65,1.91v5.11Zm-2.56-.8a2.3,2.3,0,0,0,1.66-.58,2.15,2.15,0,0,0,.61-1.63v-.68l-1.13,0a4.14,4.14,0,0,0-2,.42,1.27,1.27,0,0,0-.6,1.16,1.17,1.17,0,0,0,.37.94A1.55,1.55,0,0,0,83.43,32.63Z"/><path class="cls-9" d="M92.59,25.8a4.45,4.45,0,0,1,.9.08l-.16,1.05a3.88,3.88,0,0,0-.82-.1,2,2,0,0,0-1.56.74,2.69,2.69,0,0,0-.65,1.84v4H89.17V25.94h.94l.13,1.39h.05a3.29,3.29,0,0,1,1-1.13A2.26,2.26,0,0,1,92.59,25.8Z"/><path class="cls-9" d="M98,33.57a3.44,3.44,0,0,1-2.62-1,3.92,3.92,0,0,1-1-2.81,4.34,4.34,0,0,1,.89-2.88,3,3,0,0,1,2.4-1.07,2.83,2.83,0,0,1,2.23.93,3.55,3.55,0,0,1,.82,2.44v.72H95.64a3,3,0,0,0,.67,2,2.31,2.31,0,0,0,1.78.68,6,6,0,0,0,2.39-.51v1a6,6,0,0,1-1.14.37A6.32,6.32,0,0,1,98,33.57Zm-.31-6.82a1.86,1.86,0,0,0-1.44.59A2.71,2.71,0,0,0,95.67,29h3.92a2.5,2.5,0,0,0-.48-1.64A1.68,1.68,0,0,0,97.74,26.75Z"/><path class="cls-9" d="M15.43,46.4A10.61,10.61,0,0,1,16,43a8.42,8.42,0,0,1,1.53-2.77h1.11a9.66,9.66,0,0,0-1.48,2.9,10.79,10.79,0,0,0-.5,3.25,10.35,10.35,0,0,0,.51,3.21,9.93,9.93,0,0,0,1.46,2.86H17.49A8.05,8.05,0,0,1,16,49.73,10.3,10.3,0,0,1,15.43,46.4Z"/><path class="cls-9" d="M20.12,40.71a.75.75,0,0,1,.19-.57.71.71,0,0,1,1,0,.74.74,0,0,1,.2.57.76.76,0,0,1-.2.57.67.67,0,0,1-.47.19.66.66,0,0,1-.48-.19A.77.77,0,0,1,20.12,40.71Zm1.23,9.52H20.21V42.74h1.13Z"/><path class="cls-9" d="M28.88,50.23V45.39A2,2,0,0,0,28.46,44a1.7,1.7,0,0,0-1.31-.45,2.15,2.15,0,0,0-1.72.64,3.21,3.21,0,0,0-.55,2.1v3.93H23.75V42.74h.92l.18,1h.05a2.31,2.31,0,0,1,1-.86,3.17,3.17,0,0,1,1.4-.3,2.85,2.85,0,0,1,2,.65A2.78,2.78,0,0,1,30,45.35v4.89Z"/><path class="cls-9" d="M35.34,50.37a3.2,3.2,0,0,1-2.52-1,4.12,4.12,0,0,1-.89-2.83,4.25,4.25,0,0,1,.91-2.91,3.26,3.26,0,0,1,2.58-1,5.15,5.15,0,0,1,1.08.12,3.57,3.57,0,0,1,.85.27L37,44a5.36,5.36,0,0,0-.82-.25,3.71,3.71,0,0,0-.79-.1q-2.28,0-2.28,2.91a3.47,3.47,0,0,0,.56,2.12,1.94,1.94,0,0,0,1.65.74,5.05,5.05,0,0,0,1.92-.4v1A4.1,4.1,0,0,1,35.34,50.37Z"/><path class="cls-9" d="M40.15,50.23H39V39.6h1.13Z"/><path class="cls-9" d="M42.39,49.51a1,1,0,0,1,.21-.69.76.76,0,0,1,.6-.24.8.8,0,0,1,.62.24,1,1,0,0,1,.22.69,1,1,0,0,1-.23.68.9.9,0,0,1-1.19,0A.93.93,0,0,1,42.39,49.51Z"/><path class="cls-9" d="M54.37,41.13a3.27,3.27,0,0,0-2.6,1.1,4.43,4.43,0,0,0-1,3,4.52,4.52,0,0,0,.92,3,3.27,3.27,0,0,0,2.62,1.07A8.94,8.94,0,0,0,56.74,49v1a7.35,7.35,0,0,1-2.56.39A4.34,4.34,0,0,1,50.77,49a5.52,5.52,0,0,1-1.2-3.81,6,6,0,0,1,.58-2.71,4.15,4.15,0,0,1,1.67-1.79,5.06,5.06,0,0,1,2.57-.63,6.2,6.2,0,0,1,2.75.57l-.49,1A5.3,5.3,0,0,0,54.37,41.13Z"/><path class="cls-9" d="M66.9,45.14a5,5,0,0,1-1.34,3.78,5.32,5.32,0,0,1-3.87,1.31H58.92v-10H62a4.49,4.49,0,0,1,4.92,4.9Zm-1.23,0a4,4,0,0,0-1-2.95,3.93,3.93,0,0,0-2.92-1H60.08v8H61.5a4.3,4.3,0,0,0,3.12-1A4,4,0,0,0,65.67,45.18Z"/><path class="cls-9" d="M76.93,50.23H75.61l-5.46-8.39h-.05q.11,1.48.11,2.71v5.68H69.13v-10h1.31l5.45,8.35h.05q0-.18-.06-1.19t0-1.43V40.24h1.09Z"/><path class="cls-9" d="M80.7,48.61l.1.16q-.18.68-.51,1.59T79.59,52h-.85q.18-.71.41-1.76t.31-1.67Z"/><path class="cls-9" d="M94.73,45.14a5,5,0,0,1-1.34,3.78,5.32,5.32,0,0,1-3.87,1.31H86.75v-10h3.06a4.49,4.49,0,0,1,4.92,4.9Zm-1.23,0a4,4,0,0,0-1-2.95,3.93,3.93,0,0,0-2.92-1H87.91v8h1.42a4.3,4.3,0,0,0,3.12-1A4,4,0,0,0,93.5,45.18Z"/><path class="cls-9" d="M101.38,50.23,98,41.37h-.05q.1,1.05.1,2.5v6.36H97v-10H98.7l3.17,8.24h.05l3.19-8.24h1.74v10h-1.16V43.79q0-1.11.1-2.41h-.05l-3.42,8.85Z"/><path class="cls-9" d="M110.76,46.08v4.16h-1.16v-10h2.74a4.31,4.31,0,0,1,2.72.7,2.55,2.55,0,0,1,.88,2.12,2.65,2.65,0,0,1-2,2.68l2.71,4.49h-1.37l-2.42-4.16Zm0-1h1.59a2.75,2.75,0,0,0,1.8-.49,1.82,1.82,0,0,0,.57-1.47,1.67,1.67,0,0,0-.58-1.43,3.16,3.16,0,0,0-1.88-.44h-1.51Z"/><path class="cls-9" d="M120.46,46.4a10.29,10.29,0,0,1-.53,3.35,8,8,0,0,1-1.53,2.7H117.3a9.88,9.88,0,0,0,1.46-2.85,10.41,10.41,0,0,0,.51-3.21,10.76,10.76,0,0,0-.5-3.25,9.63,9.63,0,0,0-1.48-2.9h1.11A8.4,8.4,0,0,1,119.93,43,10.65,10.65,0,0,1,120.46,46.4Z"/><g class="cls-8"><path class="cls-9" d="M209.68,417.05a5,5,0,0,1-1.34,3.78,5.32,5.32,0,0,1-3.87,1.31h-2.77v-10h3.06a4.49,4.49,0,0,1,4.92,4.9Zm-1.23,0a4,4,0,0,0-1-2.95,3.93,3.93,0,0,0-2.92-1h-1.69v8h1.42a4.3,4.3,0,0,0,3.12-1A4,4,0,0,0,208.45,417.09Z"/><path class="cls-9" d="M214.91,422.28a3.44,3.44,0,0,1-2.62-1,3.92,3.92,0,0,1-1-2.81,4.34,4.34,0,0,1,.89-2.88,3,3,0,0,1,2.4-1.07,2.83,2.83,0,0,1,2.23.93,3.55,3.55,0,0,1,.82,2.44v.72H212.5a3,3,0,0,0,.67,2,2.3,2.3,0,0,0,1.78.68,6,6,0,0,0,2.39-.51v1a5.94,5.94,0,0,1-1.14.37A6.33,6.33,0,0,1,214.91,422.28Zm-.31-6.82a1.85,1.85,0,0,0-1.44.59,2.71,2.71,0,0,0-.63,1.63h3.92A2.49,2.49,0,0,0,216,416,1.68,1.68,0,0,0,214.6,415.47Z"/><path class="cls-9" d="M221.24,422.15l-2.84-7.49h1.22l1.61,4.44a20.77,20.77,0,0,1,.64,2h.05a15.48,15.48,0,0,1,.48-1.5q.4-1.14,1.79-5h1.22l-2.84,7.49Z"/><path class="cls-9" d="M229.77,422.28a3.44,3.44,0,0,1-2.62-1,3.92,3.92,0,0,1-1-2.81,4.34,4.34,0,0,1,.89-2.88,3,3,0,0,1,2.4-1.07,2.83,2.83,0,0,1,2.23.93,3.55,3.55,0,0,1,.82,2.44v.72h-5.16a3,3,0,0,0,.67,2,2.3,2.3,0,0,0,1.78.68,6,6,0,0,0,2.39-.51v1a5.94,5.94,0,0,1-1.14.37A6.33,6.33,0,0,1,229.77,422.28Zm-.31-6.82a1.85,1.85,0,0,0-1.44.59,2.71,2.71,0,0,0-.63,1.63h3.92a2.49,2.49,0,0,0-.48-1.64A1.68,1.68,0,0,0,229.47,415.47Z"/><path class="cls-9" d="M235.6,422.15h-1.13V411.51h1.13Z"/><path class="cls-9" d="M244.47,418.39a4.13,4.13,0,0,1-.92,2.86,3.25,3.25,0,0,1-2.55,1,3.38,3.38,0,0,1-1.78-.47,3.12,3.12,0,0,1-1.2-1.35,4.72,4.72,0,0,1-.42-2.06,4.13,4.13,0,0,1,.92-2.85,3.24,3.24,0,0,1,2.54-1,3.17,3.17,0,0,1,2.5,1A4.12,4.12,0,0,1,244.47,418.39Zm-5.71,0a3.56,3.56,0,0,0,.57,2.19,2.28,2.28,0,0,0,3.38,0,3.54,3.54,0,0,0,.58-2.19,3.49,3.49,0,0,0-.58-2.17,2,2,0,0,0-1.71-.74,2,2,0,0,0-1.68.73A3.52,3.52,0,0,0,238.76,418.39Z"/><path class="cls-9" d="M249.95,422.28a3.25,3.25,0,0,1-1.34-.27,2.52,2.52,0,0,1-1-.83h-.08a10.05,10.05,0,0,1,.08,1.24v3.08h-1.13V414.65h.92l.16,1h.05a2.64,2.64,0,0,1,1-.89,3.09,3.09,0,0,1,1.33-.27,2.77,2.77,0,0,1,2.3,1,5.43,5.43,0,0,1,0,5.73A2.78,2.78,0,0,1,249.95,422.28Zm-.16-6.8a2,2,0,0,0-1.66.64,3.28,3.28,0,0,0-.53,2v.25a3.75,3.75,0,0,0,.53,2.26,2,2,0,0,0,1.69.68,1.76,1.76,0,0,0,1.52-.79,3.73,3.73,0,0,0,.55-2.17,3.59,3.59,0,0,0-.55-2.15A1.81,1.81,0,0,0,249.78,415.48Z"/><path class="cls-9" d="M264.59,422.15v-4.87a2,2,0,0,0-.38-1.34,1.48,1.48,0,0,0-1.19-.45,1.92,1.92,0,0,0-1.57.61,2.89,2.89,0,0,0-.51,1.87v4.18h-1.13v-4.87a2,2,0,0,0-.38-1.34,1.49,1.49,0,0,0-1.2-.45,1.85,1.85,0,0,0-1.56.64,3.45,3.45,0,0,0-.5,2.09v3.93H255v-7.49H256l.18,1h.05a2.24,2.24,0,0,1,.91-.85,2.77,2.77,0,0,1,1.31-.31,2.22,2.22,0,0,1,2.3,1.27h.05a2.39,2.39,0,0,1,1-.93,3,3,0,0,1,1.45-.34,2.54,2.54,0,0,1,1.9.65,2.93,2.93,0,0,1,.63,2.09v4.89Z"/><path class="cls-9" d="M271.23,422.28a3.44,3.44,0,0,1-2.62-1,3.92,3.92,0,0,1-1-2.81,4.34,4.34,0,0,1,.89-2.88,3,3,0,0,1,2.4-1.07,2.83,2.83,0,0,1,2.23.93,3.55,3.55,0,0,1,.82,2.44v.72h-5.16a3,3,0,0,0,.67,2,2.3,2.3,0,0,0,1.78.68,6,6,0,0,0,2.39-.51v1a5.94,5.94,0,0,1-1.14.37A6.33,6.33,0,0,1,271.23,422.28Zm-.31-6.82a1.85,1.85,0,0,0-1.44.59,2.71,2.71,0,0,0-.63,1.63h3.92a2.49,2.49,0,0,0-.48-1.64A1.68,1.68,0,0,0,270.92,415.47Z"/><path class="cls-9" d="M281,422.15V417.3a2,2,0,0,0-.42-1.37,1.7,1.7,0,0,0-1.31-.45,2.16,2.16,0,0,0-1.72.64,3.21,3.21,0,0,0-.55,2.1v3.93h-1.13v-7.49h.92l.18,1h.05a2.31,2.31,0,0,1,1-.86,3.17,3.17,0,0,1,1.4-.3,2.85,2.85,0,0,1,2,.65,2.78,2.78,0,0,1,.68,2.09v4.89Z"/><path class="cls-9" d="M286.93,421.35a3.74,3.74,0,0,0,.58,0l.44-.09v.87a2,2,0,0,1-.54.15,4.05,4.05,0,0,1-.65.06q-2.17,0-2.17-2.29v-4.46h-1.07V415l1.07-.47.48-1.6h.66v1.74h2.17v.88h-2.17v4.41a1.52,1.52,0,0,0,.32,1A1.12,1.12,0,0,0,286.93,421.35Z"/></g><g class="cls-10"><path class="cls-11" d="M141,73.92A152.42,152.42,0,1,0,293.46,226.34,152.43,152.43,0,0,0,141,73.92Zm0,213.39a61,61,0,1,1,61-61A61,61,0,0,1,141,287.31Z"/></g><g class="cls-12"><path class="cls-13" d="M141,85.23A141.11,141.11,0,1,0,282.15,226.34,141.12,141.12,0,0,0,141,85.23Zm0,197.56a56.45,56.45,0,1,1,56.45-56.45A56.45,56.45,0,0,1,141,282.78Z"/></g><g class="cls-14"><path class="cls-15" d="M141,85.23A141.11,141.11,0,1,0,282.15,226.34,141.12,141.12,0,0,0,141,85.23Zm0,197.56a56.45,56.45,0,1,1,56.45-56.45A56.45,56.45,0,0,1,141,282.78Z"/></g><g class="cls-16"><path class="cls-17" d="M141,79.92A146.42,146.42,0,1,0,287.46,226.34,146.47,146.47,0,0,0,141,79.92Zm0,205a58.61,58.61,0,1,1,58.61-58.61A58.63,58.63,0,0,1,141,284.95Z"/></g><g class="cls-18"><path class="cls-19" d="M141,67.52A158.81,158.81,0,1,0,299.85,226.34,158.81,158.81,0,0,0,141,67.52Zm0,222.34a63.53,63.53,0,1,1,63.53-63.53A63.5,63.5,0,0,1,141,289.86Z"/></g><g class="cls-20"><path class="cls-21" d="M141,68.43A157.91,157.91,0,1,0,298.95,226.34,157.91,157.91,0,0,0,141,68.43Zm0,221.07a63.16,63.16,0,1,1,63.16-63.16A63.22,63.22,0,0,1,141,289.5Z"/></g><path class="cls-9" d="M133.68,335.14v.75c0,.37-.14.51-.51.51h-6.1l-.35,3.6h2.85c3.17,0,4.64,2,4.64,4.35a4.48,4.48,0,0,1-4.82,4.54c-2.89,0-4.48-1.12-5.21-3.15-.14-.37-.06-.53.29-.67l.85-.29c.35-.14.51-.06.65.31.49,1.32,1.5,2,3.4,2a2.64,2.64,0,0,0,2.85-2.77,2.5,2.5,0,0,0-2.75-2.58h-4.23c-.45,0-.59-.2-.55-.63l.59-5.74c.06-.59.27-.77.87-.77h7C133.54,334.63,133.68,334.77,133.68,335.14Z"/><path class="cls-9" d="M138.85,334.32c2.06,0,3.19,1.12,3.19,2.91v1.44c0,1.77-1.12,2.87-3.19,2.87s-3.19-1.1-3.19-2.87v-1.44C135.66,335.44,136.78,334.32,138.85,334.32Zm0,1.42c-1.12,0-1.71.57-1.71,1.57v1.26c0,1,.59,1.57,1.71,1.57a1.49,1.49,0,0,0,1.69-1.57v-1.26A1.48,1.48,0,0,0,138.85,335.73Zm9.89-.61-9.56,13c-.29.41-.41.45-1,.45h-.59c-.39,0-.47-.26-.28-.53l9.58-13c.28-.39.39-.43.94-.43h.69C148.86,334.63,148.94,334.87,148.74,335.13Zm-1.57,6.57c2.08,0,3.19,1.12,3.19,2.91V346c0,1.79-1.1,2.89-3.19,2.89S144,347.81,144,346V344.6C144,342.82,145.1,341.69,147.17,341.69Zm0,1.42a1.48,1.48,0,0,0-1.69,1.57v1.24a1.48,1.48,0,0,0,1.69,1.57c1.12,0,1.71-.57,1.71-1.57v-1.24C148.88,343.68,148.29,343.11,147.17,343.11Z"/><path class="cls-9" d="M248.12,196.65v.75c0,.37-.14.51-.51.51h-6.1l-.35,3.6H244c3.17,0,4.64,2,4.64,4.35a4.48,4.48,0,0,1-4.82,4.54c-2.89,0-4.48-1.12-5.21-3.15-.14-.37-.06-.53.29-.67l.85-.29c.35-.14.51-.06.65.31.49,1.32,1.5,2,3.4,2a2.64,2.64,0,0,0,2.85-2.77,2.5,2.5,0,0,0-2.75-2.58h-4.23c-.45,0-.59-.2-.55-.63l.59-5.74c.06-.59.28-.77.87-.77h7C248,196.14,248.12,196.28,248.12,196.65Z"/><path class="cls-9" d="M253.29,195.83c2.06,0,3.19,1.12,3.19,2.91v1.44c0,1.77-1.12,2.87-3.19,2.87s-3.19-1.1-3.19-2.87v-1.44C250.11,196.95,251.23,195.83,253.29,195.83Zm0,1.42c-1.12,0-1.71.57-1.71,1.57v1.26c0,1,.59,1.57,1.71,1.57a1.49,1.49,0,0,0,1.69-1.57v-1.26A1.48,1.48,0,0,0,253.29,197.24Zm9.89-.61-9.56,13c-.29.41-.41.45-1,.45H252c-.39,0-.47-.26-.28-.53l9.58-13c.28-.39.39-.43.94-.43H263C263.31,196.14,263.38,196.38,263.19,196.63Zm-1.57,6.57c2.08,0,3.19,1.12,3.19,2.91v1.42c0,1.79-1.1,2.89-3.19,2.89s-3.19-1.1-3.19-2.89v-1.42C258.43,204.32,259.55,203.2,261.61,203.2Zm0,1.42a1.48,1.48,0,0,0-1.69,1.57v1.24a1.48,1.48,0,0,0,1.69,1.57c1.12,0,1.71-.57,1.71-1.57v-1.24C263.33,205.19,262.74,204.62,261.61,204.62Z"/><path class="cls-9" d="M76,118.09c4.31,0,6.93,3,6.93,6.46,0,4.45-2.65,6-7.93,8.08-1.74.68-3.8,1.39-3.8,3.33v.86H81.89c.59,0,.77.21.77.77v1.12c0,.56-.18.77-.77.77H69c-.59,0-.8-.21-.8-.8v-2.15c0-4,3-5.31,6-6.49s5.75-2.09,5.75-5.37a3.88,3.88,0,0,0-4-3.92A4.8,4.8,0,0,0,71,123.87c-.24.56-.44.68-1,.5l-1.27-.47c-.53-.18-.68-.44-.47-1C69.56,119.92,71.86,118.09,76,118.09Z"/><path class="cls-9" d="M93.6,118.09c4.84,0,7.64,2.71,7.64,7v7.85c0,4.28-2.8,7-7.64,7s-7.67-2.71-7.67-7v-7.85C85.93,120.8,88.74,118.09,93.6,118.09Zm0,2.65c-3.07,0-4.81,1.59-4.81,4.34v7.85c0,2.71,1.74,4.34,4.81,4.34s4.78-1.62,4.78-4.34v-7.85C98.38,122.34,96.64,120.75,93.6,120.75Z"/><path class="cls-9" d="M108.65,118.06c3.1,0,4.78,1.68,4.78,4.37v2.15c0,2.66-1.68,4.31-4.78,4.31s-4.78-1.65-4.78-4.31v-2.15C103.87,119.74,105.55,118.06,108.65,118.06Zm0,2.12c-1.68,0-2.57.86-2.57,2.36v1.89c0,1.48.88,2.36,2.57,2.36a2.23,2.23,0,0,0,2.54-2.36v-1.89C111.19,121,110.3,120.19,108.65,120.19Zm14.84-.91L109.15,138.8c-.44.62-.62.68-1.53.68h-.88c-.59,0-.71-.38-.41-.8l14.36-19.5c.41-.59.59-.65,1.42-.65h1C123.66,118.53,123.78,118.89,123.49,119.27Zm-2.36,9.85c3.13,0,4.78,1.68,4.78,4.37v2.12c0,2.68-1.65,4.34-4.78,4.34s-4.78-1.65-4.78-4.34v-2.12C116.35,130.8,118,129.12,121.13,129.12Zm0,2.12c-1.65,0-2.54.86-2.54,2.36v1.86c0,1.5.88,2.36,2.54,2.36s2.57-.86,2.57-2.36v-1.86C123.69,132.1,122.81,131.25,121.13,131.25Z"/><path class="cls-9" d="M200.74,135.05v19.41c0,.56-.18.77-.77.77h-1.3c-.59,0-.77-.21-.77-.77V137.74l-5.28,2.92c-.59.35-.88.24-1.15-.27l-.59-1c-.27-.5-.15-.77.35-1.06l6.55-3.69a1.64,1.64,0,0,1,1.09-.32H200C200.57,134.29,200.74,134.49,200.74,135.05Z"/><path class="cls-9" d="M218.62,135.05v1.12c0,.56-.21.77-.77.77h-9.14l-.53,5.4h4.28c4.75,0,7,3,7,6.52s-2.62,6.81-7.23,6.81c-4.34,0-6.72-1.68-7.82-4.72-.21-.56-.09-.8.44-1l1.27-.44c.53-.21.77-.09,1,.47.74,2,2.24,3,5.1,3a4,4,0,0,0,4.28-4.16c0-2.27-1.53-3.86-4.13-3.86H206c-.68,0-.88-.3-.83-.94l.89-8.61c.09-.88.41-1.15,1.3-1.15h10.53C218.41,134.29,218.62,134.49,218.62,135.05Z"/><path class="cls-9" d="M226.38,133.82c3.1,0,4.78,1.68,4.78,4.37v2.15c0,2.66-1.68,4.31-4.78,4.31s-4.78-1.65-4.78-4.31v-2.15C221.6,135.5,223.28,133.82,226.38,133.82Zm0,2.12c-1.68,0-2.57.86-2.57,2.36v1.89c0,1.48.88,2.36,2.57,2.36a2.23,2.23,0,0,0,2.54-2.36V138.3C228.92,136.79,228,135.94,226.38,135.94Zm14.84-.91-14.33,19.53c-.44.62-.62.68-1.53.68h-.88c-.59,0-.71-.38-.41-.8l14.36-19.5c.41-.59.59-.65,1.42-.65h1C241.39,134.29,241.51,134.64,241.21,135Zm-2.36,9.85c3.13,0,4.78,1.68,4.78,4.37v2.12c0,2.68-1.65,4.34-4.78,4.34s-4.78-1.65-4.78-4.34v-2.12C234.08,146.56,235.76,144.88,238.86,144.88Zm0,2.12c-1.65,0-2.54.86-2.54,2.36v1.86c0,1.5.88,2.36,2.54,2.36s2.57-.86,2.57-2.36v-1.86C241.42,147.85,240.54,147,238.86,147Z"/><path class="cls-9" d="M38.49,274.46a5,5,0,0,1,3.16,5c0,3.78-2.36,6.31-7.37,6.31-4.51,0-6.72-1.83-7.82-5.07-.18-.56-.06-.8.5-1l1.21-.44c.56-.18.8-.06,1,.5.74,2.21,1.89,3.36,5.1,3.36,3,0,4.39-1.42,4.39-3.69S37.46,276,35.13,276H31.38c-.59,0-.77-.18-.77-.77v-1c0-.59.18-.77.77-.77h3.33a3.12,3.12,0,0,0,3.42-3.25c0-2.3-1.33-3.54-3.92-3.54-3,0-4.13,1.09-4.87,3.3-.21.56-.44.62-1,.47L27.14,270c-.56-.18-.68-.44-.5-1,1.09-3.24,3.21-5,7.64-5s6.7,2.24,6.7,5.93A4.68,4.68,0,0,1,38.49,274.46Z"/><path class="cls-9" d="M52.3,264c4.84,0,7.64,2.71,7.64,7v7.85c0,4.28-2.8,7-7.64,7s-7.67-2.71-7.67-7V271C44.63,266.7,47.43,264,52.3,264Zm0,2.65c-3.07,0-4.81,1.59-4.81,4.34v7.85c0,2.71,1.74,4.34,4.81,4.34s4.78-1.62,4.78-4.34V271C57.08,268.23,55.34,266.64,52.3,266.64Z"/><path class="cls-9" d="M67.35,264c3.1,0,4.78,1.68,4.78,4.37v2.15c0,2.66-1.68,4.31-4.78,4.31s-4.78-1.65-4.78-4.31v-2.15C62.57,265.64,64.25,264,67.35,264Zm0,2.12c-1.68,0-2.57.86-2.57,2.36v1.89c0,1.48.88,2.36,2.57,2.36a2.23,2.23,0,0,0,2.54-2.36v-1.89C69.88,266.94,69,266.08,67.35,266.08Zm14.84-.91L67.85,284.69c-.44.62-.62.68-1.53.68h-.88c-.59,0-.71-.38-.41-.8l14.36-19.5c.41-.59.59-.65,1.42-.65h1C82.36,264.43,82.48,264.78,82.18,265.17ZM79.82,275c3.13,0,4.78,1.68,4.78,4.37v2.12c0,2.68-1.65,4.34-4.78,4.34S75,284.19,75,281.51v-2.12C75,276.7,76.73,275,79.82,275Zm0,2.12c-1.65,0-2.54.86-2.54,2.36v1.86c0,1.5.88,2.36,2.54,2.36s2.57-.86,2.57-2.36V279.5C82.39,278,81.5,277.14,79.82,277.14Z"/><path class="cls-9" d="M206.21,281.62c4.31,0,6.93,3,6.93,6.46,0,4.45-2.65,6-7.93,8.08-1.74.68-3.8,1.39-3.8,3.33v.86h10.71c.59,0,.77.21.77.77v1.12c0,.56-.18.77-.77.77H199.22c-.59,0-.8-.21-.8-.8v-2.15c0-4,3-5.31,6-6.49s5.75-2.09,5.75-5.37a3.88,3.88,0,0,0-4-3.92,4.8,4.8,0,0,0-4.87,3.13c-.24.56-.44.68-1,.5l-1.27-.47c-.53-.18-.68-.44-.47-1C199.78,283.45,202.08,281.62,206.21,281.62Z"/><path class="cls-9" d="M230,282.83V284c0,.56-.21.77-.77.77H220l-.53,5.4h4.28c4.75,0,7,3,7,6.52s-2.62,6.81-7.23,6.81c-4.34,0-6.72-1.68-7.82-4.72-.21-.56-.09-.8.44-1l1.27-.44c.53-.21.77-.09,1,.47.74,2,2.24,3,5.1,3a4,4,0,0,0,4.28-4.16c0-2.27-1.53-3.86-4.13-3.86H217.3c-.68,0-.88-.3-.83-.94l.89-8.61c.09-.88.41-1.15,1.3-1.15h10.53C229.75,282.06,230,282.27,230,282.83Z"/><path class="cls-9" d="M237.72,281.59c3.1,0,4.78,1.68,4.78,4.37v2.15c0,2.66-1.68,4.31-4.78,4.31s-4.78-1.65-4.78-4.31V286C232.94,283.27,234.62,281.59,237.72,281.59Zm0,2.12c-1.68,0-2.57.86-2.57,2.36V288c0,1.48.88,2.36,2.57,2.36a2.23,2.23,0,0,0,2.54-2.36v-1.89C240.25,284.57,239.37,283.71,237.72,283.71Zm14.84-.91-14.33,19.53c-.44.62-.62.68-1.53.68h-.88c-.59,0-.71-.38-.41-.8l14.36-19.5c.41-.59.59-.65,1.42-.65h1C252.73,282.06,252.85,282.42,252.55,282.8Zm-2.36,9.85c3.13,0,4.78,1.68,4.78,4.37v2.12c0,2.68-1.65,4.34-4.78,4.34s-4.78-1.65-4.78-4.34V297C245.42,294.33,247.1,292.65,250.19,292.65Zm0,2.12c-1.65,0-2.54.86-2.54,2.36V299c0,1.5.88,2.36,2.54,2.36s2.57-.86,2.57-2.36v-1.86C252.76,295.63,251.87,294.77,250.19,294.77Z"/><path class="cls-9" d="M122.22,222.49h-3.77v-7.7h-7.07v7.7h-3.78V204.65h3.78v7h7.07v-7h3.77Z"/><path class="cls-9" d="M137.65,222.49l-1.29-4.25h-6.51l-1.29,4.25h-4.08l6.3-17.92h4.63l6.32,17.92Zm-2.2-7.42q-1.8-5.77-2-6.53t-.32-1.2q-.4,1.56-2.31,7.73Z"/><path class="cls-9" d="M147.75,215.64v6.85H144V204.65h5.2a8.9,8.9,0,0,1,5.38,1.32,5.28,5.28,0,0,1,.88,6.82,5.75,5.75,0,0,1-2.45,1.92q4,6,5.25,7.78H154l-4.26-6.85Zm0-3.08H149a4.68,4.68,0,0,0,2.65-.6,2.13,2.13,0,0,0,.85-1.88,2,2,0,0,0-.87-1.81,5.29,5.29,0,0,0-2.7-.54h-1.15Z"/><path class="cls-9" d="M175.28,213.4q0,4.41-2.51,6.75t-7.25,2.34h-5.05V204.65h5.6a9.43,9.43,0,0,1,6.79,2.31A8.48,8.48,0,0,1,175.28,213.4Zm-3.93.1q0-5.75-5.08-5.75h-2v11.62h1.62Q171.35,219.37,171.35,213.5Z"/><path class="cls-9" d="M126.43,237.54a3.86,3.86,0,0,0-3.31,1.6,7.47,7.47,0,0,0-1.17,4.47q0,6,4.48,6a14.15,14.15,0,0,0,4.55-.94v3.17a12.63,12.63,0,0,1-4.91.92,7.48,7.48,0,0,1-6-2.36q-2.06-2.36-2.06-6.78a11.07,11.07,0,0,1,1-4.88,7.32,7.32,0,0,1,2.91-3.21,8.62,8.62,0,0,1,4.45-1.12,12,12,0,0,1,5.22,1.26l-1.22,3.08a20.21,20.21,0,0,0-2-.83A6,6,0,0,0,126.43,237.54Z"/><path class="cls-9" d="M145.7,252.49l-1.29-4.25H137.9l-1.29,4.25h-4.08l6.3-17.92h4.63l6.32,17.92Zm-2.2-7.42q-1.8-5.77-2-6.53t-.32-1.2q-.4,1.56-2.31,7.73Z"/><path class="cls-9" d="M164.36,240.21a5.46,5.46,0,0,1-1.8,4.41,7.7,7.7,0,0,1-5.12,1.53h-1.62v6.35H152V234.65h5.7a7.59,7.59,0,0,1,4.94,1.4A5.1,5.1,0,0,1,164.36,240.21ZM155.81,243h1.25a4.15,4.15,0,0,0,2.61-.69,2.41,2.41,0,0,0,.87-2,2.48,2.48,0,0,0-.73-2,3.41,3.41,0,0,0-2.28-.63h-1.72Z"/></svg>