<svg id="Layer_1" data-name="Layer 1" xmlns="http://www.w3.org/2000/svg" xmlns:xlink="http://www.w3.org/1999/xlink" viewBox="0 0 300 446.4"><defs><style>.cls-1,.cls-2,.cls-3,.cls-6,.cls-7,.cls-8{fill:none;}.cls-2,.cls-3,.cls-6,.cls-7,.cls-8{stroke-miterlimit:10;}.cls-2{stroke:url(#Безымянный_градиент_106);}.cls-3{stroke:url(#Безымянный_градиент_97);}.cls-4{isolation:isolate;}.cls-5{fill:#fff;}.cls-6{stroke:url(#Безымянный_градиент_15);}.cls-7{stroke:url(#Безымянный_градиент_394);}.cls-8{stroke:url(#Безымянный_градиент_95);}.cls-9{clip-path:url(#clip-path);}.cls-10{fill:url(#Безымянный_градиент_394-2);}.cls-11{clip-path:url(#clip-path-2);}.cls-12{fill:url(#Безымянный_градиент_2);}.cls-13{clip-path:url(#clip-path-3);}.cls-14{fill:url(#Безымянный_градиент_3);}.cls-15{clip-path:url(#clip-path-4);}.cls-16{fill:url(#Безымянный_градиент_4);}.cls-17{clip-path:url(#clip-path-5);}.cls-18{fill:url(#Безымянный_градиент_87);}</style><linearGradient id="Безымянный_градиент_106" x1="957.97" y1="369.41" x2="988.14" y2="369.41" gradientTransform="translate(-823.3)" gradientUnits="userSpaceOnUse"><stop offset="0.15" stop-color="#00e600"/><stop offset="1" stop-color="#9cf900"/></linearGradient><linearGradient id="Безымянный_градиент_97" x1="25.49" y1="344.99" x2="89.2" y2="344.99" gradientUnits="userSpaceOnUse"><stop offset="0.1" stop-color="#45a4dd"/><stop offset="0.79" stop-color="#5f3cb7"/><stop offset="1" stop-color="#6e00a1"/></linearGradient><linearGradient id="Безымянный_градиент_15" x1="203.26" y1="340.5" x2="284.46" y2="340.5" gradientUnits="userSpaceOnUse"><stop offset="0.08" stop-color="#f8be35"/><stop offset="1" stop-color="#ff5c02"/></linearGradient><linearGradient id="Безымянный_градиент_394" x1="14.37" y1="112.56" x2="98.98" y2="112.56" gradientUnits="userSpaceOnUse"><stop offset="0.27" stop-color="#fc5fa2"/><stop offset="0.84" stop-color="#8d1ab3"/></linearGradient><linearGradient id="Безымянный_градиент_95" x1="147.61" y1="81.42" x2="198.3" y2="81.42" gradientUnits="userSpaceOnUse"><stop offset="0.3" stop-color="#0993ff"/><stop offset="1" stop-color="#33cce7"/></linearGradient><clipPath id="clip-path"><polygon class="cls-1" points="39.24 71.66 161.24 55.13 143.95 226.83 -60.45 142.01 39.24 71.66"/></clipPath><linearGradient id="Безымянный_градиент_394-2" x1="34.35" y1="1907.24" x2="253.55" y2="2126.44" gradientTransform="matrix(1, 0, 0, -1, 0, 2243.17)" xlink:href="#Безымянный_градиент_394"/><clipPath id="clip-path-2"><polygon class="cls-1" points="214.15 69.03 143.95 226.83 161.24 55.13 214.15 69.03"/></clipPath><linearGradient id="Безымянный_градиент_2" x1="0.45" y1="2016.84" x2="287.45" y2="2016.84" gradientTransform="matrix(1, 0, 0, -1, 0, 2243.17)" gradientUnits="userSpaceOnUse"><stop offset="0" stop-color="#6e00a1"/><stop offset="0.21" stop-color="#5f3cb7"/><stop offset="0.6" stop-color="#45a4dd"/><stop offset="0.87" stop-color="#34e6f6"/><stop offset="1" stop-color="#2effff"/></linearGradient><clipPath id="clip-path-3"><polygon class="cls-1" points="-60.45 142.01 143.95 226.83 74.16 383.03 2.05 383.03 -60.45 142.01"/></clipPath><linearGradient id="Безымянный_градиент_3" x1="72.18" y1="2141.13" x2="215.71" y2="1892.52" gradientTransform="matrix(1, 0, 0, -1, 0, 2243.17)" gradientUnits="userSpaceOnUse"><stop offset="0" stop-color="#42ccfb"/><stop offset="0.38" stop-color="#0993ff"/><stop offset="1" stop-color="#9e09c7"/></linearGradient><clipPath id="clip-path-4"><polygon class="cls-1" points="74.16 383.03 143.95 226.83 170.12 390.52 74.16 383.03"/></clipPath><linearGradient id="Безымянный_градиент_4" x1="143.95" y1="2165.74" x2="143.95" y2="1867.94" gradientTransform="matrix(1, 0, 0, -1, 0, 2243.17)" gradientUnits="userSpaceOnUse"><stop offset="0" stop-color="#ff00e5"/><stop offset="0.04" stop-color="#f91fca"/><stop offset="0.12" stop-color="#ed5995"/><stop offset="0.2" stop-color="#e28c67"/><stop offset="0.28" stop-color="#dab542"/><stop offset="0.36" stop-color="#d3d525"/><stop offset="0.44" stop-color="#cfec11"/><stop offset="0.51" stop-color="#ccfa04"/><stop offset="0.57" stop-color="#cbff00"/><stop offset="0.6" stop-color="#befd00"/><stop offset="0.65" stop-color="#9cf900"/><stop offset="0.73" stop-color="#65f200"/><stop offset="0.82" stop-color="#19e900"/><stop offset="0.85" stop-color="#00e600"/></linearGradient><clipPath id="clip-path-5"><polygon class="cls-1" points="170.12 390.52 143.95 226.83 214.15 69.03 302.87 101.83 305.24 332.1 170.12 390.52"/></clipPath><linearGradient id="Безымянный_градиент_87" x1="171.16" y1="1862.49" x2="116.73" y2="2171.19" gradientTransform="matrix(1, 0, 0, -1, 0, 2243.17)" gradientUnits="userSpaceOnUse"><stop offset="0.08" stop-color="#f8be35"/><stop offset="0.75" stop-color="#ff5c02"/></linearGradient></defs><title>pie_right</title><path class="cls-2" d="M135.17,332.1v67.42c0,5.23,3.25,6.7,8.75,6.7h20.91"/><path class="cls-3" d="M26,283.25V399.52c0,5.23,3.25,6.7,8.75,6.7H89.2"/><g class="cls-4"><path class="cls-5" d="M28.91,422.14l-3.39-8.86h-.05q.1,1.05.1,2.5v6.36H24.49v-10h1.75l3.17,8.24h.05l3.19-8.24h1.74v10H33.22v-6.44q0-1.11.1-2.41h-.05l-3.42,8.85Z"/><path class="cls-5" d="M41.56,422.14l-.23-1.07h-.05a3.14,3.14,0,0,1-1.12,1,3.4,3.4,0,0,1-1.39.25,2.5,2.5,0,0,1-1.75-.57,2.09,2.09,0,0,1-.63-1.63q0-2.27,3.63-2.38l1.27,0v-.46a1.9,1.9,0,0,0-.38-1.3,1.56,1.56,0,0,0-1.21-.42,5,5,0,0,0-2.12.57l-.35-.87a5.35,5.35,0,0,1,1.21-.47,5.24,5.24,0,0,1,1.32-.17,2.85,2.85,0,0,1,2,.59A2.48,2.48,0,0,1,42.4,417v5.11Zm-2.56-.8a2.3,2.3,0,0,0,1.67-.58,2.15,2.15,0,0,0,.6-1.63v-.68l-1.13,0a4.13,4.13,0,0,0-2,.42,1.27,1.27,0,0,0-.6,1.16A1.17,1.17,0,0,0,38,421,1.55,1.55,0,0,0,39,421.34Z"/><path class="cls-5" d="M48.16,414.52a4.43,4.43,0,0,1,.9.08l-.16,1.05a3.86,3.86,0,0,0-.82-.1,2,2,0,0,0-1.55.74,2.69,2.69,0,0,0-.65,1.84v4H44.74v-7.49h.94l.13,1.39h.05a3.31,3.31,0,0,1,1-1.13A2.26,2.26,0,0,1,48.16,414.52Z"/><path class="cls-5" d="M51.58,418.31a13.5,13.5,0,0,1,.9-1.09l2.42-2.56h1.35l-3,3.19,3.25,4.3H55.08l-2.65-3.54-.85.74v2.8H50.46V411.51h1.12v5.64q0,.38-.05,1.16Z"/><path class="cls-5" d="M61,422.28a3.44,3.44,0,0,1-2.62-1,3.92,3.92,0,0,1-1-2.81,4.34,4.34,0,0,1,.89-2.88,3,3,0,0,1,2.4-1.07,2.83,2.83,0,0,1,2.23.93,3.55,3.55,0,0,1,.82,2.44v.72H58.56a3,3,0,0,0,.67,2,2.3,2.3,0,0,0,1.78.68,6,6,0,0,0,2.39-.51v1a5.94,5.94,0,0,1-1.14.37A6.33,6.33,0,0,1,61,422.28Zm-.31-6.82a1.85,1.85,0,0,0-1.44.59,2.71,2.71,0,0,0-.63,1.63h3.92A2.49,2.49,0,0,0,62,416,1.68,1.68,0,0,0,60.66,415.47Z"/><path class="cls-5" d="M68.08,421.34a3.74,3.74,0,0,0,.58,0l.44-.09v.87a2,2,0,0,1-.54.15,4.05,4.05,0,0,1-.65.06q-2.17,0-2.17-2.29v-4.46H64.67V415l1.07-.47.48-1.6h.66v1.74h2.17v.88H66.88v4.41a1.52,1.52,0,0,0,.32,1A1.12,1.12,0,0,0,68.08,421.34Z"/><path class="cls-5" d="M70.51,412.62a.76.76,0,0,1,.19-.57.71.71,0,0,1,1,0,.74.74,0,0,1,.2.57.75.75,0,0,1-.2.57.7.7,0,0,1-1,0A.77.77,0,0,1,70.51,412.62Zm1.23,9.52H70.6v-7.49h1.13Z"/><path class="cls-5" d="M79.27,422.14V417.3a2,2,0,0,0-.42-1.37,1.7,1.7,0,0,0-1.31-.45,2.16,2.16,0,0,0-1.72.64,3.21,3.21,0,0,0-.55,2.1v3.93H74.14v-7.49h.92l.18,1h.05a2.31,2.31,0,0,1,1-.86,3.17,3.17,0,0,1,1.4-.3,2.85,2.85,0,0,1,2,.65,2.78,2.78,0,0,1,.68,2.09v4.89Z"/><path class="cls-5" d="M88.87,414.65v.72l-1.39.16a2.35,2.35,0,0,1,.34.63A2.38,2.38,0,0,1,88,417a2.21,2.21,0,0,1-.75,1.76,3,3,0,0,1-2.06.66,3.47,3.47,0,0,1-.63-.05,1.12,1.12,0,0,0-.72,1,.49.49,0,0,0,.25.46,1.85,1.85,0,0,0,.87.15h1.33a3,3,0,0,1,1.87.51,1.78,1.78,0,0,1,.65,1.49,2.13,2.13,0,0,1-1,1.9,5.35,5.35,0,0,1-2.91.65A4,4,0,0,1,82.6,425a1.77,1.77,0,0,1-.8-1.54,1.74,1.74,0,0,1,.44-1.18,2.23,2.23,0,0,1,1.23-.68,1.19,1.19,0,0,1-.48-.4,1.07,1.07,0,0,1-.2-.64,1.21,1.21,0,0,1,.22-.72,2.31,2.31,0,0,1,.69-.59,2,2,0,0,1-.95-.81,2.39,2.39,0,0,1-.37-1.31,2.43,2.43,0,0,1,.74-1.9,3,3,0,0,1,2.09-.67,3.81,3.81,0,0,1,1.06.14Zm-6,8.75a1,1,0,0,0,.51.92,2.83,2.83,0,0,0,1.47.31,4.11,4.11,0,0,0,2.12-.43,1.31,1.31,0,0,0,.69-1.16.92.92,0,0,0-.38-.84,2.93,2.93,0,0,0-1.42-.24H84.53a1.79,1.79,0,0,0-1.2.37A1.32,1.32,0,0,0,82.89,423.4Zm.62-6.35a1.53,1.53,0,0,0,.44,1.19,1.78,1.78,0,0,0,1.24.4A1.45,1.45,0,0,0,86.85,417a1.49,1.49,0,0,0-1.68-1.69,1.66,1.66,0,0,0-1.23.43A1.73,1.73,0,0,0,83.51,417.05Z"/></g><path class="cls-6" d="M284,274.27V399.52c0,5.23-3.25,6.7-8.75,6.7h-72"/><path class="cls-5" d="M211.68,417.05a5,5,0,0,1-1.34,3.78,5.32,5.32,0,0,1-3.87,1.31h-2.77v-10h3.06a4.49,4.49,0,0,1,4.92,4.9Zm-1.23,0a4,4,0,0,0-1-2.95,3.93,3.93,0,0,0-2.92-1h-1.69v8h1.42a4.3,4.3,0,0,0,3.12-1A4,4,0,0,0,210.45,417.09Z"/><path class="cls-5" d="M216.91,422.28a3.44,3.44,0,0,1-2.62-1,3.92,3.92,0,0,1-1-2.81,4.34,4.34,0,0,1,.89-2.88,3,3,0,0,1,2.4-1.07,2.83,2.83,0,0,1,2.23.93,3.55,3.55,0,0,1,.82,2.44v.72H214.5a3,3,0,0,0,.67,2,2.3,2.3,0,0,0,1.78.68,6,6,0,0,0,2.39-.51v1a5.94,5.94,0,0,1-1.14.37A6.33,6.33,0,0,1,216.91,422.28Zm-.31-6.82a1.85,1.85,0,0,0-1.44.59,2.71,2.71,0,0,0-.63,1.63h3.92A2.49,2.49,0,0,0,218,416,1.68,1.68,0,0,0,216.6,415.47Z"/><path class="cls-5" d="M223.24,422.14l-2.84-7.49h1.22l1.61,4.44a20.77,20.77,0,0,1,.64,2h.05a15.48,15.48,0,0,1,.48-1.5q.4-1.14,1.79-5h1.22l-2.84,7.49Z"/><path class="cls-5" d="M231.77,422.28a3.44,3.44,0,0,1-2.62-1,3.92,3.92,0,0,1-1-2.81,4.34,4.34,0,0,1,.89-2.88,3,3,0,0,1,2.4-1.07,2.83,2.83,0,0,1,2.23.93,3.55,3.55,0,0,1,.82,2.44v.72h-5.16a3,3,0,0,0,.67,2,2.3,2.3,0,0,0,1.78.68,6,6,0,0,0,2.39-.51v1a5.94,5.94,0,0,1-1.14.37A6.33,6.33,0,0,1,231.77,422.28Zm-.31-6.82a1.85,1.85,0,0,0-1.44.59,2.71,2.71,0,0,0-.63,1.63h3.92a2.49,2.49,0,0,0-.48-1.64A1.68,1.68,0,0,0,231.47,415.47Z"/><path class="cls-5" d="M237.6,422.14h-1.13V411.51h1.13Z"/><path class="cls-5" d="M246.47,418.39a4.13,4.13,0,0,1-.92,2.86,3.25,3.25,0,0,1-2.55,1,3.38,3.38,0,0,1-1.78-.47,3.12,3.12,0,0,1-1.2-1.35,4.72,4.72,0,0,1-.42-2.06,4.13,4.13,0,0,1,.92-2.85,3.24,3.24,0,0,1,2.54-1,3.17,3.17,0,0,1,2.5,1A4.12,4.12,0,0,1,246.47,418.39Zm-5.71,0a3.56,3.56,0,0,0,.57,2.19,2.28,2.28,0,0,0,3.38,0,3.54,3.54,0,0,0,.58-2.19,3.49,3.49,0,0,0-.58-2.17,2,2,0,0,0-1.71-.74,2,2,0,0,0-1.68.73A3.52,3.52,0,0,0,240.76,418.39Z"/><path class="cls-5" d="M251.95,422.28a3.25,3.25,0,0,1-1.34-.27,2.52,2.52,0,0,1-1-.83h-.08a10.05,10.05,0,0,1,.08,1.24v3.08h-1.13V414.65h.92l.16,1h.05a2.64,2.64,0,0,1,1-.89,3.09,3.09,0,0,1,1.33-.27,2.77,2.77,0,0,1,2.3,1,5.43,5.43,0,0,1,0,5.73A2.78,2.78,0,0,1,251.95,422.28Zm-.16-6.8a2,2,0,0,0-1.66.64,3.28,3.28,0,0,0-.53,2v.25a3.75,3.75,0,0,0,.53,2.26,2,2,0,0,0,1.69.68,1.76,1.76,0,0,0,1.52-.79,3.73,3.73,0,0,0,.55-2.17,3.59,3.59,0,0,0-.55-2.15A1.81,1.81,0,0,0,251.78,415.48Z"/><path class="cls-5" d="M266.59,422.14v-4.87a2,2,0,0,0-.38-1.34,1.48,1.48,0,0,0-1.19-.45,1.92,1.92,0,0,0-1.57.61,2.89,2.89,0,0,0-.51,1.87v4.18h-1.13v-4.87a2,2,0,0,0-.38-1.34,1.49,1.49,0,0,0-1.2-.45,1.85,1.85,0,0,0-1.56.64,3.45,3.45,0,0,0-.5,2.09v3.93H257v-7.49H258l.18,1h.05a2.24,2.24,0,0,1,.91-.85,2.77,2.77,0,0,1,1.31-.31,2.22,2.22,0,0,1,2.3,1.27h.05a2.39,2.39,0,0,1,1-.93,3,3,0,0,1,1.45-.34,2.54,2.54,0,0,1,1.9.65,2.93,2.93,0,0,1,.63,2.09v4.89Z"/><path class="cls-5" d="M273.23,422.28a3.44,3.44,0,0,1-2.62-1,3.92,3.92,0,0,1-1-2.81,4.34,4.34,0,0,1,.89-2.88,3,3,0,0,1,2.4-1.07,2.83,2.83,0,0,1,2.23.93,3.55,3.55,0,0,1,.82,2.44v.72h-5.16a3,3,0,0,0,.67,2,2.3,2.3,0,0,0,1.78.68,6,6,0,0,0,2.39-.51v1a5.94,5.94,0,0,1-1.14.37A6.33,6.33,0,0,1,273.23,422.28Zm-.31-6.82a1.85,1.85,0,0,0-1.44.59,2.71,2.71,0,0,0-.63,1.63h3.92a2.49,2.49,0,0,0-.48-1.64A1.68,1.68,0,0,0,272.92,415.47Z"/><path class="cls-5" d="M283,422.14V417.3a2,2,0,0,0-.42-1.37,1.7,1.7,0,0,0-1.31-.45,2.16,2.16,0,0,0-1.72.64,3.21,3.21,0,0,0-.55,2.1v3.93h-1.13v-7.49h.92l.18,1h.05a2.31,2.31,0,0,1,1-.86,3.17,3.17,0,0,1,1.4-.3,2.85,2.85,0,0,1,2,.65,2.78,2.78,0,0,1,.68,2.09v4.89Z"/><path class="cls-5" d="M288.93,421.34a3.74,3.74,0,0,0,.58,0l.44-.09v.87a2,2,0,0,1-.54.15,4.05,4.05,0,0,1-.65.06q-2.17,0-2.17-2.29v-4.46h-1.07V415l1.07-.47.48-1.6h.66v1.74h2.17v.88h-2.17v4.41a1.52,1.52,0,0,0,.32,1A1.12,1.12,0,0,0,288.93,421.34Z"/><path class="cls-7" d="M14.87,180.34V52c0-5.23,3.25-6.7,8.75-6.7H99"/><path class="cls-5" d="M148.71,33.65v4.16h-1.16v-10h2.74a4.31,4.31,0,0,1,2.72.7,2.55,2.55,0,0,1,.88,2.12,2.65,2.65,0,0,1-2,2.68l2.71,4.49h-1.37l-2.42-4.16Zm0-1h1.59a2.75,2.75,0,0,0,1.8-.49,1.82,1.82,0,0,0,.57-1.47,1.67,1.67,0,0,0-.58-1.43,3.16,3.16,0,0,0-1.88-.44h-1.51Z"/><path class="cls-5" d="M159.2,37.95a3.44,3.44,0,0,1-2.62-1,3.92,3.92,0,0,1-1-2.81,4.34,4.34,0,0,1,.89-2.88,3,3,0,0,1,2.4-1.07,2.83,2.83,0,0,1,2.23.93,3.55,3.55,0,0,1,.82,2.44v.72h-5.16a3,3,0,0,0,.67,2,2.31,2.31,0,0,0,1.78.68,6,6,0,0,0,2.39-.51v1a6,6,0,0,1-1.14.37A6.32,6.32,0,0,1,159.2,37.95Zm-.31-6.82a1.86,1.86,0,0,0-1.44.59,2.71,2.71,0,0,0-.63,1.63h3.92a2.5,2.5,0,0,0-.48-1.64A1.68,1.68,0,0,0,158.89,31.13Z"/><path class="cls-5" d="M168.72,35.76a1.88,1.88,0,0,1-.78,1.61,3.67,3.67,0,0,1-2.19.57,4.75,4.75,0,0,1-2.32-.47V36.42a5.57,5.57,0,0,0,1.16.43,4.86,4.86,0,0,0,1.19.16,2.7,2.7,0,0,0,1.37-.28,1,1,0,0,0,.1-1.61,6,6,0,0,0-1.48-.73,8.06,8.06,0,0,1-1.49-.68,2,2,0,0,1-.66-.66,1.72,1.72,0,0,1-.21-.88,1.68,1.68,0,0,1,.75-1.45,3.47,3.47,0,0,1,2-.53,6,6,0,0,1,2.37.49l-.4.92a5.44,5.44,0,0,0-2-.46,2.35,2.35,0,0,0-1.22.25.78.78,0,0,0-.41.7.85.85,0,0,0,.15.51,1.51,1.51,0,0,0,.5.4,10.91,10.91,0,0,0,1.31.55,4.89,4.89,0,0,1,1.8,1A1.72,1.72,0,0,1,168.72,35.76Z"/><path class="cls-5" d="M173.73,37.95a3.44,3.44,0,0,1-2.62-1,3.92,3.92,0,0,1-1-2.81,4.34,4.34,0,0,1,.89-2.88,3,3,0,0,1,2.4-1.07,2.83,2.83,0,0,1,2.23.93,3.55,3.55,0,0,1,.82,2.44v.72h-5.16a3,3,0,0,0,.67,2,2.31,2.31,0,0,0,1.78.68,6,6,0,0,0,2.39-.51v1a6,6,0,0,1-1.14.37A6.32,6.32,0,0,1,173.73,37.95Zm-.31-6.82a1.86,1.86,0,0,0-1.44.59,2.71,2.71,0,0,0-.63,1.63h3.92a2.5,2.5,0,0,0-.48-1.64A1.68,1.68,0,0,0,173.42,31.13Z"/><path class="cls-5" d="M181.84,30.18a4.45,4.45,0,0,1,.9.08l-.16,1.05a3.88,3.88,0,0,0-.82-.1,2,2,0,0,0-1.56.74,2.69,2.69,0,0,0-.65,1.84v4h-1.13V30.32h.94l.13,1.39h.05a3.29,3.29,0,0,1,1-1.13A2.26,2.26,0,0,1,181.84,30.18Z"/><path class="cls-5" d="M185.78,37.81l-2.84-7.49h1.22l1.61,4.44q.55,1.56.64,2h.05a15.09,15.09,0,0,1,.47-1.5q.4-1.14,1.79-5h1.22l-2.84,7.49Z"/><path class="cls-5" d="M194.31,37.95a3.44,3.44,0,0,1-2.62-1,3.92,3.92,0,0,1-1-2.81,4.34,4.34,0,0,1,.89-2.88,3,3,0,0,1,2.4-1.07,2.83,2.83,0,0,1,2.23.93,3.55,3.55,0,0,1,.82,2.44v.72h-5.16a3,3,0,0,0,.67,2,2.31,2.31,0,0,0,1.78.68,6,6,0,0,0,2.39-.51v1a6,6,0,0,1-1.14.37A6.32,6.32,0,0,1,194.31,37.95ZM194,31.13a1.86,1.86,0,0,0-1.44.59,2.71,2.71,0,0,0-.63,1.63h3.92a2.5,2.5,0,0,0-.48-1.64A1.68,1.68,0,0,0,194,31.13Z"/><path class="cls-5" d="M16.24,21V11H17.4V21Z"/><path class="cls-5" d="M25.1,21V16.16a2,2,0,0,0-.42-1.37,1.7,1.7,0,0,0-1.31-.45,2.15,2.15,0,0,0-1.72.64,3.21,3.21,0,0,0-.55,2.1V21H20V13.52h.92l.18,1h.05a2.31,2.31,0,0,1,1-.86,3.17,3.17,0,0,1,1.4-.3,2.85,2.85,0,0,1,2,.65,2.78,2.78,0,0,1,.68,2.09V21Z"/><path class="cls-5" d="M31.94,14.4H30V21H28.9V14.4H27.56v-.51l1.34-.41v-.42q0-2.76,2.41-2.76a5,5,0,0,1,1.39.24l-.29.91a3.75,3.75,0,0,0-1.12-.21,1.09,1.09,0,0,0-1,.43A2.38,2.38,0,0,0,30,13v.49h1.91Z"/><path class="cls-5" d="M36.73,13.38a4.45,4.45,0,0,1,.9.08l-.16,1.05a3.88,3.88,0,0,0-.82-.1,2,2,0,0,0-1.56.74A2.69,2.69,0,0,0,34.45,17v4H33.31V13.52h.94l.13,1.39h.05a3.29,3.29,0,0,1,1-1.13A2.26,2.26,0,0,1,36.73,13.38Z"/><path class="cls-5" d="M43.63,21l-.23-1.07h-.05a3.14,3.14,0,0,1-1.12,1,3.39,3.39,0,0,1-1.39.25,2.5,2.5,0,0,1-1.75-.57,2.1,2.1,0,0,1-.63-1.63q0-2.27,3.63-2.38l1.27,0v-.46a1.9,1.9,0,0,0-.38-1.3,1.56,1.56,0,0,0-1.21-.42,4.94,4.94,0,0,0-2.12.57L39.31,14a5.36,5.36,0,0,1,1.21-.47,5.25,5.25,0,0,1,1.32-.17,2.85,2.85,0,0,1,2,.59,2.48,2.48,0,0,1,.65,1.91V21Zm-2.56-.8a2.3,2.3,0,0,0,1.66-.58A2.15,2.15,0,0,0,43.34,18v-.68l-1.13,0a4.14,4.14,0,0,0-2,.42,1.27,1.27,0,0,0-.6,1.16,1.17,1.17,0,0,0,.37.94A1.55,1.55,0,0,0,41.07,20.21Z"/><path class="cls-5" d="M51.65,19a1.88,1.88,0,0,1-.78,1.61,3.67,3.67,0,0,1-2.19.57,4.75,4.75,0,0,1-2.32-.47V19.62a5.57,5.57,0,0,0,1.16.43,4.86,4.86,0,0,0,1.19.16,2.7,2.7,0,0,0,1.37-.28,1,1,0,0,0,.1-1.61,6,6,0,0,0-1.48-.73,8.06,8.06,0,0,1-1.49-.68,2,2,0,0,1-.66-.66,1.72,1.72,0,0,1-.21-.88,1.68,1.68,0,0,1,.75-1.45,3.47,3.47,0,0,1,2-.53,6,6,0,0,1,2.37.49l-.4.92a5.44,5.44,0,0,0-2-.46,2.35,2.35,0,0,0-1.22.25.78.78,0,0,0-.41.7.85.85,0,0,0,.15.51,1.51,1.51,0,0,0,.5.4,10.91,10.91,0,0,0,1.31.55,4.89,4.89,0,0,1,1.8,1A1.72,1.72,0,0,1,51.65,19Z"/><path class="cls-5" d="M55.91,20.21a3.76,3.76,0,0,0,.58,0l.44-.09v.87a2,2,0,0,1-.54.15,4,4,0,0,1-.65.06q-2.17,0-2.17-2.29V14.4H52.5v-.55l1.07-.47.48-1.6h.66v1.74h2.17v.88H54.71v4.41a1.51,1.51,0,0,0,.32,1A1.12,1.12,0,0,0,55.91,20.21Z"/><path class="cls-5" d="M61.85,13.38a4.45,4.45,0,0,1,.9.08l-.16,1.05a3.88,3.88,0,0,0-.82-.1,2,2,0,0,0-1.56.74A2.69,2.69,0,0,0,59.57,17v4H58.43V13.52h.94l.13,1.39h.05a3.29,3.29,0,0,1,1-1.13A2.26,2.26,0,0,1,61.85,13.38Z"/><path class="cls-5" d="M65.22,13.52v4.86a2,2,0,0,0,.42,1.37,1.7,1.7,0,0,0,1.31.45,2.13,2.13,0,0,0,1.72-.64,3.24,3.24,0,0,0,.54-2.1V13.52h1.13V21H69.4l-.16-1h-.06a2.26,2.26,0,0,1-1,.85,3.24,3.24,0,0,1-1.41.29,2.87,2.87,0,0,1-2-.65,2.77,2.77,0,0,1-.68-2.08v-4.9Z"/><path class="cls-5" d="M75.74,21.15a3.2,3.2,0,0,1-2.52-1,4.12,4.12,0,0,1-.89-2.83,4.25,4.25,0,0,1,.91-2.91,3.26,3.26,0,0,1,2.58-1,5.15,5.15,0,0,1,1.08.12,3.57,3.57,0,0,1,.85.27l-.35,1a5.36,5.36,0,0,0-.82-.25,3.71,3.71,0,0,0-.79-.1q-2.28,0-2.28,2.91a3.47,3.47,0,0,0,.56,2.12,1.94,1.94,0,0,0,1.65.74,5.05,5.05,0,0,0,1.92-.4v1A4.1,4.1,0,0,1,75.74,21.15Z"/><path class="cls-5" d="M81.83,20.21a3.76,3.76,0,0,0,.58,0l.44-.09v.87a2,2,0,0,1-.54.15,4,4,0,0,1-.65.06q-2.17,0-2.17-2.29V14.4H78.42v-.55l1.07-.47.48-1.6h.66v1.74H82.8v.88H80.62v4.41a1.51,1.51,0,0,0,.32,1A1.12,1.12,0,0,0,81.83,20.21Z"/><path class="cls-5" d="M85.42,13.52v4.86a2,2,0,0,0,.42,1.37,1.7,1.7,0,0,0,1.31.45,2.13,2.13,0,0,0,1.72-.64,3.24,3.24,0,0,0,.54-2.1V13.52h1.13V21H89.6l-.16-1h-.06a2.26,2.26,0,0,1-1,.85,3.24,3.24,0,0,1-1.41.29,2.87,2.87,0,0,1-2-.65,2.77,2.77,0,0,1-.68-2.08v-4.9Z"/><path class="cls-5" d="M96.36,13.38a4.45,4.45,0,0,1,.9.08l-.16,1.05a3.88,3.88,0,0,0-.82-.1,2,2,0,0,0-1.56.74A2.69,2.69,0,0,0,94.08,17v4H92.94V13.52h.94L94,14.9h.05a3.29,3.29,0,0,1,1-1.13A2.26,2.26,0,0,1,96.36,13.38Z"/><path class="cls-5" d="M101.82,21.15a3.44,3.44,0,0,1-2.62-1,3.92,3.92,0,0,1-1-2.81,4.34,4.34,0,0,1,.89-2.88,3,3,0,0,1,2.4-1.07,2.83,2.83,0,0,1,2.23.93,3.55,3.55,0,0,1,.82,2.44v.72H99.42a3,3,0,0,0,.67,2,2.31,2.31,0,0,0,1.78.68,6,6,0,0,0,2.39-.51v1a6,6,0,0,1-1.14.37A6.32,6.32,0,0,1,101.82,21.15Zm-.31-6.82a1.86,1.86,0,0,0-1.44.59,2.71,2.71,0,0,0-.63,1.63h3.92a2.5,2.5,0,0,0-.48-1.64A1.68,1.68,0,0,0,101.51,14.33Z"/><path class="cls-5" d="M20.68,37.81l-.23-1.07H20.4a3.14,3.14,0,0,1-1.12,1,3.39,3.39,0,0,1-1.39.25,2.5,2.5,0,0,1-1.75-.57,2.1,2.1,0,0,1-.63-1.63q0-2.27,3.63-2.38l1.27,0v-.46a1.9,1.9,0,0,0-.38-1.3,1.56,1.56,0,0,0-1.21-.42,4.94,4.94,0,0,0-2.12.57l-.35-.87a5.36,5.36,0,0,1,1.21-.47,5.25,5.25,0,0,1,1.32-.17,2.85,2.85,0,0,1,2,.59,2.48,2.48,0,0,1,.65,1.91v5.11ZM18.12,37a2.3,2.3,0,0,0,1.66-.58,2.15,2.15,0,0,0,.61-1.63v-.68l-1.13,0a4.14,4.14,0,0,0-2,.42,1.27,1.27,0,0,0-.6,1.16,1.17,1.17,0,0,0,.37.94A1.55,1.55,0,0,0,18.12,37Z"/><path class="cls-5" d="M29,37.81V33a2,2,0,0,0-.42-1.37,1.7,1.7,0,0,0-1.31-.45,2.15,2.15,0,0,0-1.72.64,3.21,3.21,0,0,0-.55,2.1v3.93H23.86V30.32h.92l.18,1H25a2.31,2.31,0,0,1,1-.86,3.17,3.17,0,0,1,1.4-.3,2.85,2.85,0,0,1,2,.65,2.78,2.78,0,0,1,.68,2.09v4.89Z"/><path class="cls-5" d="M37.55,36.8h-.06a2.67,2.67,0,0,1-2.35,1.14,2.78,2.78,0,0,1-2.29-1A4.43,4.43,0,0,1,32,34.08a4.5,4.5,0,0,1,.82-2.88,2.76,2.76,0,0,1,2.28-1,2.73,2.73,0,0,1,2.34,1.11h.09l0-.54,0-.53v-3h1.13V37.81H37.7ZM35.28,37A2.07,2.07,0,0,0,37,36.36a3.2,3.2,0,0,0,.52-2v-.24A3.76,3.76,0,0,0,37,31.81a2,2,0,0,0-1.69-.68,1.74,1.74,0,0,0-1.53.78,3.86,3.86,0,0,0-.53,2.19,3.69,3.69,0,0,0,.53,2.17A1.78,1.78,0,0,0,35.28,37Z"/><path class="cls-5" d="M50.48,35.15a2.45,2.45,0,0,1-1,2.06,4.15,4.15,0,0,1-2.6.74,6.5,6.5,0,0,1-2.73-.46V36.37a7.24,7.24,0,0,0,1.34.41,7,7,0,0,0,1.44.15,2.91,2.91,0,0,0,1.75-.44,1.45,1.45,0,0,0,.59-1.23,1.57,1.57,0,0,0-.21-.85,1.92,1.92,0,0,0-.7-.61,9.8,9.8,0,0,0-1.49-.64,4.75,4.75,0,0,1-2-1.18,2.61,2.61,0,0,1-.6-1.78,2.22,2.22,0,0,1,.87-1.84,3.6,3.6,0,0,1,2.3-.68,6.78,6.78,0,0,1,2.74.55l-.36,1a6.19,6.19,0,0,0-2.41-.52,2.33,2.33,0,0,0-1.44.4,1.31,1.31,0,0,0-.52,1.1,1.69,1.69,0,0,0,.19.85,1.79,1.79,0,0,0,.65.61,8,8,0,0,0,1.39.61,5.5,5.5,0,0,1,2.16,1.2A2.37,2.37,0,0,1,50.48,35.15Z"/><path class="cls-5" d="M58.82,34.06a4.13,4.13,0,0,1-.92,2.86,3.25,3.25,0,0,1-2.55,1,3.38,3.38,0,0,1-1.78-.47,3.11,3.11,0,0,1-1.2-1.35,4.71,4.71,0,0,1-.42-2.06,4.12,4.12,0,0,1,.92-2.85,3.24,3.24,0,0,1,2.54-1,3.17,3.17,0,0,1,2.5,1A4.11,4.11,0,0,1,58.82,34.06Zm-5.71,0a3.56,3.56,0,0,0,.57,2.19,2.28,2.28,0,0,0,3.38,0,3.53,3.53,0,0,0,.58-2.19,3.48,3.48,0,0,0-.58-2.17,2,2,0,0,0-1.71-.74,2,2,0,0,0-1.68.73A3.52,3.52,0,0,0,53.11,34.06Z"/><path class="cls-5" d="M64.18,31.2H62.28v6.61H61.14V31.2H59.8v-.51l1.34-.41v-.42q0-2.76,2.41-2.76a5,5,0,0,1,1.39.24l-.29.91A3.75,3.75,0,0,0,63.53,28a1.09,1.09,0,0,0-1,.43,2.38,2.38,0,0,0-.31,1.37v.49h1.91Z"/><path class="cls-5" d="M68,37a3.76,3.76,0,0,0,.58,0l.44-.09v.87a2,2,0,0,1-.54.15,4,4,0,0,1-.65.06q-2.17,0-2.17-2.29V31.2H64.56v-.55l1.07-.47.48-1.6h.66v1.74h2.17v.88H66.77v4.41a1.51,1.51,0,0,0,.32,1A1.12,1.12,0,0,0,68,37Z"/><path class="cls-5" d="M76.61,37.81l-1.37-4.4q-.13-.4-.49-1.83H74.7q-.27,1.2-.48,1.85L72.8,37.81H71.49l-2-7.49h1.19l1.1,4.3a17.61,17.61,0,0,1,.43,2h.05q.07-.39.24-1t.29-1l1.37-4.3h1.23l1.34,4.3a14.67,14.67,0,0,1,.52,2h.05a7.21,7.21,0,0,1,.15-.76q.12-.51,1.43-5.52H80L78,37.81Z"/><path class="cls-5" d="M86,37.81l-.23-1.07h-.05a3.14,3.14,0,0,1-1.12,1,3.39,3.39,0,0,1-1.39.25,2.5,2.5,0,0,1-1.75-.57,2.1,2.1,0,0,1-.63-1.63q0-2.27,3.63-2.38l1.27,0v-.46a1.9,1.9,0,0,0-.38-1.3,1.56,1.56,0,0,0-1.21-.42A4.94,4.94,0,0,0,82,31.7l-.35-.87a5.36,5.36,0,0,1,1.21-.47,5.25,5.25,0,0,1,1.32-.17,2.85,2.85,0,0,1,2,.59,2.48,2.48,0,0,1,.65,1.91v5.11ZM83.43,37a2.3,2.3,0,0,0,1.66-.58,2.15,2.15,0,0,0,.61-1.63v-.68l-1.13,0a4.14,4.14,0,0,0-2,.42,1.27,1.27,0,0,0-.6,1.16,1.17,1.17,0,0,0,.37.94A1.55,1.55,0,0,0,83.43,37Z"/><path class="cls-5" d="M92.59,30.18a4.45,4.45,0,0,1,.9.08l-.16,1.05a3.88,3.88,0,0,0-.82-.1,2,2,0,0,0-1.56.74,2.69,2.69,0,0,0-.65,1.84v4H89.17V30.32h.94l.13,1.39h.05a3.29,3.29,0,0,1,1-1.13A2.26,2.26,0,0,1,92.59,30.18Z"/><path class="cls-5" d="M98,37.95a3.44,3.44,0,0,1-2.62-1,3.92,3.92,0,0,1-1-2.81,4.34,4.34,0,0,1,.89-2.88,3,3,0,0,1,2.4-1.07,2.83,2.83,0,0,1,2.23.93,3.55,3.55,0,0,1,.82,2.44v.72H95.64a3,3,0,0,0,.67,2,2.31,2.31,0,0,0,1.78.68,6,6,0,0,0,2.39-.51v1a6,6,0,0,1-1.14.37A6.32,6.32,0,0,1,98,37.95Zm-.31-6.82a1.86,1.86,0,0,0-1.44.59,2.71,2.71,0,0,0-.63,1.63h3.92a2.5,2.5,0,0,0-.48-1.64A1.68,1.68,0,0,0,97.74,31.13Z"/><path class="cls-8" d="M197.8,118V52c0-5.23-3.25-6.7-8.75-6.7H147.61"/><g class="cls-9"><path class="cls-10" d="M143.95,71.33a155,155,0,1,0,155,155A155,155,0,0,0,143.95,71.33Zm0,217a62,62,0,1,1,62-62A62.05,62.05,0,0,1,143.95,288.33Z"/></g><g class="cls-11"><path class="cls-12" d="M143.95,82.83a143.5,143.5,0,1,0,143.5,143.5A143.5,143.5,0,0,0,143.95,82.83Zm0,200.9a57.4,57.4,0,1,1,57.4-57.4A57.4,57.4,0,0,1,143.95,283.73Z"/></g><g class="cls-13"><path class="cls-14" d="M143.95,82.83a143.5,143.5,0,1,0,143.5,143.5A143.5,143.5,0,0,0,143.95,82.83Zm0,200.9a57.4,57.4,0,1,1,57.4-57.4A57.4,57.4,0,0,1,143.95,283.73Z"/></g><g class="cls-15"><path class="cls-16" d="M143.95,77.43a148.9,148.9,0,1,0,148.9,148.9A148.95,148.95,0,0,0,143.95,77.43Zm0,208.5a59.6,59.6,0,1,1,59.6-59.6A59.62,59.62,0,0,1,143.95,285.93Z"/></g><g class="cls-17"><path class="cls-18" d="M143.95,69.63a156.7,156.7,0,1,0,156.7,156.7A156.69,156.69,0,0,0,143.95,69.63Zm0,219.38a62.68,62.68,0,1,1,62.68-62.68A62.65,62.65,0,0,1,143.95,289Z"/></g><path class="cls-5" d="M170.77,107.95v.76c0,.38-.14.52-.52.52H164l-.36,3.66h2.9c3.22,0,4.72,2,4.72,4.42a4.55,4.55,0,0,1-4.9,4.62c-2.94,0-4.56-1.14-5.3-3.2-.14-.38-.06-.54.3-.68l.86-.3c.36-.14.52-.06.66.32.5,1.34,1.52,2.06,3.46,2.06a2.69,2.69,0,0,0,2.9-2.82,2.54,2.54,0,0,0-2.8-2.62h-4.3c-.46,0-.6-.2-.56-.64l.6-5.84c.06-.6.28-.78.88-.78h7.14C170.63,107.43,170.77,107.57,170.77,107.95Z"/><path class="cls-5" d="M176,107.11c2.1,0,3.24,1.14,3.24,3v1.46c0,1.8-1.14,2.92-3.24,2.92s-3.24-1.12-3.24-2.92v-1.46C172.79,108.25,173.93,107.11,176,107.11Zm0,1.44c-1.14,0-1.74.58-1.74,1.6v1.28c0,1,.6,1.6,1.74,1.6a1.51,1.51,0,0,0,1.72-1.6v-1.28A1.5,1.5,0,0,0,176,108.55Zm10.06-.62-9.72,13.24c-.3.42-.42.46-1,.46h-.6c-.4,0-.48-.26-.28-.54l9.74-13.22c.28-.4.4-.44,1-.44h.7C186.21,107.43,186.29,107.67,186.09,107.93Zm-1.6,6.68c2.12,0,3.24,1.14,3.24,3V119c0,1.82-1.12,2.94-3.24,2.94s-3.24-1.12-3.24-2.94v-1.44C181.25,115.75,182.39,114.61,184.49,114.61Zm0,1.44a1.5,1.5,0,0,0-1.72,1.6v1.26a1.5,1.5,0,0,0,1.72,1.6c1.14,0,1.74-.58,1.74-1.6v-1.26C186.23,116.63,185.63,116,184.49,116Z"/><path class="cls-5" d="M85.15,114.76c4.38,0,7,3.06,7,6.57,0,4.53-2.7,6.12-8.07,8.22-1.77.69-3.87,1.41-3.87,3.39v.87H91.15c.6,0,.78.21.78.78v1.14c0,.57-.18.78-.78.78H78c-.6,0-.81-.21-.81-.81v-2.19c0-4,3-5.4,6.09-6.6s5.85-2.13,5.85-5.46a3.94,3.94,0,0,0-4.11-4,4.88,4.88,0,0,0-4.95,3.18c-.24.57-.45.69-1,.51l-1.29-.48c-.54-.18-.69-.45-.48-1C78.61,116.62,80.95,114.76,85.15,114.76Z"/><path class="cls-5" d="M103.06,114.76c4.92,0,7.77,2.76,7.77,7.11v8c0,4.35-2.85,7.11-7.77,7.11s-7.8-2.76-7.8-7.11v-8C95.26,117.52,98.11,114.76,103.06,114.76Zm0,2.7c-3.12,0-4.89,1.62-4.89,4.41v8c0,2.76,1.77,4.41,4.89,4.41s4.86-1.65,4.86-4.41v-8C107.92,119.08,106.15,117.46,103.06,117.46Z"/><path class="cls-5" d="M118.36,114.73c3.15,0,4.86,1.71,4.86,4.44v2.19c0,2.7-1.71,4.38-4.86,4.38s-4.86-1.68-4.86-4.38v-2.19C113.5,116.44,115.21,114.73,118.36,114.73Zm0,2.16c-1.71,0-2.61.87-2.61,2.4v1.92c0,1.5.9,2.4,2.61,2.4a2.26,2.26,0,0,0,2.58-2.4v-1.92C120.94,117.76,120,116.89,118.36,116.89Zm15.09-.93-14.58,19.86c-.45.63-.63.69-1.56.69h-.9c-.6,0-.72-.39-.42-.81l14.61-19.83c.42-.6.6-.66,1.44-.66h1C133.63,115.21,133.75,115.57,133.45,116ZM131,126c3.18,0,4.86,1.71,4.86,4.44v2.16c0,2.73-1.68,4.41-4.86,4.41s-4.86-1.68-4.86-4.41v-2.16C126.19,127.69,127.9,126,131,126Zm0,2.16c-1.68,0-2.58.87-2.58,2.4v1.89c0,1.53.9,2.4,2.58,2.4s2.61-.87,2.61-2.4v-1.89C133.66,129,132.76,128.14,131,128.14Z"/><path class="cls-5" d="M114.58,340.5v13.16c0,.38-.12.52-.52.52h-.88c-.4,0-.52-.14-.52-.52V342.32l-3.58,2c-.4.24-.6.16-.78-.18l-.4-.7c-.18-.34-.1-.52.24-.72l4.44-2.5a1.12,1.12,0,0,1,.74-.22h.74C114.46,340,114.58,340.12,114.58,340.5Z"/><path class="cls-5" d="M122.54,339.68c3.28,0,5.18,1.84,5.18,4.74v5.32c0,2.9-1.9,4.74-5.18,4.74s-5.2-1.84-5.2-4.74v-5.32C117.34,341.52,119.24,339.68,122.54,339.68Zm0,1.8c-2.08,0-3.26,1.08-3.26,2.94v5.32c0,1.84,1.18,2.94,3.26,2.94s3.24-1.1,3.24-2.94v-5.32C125.78,342.56,124.6,341.48,122.54,341.48Z"/><path class="cls-5" d="M132.74,339.66c2.1,0,3.24,1.14,3.24,3v1.46c0,1.8-1.14,2.92-3.24,2.92s-3.24-1.12-3.24-2.92v-1.46C129.5,340.8,130.64,339.66,132.74,339.66Zm0,1.44c-1.14,0-1.74.58-1.74,1.6V344c0,1,.6,1.6,1.74,1.6a1.51,1.51,0,0,0,1.72-1.6V342.7A1.5,1.5,0,0,0,132.74,341.1Zm10.06-.62-9.72,13.24c-.3.42-.42.46-1,.46h-.6c-.4,0-.48-.26-.28-.54l9.74-13.22c.28-.4.4-.44,1-.44h.7C142.92,340,143,340.22,142.81,340.48Zm-1.6,6.68c2.12,0,3.24,1.14,3.24,3v1.44c0,1.82-1.12,2.94-3.24,2.94s-3.24-1.12-3.24-2.94v-1.44C138,348.3,139.1,347.16,141.2,347.16Zm0,1.44a1.5,1.5,0,0,0-1.72,1.6v1.26a1.5,1.5,0,0,0,1.72,1.6c1.14,0,1.74-.58,1.74-1.6V350.2C142.94,349.18,142.34,348.6,141.2,348.6Z"/><path class="cls-5" d="M223.27,276.66v1c0,.57-.18.78-.78.78H220v4.62c0,.57-.21.78-.78.78h-1.14c-.6,0-.78-.21-.78-.78v-4.62H207c-.6,0-.78-.21-.78-.78v-.84a1.16,1.16,0,0,1,.27-1L216.85,263a1.17,1.17,0,0,1,1.11-.57h1.26c.6,0,.81.18.81.78v12.69h2.46C223.09,275.88,223.27,276.09,223.27,276.66Zm-13.68-.78h7.74v-9.54Z"/><path class="cls-5" d="M233.53,262.11c4.92,0,7.77,2.76,7.77,7.11v8c0,4.35-2.85,7.11-7.77,7.11s-7.8-2.76-7.8-7.11v-8C225.73,264.87,228.58,262.11,233.53,262.11Zm0,2.7c-3.12,0-4.89,1.62-4.89,4.41v8c0,2.76,1.77,4.41,4.89,4.41s4.86-1.65,4.86-4.41v-8C238.39,266.43,236.62,264.81,233.53,264.81Z"/><path class="cls-5" d="M248.83,262.08c3.15,0,4.86,1.71,4.86,4.44v2.19c0,2.7-1.71,4.38-4.86,4.38s-4.86-1.68-4.86-4.38v-2.19C244,263.79,245.68,262.08,248.83,262.08Zm0,2.16c-1.71,0-2.61.87-2.61,2.4v1.92c0,1.5.9,2.4,2.61,2.4a2.26,2.26,0,0,0,2.58-2.4v-1.92C251.41,265.11,250.51,264.24,248.83,264.24Zm15.09-.93-14.58,19.86c-.45.63-.63.69-1.56.69h-.9c-.6,0-.72-.39-.42-.81l14.61-19.83c.42-.6.6-.66,1.44-.66h1C264.1,262.56,264.22,262.92,263.92,263.31Zm-2.4,10c3.18,0,4.86,1.71,4.86,4.44v2.16c0,2.73-1.68,4.41-4.86,4.41s-4.86-1.68-4.86-4.41v-2.16C256.66,275,258.37,273.33,261.52,273.33Zm0,2.16c-1.68,0-2.58.87-2.58,2.4v1.89c0,1.53.9,2.4,2.58,2.4s2.61-.87,2.61-2.4v-1.89C264.13,276.36,263.23,275.49,261.52,275.49Z"/><path class="cls-5" d="M32.11,252.53c4.38,0,7,3.06,7,6.57,0,4.53-2.7,6.12-8.07,8.22-1.77.69-3.87,1.41-3.87,3.39v.87H38.11c.6,0,.78.21.78.78v1.14c0,.57-.18.78-.78.78H25c-.6,0-.81-.21-.81-.81v-2.19c0-4,3-5.4,6.09-6.6s5.85-2.13,5.85-5.46a3.94,3.94,0,0,0-4.11-4,4.88,4.88,0,0,0-5,3.18c-.24.57-.45.69-1,.51l-1.29-.48c-.54-.18-.69-.45-.48-1C25.57,254.39,27.91,252.53,32.11,252.53Z"/><path class="cls-5" d="M56.26,253.76v1.14c0,.57-.21.78-.78.78h-9.3l-.54,5.49H50c4.83,0,7.08,3,7.08,6.63s-2.67,6.93-7.35,6.93c-4.41,0-6.84-1.71-7.95-4.8-.21-.57-.09-.81.45-1l1.29-.45c.54-.21.78-.09,1,.48.75,2,2.28,3.09,5.19,3.09A4,4,0,0,0,54,267.8c0-2.31-1.56-3.93-4.2-3.93H43.39c-.69,0-.9-.3-.84-1l.9-8.76c.09-.9.42-1.17,1.32-1.17H55.48C56.05,253,56.26,253.19,56.26,253.76Z"/><path class="cls-5" d="M64.15,252.5c3.15,0,4.86,1.71,4.86,4.44v2.19c0,2.7-1.71,4.38-4.86,4.38s-4.86-1.68-4.86-4.38v-2.19C59.29,254.21,61,252.5,64.15,252.5Zm0,2.16c-1.71,0-2.61.87-2.61,2.4V259c0,1.5.9,2.4,2.61,2.4a2.26,2.26,0,0,0,2.58-2.4v-1.92C66.73,255.53,65.83,254.66,64.15,254.66Zm15.09-.93L64.66,273.59c-.45.63-.63.69-1.56.69h-.9c-.6,0-.72-.39-.42-.81l14.61-19.83c.42-.6.6-.66,1.44-.66h1C79.42,253,79.54,253.34,79.24,253.73Zm-2.4,10c3.18,0,4.86,1.71,4.86,4.44v2.16c0,2.73-1.68,4.41-4.86,4.41S72,273.08,72,270.35v-2.16C72,265.46,73.69,263.75,76.84,263.75Zm0,2.16c-1.68,0-2.58.87-2.58,2.4v1.89c0,1.53.9,2.4,2.58,2.4s2.61-.87,2.61-2.4v-1.89C79.45,266.78,78.55,265.91,76.84,265.91Z"/><path class="cls-5" d="M127.85,217.54a4.61,4.61,0,0,1-1.74,3.81,7.56,7.56,0,0,1-4.84,1.39,11.37,11.37,0,0,1-5.05-1.07v-3.52a20.7,20.7,0,0,0,3.06,1.13,9,9,0,0,0,2.29.33,3.25,3.25,0,0,0,1.91-.48,1.63,1.63,0,0,0,.67-1.42,1.56,1.56,0,0,0-.29-.93A3.27,3.27,0,0,0,123,216a22.16,22.16,0,0,0-2.31-1.21,10.92,10.92,0,0,1-2.45-1.48,5.52,5.52,0,0,1-1.31-1.65,4.7,4.7,0,0,1-.49-2.2,4.61,4.61,0,0,1,1.61-3.72,6.67,6.67,0,0,1,4.44-1.36,10.48,10.48,0,0,1,2.66.33,18.32,18.32,0,0,1,2.64.93l-1.22,2.94a17.78,17.78,0,0,0-2.36-.82,7.62,7.62,0,0,0-1.84-.23,2.43,2.43,0,0,0-1.65.5,1.65,1.65,0,0,0-.57,1.31,1.62,1.62,0,0,0,.23.87,2.54,2.54,0,0,0,.74.72,22.88,22.88,0,0,0,2.4,1.25,9.56,9.56,0,0,1,3.43,2.4A4.68,4.68,0,0,1,127.85,217.54Z"/><path class="cls-5" d="M147.28,213.54q0,4.43-2.2,6.81a9.52,9.52,0,0,1-12.6,0q-2.2-2.38-2.2-6.84t2.2-6.8a8.24,8.24,0,0,1,6.32-2.35,8.13,8.13,0,0,1,6.29,2.37Q147.28,209.1,147.28,213.54Zm-13,0a7.46,7.46,0,0,0,1.13,4.5,4,4,0,0,0,3.39,1.51q4.53,0,4.53-6t-4.5-6A4,4,0,0,0,135.4,209,7.42,7.42,0,0,0,134.26,213.54Z"/><path class="cls-5" d="M154.7,222.49H151V204.65h10.23v3.1H154.7v4.6h6.05v3.09H154.7Z"/><path class="cls-5" d="M171.59,222.49H167.8v-14.7H163v-3.15h13.48v3.15h-4.85Z"/><path class="cls-5" d="M131.39,237.54a3.86,3.86,0,0,0-3.31,1.6,7.47,7.47,0,0,0-1.17,4.47q0,6,4.48,6a14.15,14.15,0,0,0,4.55-.94v3.17a12.63,12.63,0,0,1-4.91.92,7.48,7.48,0,0,1-6-2.36Q123,248,123,243.59a11.07,11.07,0,0,1,1-4.88,7.32,7.32,0,0,1,2.91-3.21,8.62,8.62,0,0,1,4.45-1.12,12,12,0,0,1,5.22,1.26l-1.22,3.08a20.21,20.21,0,0,0-2-.83A6,6,0,0,0,131.39,237.54Z"/><path class="cls-5" d="M150.66,252.49l-1.29-4.25h-6.51l-1.29,4.25h-4.08l6.3-17.92h4.63l6.32,17.92Zm-2.2-7.42q-1.8-5.77-2-6.53t-.32-1.2q-.4,1.56-2.31,7.73Z"/><path class="cls-5" d="M169.32,240.21a5.46,5.46,0,0,1-1.8,4.41,7.7,7.7,0,0,1-5.12,1.53h-1.62v6.35H157V234.65h5.7a7.59,7.59,0,0,1,4.94,1.4A5.1,5.1,0,0,1,169.32,240.21ZM160.77,243H162a4.15,4.15,0,0,0,2.61-.69,2.41,2.41,0,0,0,.87-2,2.48,2.48,0,0,0-.73-2,3.41,3.41,0,0,0-2.28-.63h-1.72Z"/><g class="cls-4"><path class="cls-5" d="M134.54,422.14v-10h1.16v8.94h4.41v1.05Z"/><path class="cls-5" d="M144.8,422.28a3.44,3.44,0,0,1-2.62-1,3.92,3.92,0,0,1-1-2.81,4.34,4.34,0,0,1,.89-2.88,3,3,0,0,1,2.4-1.07,2.83,2.83,0,0,1,2.23.93,3.55,3.55,0,0,1,.82,2.44v.72h-5.16a3,3,0,0,0,.67,2,2.31,2.31,0,0,0,1.78.68,6,6,0,0,0,2.39-.51v1a6,6,0,0,1-1.14.37A6.32,6.32,0,0,1,144.8,422.28Zm-.31-6.82a1.86,1.86,0,0,0-1.44.59,2.71,2.71,0,0,0-.63,1.63h3.92a2.5,2.5,0,0,0-.48-1.64A1.68,1.68,0,0,0,144.49,415.47Z"/><path class="cls-5" d="M155.62,414.65v.72l-1.39.16a2.44,2.44,0,0,1,.49,1.5,2.22,2.22,0,0,1-.75,1.76,3,3,0,0,1-2.06.66,3.46,3.46,0,0,1-.63-.05,1.12,1.12,0,0,0-.72,1,.49.49,0,0,0,.25.46,1.85,1.85,0,0,0,.87.15H153a3,3,0,0,1,1.87.51,1.78,1.78,0,0,1,.65,1.49,2.13,2.13,0,0,1-1,1.9,5.35,5.35,0,0,1-2.91.65,4,4,0,0,1-2.27-.55,1.77,1.77,0,0,1-.8-1.54,1.73,1.73,0,0,1,.44-1.18,2.22,2.22,0,0,1,1.23-.68,1.19,1.19,0,0,1-.48-.4,1.07,1.07,0,0,1-.19-.64,1.2,1.2,0,0,1,.22-.72,2.3,2.3,0,0,1,.69-.59,2,2,0,0,1-.95-.81,2.4,2.4,0,0,1-.37-1.31,2.43,2.43,0,0,1,.74-1.9,3,3,0,0,1,2.09-.67,3.82,3.82,0,0,1,1.06.14Zm-6,8.75a1,1,0,0,0,.51.92,2.82,2.82,0,0,0,1.47.31,4.11,4.11,0,0,0,2.12-.43,1.31,1.31,0,0,0,.69-1.16.92.92,0,0,0-.38-.84,2.94,2.94,0,0,0-1.42-.24h-1.36a1.79,1.79,0,0,0-1.2.37A1.32,1.32,0,0,0,149.65,423.4Zm.62-6.35a1.52,1.52,0,0,0,.44,1.19,1.77,1.77,0,0,0,1.24.4,1.45,1.45,0,0,0,1.66-1.61,1.49,1.49,0,0,0-1.68-1.69,1.66,1.66,0,0,0-1.23.43A1.73,1.73,0,0,0,150.26,417.05Z"/><path class="cls-5" d="M161.77,422.14l-.23-1.07h-.05a3.14,3.14,0,0,1-1.12,1,3.39,3.39,0,0,1-1.39.25,2.5,2.5,0,0,1-1.75-.57,2.1,2.1,0,0,1-.63-1.63q0-2.27,3.63-2.38l1.27,0v-.46a1.9,1.9,0,0,0-.38-1.3,1.56,1.56,0,0,0-1.21-.42,4.94,4.94,0,0,0-2.12.57l-.35-.87a5.36,5.36,0,0,1,1.21-.47,5.25,5.25,0,0,1,1.32-.17,2.85,2.85,0,0,1,2,.59,2.48,2.48,0,0,1,.65,1.91v5.11Zm-2.56-.8a2.3,2.3,0,0,0,1.66-.58,2.15,2.15,0,0,0,.61-1.63v-.68l-1.13,0a4.14,4.14,0,0,0-2,.42,1.27,1.27,0,0,0-.6,1.16,1.17,1.17,0,0,0,.37.94A1.55,1.55,0,0,0,159.2,421.34Z"/><path class="cls-5" d="M166.08,422.14h-1.13V411.51h1.13Z"/></g></svg>