<svg id="Layer_1" data-name="Layer 1" xmlns="http://www.w3.org/2000/svg" xmlns:xlink="http://www.w3.org/1999/xlink" viewBox="0 0 300 446.4"><defs><style>.cls-1,.cls-2,.cls-3,.cls-4,.cls-5,.cls-6{fill:none;}.cls-2,.cls-3,.cls-4,.cls-5,.cls-6{stroke-miterlimit:10;}.cls-2{stroke:url(#Безымянный_градиент_18);}.cls-3{stroke:url(#Безымянный_градиент_671);}.cls-4{stroke:url(#Безымянный_градиент_2);}.cls-5{stroke:url(#Новый_образец_градиента_5);}.cls-6{stroke:url(#Безымянный_градиент_192);}.cls-7{clip-path:url(#clip-path);}.cls-8{fill:url(#Безымянный_градиент_675);}.cls-9{clip-path:url(#clip-path-2);}.cls-10{fill:url(#Новый_образец_градиента_5-2);}.cls-11{clip-path:url(#clip-path-3);}.cls-12{fill:url(#Безымянный_градиент_671-2);}.cls-13{clip-path:url(#clip-path-4);}.cls-14{fill:url(#Безымянный_градиент_192-2);}.cls-15{fill:#fff;}.cls-16{clip-path:url(#clip-path-5);}.cls-17{fill:url(#Безымянный_градиент_208);}</style><linearGradient id="Безымянный_градиент_18" x1="183.67" y1="414.95" x2="183.67" y2="337.36" gradientUnits="userSpaceOnUse"><stop offset="0" stop-color="#2bbec6"/><stop offset="1" stop-color="#2061f2"/></linearGradient><linearGradient id="Безымянный_градиент_671" x1="1.97" y1="312.06" x2="55.96" y2="312.06" gradientUnits="userSpaceOnUse"><stop offset="0" stop-color="#ff87ab"/><stop offset="0.08" stop-color="#ff75a7"/><stop offset="0.37" stop-color="#ff3997"/><stop offset="0.5" stop-color="#ff2191"/><stop offset="0.57" stop-color="#f02296"/><stop offset="0.69" stop-color="#ca23a2"/><stop offset="0.86" stop-color="#8d26b6"/><stop offset="1" stop-color="#5528c8"/></linearGradient><linearGradient id="Безымянный_градиент_2" x1="189.89" y1="206.15" x2="310.85" y2="85.19" gradientUnits="userSpaceOnUse"><stop offset="0" stop-color="#00b970"/><stop offset="1" stop-color="#ffeb00"/></linearGradient><linearGradient id="Новый_образец_градиента_5" x1="13.67" y1="106.47" x2="154.18" y2="106.47" gradientUnits="userSpaceOnUse"><stop offset="0" stop-color="#ffffb0"/><stop offset="0.17" stop-color="#fff42a"/><stop offset="0.51" stop-color="#ffab00"/><stop offset="1" stop-color="#ff4081"/></linearGradient><linearGradient id="Безымянный_градиент_192" x1="45.23" y1="337.61" x2="99.56" y2="337.61" gradientUnits="userSpaceOnUse"><stop offset="0" stop-color="#6e00a1"/><stop offset="0.22" stop-color="#5f3cb7"/><stop offset="0.6" stop-color="#45a4dd"/><stop offset="0.87" stop-color="#34e6f6"/><stop offset="1" stop-color="#2effff"/></linearGradient><clipPath id="clip-path"><polygon class="cls-1" points="152.89 373.8 39 374.4 150.22 226.74 266.77 374.4 152.89 373.8"/></clipPath><linearGradient id="Безымянный_градиент_675" x1="29.29" y1="273.31" x2="233.95" y2="195.18" gradientUnits="userSpaceOnUse"><stop offset="0" stop-color="#32f7aa"/><stop offset="1" stop-color="#1d47ff"/></linearGradient><clipPath id="clip-path-2"><polygon class="cls-1" points="150.22 69.47 150.22 226.74 0.44 178.61 0.44 69.47 150.22 69.47"/></clipPath><linearGradient id="Новый_образец_градиента_5-2" x1="62.07" y1="315.26" x2="232.73" y2="144.6" xlink:href="#Новый_образец_градиента_5"/><clipPath id="clip-path-3"><polygon class="cls-1" points="0.44 178.61 150.22 226.74 0.44 235.16 0.44 178.61"/></clipPath><linearGradient id="Безымянный_градиент_671-2" x1="9.15" y1="227.16" x2="291.19" y2="227.16" xlink:href="#Безымянный_градиент_671"/><clipPath id="clip-path-4"><polygon class="cls-1" points="0.44 235.16 150.22 226.74 39 374.4 0.44 374.4 0.44 235.16"/></clipPath><linearGradient id="Безымянный_градиент_192-2" x1="4.07" y1="227.16" x2="296.27" y2="227.16" xlink:href="#Безымянный_градиент_192"/><clipPath id="clip-path-5"><polygon class="cls-1" points="150.22 69.47 150.22 226.74 266.77 374.4 329.27 374.4 329.27 67.47 150.22 69.47"/></clipPath><linearGradient id="Безымянный_градиент_208" x1="113.78" y1="106.84" x2="187.78" y2="351.51" gradientUnits="userSpaceOnUse"><stop offset="0" stop-color="#ffeb00"/><stop offset="1" stop-color="#00b970"/></linearGradient></defs><title>pie_left</title><path class="cls-2" d="M222.87,337.36v70.4c0,5.23-3.25,6.7-8.75,6.7H144"/><path class="cls-3" d="M56,414.45H11.22c-5.5,0-8.75-1.47-8.75-6.7V215.41a5.75,5.75,0,0,1,5.75-5.75H16"/><path class="cls-4" d="M269.46,285.22V47.64c0-5.23-3.25-6.7-8.75-6.7H196.46"/><path class="cls-5" d="M14.17,172.5V47.64c0-5.23,3.25-6.7,8.75-6.7H154.18"/><path class="cls-6" d="M45.73,285.22V382.8c0,5.23,3.25,6.7,8.75,6.7H99.56"/><g class="cls-7"><path class="cls-8" d="M133.06,366.91A140.8,140.8,0,1,0,10.42,210,140.8,140.8,0,0,0,133.06,366.91Zm24-195.66a56.33,56.33,0,1,1-62.75,49.06A56.33,56.33,0,0,1,157,171.25Z"/></g><g class="cls-9"><path class="cls-10" d="M131.8,377.21A151.17,151.17,0,1,0,.12,208.79,151.17,151.17,0,0,0,131.8,377.21Zm25.72-210.08a60.48,60.48,0,1,1-67.38,52.68A60.48,60.48,0,0,1,157.52,167.13Z"/></g><g class="cls-11"><path class="cls-12" d="M133,367.12A141,141,0,1,0,10.21,210,141,141,0,0,0,133,367.12Zm24-196A56.41,56.41,0,1,1,94.18,220.3,56.41,56.41,0,0,1,157,171.17Z"/></g><g class="cls-13"><path class="cls-14" d="M132.42,372.16A146.09,146.09,0,1,0,5.17,209.4,146.09,146.09,0,0,0,132.42,372.16Zm24.86-203a58.44,58.44,0,1,1-65.11,50.91A58.44,58.44,0,0,1,157.28,169.15Z"/></g><path class="cls-15" d="M132.95,303.22c4.12,0,6.62,2.87,6.62,6.17,0,4.26-2.54,5.75-7.58,7.72-1.66.65-3.64,1.32-3.64,3.18v.82h10.23c.56,0,.73.2.73.73v1.07c0,.54-.17.73-.73.73H126.27c-.56,0-.76-.2-.76-.76v-2.06c0-3.8,2.85-5.07,5.72-6.2s5.5-2,5.5-5.13a3.7,3.7,0,0,0-3.86-3.75,4.59,4.59,0,0,0-4.65,3c-.23.54-.42.65-.93.48l-1.21-.45c-.51-.17-.65-.42-.45-.93C126.8,305,129,303.22,132.95,303.22Z"/><path class="cls-15" d="M149.77,303.22c4.62,0,7.3,2.59,7.3,6.68v7.5c0,4.09-2.68,6.68-7.3,6.68s-7.33-2.59-7.33-6.68v-7.5C142.44,305.81,145.12,303.22,149.77,303.22Zm0,2.54c-2.93,0-4.59,1.52-4.59,4.14v7.5c0,2.59,1.66,4.14,4.59,4.14s4.57-1.55,4.57-4.14v-7.5C154.34,307.27,152.67,305.75,149.77,305.75Z"/><path class="cls-15" d="M164.15,303.19c3,0,4.57,1.61,4.57,4.17v2.06c0,2.54-1.61,4.11-4.57,4.11s-4.57-1.58-4.57-4.11v-2.06C159.58,304.79,161.19,303.19,164.15,303.19Zm0,2c-1.61,0-2.45.82-2.45,2.25v1.8c0,1.41.84,2.25,2.45,2.25a2.13,2.13,0,0,0,2.42-2.25v-1.8A2.11,2.11,0,0,0,164.15,305.22Zm14.18-.87L164.62,323c-.42.59-.59.65-1.47.65h-.84c-.56,0-.68-.37-.39-.76l13.72-18.63c.39-.56.56-.62,1.35-.62h1C178.49,303.64,178.6,304,178.32,304.34Zm-2.25,9.41c3,0,4.57,1.61,4.57,4.17v2c0,2.57-1.58,4.14-4.57,4.14s-4.57-1.58-4.57-4.14v-2C171.5,315.36,173.11,313.76,176.07,313.76Zm0,2a2.11,2.11,0,0,0-2.42,2.25v1.78a2.11,2.11,0,0,0,2.42,2.25c1.61,0,2.45-.82,2.45-2.25V318C178.52,316.6,177.67,315.79,176.07,315.79Z"/><g class="cls-16"><path class="cls-17" d="M132.46,371.83A145.75,145.75,0,1,0,5.5,209.44,145.75,145.75,0,0,0,132.46,371.83Zm24.8-202.55a58.31,58.31,0,1,1-65,50.79A58.31,58.31,0,0,1,157.26,169.28Z"/></g><path class="cls-15" d="M235,195.41v1c0,.54-.17.73-.73.73h-2.31v4.34c0,.54-.2.73-.73.73h-1.07c-.56,0-.73-.2-.73-.73V197.1h-9.72c-.56,0-.73-.2-.73-.73v-.79a1.09,1.09,0,0,1,.25-.9L229,182.56a1.09,1.09,0,0,1,1-.54h1.18c.56,0,.76.17.76.73v11.92h2.31C234.82,194.68,235,194.87,235,195.41Zm-12.85-.73h7.27v-9Z"/><path class="cls-15" d="M244.63,181.74c4.62,0,7.3,2.59,7.3,6.68v7.5c0,4.09-2.68,6.68-7.3,6.68s-7.33-2.59-7.33-6.68v-7.5C237.3,184.33,240,181.74,244.63,181.74Zm0,2.54c-2.93,0-4.59,1.52-4.59,4.14v7.5c0,2.59,1.66,4.14,4.59,4.14s4.57-1.55,4.57-4.14v-7.5C249.2,185.8,247.53,184.28,244.63,184.28Z"/><path class="cls-15" d="M259,181.71c3,0,4.57,1.61,4.57,4.17v2.06c0,2.54-1.61,4.11-4.57,4.11s-4.57-1.58-4.57-4.11v-2.06C254.44,183.32,256,181.71,259,181.71Zm0,2c-1.61,0-2.45.82-2.45,2.25v1.8c0,1.41.84,2.25,2.45,2.25a2.13,2.13,0,0,0,2.42-2.25V186A2.11,2.11,0,0,0,259,183.74Zm14.18-.87-13.7,18.66c-.42.59-.59.65-1.47.65h-.84c-.56,0-.68-.37-.39-.76l13.72-18.63c.39-.56.56-.62,1.35-.62h1C273.35,182.16,273.46,182.5,273.18,182.87Zm-2.25,9.41c3,0,4.57,1.61,4.57,4.17v2c0,2.57-1.58,4.14-4.57,4.14s-4.57-1.58-4.57-4.14v-2C266.36,193.89,268,192.28,270.93,192.28Zm0,2a2.11,2.11,0,0,0-2.42,2.25v1.78a2.11,2.11,0,0,0,2.42,2.25c1.61,0,2.45-.82,2.45-2.25v-1.78C273.38,195.13,272.53,194.31,270.93,194.31Z"/><path class="cls-15" d="M49.71,263.33v18.54c0,.54-.17.73-.73.73H47.74c-.56,0-.73-.2-.73-.73v-16l-5,2.79c-.56.34-.85.23-1.1-.25l-.56-1c-.25-.48-.14-.73.34-1l6.26-3.52a1.57,1.57,0,0,1,1-.31h1C49.54,262.6,49.71,262.79,49.71,263.33Z"/><path class="cls-15" d="M60.79,262.17c4.51,0,6.88,1.86,6.88,5.24a5.18,5.18,0,0,1-3.47,4.79c2.23.87,4.09,2.17,4.09,5.13,0,3.35-2.11,5.69-7.5,5.69s-7.47-2.09-7.47-5.3,2.62-4.59,4.06-5.19c-1.92-.93-3.44-2.25-3.44-4.93C53.94,264.15,56.53,262.17,60.79,262.17Zm-1,11.3c-.87.25-3.72,1.1-3.72,4,0,2,1.27,3.18,4.71,3.18s4.65-1.27,4.65-3.27C65.44,274.63,62.81,274.23,59.8,273.47Zm1-8.93c-2.62,0-4.11,1.07-4.11,3.1,0,2.28,1.89,2.93,4.14,3.52l.9.23c.87-.31,3.3-1.1,3.3-3.75C65,265.61,63.49,264.54,60.79,264.54Z"/><path class="cls-15" d="M75.07,262.14c3,0,4.57,1.61,4.57,4.17v2.06c0,2.54-1.61,4.11-4.57,4.11s-4.57-1.58-4.57-4.11v-2.06C70.51,263.75,72.11,262.14,75.07,262.14Zm0,2c-1.61,0-2.45.82-2.45,2.25v1.8c0,1.41.84,2.25,2.45,2.25a2.13,2.13,0,0,0,2.42-2.25v-1.8A2.11,2.11,0,0,0,75.07,264.17Zm14.18-.87L75.55,282c-.42.59-.59.65-1.47.65h-.84c-.56,0-.68-.37-.39-.76l13.72-18.63c.39-.56.56-.62,1.35-.62h1C89.42,262.6,89.53,262.93,89.25,263.3ZM87,272.71c3,0,4.57,1.61,4.57,4.17v2c0,2.57-1.58,4.14-4.57,4.14s-4.57-1.58-4.57-4.14v-2C82.43,274.32,84,272.71,87,272.71Zm0,2A2.11,2.11,0,0,0,84.57,277v1.78A2.11,2.11,0,0,0,87,281c1.61,0,2.45-.82,2.45-2.25V277C89.45,275.56,88.6,274.74,87,274.74Z"/><path class="cls-15" d="M77.38,134.09c4.12,0,6.62,2.88,6.62,6.17,0,4.26-2.54,5.75-7.58,7.72-1.66.65-3.64,1.32-3.64,3.18V152H83c.56,0,.73.2.73.73v1.07c0,.54-.17.73-.73.73H70.7c-.56,0-.76-.2-.76-.76V151.7c0-3.8,2.85-5.07,5.72-6.2s5.5-2,5.5-5.13a3.7,3.7,0,0,0-3.86-3.75,4.59,4.59,0,0,0-4.65,3c-.23.54-.42.65-.93.48l-1.21-.45c-.51-.17-.65-.42-.45-.93C71.23,135.83,73.43,134.09,77.38,134.09Z"/><path class="cls-15" d="M95.44,135.24v18.54c0,.54-.17.73-.73.73H93.47c-.56,0-.73-.2-.73-.73v-16l-5,2.79c-.56.34-.85.23-1.1-.25l-.56-1c-.25-.48-.14-.73.34-1l6.26-3.52a1.57,1.57,0,0,1,1-.31h1C95.27,134.51,95.44,134.71,95.44,135.24Z"/><path class="cls-15" d="M103.3,134.06c3,0,4.57,1.61,4.57,4.17v2.06c0,2.54-1.61,4.11-4.57,4.11s-4.57-1.58-4.57-4.11v-2.06C98.74,135.67,100.34,134.06,103.3,134.06Zm0,2c-1.61,0-2.45.82-2.45,2.25v1.8c0,1.41.84,2.25,2.45,2.25a2.13,2.13,0,0,0,2.42-2.25v-1.8A2.11,2.11,0,0,0,103.3,136.09Zm14.18-.87-13.7,18.66c-.42.59-.59.65-1.47.65h-.84c-.56,0-.68-.37-.39-.76l13.72-18.63c.39-.56.56-.62,1.35-.62h1C117.65,134.51,117.76,134.85,117.48,135.21Zm-2.25,9.41c3,0,4.57,1.61,4.57,4.17v2c0,2.57-1.58,4.14-4.57,4.14s-4.57-1.58-4.57-4.14v-2C110.66,146.23,112.27,144.63,115.22,144.63Zm0,2a2.11,2.11,0,0,0-2.42,2.25v1.78a2.11,2.11,0,0,0,2.42,2.25c1.61,0,2.45-.82,2.45-2.25v-1.78C117.68,147.47,116.83,146.66,115.22,146.66Z"/><path class="cls-15" d="M22.73,210v12.36c0,.36-.11.49-.49.49h-.83c-.38,0-.49-.13-.49-.49V211.67l-3.36,1.86c-.38.23-.56.15-.73-.17l-.38-.66c-.17-.32-.09-.49.23-.68l4.17-2.35a1,1,0,0,1,.69-.21h.7C22.62,209.48,22.73,209.61,22.73,210Z"/><path class="cls-15" d="M28,209.17c2,0,3,1.07,3,2.78v1.37c0,1.69-1.07,2.74-3,2.74s-3-1.05-3-2.74V212C24.93,210.24,26,209.17,28,209.17Zm0,1.35c-1.07,0-1.63.54-1.63,1.5v1.2c0,.94.56,1.5,1.63,1.5a1.42,1.42,0,0,0,1.62-1.5V212A1.41,1.41,0,0,0,28,210.53Zm9.45-.58-9.13,12.44c-.28.39-.39.43-1,.43h-.56c-.38,0-.45-.24-.26-.51l9.15-12.42c.26-.38.38-.41.9-.41h.66C37.53,209.48,37.61,209.7,37.42,209.94Zm-1.5,6.27c2,0,3,1.07,3,2.78v1.35c0,1.71-1.05,2.76-3,2.76s-3-1.05-3-2.76V219C32.87,217.29,33.94,216.22,35.92,216.22Zm0,1.35a1.41,1.41,0,0,0-1.62,1.5v1.18a1.41,1.41,0,0,0,1.62,1.5c1.07,0,1.63-.54,1.63-1.5v-1.18C37.55,218.11,37,217.57,35.92,217.57Z"/><path class="cls-15" d="M202.11,24.4a3.27,3.27,0,0,0-2.6,1.1,4.43,4.43,0,0,0-1,3,4.52,4.52,0,0,0,.92,3,3.27,3.27,0,0,0,2.62,1.07,8.94,8.94,0,0,0,2.39-.38v1a7.35,7.35,0,0,1-2.56.39,4.34,4.34,0,0,1-3.41-1.34,5.52,5.52,0,0,1-1.2-3.81,6,6,0,0,1,.58-2.71A4.15,4.15,0,0,1,199.56,24a5.05,5.05,0,0,1,2.57-.63,6.19,6.19,0,0,1,2.75.57l-.49,1A5.3,5.3,0,0,0,202.11,24.4Z"/><path class="cls-15" d="M209.91,25.87a4.44,4.44,0,0,1,.9.08L210.65,27a3.87,3.87,0,0,0-.82-.1,2,2,0,0,0-1.56.74,2.69,2.69,0,0,0-.65,1.84v4H206.5V26h.94l.13,1.39h.05a3.3,3.3,0,0,1,1-1.13A2.26,2.26,0,0,1,209.91,25.87Z"/><path class="cls-15" d="M218.68,29.75a4.13,4.13,0,0,1-.92,2.86,3.25,3.25,0,0,1-2.55,1,3.38,3.38,0,0,1-1.78-.47,3.11,3.11,0,0,1-1.2-1.35,4.72,4.72,0,0,1-.42-2.06,4.13,4.13,0,0,1,.92-2.85,3.24,3.24,0,0,1,2.54-1,3.17,3.17,0,0,1,2.5,1A4.11,4.11,0,0,1,218.68,29.75Zm-5.71,0a3.56,3.56,0,0,0,.57,2.19,2.28,2.28,0,0,0,3.38,0,3.53,3.53,0,0,0,.58-2.19,3.48,3.48,0,0,0-.58-2.17,2,2,0,0,0-1.71-.74,2,2,0,0,0-1.68.73A3.52,3.52,0,0,0,213,29.75Z"/><path class="cls-15" d="M226.79,33.5l-1.37-4.4q-.13-.4-.49-1.83h-.05q-.27,1.2-.48,1.85L223,33.5h-1.31l-2-7.49h1.19l1.1,4.3a17.46,17.46,0,0,1,.43,2h.05q.08-.39.24-1t.29-1l1.37-4.3h1.23l1.34,4.3a14.52,14.52,0,0,1,.52,2h.05a7.25,7.25,0,0,1,.15-.76Q227.72,31,229,26h1.18l-2.07,7.49Z"/><path class="cls-15" d="M236.66,32.49h-.06a2.67,2.67,0,0,1-2.35,1.14,2.78,2.78,0,0,1-2.29-1,4.42,4.42,0,0,1-.82-2.86A4.5,4.5,0,0,1,232,26.9a2.76,2.76,0,0,1,2.28-1A2.72,2.72,0,0,1,236.58,27h.09l0-.54,0-.53v-3h1.13V33.5h-.92Zm-2.27.19a2.07,2.07,0,0,0,1.69-.63,3.2,3.2,0,0,0,.52-2v-.24a3.76,3.76,0,0,0-.53-2.27,2,2,0,0,0-1.69-.68,1.74,1.74,0,0,0-1.53.78,3.86,3.86,0,0,0-.53,2.19,3.7,3.7,0,0,0,.53,2.17A1.78,1.78,0,0,0,234.39,32.69Z"/><path class="cls-15" d="M245,31.46a1.88,1.88,0,0,1-.78,1.61,3.67,3.67,0,0,1-2.19.57,4.76,4.76,0,0,1-2.32-.47V32.11a5.58,5.58,0,0,0,1.16.43,4.86,4.86,0,0,0,1.19.16,2.7,2.7,0,0,0,1.37-.28,1,1,0,0,0,.1-1.61,6,6,0,0,0-1.48-.73,8.05,8.05,0,0,1-1.49-.68,2,2,0,0,1-.66-.66,1.72,1.72,0,0,1-.22-.88,1.68,1.68,0,0,1,.75-1.45,3.48,3.48,0,0,1,2-.53,6,6,0,0,1,2.37.49l-.4.92a5.43,5.43,0,0,0-2-.46,2.35,2.35,0,0,0-1.22.25.78.78,0,0,0-.41.7.85.85,0,0,0,.15.51,1.52,1.52,0,0,0,.5.4,11,11,0,0,0,1.31.55,4.9,4.9,0,0,1,1.8,1A1.72,1.72,0,0,1,245,31.46Z"/><path class="cls-15" d="M251.42,33.5l-.23-1.07h-.05a3.14,3.14,0,0,1-1.12,1,3.4,3.4,0,0,1-1.39.25,2.5,2.5,0,0,1-1.75-.57,2.1,2.1,0,0,1-.63-1.63q0-2.27,3.63-2.38l1.27,0v-.46a1.9,1.9,0,0,0-.38-1.3,1.56,1.56,0,0,0-1.21-.42,4.94,4.94,0,0,0-2.12.57l-.35-.87a5.36,5.36,0,0,1,1.21-.47,5.24,5.24,0,0,1,1.32-.17,2.85,2.85,0,0,1,2,.59,2.48,2.48,0,0,1,.65,1.91V33.5Zm-2.56-.8a2.3,2.3,0,0,0,1.66-.58,2.15,2.15,0,0,0,.6-1.63v-.68l-1.13,0a4.14,4.14,0,0,0-2,.42,1.27,1.27,0,0,0-.6,1.16,1.17,1.17,0,0,0,.37.94A1.55,1.55,0,0,0,248.86,32.7Z"/><path class="cls-15" d="M255.74,33.5H254.6V22.86h1.13Z"/><path class="cls-15" d="M261.31,33.64a3.44,3.44,0,0,1-2.62-1,3.92,3.92,0,0,1-1-2.81,4.34,4.34,0,0,1,.89-2.88,3,3,0,0,1,2.4-1.07,2.83,2.83,0,0,1,2.23.93,3.55,3.55,0,0,1,.82,2.44V30H258.9a3,3,0,0,0,.67,2,2.3,2.3,0,0,0,1.78.68,6,6,0,0,0,2.39-.51v1a6,6,0,0,1-1.14.37A6.32,6.32,0,0,1,261.31,33.64ZM261,26.82a1.85,1.85,0,0,0-1.44.59,2.71,2.71,0,0,0-.63,1.63h3.92a2.49,2.49,0,0,0-.48-1.64A1.68,1.68,0,0,0,261,26.82Z"/><path class="cls-15" d="M269,28.84h-3.83v-.57l1.53-1.54a11.27,11.27,0,0,0,.92-1,2.59,2.59,0,0,0,.33-.59,1.69,1.69,0,0,0,.11-.62,1,1,0,0,0-.28-.74,1.09,1.09,0,0,0-.79-.27,2,2,0,0,0-.69.12,2.72,2.72,0,0,0-.72.43l-.35-.45a2.69,2.69,0,0,1,1.75-.67,1.85,1.85,0,0,1,1.29.42,1.45,1.45,0,0,1,.47,1.13,2.18,2.18,0,0,1-.31,1.1,7,7,0,0,1-1.16,1.37L266,28.19v0h3Z"/><path class="cls-15" d="M9.92,420.38h2.82a5.33,5.33,0,0,1,2.88.59,2.1,2.1,0,0,1,.89,1.88,2.17,2.17,0,0,1-.5,1.47,2.39,2.39,0,0,1-1.45.75v.07q2.28.39,2.28,2.39a2.57,2.57,0,0,1-.91,2.09,3.86,3.86,0,0,1-2.53.75H9.92Zm1.16,4.28H13a3.11,3.11,0,0,0,1.77-.39,1.49,1.49,0,0,0,.54-1.3,1.32,1.32,0,0,0-.6-1.21,3.76,3.76,0,0,0-1.91-.37H11.08Zm0,1v3.74h2.08a3,3,0,0,0,1.82-.47,1.73,1.73,0,0,0,.61-1.47,1.55,1.55,0,0,0-.63-1.37,3.34,3.34,0,0,0-1.9-.44Z"/><path class="cls-15" d="M25.28,426.62a4.13,4.13,0,0,1-.92,2.86,3.25,3.25,0,0,1-2.55,1A3.38,3.38,0,0,1,20,430a3.11,3.11,0,0,1-1.2-1.35,4.72,4.72,0,0,1-.42-2.06,4.13,4.13,0,0,1,.92-2.85,3.24,3.24,0,0,1,2.54-1,3.17,3.17,0,0,1,2.5,1A4.11,4.11,0,0,1,25.28,426.62Zm-5.71,0a3.56,3.56,0,0,0,.57,2.19,2,2,0,0,0,1.69.75,2,2,0,0,0,1.69-.75,3.53,3.53,0,0,0,.58-2.19,3.48,3.48,0,0,0-.58-2.17,2,2,0,0,0-1.71-.74,2,2,0,0,0-1.68.73A3.52,3.52,0,0,0,19.58,426.62Z"/><path class="cls-15" d="M28.34,422.88v4.86a2,2,0,0,0,.42,1.37,1.7,1.7,0,0,0,1.31.45,2.13,2.13,0,0,0,1.72-.64,3.24,3.24,0,0,0,.54-2.1v-3.94h1.13v7.49h-.94l-.16-1H32.3a2.26,2.26,0,0,1-1,.85,3.25,3.25,0,0,1-1.41.29,2.87,2.87,0,0,1-2-.65,2.76,2.76,0,0,1-.68-2.08v-4.9Z"/><path class="cls-15" d="M41,430.38v-4.85a2,2,0,0,0-.42-1.37,1.7,1.7,0,0,0-1.31-.45,2.15,2.15,0,0,0-1.72.64,3.21,3.21,0,0,0-.55,2.1v3.93H35.87v-7.49h.92l.18,1H37a2.31,2.31,0,0,1,1-.86,3.17,3.17,0,0,1,1.4-.3,2.85,2.85,0,0,1,2,.65,2.78,2.78,0,0,1,.68,2.09v4.89Z"/><path class="cls-15" d="M46.88,429.58a3.75,3.75,0,0,0,.58,0l.44-.09v.87a2,2,0,0,1-.54.15,4,4,0,0,1-.65.06q-2.17,0-2.17-2.29v-4.46H43.47v-.55l1.07-.47.48-1.6h.66v1.74h2.17v.88H45.68v4.41a1.52,1.52,0,0,0,.32,1A1.12,1.12,0,0,0,46.88,429.58Z"/><path class="cls-15" d="M48.21,422.88h1.22l1.64,4.27a16.28,16.28,0,0,1,.67,2.11h.05q.09-.35.37-1.19T54,422.88h1.22L52,431.42a4.26,4.26,0,0,1-1.12,1.79,2.38,2.38,0,0,1-1.57.53,4.59,4.59,0,0,1-1-.12v-.91a4,4,0,0,0,.84.08,1.73,1.73,0,0,0,1.67-1.31l.42-1.07Z"/><path class="cls-15" d="M19.83,24.4a3.27,3.27,0,0,0-2.6,1.1,4.43,4.43,0,0,0-1,3,4.52,4.52,0,0,0,.92,3,3.27,3.27,0,0,0,2.62,1.07,8.94,8.94,0,0,0,2.39-.38v1a7.35,7.35,0,0,1-2.56.39,4.34,4.34,0,0,1-3.41-1.34A5.52,5.52,0,0,1,15,28.49a6,6,0,0,1,.58-2.71A4.15,4.15,0,0,1,17.27,24a5.05,5.05,0,0,1,2.57-.63,6.19,6.19,0,0,1,2.75.57l-.49,1A5.3,5.3,0,0,0,19.83,24.4Z"/><path class="cls-15" d="M30.68,29.75a4.13,4.13,0,0,1-.92,2.86,3.25,3.25,0,0,1-2.55,1,3.38,3.38,0,0,1-1.78-.47,3.11,3.11,0,0,1-1.2-1.35,4.72,4.72,0,0,1-.42-2.06,4.13,4.13,0,0,1,.92-2.85,3.24,3.24,0,0,1,2.54-1,3.17,3.17,0,0,1,2.5,1A4.11,4.11,0,0,1,30.68,29.75Zm-5.71,0a3.56,3.56,0,0,0,.57,2.19,2.28,2.28,0,0,0,3.38,0,3.53,3.53,0,0,0,.58-2.19,3.48,3.48,0,0,0-.58-2.17,2,2,0,0,0-1.71-.74,2,2,0,0,0-1.68.73A3.52,3.52,0,0,0,25,29.75Z"/><path class="cls-15" d="M42.21,33.5V28.63a2,2,0,0,0-.38-1.34,1.48,1.48,0,0,0-1.19-.45,1.92,1.92,0,0,0-1.57.61,2.89,2.89,0,0,0-.51,1.87V33.5H37.44V28.63a2,2,0,0,0-.38-1.34,1.49,1.49,0,0,0-1.2-.45,1.85,1.85,0,0,0-1.56.64,3.46,3.46,0,0,0-.5,2.09V33.5H32.66V26h.92l.18,1h.05a2.23,2.23,0,0,1,.91-.85A2.77,2.77,0,0,1,36,25.87a2.23,2.23,0,0,1,2.3,1.27h.05a2.39,2.39,0,0,1,1-.93,3,3,0,0,1,1.45-.34,2.54,2.54,0,0,1,1.9.65,2.92,2.92,0,0,1,.63,2.09V33.5Z"/><path class="cls-15" d="M49.17,33.64a3.25,3.25,0,0,1-1.34-.27,2.52,2.52,0,0,1-1-.83h-.08a10.05,10.05,0,0,1,.08,1.24v3.08H45.69V26h.92l.16,1h.05a2.64,2.64,0,0,1,1-.89,3.09,3.09,0,0,1,1.33-.27,2.77,2.77,0,0,1,2.3,1,4.48,4.48,0,0,1,.81,2.86,4.46,4.46,0,0,1-.82,2.87A2.78,2.78,0,0,1,49.17,33.64ZM49,26.83a2,2,0,0,0-1.66.64,3.27,3.27,0,0,0-.53,2v.25A3.75,3.75,0,0,0,47.35,32a2,2,0,0,0,1.69.68,1.75,1.75,0,0,0,1.52-.79,3.73,3.73,0,0,0,.55-2.17,3.58,3.58,0,0,0-.55-2.15A1.81,1.81,0,0,0,49,26.83Z"/><path class="cls-15" d="M58.87,33.5l-.23-1.07h-.05a3.14,3.14,0,0,1-1.12,1,3.4,3.4,0,0,1-1.39.25,2.5,2.5,0,0,1-1.75-.57,2.1,2.1,0,0,1-.63-1.63q0-2.27,3.63-2.38l1.27,0v-.46a1.9,1.9,0,0,0-.38-1.3A1.56,1.56,0,0,0,57,26.82a4.94,4.94,0,0,0-2.12.57l-.35-.87a5.36,5.36,0,0,1,1.21-.47,5.24,5.24,0,0,1,1.32-.17,2.85,2.85,0,0,1,2,.59,2.48,2.48,0,0,1,.65,1.91V33.5Zm-2.56-.8A2.3,2.3,0,0,0,58,32.12a2.15,2.15,0,0,0,.6-1.63v-.68l-1.13,0a4.14,4.14,0,0,0-2,.42,1.27,1.27,0,0,0-.6,1.16,1.17,1.17,0,0,0,.37.94A1.55,1.55,0,0,0,56.31,32.7Z"/><path class="cls-15" d="M67.18,33.5V28.65a2,2,0,0,0-.42-1.37,1.7,1.7,0,0,0-1.31-.45,2.15,2.15,0,0,0-1.72.64,3.21,3.21,0,0,0-.55,2.1V33.5H62.05V26H63l.18,1h.05a2.31,2.31,0,0,1,1-.86,3.17,3.17,0,0,1,1.4-.3,2.85,2.85,0,0,1,2,.65,2.78,2.78,0,0,1,.68,2.09V33.5Z"/><path class="cls-15" d="M69.46,26h1.22l1.64,4.27A16.28,16.28,0,0,1,73,32.39H73q.09-.35.37-1.19T75.27,26h1.22l-3.22,8.53a4.26,4.26,0,0,1-1.12,1.79,2.38,2.38,0,0,1-1.57.53,4.59,4.59,0,0,1-1-.12v-.91a4,4,0,0,0,.84.08,1.73,1.73,0,0,0,1.67-1.31l.42-1.07Z"/><path class="cls-15" d="M80.91,30.91a2.69,2.69,0,0,1,.48-1.57A5.14,5.14,0,0,1,83.09,28a8.17,8.17,0,0,1-.79-1,3.37,3.37,0,0,1-.33-.7,2.32,2.32,0,0,1-.12-.75,2,2,0,0,1,.67-1.6,2.78,2.78,0,0,1,1.87-.57,2.51,2.51,0,0,1,1.74.57,2,2,0,0,1,.64,1.59,2.2,2.2,0,0,1-.46,1.35,5.28,5.28,0,0,1-1.54,1.25l2.78,2.67a3.3,3.3,0,0,0,.61-1,8.51,8.51,0,0,0,.39-1.25h1.15a6.53,6.53,0,0,1-1.4,3l2,2H88.76L87.5,32.28A4.85,4.85,0,0,1,84,33.64a3.3,3.3,0,0,1-2.28-.72A2.55,2.55,0,0,1,80.91,30.91ZM84,32.62a3.77,3.77,0,0,0,2.73-1.05l-3-2.9a6.63,6.63,0,0,0-1.07.77,2,2,0,0,0-.46.65,2,2,0,0,0-.15.79,1.61,1.61,0,0,0,.53,1.27A2.06,2.06,0,0,0,84,32.62ZM83,25.49a1.78,1.78,0,0,0,.25.9,5.48,5.48,0,0,0,.84,1,4.46,4.46,0,0,0,1.23-.95,1.57,1.57,0,0,0,.35-1,1.12,1.12,0,0,0-.35-.86,1.31,1.31,0,0,0-.94-.33,1.46,1.46,0,0,0-1,.33A1.11,1.11,0,0,0,83,25.49Z"/><path class="cls-15" d="M101.65,33.5l-1.24-3.18h-4L95.17,33.5H94l4-10h1l3.93,10ZM100,29.27l-1.16-3.1q-.23-.59-.46-1.44A12.9,12.9,0,0,1,98,26.18l-1.18,3.1Z"/><path class="cls-15" d="M109.15,32.49h-.06a2.67,2.67,0,0,1-2.35,1.14,2.78,2.78,0,0,1-2.29-1,4.42,4.42,0,0,1-.82-2.86,4.5,4.5,0,0,1,.82-2.88,2.76,2.76,0,0,1,2.28-1A2.72,2.72,0,0,1,109.08,27h.09l0-.54,0-.53v-3h1.13V33.5h-.92Zm-2.27.19a2.07,2.07,0,0,0,1.69-.63,3.2,3.2,0,0,0,.52-2v-.24a3.76,3.76,0,0,0-.53-2.27,2,2,0,0,0-1.69-.68,1.74,1.74,0,0,0-1.53.78,3.86,3.86,0,0,0-.53,2.19,3.7,3.7,0,0,0,.53,2.17A1.78,1.78,0,0,0,106.88,32.69Z"/><path class="cls-15" d="M114.27,33.5,111.43,26h1.22l1.61,4.44a21.06,21.06,0,0,1,.64,2H115a15.28,15.28,0,0,1,.48-1.5q.4-1.14,1.79-5h1.22L115.6,33.5Z"/><path class="cls-15" d="M119.55,24a.76.76,0,0,1,.19-.57.71.71,0,0,1,1,0,.74.74,0,0,1,.2.57.75.75,0,0,1-.2.57.66.66,0,0,1-.47.19.66.66,0,0,1-.48-.19A.77.77,0,0,1,119.55,24Zm1.23,9.52h-1.13V26h1.13Z"/><path class="cls-15" d="M128,31.46a1.88,1.88,0,0,1-.78,1.61,3.67,3.67,0,0,1-2.19.57,4.76,4.76,0,0,1-2.32-.47V32.11a5.58,5.58,0,0,0,1.16.43,4.86,4.86,0,0,0,1.19.16,2.7,2.7,0,0,0,1.37-.28,1,1,0,0,0,.1-1.61,6,6,0,0,0-1.48-.73,8.05,8.05,0,0,1-1.49-.68,2,2,0,0,1-.66-.66,1.72,1.72,0,0,1-.22-.88,1.68,1.68,0,0,1,.75-1.45,3.48,3.48,0,0,1,2-.53,6,6,0,0,1,2.37.49l-.4.92a5.43,5.43,0,0,0-2-.46,2.35,2.35,0,0,0-1.22.25.78.78,0,0,0-.41.7.85.85,0,0,0,.15.51,1.52,1.52,0,0,0,.5.4,11,11,0,0,0,1.31.55,4.9,4.9,0,0,1,1.8,1A1.72,1.72,0,0,1,128,31.46Z"/><path class="cls-15" d="M136.33,29.75a4.13,4.13,0,0,1-.92,2.86,3.25,3.25,0,0,1-2.55,1,3.38,3.38,0,0,1-1.78-.47,3.11,3.11,0,0,1-1.2-1.35,4.72,4.72,0,0,1-.42-2.06,4.13,4.13,0,0,1,.92-2.85,3.24,3.24,0,0,1,2.54-1,3.17,3.17,0,0,1,2.5,1A4.11,4.11,0,0,1,136.33,29.75Zm-5.71,0a3.56,3.56,0,0,0,.57,2.19,2.28,2.28,0,0,0,3.38,0,3.53,3.53,0,0,0,.58-2.19,3.48,3.48,0,0,0-.58-2.17,2,2,0,0,0-1.71-.74,2,2,0,0,0-1.68.73A3.52,3.52,0,0,0,130.62,29.75Z"/><path class="cls-15" d="M141.74,25.87a4.44,4.44,0,0,1,.9.08L142.48,27a3.87,3.87,0,0,0-.82-.1,2,2,0,0,0-1.56.74,2.69,2.69,0,0,0-.65,1.84v4h-1.13V26h.94l.13,1.39h.05a3.3,3.3,0,0,1,1-1.13A2.26,2.26,0,0,1,141.74,25.87Z"/><path class="cls-15" d="M148.87,31.46a1.88,1.88,0,0,1-.78,1.61,3.67,3.67,0,0,1-2.19.57,4.76,4.76,0,0,1-2.32-.47V32.11a5.58,5.58,0,0,0,1.16.43,4.86,4.86,0,0,0,1.19.16,2.7,2.7,0,0,0,1.37-.28,1,1,0,0,0,.1-1.61,6,6,0,0,0-1.48-.73,8.05,8.05,0,0,1-1.49-.68,2,2,0,0,1-.66-.66,1.72,1.72,0,0,1-.22-.88,1.68,1.68,0,0,1,.75-1.45,3.48,3.48,0,0,1,2-.53,6,6,0,0,1,2.37.49l-.4.92a5.43,5.43,0,0,0-2-.46,2.35,2.35,0,0,0-1.22.25.78.78,0,0,0-.41.7.85.85,0,0,0,.15.51,1.52,1.52,0,0,0,.5.4,11,11,0,0,0,1.31.55,4.9,4.9,0,0,1,1.8,1A1.72,1.72,0,0,1,148.87,31.46Z"/><path class="cls-15" d="M152.36,28.84h-.65V24.68q0-.52,0-1l-.19.17-.95.78-.35-.45L151.8,23h.56Z"/><path class="cls-15" d="M48.26,402v4.16H47.1v-10h2.74a4.31,4.31,0,0,1,2.72.7,2.55,2.55,0,0,1,.88,2.12,2.65,2.65,0,0,1-2,2.68l2.71,4.49H52.77L50.35,402Zm0-1h1.59a2.75,2.75,0,0,0,1.8-.49,1.82,1.82,0,0,0,.57-1.47,1.67,1.67,0,0,0-.58-1.43,3.16,3.16,0,0,0-1.88-.44H48.26Z"/><path class="cls-15" d="M58.75,406.26a3.44,3.44,0,0,1-2.62-1,3.92,3.92,0,0,1-1-2.81,4.34,4.34,0,0,1,.89-2.88,3,3,0,0,1,2.4-1.07,2.83,2.83,0,0,1,2.23.93,3.55,3.55,0,0,1,.82,2.44v.72H56.34a3,3,0,0,0,.67,2,2.3,2.3,0,0,0,1.78.68,6,6,0,0,0,2.39-.51v1a6,6,0,0,1-1.14.37A6.32,6.32,0,0,1,58.75,406.26Zm-.31-6.82A1.85,1.85,0,0,0,57,400a2.71,2.71,0,0,0-.63,1.63h3.92a2.49,2.49,0,0,0-.48-1.64A1.68,1.68,0,0,0,58.44,399.44Z"/><path class="cls-15" d="M68.27,404.08a1.88,1.88,0,0,1-.78,1.61,3.67,3.67,0,0,1-2.19.57,4.76,4.76,0,0,1-2.32-.47v-1.05a5.58,5.58,0,0,0,1.16.43,4.86,4.86,0,0,0,1.19.16A2.7,2.7,0,0,0,66.7,405a1,1,0,0,0,.1-1.61,6,6,0,0,0-1.48-.73,8.05,8.05,0,0,1-1.49-.68,2,2,0,0,1-.66-.66,1.72,1.72,0,0,1-.22-.88,1.68,1.68,0,0,1,.75-1.45,3.48,3.48,0,0,1,2-.53,6,6,0,0,1,2.37.49l-.4.92a5.43,5.43,0,0,0-2-.46,2.35,2.35,0,0,0-1.22.25.78.78,0,0,0-.41.7.85.85,0,0,0,.15.51,1.52,1.52,0,0,0,.5.4,11,11,0,0,0,1.31.55,4.9,4.9,0,0,1,1.8,1A1.72,1.72,0,0,1,68.27,404.08Z"/><path class="cls-15" d="M73.28,406.26a3.44,3.44,0,0,1-2.62-1,3.92,3.92,0,0,1-1-2.81,4.34,4.34,0,0,1,.89-2.88,3,3,0,0,1,2.4-1.07,2.83,2.83,0,0,1,2.23.93,3.55,3.55,0,0,1,.82,2.44v.72H70.88a3,3,0,0,0,.67,2,2.3,2.3,0,0,0,1.78.68,6,6,0,0,0,2.39-.51v1a6,6,0,0,1-1.14.37A6.32,6.32,0,0,1,73.28,406.26ZM73,399.44a1.85,1.85,0,0,0-1.44.59,2.71,2.71,0,0,0-.63,1.63h3.92a2.49,2.49,0,0,0-.48-1.64A1.68,1.68,0,0,0,73,399.44Z"/><path class="cls-15" d="M81.39,398.49a4.44,4.44,0,0,1,.9.08l-.16,1.05a3.87,3.87,0,0,0-.82-.1,2,2,0,0,0-1.56.74,2.69,2.69,0,0,0-.65,1.84v4H78v-7.49h.94L79,400h.05a3.3,3.3,0,0,1,1-1.13A2.26,2.26,0,0,1,81.39,398.49Z"/><path class="cls-15" d="M85.33,406.12l-2.84-7.49H83.7l1.61,4.44a21.06,21.06,0,0,1,.64,2H86a15.28,15.28,0,0,1,.48-1.5q.4-1.14,1.79-5H89.5l-2.84,7.49Z"/><path class="cls-15" d="M93.87,406.26a3.44,3.44,0,0,1-2.62-1,3.92,3.92,0,0,1-1-2.81,4.34,4.34,0,0,1,.89-2.88,3,3,0,0,1,2.4-1.07,2.83,2.83,0,0,1,2.23.93,3.55,3.55,0,0,1,.82,2.44v.72H91.46a3,3,0,0,0,.67,2,2.3,2.3,0,0,0,1.78.68,6,6,0,0,0,2.39-.51v1a6,6,0,0,1-1.14.37A6.32,6.32,0,0,1,93.87,406.26Zm-.31-6.82a1.85,1.85,0,0,0-1.44.59,2.71,2.71,0,0,0-.63,1.63H95.4a2.49,2.49,0,0,0-.48-1.64A1.68,1.68,0,0,0,93.56,399.44Z"/><path class="cls-15" d="M101.86,400.12H101v1.34h-.63v-1.34H97.52v-.58l2.77-3.94h.7v3.92h.86Zm-1.5-.6v-1.94q0-.57,0-1.29h0a6,6,0,0,1-.36.63l-1.82,2.59Z"/><path class="cls-15" d="M146,430.38h-1.16v-10h5.57v1H146v3.66h4.14v1H146Z"/><path class="cls-15" d="M158.34,426.62a4.13,4.13,0,0,1-.92,2.86,3.25,3.25,0,0,1-2.55,1,3.38,3.38,0,0,1-1.78-.47,3.11,3.11,0,0,1-1.2-1.35,4.72,4.72,0,0,1-.42-2.06,4.13,4.13,0,0,1,.92-2.85,3.24,3.24,0,0,1,2.54-1,3.17,3.17,0,0,1,2.5,1A4.11,4.11,0,0,1,158.34,426.62Zm-5.71,0a3.56,3.56,0,0,0,.57,2.19,2.28,2.28,0,0,0,3.38,0,3.53,3.53,0,0,0,.58-2.19,3.48,3.48,0,0,0-.58-2.17,2,2,0,0,0-1.71-.74,2,2,0,0,0-1.68.73A3.52,3.52,0,0,0,152.63,426.62Z"/><path class="cls-15" d="M161.39,422.88v4.86a2,2,0,0,0,.42,1.37,1.7,1.7,0,0,0,1.31.45,2.13,2.13,0,0,0,1.72-.64,3.24,3.24,0,0,0,.54-2.1v-3.94h1.13v7.49h-.94l-.16-1h-.06a2.26,2.26,0,0,1-1,.85,3.25,3.25,0,0,1-1.41.29,2.87,2.87,0,0,1-2-.65,2.76,2.76,0,0,1-.68-2.08v-4.9Z"/><path class="cls-15" d="M174,430.38v-4.85a2,2,0,0,0-.42-1.37,1.7,1.7,0,0,0-1.31-.45,2.15,2.15,0,0,0-1.72.64,3.21,3.21,0,0,0-.55,2.1v3.93h-1.13v-7.49h.92l.18,1h.05a2.31,2.31,0,0,1,1-.86,3.17,3.17,0,0,1,1.4-.3,2.85,2.85,0,0,1,2,.65,2.78,2.78,0,0,1,.68,2.09v4.89Z"/><path class="cls-15" d="M182.61,429.37h-.06a2.67,2.67,0,0,1-2.35,1.14,2.78,2.78,0,0,1-2.29-1,4.42,4.42,0,0,1-.82-2.86,4.5,4.5,0,0,1,.82-2.88,2.76,2.76,0,0,1,2.28-1,2.72,2.72,0,0,1,2.34,1.11h.09l0-.54,0-.53v-3h1.13v10.64h-.92Zm-2.27.19a2.07,2.07,0,0,0,1.69-.63,3.2,3.2,0,0,0,.52-2v-.24a3.76,3.76,0,0,0-.53-2.27,2,2,0,0,0-1.69-.68,1.74,1.74,0,0,0-1.53.78,3.86,3.86,0,0,0-.53,2.19,3.7,3.7,0,0,0,.53,2.17A1.78,1.78,0,0,0,180.34,429.56Z"/><path class="cls-15" d="M190.7,430.38l-.23-1.07h-.05a3.14,3.14,0,0,1-1.12,1,3.4,3.4,0,0,1-1.39.25,2.5,2.5,0,0,1-1.75-.57,2.1,2.1,0,0,1-.63-1.63q0-2.27,3.63-2.38l1.27,0v-.46a1.9,1.9,0,0,0-.38-1.3,1.56,1.56,0,0,0-1.21-.42,4.94,4.94,0,0,0-2.12.57l-.35-.87a5.36,5.36,0,0,1,1.21-.47,5.24,5.24,0,0,1,1.32-.17,2.85,2.85,0,0,1,2,.59,2.48,2.48,0,0,1,.65,1.91v5.11Zm-2.56-.8a2.3,2.3,0,0,0,1.66-.58,2.15,2.15,0,0,0,.6-1.63v-.68l-1.13,0a4.14,4.14,0,0,0-2,.42,1.27,1.27,0,0,0-.6,1.16,1.17,1.17,0,0,0,.37.94A1.55,1.55,0,0,0,188.13,429.58Z"/><path class="cls-15" d="M196.3,429.58a3.75,3.75,0,0,0,.58,0l.44-.09v.87a2,2,0,0,1-.54.15,4,4,0,0,1-.65.06q-2.17,0-2.17-2.29v-4.46h-1.07v-.55l1.07-.47.48-1.6h.66v1.74h2.17v.88h-2.17v4.41a1.52,1.52,0,0,0,.32,1A1.12,1.12,0,0,0,196.3,429.58Z"/><path class="cls-15" d="M198.72,420.85a.76.76,0,0,1,.19-.57.71.71,0,0,1,1,0,.74.74,0,0,1,.2.57.75.75,0,0,1-.2.57.66.66,0,0,1-.47.19.66.66,0,0,1-.48-.19A.77.77,0,0,1,198.72,420.85Zm1.23,9.52h-1.13v-7.49H200Z"/><path class="cls-15" d="M208.83,426.62a4.13,4.13,0,0,1-.92,2.86,3.25,3.25,0,0,1-2.55,1,3.38,3.38,0,0,1-1.78-.47,3.11,3.11,0,0,1-1.2-1.35,4.72,4.72,0,0,1-.42-2.06,4.13,4.13,0,0,1,.92-2.85,3.24,3.24,0,0,1,2.54-1,3.17,3.17,0,0,1,2.5,1A4.11,4.11,0,0,1,208.83,426.62Zm-5.71,0a3.56,3.56,0,0,0,.57,2.19,2.28,2.28,0,0,0,3.38,0,3.53,3.53,0,0,0,.58-2.19,3.48,3.48,0,0,0-.58-2.17,2,2,0,0,0-1.71-.74,2,2,0,0,0-1.68.73A3.52,3.52,0,0,0,203.12,426.62Z"/><path class="cls-15" d="M215.94,430.38v-4.85a2,2,0,0,0-.42-1.37,1.7,1.7,0,0,0-1.31-.45,2.15,2.15,0,0,0-1.72.64,3.21,3.21,0,0,0-.55,2.1v3.93h-1.13v-7.49h.92l.18,1H212a2.31,2.31,0,0,1,1-.86,3.17,3.17,0,0,1,1.4-.3,2.85,2.85,0,0,1,2,.65,2.78,2.78,0,0,1,.68,2.09v4.89Z"/><path class="cls-15" d="M222.21,421.26a1.33,1.33,0,0,1-.31.91,1.57,1.57,0,0,1-.89.47v0a1.67,1.67,0,0,1,1,.45,1.31,1.31,0,0,1,.34.94,1.53,1.53,0,0,1-.58,1.28,2.63,2.63,0,0,1-1.64.45,4.72,4.72,0,0,1-.85-.07,2.86,2.86,0,0,1-.75-.25v-.63a3.6,3.6,0,0,0,.81.29,3.64,3.64,0,0,0,.81.1q1.51,0,1.51-1.18T220,423h-.57v-.57H220a1.76,1.76,0,0,0,1.08-.3,1,1,0,0,0,.4-.83.82.82,0,0,0-.29-.67,1.21,1.21,0,0,0-.79-.24,2.48,2.48,0,0,0-.72.1,3.25,3.25,0,0,0-.77.38l-.33-.45a2.79,2.79,0,0,1,.83-.44,3,3,0,0,1,1-.16,2,2,0,0,1,1.32.39A1.31,1.31,0,0,1,222.21,421.26Z"/></svg>