<svg id="Layer_1" data-name="Layer 1" xmlns="http://www.w3.org/2000/svg" xmlns:xlink="http://www.w3.org/1999/xlink" viewBox="0 0 512 314"><defs><style>.cls-1{fill:none;}.cls-2{clip-path:url(#clip-path);}.cls-3{fill:url(#Безымянный_градиент_394);}.cls-4{clip-path:url(#clip-path-2);}.cls-5{fill:url(#Безымянный_градиент_70);}.cls-6{clip-path:url(#clip-path-3);}.cls-7{fill:url(#Безымянный_градиент_3);}.cls-8{clip-path:url(#clip-path-4);}.cls-9{fill:url(#Безымянный_градиент_4);}.cls-10{clip-path:url(#clip-path-5);}.cls-11{fill:url(#Безымянный_градиент_11);}.cls-12{fill:#fff;}.cls-13{fill:#474a51;}</style><clipPath id="clip-path"><polygon class="cls-1" points="115.88 4.16 285.85 9.1 256 157 87.18 81.07 115.88 4.16"/></clipPath><linearGradient id="Безымянный_градиент_394" x1="153.28" y1="1983.92" x2="358.72" y2="2189.36" gradientTransform="matrix(1, 0, 0, -1, 0, 2243.17)" gradientUnits="userSpaceOnUse"><stop offset="0.27" stop-color="#fc5fa2"/><stop offset="0.84" stop-color="#8d1ab3"/></linearGradient><clipPath id="clip-path-2"><polygon class="cls-1" points="285.85 9.1 256 157 352.88 0 285.85 9.1"/></clipPath><linearGradient id="Безымянный_градиент_70" x1="152.96" y1="2000.16" x2="359.04" y2="2173.08" gradientTransform="matrix(1, 0, 0, -1, 0, 2243.17)" gradientUnits="userSpaceOnUse"><stop offset="0" stop-color="#6e00a1"/><stop offset="0.21" stop-color="#5f3cb7"/><stop offset="0.71" stop-color="#45a4dd"/><stop offset="1" stop-color="#34e6f6"/></linearGradient><clipPath id="clip-path-3"><polygon class="cls-1" points="87.18 81.07 256 157 190.44 303.74 122.69 303.74 87.18 81.07"/></clipPath><linearGradient id="Безымянный_градиент_3" x1="169.54" y1="2189.66" x2="342.46" y2="1983.58" gradientTransform="matrix(1, 0, 0, -1, 0, 2243.17)" gradientUnits="userSpaceOnUse"><stop offset="0" stop-color="#42ccfb"/><stop offset="0.38" stop-color="#0993ff"/><stop offset="1" stop-color="#9e09c7"/></linearGradient><clipPath id="clip-path-4"><polygon class="cls-1" points="190.44 303.74 256 157 284.38 309.13 190.44 303.74"/></clipPath><linearGradient id="Безымянный_градиент_4" x1="166.3" y1="2193.53" x2="345.7" y2="1979.74" gradientTransform="matrix(1, 0, 0, -1, 0, 2243.17)" gradientUnits="userSpaceOnUse"><stop offset="0" stop-color="#ff00e5"/><stop offset="0.04" stop-color="#f91fca"/><stop offset="0.12" stop-color="#ed5995"/><stop offset="0.2" stop-color="#e28c67"/><stop offset="0.28" stop-color="#dab542"/><stop offset="0.36" stop-color="#d3d525"/><stop offset="0.44" stop-color="#cfec11"/><stop offset="0.51" stop-color="#ccfa04"/><stop offset="0.57" stop-color="#cbff00"/><stop offset="0.6" stop-color="#befd00"/><stop offset="0.65" stop-color="#9cf900"/><stop offset="0.73" stop-color="#65f200"/><stop offset="0.82" stop-color="#19e900"/><stop offset="0.85" stop-color="#00e600"/></linearGradient><clipPath id="clip-path-5"><polygon class="cls-1" points="284.38 309.13 256 157 352.88 0 472.23 251.98 284.38 309.13"/></clipPath><linearGradient id="Безымянный_градиент_11" x1="353.3" y1="40.57" x2="158.7" y2="272.49" gradientUnits="userSpaceOnUse"><stop offset="0.13" stop-color="#ff5c02"/><stop offset="0.64" stop-color="#f8be35"/></linearGradient></defs><title>pie_right</title><g class="cls-2"><path class="cls-3" d="M256,11.26A145.27,145.27,0,1,0,401.27,156.53,145.28,145.28,0,0,0,256,11.26Zm0,203.38a58.11,58.11,0,1,1,58.11-58.11A58.16,58.16,0,0,1,256,214.64Z"/></g><g class="cls-4"><path class="cls-5" d="M256,22a134.5,134.5,0,1,0,134.5,134.5A134.5,134.5,0,0,0,256,22Zm0,188.29a53.8,53.8,0,1,1,53.8-53.8A53.8,53.8,0,0,1,256,210.33Z"/></g><g class="cls-6"><path class="cls-7" d="M256,22a134.5,134.5,0,1,0,134.5,134.5A134.5,134.5,0,0,0,256,22Zm0,188.29a53.8,53.8,0,1,1,53.8-53.8A53.8,53.8,0,0,1,256,210.33Z"/></g><g class="cls-8"><path class="cls-9" d="M256,17A139.56,139.56,0,1,0,395.56,156.53,139.6,139.6,0,0,0,256,17Zm0,195.42a55.86,55.86,0,1,1,55.86-55.86A55.88,55.88,0,0,1,256,212.39Z"/></g><g class="cls-10"><path class="cls-11" d="M256,5.17A151.37,151.37,0,1,0,407.37,156.53,151.36,151.36,0,0,0,256,5.17Zm0,211.91a60.55,60.55,0,1,1,60.55-60.55A60.52,60.52,0,0,1,256,217.08Z"/></g><path class="cls-12" d="M234.73,246.7v12.36c0,.36-.11.49-.49.49h-.83c-.38,0-.49-.13-.49-.49V248.41l-3.36,1.86c-.38.23-.56.15-.73-.17l-.38-.66c-.17-.32-.09-.49.23-.68l4.17-2.35a1,1,0,0,1,.69-.21h.7C234.61,246.21,234.73,246.35,234.73,246.7Z"/><path class="cls-12" d="M242.2,245.93c3.08,0,4.87,1.73,4.87,4.45v5c0,2.72-1.79,4.45-4.87,4.45s-4.88-1.73-4.88-4.45v-5C237.32,247.66,239.1,245.93,242.2,245.93Zm0,1.69c-2,0-3.06,1-3.06,2.76v5c0,1.73,1.11,2.76,3.06,2.76s3-1,3-2.76v-5C245.25,248.64,244.14,247.62,242.2,247.62Z"/><path class="cls-12" d="M251.79,245.91c2,0,3,1.07,3,2.78v1.37c0,1.69-1.07,2.74-3,2.74s-3-1.05-3-2.74v-1.37C248.74,247,249.81,245.91,251.79,245.91Zm0,1.35c-1.07,0-1.63.54-1.63,1.5V250c0,.94.56,1.5,1.63,1.5a1.42,1.42,0,0,0,1.62-1.5v-1.2A1.41,1.41,0,0,0,251.79,247.27Zm9.45-.58-9.13,12.44c-.28.39-.39.43-1,.43h-.56c-.38,0-.45-.24-.26-.51l9.15-12.42c.26-.38.38-.41.9-.41H261C261.35,246.21,261.42,246.44,261.23,246.68Zm-1.5,6.27c2,0,3,1.07,3,2.78v1.35c0,1.71-1.05,2.76-3,2.76s-3-1.05-3-2.76v-1.35C256.69,254,257.76,253,259.73,253Zm0,1.35a1.41,1.41,0,0,0-1.62,1.5V257a1.41,1.41,0,0,0,1.62,1.5c1.07,0,1.63-.54,1.63-1.5v-1.18C261.37,254.85,260.8,254.31,259.73,254.31Z"/><path class="cls-12" d="M234.12,276.21v-7.38H235v6.61h3.26v.78Z"/><path class="cls-12" d="M241.7,276.31a2.54,2.54,0,0,1-1.94-.75,2.89,2.89,0,0,1-.71-2.08,3.21,3.21,0,0,1,.66-2.13,2.19,2.19,0,0,1,1.77-.79,2.09,2.09,0,0,1,1.65.68,2.62,2.62,0,0,1,.61,1.81v.53h-3.81a2.2,2.2,0,0,0,.49,1.48,1.7,1.7,0,0,0,1.32.5,4.46,4.46,0,0,0,1.77-.37v.75a4.43,4.43,0,0,1-.84.28A4.72,4.72,0,0,1,241.7,276.31Zm-.23-5a1.37,1.37,0,0,0-1.06.43,2,2,0,0,0-.47,1.2h2.89a1.84,1.84,0,0,0-.35-1.21A1.25,1.25,0,0,0,241.47,271.27Z"/><path class="cls-12" d="M249.7,270.67v.53l-1,.12a1.81,1.81,0,0,1,.36,1.11,1.63,1.63,0,0,1-.56,1.3,2.24,2.24,0,0,1-1.53.49,2.6,2.6,0,0,1-.46,0,.83.83,0,0,0-.54.71.36.36,0,0,0,.19.34,1.36,1.36,0,0,0,.64.11h1a2.19,2.19,0,0,1,1.38.38,1.31,1.31,0,0,1,.48,1.1,1.57,1.57,0,0,1-.74,1.4,4,4,0,0,1-2.15.48,2.94,2.94,0,0,1-1.67-.4,1.31,1.31,0,0,1-.59-1.14,1.28,1.28,0,0,1,.32-.87,1.65,1.65,0,0,1,.91-.5.87.87,0,0,1-.36-.3.79.79,0,0,1-.14-.47.89.89,0,0,1,.16-.53,1.71,1.71,0,0,1,.51-.44,1.5,1.5,0,0,1-.7-.6,1.77,1.77,0,0,1-.27-1,1.79,1.79,0,0,1,.54-1.4,2.23,2.23,0,0,1,1.55-.49,2.82,2.82,0,0,1,.78.1Zm-4.42,6.47a.75.75,0,0,0,.38.68,2.09,2.09,0,0,0,1.09.23,3,3,0,0,0,1.56-.32,1,1,0,0,0,.51-.86.68.68,0,0,0-.28-.62,2.15,2.15,0,0,0-1-.17h-1a1.32,1.32,0,0,0-.89.27A1,1,0,0,0,245.28,277.14Zm.46-4.69a1.13,1.13,0,0,0,.33.88,1.31,1.31,0,0,0,.91.3,1.07,1.07,0,0,0,1.23-1.19,1.1,1.1,0,0,0-1.24-1.25,1.23,1.23,0,0,0-.91.32A1.28,1.28,0,0,0,245.74,272.44Z"/><path class="cls-12" d="M254.24,276.21l-.17-.79h0a2.33,2.33,0,0,1-.83.71,2.53,2.53,0,0,1-1,.18,1.85,1.85,0,0,1-1.29-.42,1.55,1.55,0,0,1-.47-1.21q0-1.68,2.68-1.76l.94,0v-.34a1.4,1.4,0,0,0-.28-1,1.15,1.15,0,0,0-.9-.31,3.66,3.66,0,0,0-1.57.42l-.26-.64a4,4,0,0,1,.9-.35,3.9,3.9,0,0,1,1-.13,2.11,2.11,0,0,1,1.47.44,1.83,1.83,0,0,1,.48,1.41v3.78Zm-1.89-.59a1.7,1.7,0,0,0,1.23-.43A1.59,1.59,0,0,0,254,274v-.5l-.84,0a3.07,3.07,0,0,0-1.44.31.94.94,0,0,0-.44.86.86.86,0,0,0,.28.69A1.14,1.14,0,0,0,252.34,275.62Z"/><path class="cls-12" d="M257.43,276.21h-.84v-7.86h.84Z"/><path class="cls-12" d="M196.71,32.93c4.11,0,6.61,2.87,6.61,6.16,0,4.25-2.53,5.74-7.56,7.71-1.66.65-3.63,1.32-3.63,3.18v.82h10.21c.56,0,.73.2.73.73v1.07c0,.53-.17.73-.73.73H190c-.56,0-.76-.2-.76-.76V50.5c0-3.8,2.84-5.06,5.71-6.19s5.48-2,5.48-5.12a3.7,3.7,0,0,0-3.85-3.74,4.58,4.58,0,0,0-4.64,3c-.23.54-.42.65-.93.48l-1.21-.45c-.51-.17-.65-.42-.45-.93C190.58,34.67,192.77,32.93,196.71,32.93Z"/><path class="cls-12" d="M213.49,32.93c4.61,0,7.28,2.59,7.28,6.67v7.48c0,4.08-2.67,6.67-7.28,6.67s-7.31-2.59-7.31-6.67V39.59C206.18,35.51,208.85,32.93,213.49,32.93Zm0,2.53c-2.92,0-4.58,1.52-4.58,4.13v7.48c0,2.59,1.66,4.13,4.58,4.13S218,49.66,218,47.07V39.59C218,37,216.39,35.46,213.49,35.46Z"/><path class="cls-12" d="M227.83,32.9c3,0,4.56,1.6,4.56,4.16v2.05c0,2.53-1.6,4.11-4.56,4.11s-4.56-1.58-4.56-4.11V37.06C223.28,34.5,224.88,32.9,227.83,32.9Zm0,2c-1.6,0-2.45.82-2.45,2.25V39c0,1.41.84,2.25,2.45,2.25A2.12,2.12,0,0,0,230.25,39v-1.8A2.11,2.11,0,0,0,227.83,34.92ZM242,34.05,228.31,52.67c-.42.59-.59.65-1.46.65H226c-.56,0-.67-.37-.39-.76L239.31,34c.39-.56.56-.62,1.35-.62h1C242.15,33.35,242.26,33.69,242,34.05Zm-2.25,9.39c3,0,4.56,1.6,4.56,4.16v2c0,2.56-1.57,4.13-4.56,4.13s-4.56-1.58-4.56-4.13v-2C235.17,45,236.78,43.44,239.73,43.44Zm0,2a2.11,2.11,0,0,0-2.42,2.25v1.77a2.11,2.11,0,0,0,2.42,2.25c1.6,0,2.45-.82,2.45-2.25V47.72C242.17,46.28,241.33,45.47,239.73,45.47Z"/><path class="cls-12" d="M184.28,71.31V63.94h.86v7.37Z"/><path class="cls-12" d="M190.81,71.31V67.74a1.45,1.45,0,0,0-.31-1,1.25,1.25,0,0,0-1-.33,1.59,1.59,0,0,0-1.27.47,2.36,2.36,0,0,0-.4,1.55v2.9H187V65.79h.68l.14.76h0a1.72,1.72,0,0,1,.72-.63,2.34,2.34,0,0,1,1-.22,2.1,2.1,0,0,1,1.5.48,2,2,0,0,1,.5,1.54v3.6Z"/><path class="cls-12" d="M195.85,66.44h-1.41v4.87h-.84V66.44h-1v-.38l1-.3v-.31q0-2,1.78-2a3.64,3.64,0,0,1,1,.18l-.22.67a2.75,2.75,0,0,0-.83-.16.8.8,0,0,0-.7.31,1.76,1.76,0,0,0-.23,1v.36h1.41Z"/><path class="cls-12" d="M199.38,65.69a3.29,3.29,0,0,1,.66.06l-.12.78a2.83,2.83,0,0,0-.61-.08,1.47,1.47,0,0,0-1.15.54,2,2,0,0,0-.48,1.36v3h-.84V65.79h.69l.1,1h0a2.42,2.42,0,0,1,.74-.83A1.67,1.67,0,0,1,199.38,65.69Z"/><path class="cls-12" d="M204.47,71.31l-.17-.79h0a2.34,2.34,0,0,1-.82.7,2.52,2.52,0,0,1-1,.18,1.85,1.85,0,0,1-1.29-.42,1.54,1.54,0,0,1-.47-1.21q0-1.67,2.68-1.75l.94,0v-.34a1.4,1.4,0,0,0-.28-1,1.15,1.15,0,0,0-.89-.31,3.64,3.64,0,0,0-1.56.42l-.26-.64a4,4,0,0,1,1.87-.47,2.11,2.11,0,0,1,1.46.44,1.83,1.83,0,0,1,.48,1.41v3.77Zm-1.89-.59a1.7,1.7,0,0,0,1.23-.43,1.59,1.59,0,0,0,.45-1.2v-.5l-.84,0a3.05,3.05,0,0,0-1.44.31.93.93,0,0,0-.44.85.86.86,0,0,0,.27.69A1.14,1.14,0,0,0,202.58,70.72Z"/><path class="cls-12" d="M210.38,69.8A1.38,1.38,0,0,1,209.8,71a2.7,2.7,0,0,1-1.61.42,3.5,3.5,0,0,1-1.71-.35v-.78a4.19,4.19,0,0,0,.85.32,3.57,3.57,0,0,0,.88.12,2,2,0,0,0,1-.21.72.72,0,0,0,.07-1.19,4.41,4.41,0,0,0-1.09-.54,5.93,5.93,0,0,1-1.1-.5,1.49,1.49,0,0,1-.48-.49,1.26,1.26,0,0,1-.16-.65,1.24,1.24,0,0,1,.55-1.07,2.57,2.57,0,0,1,1.51-.39,4.41,4.41,0,0,1,1.74.36l-.3.68a4,4,0,0,0-1.51-.34,1.73,1.73,0,0,0-.9.19.58.58,0,0,0-.3.51.63.63,0,0,0,.11.38,1.12,1.12,0,0,0,.37.3,7.93,7.93,0,0,0,1,.41,3.62,3.62,0,0,1,1.33.72A1.27,1.27,0,0,1,210.38,69.8Z"/><path class="cls-12" d="M213.52,70.72a2.79,2.79,0,0,0,.43,0l.33-.07v.64a1.52,1.52,0,0,1-.4.11,2.93,2.93,0,0,1-.48,0q-1.6,0-1.6-1.69V66.44H211V66l.79-.35.35-1.18h.48v1.28h1.6v.65h-1.6v3.25a1.12,1.12,0,0,0,.24.77A.83.83,0,0,0,213.52,70.72Z"/><path class="cls-12" d="M217.9,65.69a3.29,3.29,0,0,1,.66.06l-.12.78a2.83,2.83,0,0,0-.61-.08,1.47,1.47,0,0,0-1.15.54,2,2,0,0,0-.48,1.36v3h-.84V65.79h.69l.1,1h0a2.42,2.42,0,0,1,.74-.83A1.67,1.67,0,0,1,217.9,65.69Z"/><path class="cls-12" d="M220.38,65.79v3.58a1.44,1.44,0,0,0,.31,1,1.25,1.25,0,0,0,1,.33,1.57,1.57,0,0,0,1.27-.47,2.39,2.39,0,0,0,.4-1.55v-2.9h.84v5.52h-.69l-.12-.74h0a1.67,1.67,0,0,1-.71.63,2.4,2.4,0,0,1-1,.22,2.11,2.11,0,0,1-1.51-.48,2,2,0,0,1-.5-1.53V65.79Z"/><path class="cls-12" d="M228.13,71.41a2.36,2.36,0,0,1-1.86-.74,3,3,0,0,1-.66-2.09,3.13,3.13,0,0,1,.67-2.14,2.4,2.4,0,0,1,1.9-.76,3.8,3.8,0,0,1,.8.09,2.61,2.61,0,0,1,.63.2l-.26.71a3.92,3.92,0,0,0-.6-.18,2.7,2.7,0,0,0-.58-.07q-1.68,0-1.68,2.15a2.55,2.55,0,0,0,.41,1.56,1.43,1.43,0,0,0,1.22.54,3.72,3.72,0,0,0,1.42-.3v.74A3,3,0,0,1,228.13,71.41Z"/><path class="cls-12" d="M232.62,70.72a2.79,2.79,0,0,0,.43,0l.33-.07v.64a1.52,1.52,0,0,1-.4.11,2.93,2.93,0,0,1-.48,0q-1.6,0-1.6-1.69V66.44h-.79V66l.79-.35.35-1.18h.48v1.28h1.6v.65h-1.6v3.25a1.12,1.12,0,0,0,.24.77A.83.83,0,0,0,232.62,70.72Z"/><path class="cls-12" d="M235.27,65.79v3.58a1.44,1.44,0,0,0,.31,1,1.25,1.25,0,0,0,1,.33,1.57,1.57,0,0,0,1.27-.47,2.39,2.39,0,0,0,.4-1.55v-2.9H239v5.52h-.69l-.12-.74h0a1.67,1.67,0,0,1-.71.63,2.4,2.4,0,0,1-1,.22,2.11,2.11,0,0,1-1.51-.48,2,2,0,0,1-.5-1.53V65.79Z"/><path class="cls-12" d="M243.34,65.69a3.29,3.29,0,0,1,.66.06l-.12.78a2.83,2.83,0,0,0-.61-.08,1.47,1.47,0,0,0-1.15.54,2,2,0,0,0-.48,1.36v3h-.84V65.79h.69l.1,1h0a2.42,2.42,0,0,1,.74-.83A1.67,1.67,0,0,1,243.34,65.69Z"/><path class="cls-12" d="M247.36,71.41a2.54,2.54,0,0,1-1.93-.75,2.89,2.89,0,0,1-.71-2.07,3.2,3.2,0,0,1,.66-2.12,2.19,2.19,0,0,1,1.77-.79,2.08,2.08,0,0,1,1.64.68,2.62,2.62,0,0,1,.6,1.8v.53h-3.8a2.19,2.19,0,0,0,.49,1.48,1.7,1.7,0,0,0,1.31.5,4.44,4.44,0,0,0,1.76-.37v.75a4.41,4.41,0,0,1-.84.27A4.7,4.7,0,0,1,247.36,71.41Zm-.23-5a1.36,1.36,0,0,0-1.06.43,2,2,0,0,0-.47,1.2h2.89a1.84,1.84,0,0,0-.35-1.21A1.24,1.24,0,0,0,247.14,66.39Z"/><path class="cls-12" d="M188.94,83.7l-.17-.79h0a2.34,2.34,0,0,1-.82.7,2.52,2.52,0,0,1-1,.18,1.85,1.85,0,0,1-1.29-.42,1.54,1.54,0,0,1-.47-1.21q0-1.67,2.68-1.75l.94,0V80a1.4,1.4,0,0,0-.28-1,1.15,1.15,0,0,0-.89-.31,3.64,3.64,0,0,0-1.56.42l-.26-.64a4,4,0,0,1,1.87-.47,2.11,2.11,0,0,1,1.46.44,1.83,1.83,0,0,1,.48,1.41V83.7ZM187,83.11a1.7,1.7,0,0,0,1.23-.43,1.59,1.59,0,0,0,.45-1.2V81l-.84,0a3.05,3.05,0,0,0-1.44.31.93.93,0,0,0-.44.85.86.86,0,0,0,.27.69A1.14,1.14,0,0,0,187,83.11Z"/><path class="cls-12" d="M195.06,83.7V80.12a1.45,1.45,0,0,0-.31-1,1.25,1.25,0,0,0-1-.33,1.59,1.59,0,0,0-1.27.47,2.36,2.36,0,0,0-.4,1.55v2.9h-.84V78.17H192l.14.76h0a1.72,1.72,0,0,1,.72-.63,2.34,2.34,0,0,1,1-.22,2.1,2.1,0,0,1,1.5.48,2,2,0,0,1,.5,1.54v3.6Z"/><path class="cls-12" d="M201.38,83h0a2,2,0,0,1-1.73.84,2.05,2.05,0,0,1-1.69-.74,3.26,3.26,0,0,1-.6-2.11,3.32,3.32,0,0,1,.61-2.12,2,2,0,0,1,1.68-.76,2,2,0,0,1,1.72.82h.07l0-.4,0-.39V75.85h.84V83.7h-.68Zm-1.67.14a1.52,1.52,0,0,0,1.24-.47,2.35,2.35,0,0,0,.39-1.5v-.18a2.77,2.77,0,0,0-.39-1.68,1.48,1.48,0,0,0-1.25-.5,1.28,1.28,0,0,0-1.13.57,2.84,2.84,0,0,0-.39,1.62,2.73,2.73,0,0,0,.39,1.6A1.32,1.32,0,0,0,199.7,83.1Z"/><path class="cls-12" d="M210.91,81.74a1.81,1.81,0,0,1-.71,1.52,3.06,3.06,0,0,1-1.92.54,4.79,4.79,0,0,1-2-.34v-.83a5.33,5.33,0,0,0,1,.3,5.18,5.18,0,0,0,1.06.11,2.14,2.14,0,0,0,1.29-.32,1.07,1.07,0,0,0,.43-.91,1.16,1.16,0,0,0-.15-.63,1.43,1.43,0,0,0-.51-.45,7.21,7.21,0,0,0-1.1-.47,3.5,3.5,0,0,1-1.47-.87,1.92,1.92,0,0,1-.44-1.31,1.64,1.64,0,0,1,.64-1.36,2.67,2.67,0,0,1,1.69-.5,5,5,0,0,1,2,.4l-.27.75a4.57,4.57,0,0,0-1.77-.38,1.72,1.72,0,0,0-1.06.29,1,1,0,0,0-.38.81,1.24,1.24,0,0,0,.14.63,1.33,1.33,0,0,0,.48.45,5.86,5.86,0,0,0,1,.45,4.07,4.07,0,0,1,1.59.89A1.74,1.74,0,0,1,210.91,81.74Z"/><path class="cls-12" d="M217.05,80.93a3,3,0,0,1-.68,2.11,2.4,2.4,0,0,1-1.88.76,2.48,2.48,0,0,1-1.31-.35,2.29,2.29,0,0,1-.89-1,3.48,3.48,0,0,1-.31-1.52,3,3,0,0,1,.68-2.1,2.39,2.39,0,0,1,1.87-.75,2.34,2.34,0,0,1,1.84.77A3,3,0,0,1,217.05,80.93Zm-4.21,0a2.62,2.62,0,0,0,.42,1.61,1.68,1.68,0,0,0,2.49,0,2.61,2.61,0,0,0,.43-1.62,2.56,2.56,0,0,0-.43-1.6,1.49,1.49,0,0,0-1.26-.55,1.47,1.47,0,0,0-1.24.54A2.6,2.6,0,0,0,212.85,80.93Z"/><path class="cls-12" d="M221,78.82H219.6V83.7h-.84V78.82h-1v-.38l1-.3v-.31q0-2,1.78-2a3.64,3.64,0,0,1,1,.18l-.22.67a2.75,2.75,0,0,0-.83-.16.8.8,0,0,0-.7.31,1.76,1.76,0,0,0-.23,1v.36H221Z"/><path class="cls-12" d="M223.8,83.11a2.79,2.79,0,0,0,.43,0l.33-.07v.64a1.52,1.52,0,0,1-.4.11,2.93,2.93,0,0,1-.48,0q-1.6,0-1.6-1.69V78.82h-.79v-.4l.79-.35.35-1.18h.48v1.28h1.6v.65h-1.6v3.25a1.12,1.12,0,0,0,.24.77A.83.83,0,0,0,223.8,83.11Z"/><path class="cls-12" d="M230.17,83.7l-1-3.24q-.1-.3-.36-1.35h0q-.2.88-.35,1.36l-1,3.23h-1l-1.51-5.52h.88l.81,3.17a13,13,0,0,1,.32,1.47h0q.06-.29.18-.74c.08-.3.15-.54.21-.72l1-3.17h.91l1,3.17a10.84,10.84,0,0,1,.38,1.46h0a5.5,5.5,0,0,1,.11-.56q.09-.38,1.05-4.07h.87l-1.53,5.52Z"/><path class="cls-12" d="M237.08,83.7l-.17-.79h0a2.34,2.34,0,0,1-.82.7,2.52,2.52,0,0,1-1,.18,1.85,1.85,0,0,1-1.29-.42,1.54,1.54,0,0,1-.47-1.21q0-1.67,2.68-1.75l.94,0V80a1.4,1.4,0,0,0-.28-1,1.15,1.15,0,0,0-.89-.31,3.64,3.64,0,0,0-1.56.42l-.26-.64a4,4,0,0,1,1.87-.47,2.11,2.11,0,0,1,1.46.44,1.83,1.83,0,0,1,.48,1.41V83.7Zm-1.89-.59a1.7,1.7,0,0,0,1.23-.43,1.59,1.59,0,0,0,.45-1.2V81L236,81a3.05,3.05,0,0,0-1.44.31.93.93,0,0,0-.44.85.86.86,0,0,0,.27.69A1.14,1.14,0,0,0,235.19,83.11Z"/><path class="cls-12" d="M241.95,78.07a3.29,3.29,0,0,1,.66.06l-.12.78a2.83,2.83,0,0,0-.61-.08,1.47,1.47,0,0,0-1.15.54,2,2,0,0,0-.48,1.36v3h-.84V78.17h.69l.1,1h0a2.42,2.42,0,0,1,.74-.83A1.67,1.67,0,0,1,241.95,78.07Z"/><path class="cls-12" d="M246,83.8a2.54,2.54,0,0,1-1.93-.75,2.89,2.89,0,0,1-.71-2.07,3.2,3.2,0,0,1,.66-2.12,2.19,2.19,0,0,1,1.77-.79,2.08,2.08,0,0,1,1.64.68,2.62,2.62,0,0,1,.6,1.8v.53h-3.8a2.19,2.19,0,0,0,.49,1.48,1.7,1.7,0,0,0,1.31.5,4.44,4.44,0,0,0,1.76-.37v.75a4.41,4.41,0,0,1-.84.27A4.7,4.7,0,0,1,246,83.8Zm-.23-5a1.36,1.36,0,0,0-1.06.43,2,2,0,0,0-.47,1.2h2.89a1.84,1.84,0,0,0-.35-1.21A1.24,1.24,0,0,0,245.75,78.77Z"/><path class="cls-12" d="M154,176.07c4.11,0,6.61,2.87,6.61,6.16,0,4.25-2.53,5.74-7.56,7.71-1.66.65-3.63,1.32-3.63,3.18v.82H159.6c.56,0,.73.2.73.73v1.07c0,.53-.17.73-.73.73H147.31c-.56,0-.76-.2-.76-.76v-2.05c0-3.8,2.84-5.06,5.71-6.19s5.48-2,5.48-5.12a3.7,3.7,0,0,0-3.85-3.74,4.58,4.58,0,0,0-4.64,3c-.23.54-.42.65-.93.48l-1.21-.45c-.51-.17-.65-.42-.45-.93C147.85,177.82,150,176.07,154,176.07Z"/><path class="cls-12" d="M176.61,177.23v1.07c0,.53-.2.73-.73.73h-8.72l-.51,5.15h4.08c4.53,0,6.64,2.81,6.64,6.21s-2.5,6.5-6.89,6.5c-4.13,0-6.41-1.6-7.45-4.5-.2-.53-.08-.76.42-1l1.21-.42c.51-.2.73-.08.93.45.7,1.88,2.14,2.9,4.87,2.9a3.78,3.78,0,0,0,4.08-4c0-2.17-1.46-3.68-3.94-3.68h-6c-.65,0-.84-.28-.79-.9l.84-8.21c.08-.84.39-1.1,1.24-1.1h10C176.41,176.49,176.61,176.69,176.61,177.23Z"/><path class="cls-12" d="M184,176c3,0,4.56,1.6,4.56,4.16v2.05c0,2.53-1.6,4.11-4.56,4.11s-4.56-1.58-4.56-4.11v-2.05C179.45,177.65,181.05,176,184,176Zm0,2c-1.6,0-2.45.82-2.45,2.25v1.8c0,1.41.84,2.25,2.45,2.25a2.12,2.12,0,0,0,2.42-2.25v-1.8A2.11,2.11,0,0,0,184,178.07Zm14.15-.87-13.67,18.62c-.42.59-.59.65-1.46.65h-.84c-.56,0-.67-.37-.39-.76l13.7-18.59c.39-.56.56-.62,1.35-.62h1C198.32,176.49,198.43,176.83,198.15,177.2Zm-2.25,9.39c3,0,4.56,1.6,4.56,4.16v2c0,2.56-1.57,4.13-4.56,4.13s-4.56-1.58-4.56-4.13v-2C191.34,188.19,192.95,186.59,195.9,186.59Zm0,2a2.11,2.11,0,0,0-2.42,2.25v1.77a2.11,2.11,0,0,0,2.42,2.25c1.6,0,2.45-.82,2.45-2.25v-1.77C198.35,189.43,197.5,188.61,195.9,188.61Z"/><path class="cls-12" d="M153.23,214l-2.5-6.53h0q.07.78.07,1.84V214H150v-7.37h1.29l2.33,6.08h0l2.35-6.08h1.28V214h-.86V209.3q0-.82.07-1.77h0L153.92,214Z"/><path class="cls-12" d="M162.56,214l-.17-.79h0a2.34,2.34,0,0,1-.82.7,2.52,2.52,0,0,1-1,.18,1.85,1.85,0,0,1-1.29-.42,1.54,1.54,0,0,1-.47-1.21q0-1.67,2.68-1.75l.94,0v-.34a1.4,1.4,0,0,0-.28-1,1.15,1.15,0,0,0-.89-.31,3.64,3.64,0,0,0-1.56.42l-.26-.64a4,4,0,0,1,1.87-.47,2.11,2.11,0,0,1,1.46.44,1.83,1.83,0,0,1,.48,1.41V214Zm-1.89-.59a1.7,1.7,0,0,0,1.23-.43,1.59,1.59,0,0,0,.45-1.2v-.5l-.84,0a3.05,3.05,0,0,0-1.44.31.93.93,0,0,0-.44.85.86.86,0,0,0,.27.69A1.14,1.14,0,0,0,160.67,213.45Z"/><path class="cls-12" d="M167.42,208.42a3.29,3.29,0,0,1,.66.06l-.12.78a2.83,2.83,0,0,0-.61-.08,1.47,1.47,0,0,0-1.15.54,2,2,0,0,0-.48,1.36v3h-.84v-5.52h.69l.1,1h0a2.42,2.42,0,0,1,.74-.83A1.67,1.67,0,0,1,167.42,208.42Z"/><path class="cls-12" d="M169.94,211.22a9.89,9.89,0,0,1,.66-.81l1.78-1.89h1l-2.24,2.35,2.39,3.17h-1l-2-2.61-.63.54V214h-.83V206.2h.83v4.16c0,.18,0,.47,0,.86Z"/><path class="cls-12" d="M176.87,214.15a2.54,2.54,0,0,1-1.93-.75,2.89,2.89,0,0,1-.71-2.07,3.2,3.2,0,0,1,.66-2.12,2.19,2.19,0,0,1,1.77-.79,2.08,2.08,0,0,1,1.64.68,2.62,2.62,0,0,1,.6,1.8v.53h-3.8a2.19,2.19,0,0,0,.49,1.48,1.7,1.7,0,0,0,1.31.5,4.44,4.44,0,0,0,1.76-.37v.75a4.41,4.41,0,0,1-.84.27A4.7,4.7,0,0,1,176.87,214.15Zm-.23-5a1.36,1.36,0,0,0-1.06.43,2,2,0,0,0-.47,1.2H178a1.84,1.84,0,0,0-.35-1.21A1.24,1.24,0,0,0,176.64,209.12Z"/><path class="cls-12" d="M182.11,213.45a2.79,2.79,0,0,0,.43,0l.33-.07V214a1.52,1.52,0,0,1-.4.11,2.93,2.93,0,0,1-.48,0q-1.6,0-1.6-1.69v-3.29h-.79v-.4l.79-.35.35-1.18h.48v1.28h1.6v.65h-1.6v3.25a1.12,1.12,0,0,0,.24.77A.83.83,0,0,0,182.11,213.45Z"/><path class="cls-12" d="M183.9,207a.56.56,0,0,1,.14-.42.52.52,0,0,1,.7,0,.55.55,0,0,1,.15.42.56.56,0,0,1-.15.42.51.51,0,0,1-.7,0A.57.57,0,0,1,183.9,207Zm.91,7H184v-5.52h.84Z"/><path class="cls-12" d="M190.36,214v-3.57a1.45,1.45,0,0,0-.31-1,1.25,1.25,0,0,0-1-.33,1.59,1.59,0,0,0-1.27.47,2.36,2.36,0,0,0-.4,1.55V214h-.84v-5.52h.68l.14.76h0a1.72,1.72,0,0,1,.72-.63,2.34,2.34,0,0,1,1-.22,2.1,2.1,0,0,1,1.5.48,2,2,0,0,1,.5,1.54V214Z"/><path class="cls-12" d="M197.43,208.52v.53l-1,.12a1.73,1.73,0,0,1,.25.46,1.76,1.76,0,0,1,.11.64,1.63,1.63,0,0,1-.55,1.29,2.23,2.23,0,0,1-1.52.48,2.49,2.49,0,0,1-.46,0,.82.82,0,0,0-.53.71.36.36,0,0,0,.19.33,1.36,1.36,0,0,0,.64.11h1a2.19,2.19,0,0,1,1.38.38,1.31,1.31,0,0,1,.48,1.1,1.57,1.57,0,0,1-.74,1.4,3.94,3.94,0,0,1-2.15.48,2.94,2.94,0,0,1-1.67-.4,1.3,1.3,0,0,1-.59-1.14,1.28,1.28,0,0,1,.32-.87,1.65,1.65,0,0,1,.91-.5.88.88,0,0,1-.35-.3.78.78,0,0,1-.14-.47.88.88,0,0,1,.16-.53,1.69,1.69,0,0,1,.51-.44,1.49,1.49,0,0,1-.7-.6,1.76,1.76,0,0,1-.27-1,1.79,1.79,0,0,1,.54-1.4,2.22,2.22,0,0,1,1.54-.49,2.83,2.83,0,0,1,.78.1ZM193,215a.75.75,0,0,0,.38.68,2.09,2.09,0,0,0,1.08.23,3,3,0,0,0,1.56-.31,1,1,0,0,0,.51-.85.68.68,0,0,0-.28-.62,2.15,2.15,0,0,0-1-.17h-1a1.32,1.32,0,0,0-.89.27A1,1,0,0,0,193,215Zm.45-4.68a1.12,1.12,0,0,0,.33.88,1.31,1.31,0,0,0,.91.3,1.07,1.07,0,0,0,1.22-1.19,1.1,1.1,0,0,0-1.24-1.24,1.23,1.23,0,0,0-.91.32A1.28,1.28,0,0,0,193.48,210.29Z"/><path class="cls-12" d="M334.72,189.71v1c0,.53-.17.73-.73.73h-2.31v4.33c0,.53-.2.73-.73.73h-1.07c-.56,0-.73-.2-.73-.73V191.4h-9.7c-.56,0-.73-.2-.73-.73v-.79a1.09,1.09,0,0,1,.25-.9l9.73-12.09a1.09,1.09,0,0,1,1-.53h1.18c.56,0,.76.17.76.73V189H334C334.55,189,334.72,189.18,334.72,189.71ZM321.9,189h7.26V180Z"/><path class="cls-12" d="M344.34,176.07c4.61,0,7.28,2.59,7.28,6.67v7.48c0,4.08-2.67,6.67-7.28,6.67S337,194.3,337,190.22v-7.48C337,178.66,339.7,176.07,344.34,176.07Zm0,2.53c-2.92,0-4.58,1.52-4.58,4.13v7.48c0,2.59,1.66,4.13,4.58,4.13s4.56-1.55,4.56-4.13v-7.48C348.89,180.12,347.23,178.6,344.34,178.6Z"/><path class="cls-12" d="M358.67,176c3,0,4.56,1.6,4.56,4.16v2.05c0,2.53-1.6,4.11-4.56,4.11s-4.56-1.58-4.56-4.11v-2.05C354.12,177.65,355.72,176,358.67,176Zm0,2c-1.6,0-2.45.82-2.45,2.25v1.8c0,1.41.84,2.25,2.45,2.25a2.12,2.12,0,0,0,2.42-2.25v-1.8A2.11,2.11,0,0,0,358.67,178.07Zm14.15-.87-13.67,18.62c-.42.59-.59.65-1.46.65h-.84c-.56,0-.67-.37-.39-.76l13.7-18.59c.39-.56.56-.62,1.35-.62h1C373,176.49,373.1,176.83,372.82,177.2Zm-2.25,9.39c3,0,4.56,1.6,4.56,4.16v2c0,2.56-1.57,4.13-4.56,4.13s-4.56-1.58-4.56-4.13v-2C366,188.19,367.62,186.59,370.57,186.59Zm0,2a2.11,2.11,0,0,0-2.42,2.25v1.77a2.11,2.11,0,0,0,2.42,2.25c1.6,0,2.45-.82,2.45-2.25v-1.77C373,189.43,372.17,188.61,370.57,188.61Z"/><path class="cls-12" d="M323.56,210.29a3.72,3.72,0,0,1-1,2.79,3.92,3.92,0,0,1-2.85,1h-2v-7.37h2.26a3.31,3.31,0,0,1,3.62,3.61Zm-.91,0a3,3,0,0,0-.72-2.17,2.9,2.9,0,0,0-2.15-.73h-1.25v5.89h1a3.17,3.17,0,0,0,2.3-.75A3,3,0,0,0,322.66,210.32Z"/><path class="cls-12" d="M327.41,214.15a2.54,2.54,0,0,1-1.93-.75,2.89,2.89,0,0,1-.71-2.07,3.2,3.2,0,0,1,.66-2.12,2.19,2.19,0,0,1,1.77-.79,2.08,2.08,0,0,1,1.64.68,2.62,2.62,0,0,1,.6,1.8v.53h-3.8a2.19,2.19,0,0,0,.49,1.48,1.7,1.7,0,0,0,1.31.5,4.44,4.44,0,0,0,1.76-.37v.75a4.41,4.41,0,0,1-.84.27A4.7,4.7,0,0,1,327.41,214.15Zm-.23-5a1.36,1.36,0,0,0-1.06.43,2,2,0,0,0-.47,1.2h2.89a1.84,1.84,0,0,0-.35-1.21A1.24,1.24,0,0,0,327.19,209.12Z"/><path class="cls-12" d="M332.08,214l-2.1-5.52h.9l1.19,3.28a15.48,15.48,0,0,1,.47,1.49h0a11.08,11.08,0,0,1,.35-1.11q.3-.84,1.32-3.66h.9l-2.1,5.52Z"/><path class="cls-12" d="M338.38,214.15a2.54,2.54,0,0,1-1.93-.75,2.89,2.89,0,0,1-.71-2.07,3.2,3.2,0,0,1,.66-2.12,2.19,2.19,0,0,1,1.77-.79,2.08,2.08,0,0,1,1.64.68,2.62,2.62,0,0,1,.6,1.8v.53h-3.8a2.19,2.19,0,0,0,.49,1.48,1.7,1.7,0,0,0,1.31.5,4.44,4.44,0,0,0,1.76-.37v.75a4.41,4.41,0,0,1-.84.27A4.7,4.7,0,0,1,338.38,214.15Zm-.23-5a1.36,1.36,0,0,0-1.06.43,2,2,0,0,0-.47,1.2h2.89a1.84,1.84,0,0,0-.35-1.21A1.24,1.24,0,0,0,338.15,209.12Z"/><path class="cls-12" d="M342.67,214h-.84V206.2h.84Z"/><path class="cls-12" d="M349.21,211.28a3,3,0,0,1-.68,2.11,2.4,2.4,0,0,1-1.88.76,2.48,2.48,0,0,1-1.31-.35,2.29,2.29,0,0,1-.89-1,3.48,3.48,0,0,1-.31-1.52,3,3,0,0,1,.68-2.1,2.39,2.39,0,0,1,1.87-.75,2.34,2.34,0,0,1,1.84.77A3,3,0,0,1,349.21,211.28Zm-4.21,0a2.62,2.62,0,0,0,.42,1.61,1.68,1.68,0,0,0,2.49,0,2.61,2.61,0,0,0,.43-1.62,2.56,2.56,0,0,0-.43-1.6,1.49,1.49,0,0,0-1.26-.55,1.47,1.47,0,0,0-1.24.54A2.6,2.6,0,0,0,345,211.28Z"/><path class="cls-12" d="M353.25,214.15a2.39,2.39,0,0,1-1-.2,1.84,1.84,0,0,1-.75-.61h-.06a7.48,7.48,0,0,1,.06.92v2.27h-.84v-8h.68l.12.76h0a1.94,1.94,0,0,1,.75-.65,2.27,2.27,0,0,1,1-.2,2,2,0,0,1,1.7.75,4,4,0,0,1,0,4.22A2,2,0,0,1,353.25,214.15Zm-.12-5a1.48,1.48,0,0,0-1.22.47,2.41,2.41,0,0,0-.39,1.49v.19a2.77,2.77,0,0,0,.39,1.67,1.48,1.48,0,0,0,1.25.5,1.3,1.3,0,0,0,1.12-.58,2.75,2.75,0,0,0,.41-1.6,2.65,2.65,0,0,0-.41-1.58A1.33,1.33,0,0,0,353.13,209.13Z"/><path class="cls-12" d="M364,214v-3.59a1.49,1.49,0,0,0-.28-1,1.09,1.09,0,0,0-.88-.33,1.42,1.42,0,0,0-1.15.45,2.14,2.14,0,0,0-.37,1.38V214h-.84v-3.59a1.49,1.49,0,0,0-.28-1,1.1,1.1,0,0,0-.88-.33,1.37,1.37,0,0,0-1.15.47,2.55,2.55,0,0,0-.37,1.54V214H357v-5.52h.68l.14.76h0a1.65,1.65,0,0,1,.67-.63,2,2,0,0,1,1-.23,1.64,1.64,0,0,1,1.69.94h0a1.76,1.76,0,0,1,.72-.69,2.22,2.22,0,0,1,1.07-.25,1.87,1.87,0,0,1,1.4.48,2.15,2.15,0,0,1,.47,1.54V214Z"/><path class="cls-12" d="M368.93,214.15a2.54,2.54,0,0,1-1.93-.75,2.89,2.89,0,0,1-.71-2.07,3.2,3.2,0,0,1,.66-2.12,2.19,2.19,0,0,1,1.77-.79,2.08,2.08,0,0,1,1.64.68,2.62,2.62,0,0,1,.6,1.8v.53h-3.8a2.19,2.19,0,0,0,.49,1.48,1.7,1.7,0,0,0,1.31.5,4.44,4.44,0,0,0,1.76-.37v.75a4.41,4.41,0,0,1-.84.27A4.7,4.7,0,0,1,368.93,214.15Zm-.23-5a1.36,1.36,0,0,0-1.06.43,2,2,0,0,0-.47,1.2h2.89a1.84,1.84,0,0,0-.35-1.21A1.24,1.24,0,0,0,368.71,209.12Z"/><path class="cls-12" d="M376.17,214v-3.57a1.45,1.45,0,0,0-.31-1,1.25,1.25,0,0,0-1-.33,1.59,1.59,0,0,0-1.27.47,2.36,2.36,0,0,0-.4,1.55V214h-.84v-5.52h.68l.14.76h0a1.72,1.72,0,0,1,.72-.63,2.34,2.34,0,0,1,1-.22,2.1,2.1,0,0,1,1.5.48,2,2,0,0,1,.5,1.54V214Z"/><path class="cls-12" d="M380.51,213.45a2.79,2.79,0,0,0,.43,0l.33-.07V214a1.52,1.52,0,0,1-.4.11,2.93,2.93,0,0,1-.48,0q-1.6,0-1.6-1.69v-3.29H378v-.4l.79-.35.35-1.18h.48v1.28h1.6v.65h-1.6v3.25a1.12,1.12,0,0,0,.24.77A.83.83,0,0,0,380.51,213.45Z"/><path class="cls-12" d="M291.38,56v.71c0,.36-.13.49-.49.49h-5.82l-.34,3.44h2.72c3,0,4.43,1.88,4.43,4.15a4.27,4.27,0,0,1-4.6,4.34c-2.76,0-4.28-1.07-5-3-.13-.36-.06-.51.28-.64l.81-.28c.34-.13.49-.06.62.3.47,1.26,1.43,1.93,3.25,1.93A2.52,2.52,0,0,0,290,64.77a2.38,2.38,0,0,0-2.63-2.46h-4c-.43,0-.56-.19-.53-.6l.56-5.48c.06-.56.26-.73.83-.73h6.71C291.25,55.49,291.38,55.62,291.38,56Z"/><path class="cls-12" d="M296.32,55.19c2,0,3,1.07,3,2.78v1.37c0,1.69-1.07,2.74-3,2.74s-3-1.05-3-2.74V58C293.28,56.26,294.35,55.19,296.32,55.19Zm0,1.35c-1.07,0-1.63.54-1.63,1.5v1.2c0,.94.56,1.5,1.63,1.5a1.42,1.42,0,0,0,1.62-1.5V58A1.41,1.41,0,0,0,296.32,56.54Zm9.45-.58-9.13,12.44c-.28.39-.39.43-1,.43h-.56c-.38,0-.45-.24-.26-.51L304,55.9c.26-.38.38-.41.9-.41h.66C305.88,55.49,306,55.71,305.77,56Zm-1.5,6.27c2,0,3,1.07,3,2.78v1.35c0,1.71-1.05,2.76-3,2.76s-3-1.05-3-2.76V65C301.22,63.3,302.29,62.23,304.27,62.23Zm0,1.35a1.41,1.41,0,0,0-1.62,1.5v1.18a1.41,1.41,0,0,0,1.62,1.5c1.07,0,1.63-.54,1.63-1.5V65.09C305.9,64.13,305.34,63.58,304.27,63.58Z"/><path class="cls-13" d="M299,20.74v3.07h-.86V16.42h2a3.19,3.19,0,0,1,2,.52,1.89,1.89,0,0,1,.65,1.57,2,2,0,0,1-1.48,2l2,3.32h-1l-1.79-3.07Zm0-.74h1.18a2,2,0,0,0,1.33-.36,1.34,1.34,0,0,0,.42-1.08,1.23,1.23,0,0,0-.43-1.06,2.34,2.34,0,0,0-1.39-.32H299Z"/><path class="cls-13" d="M306.73,23.91a2.54,2.54,0,0,1-1.94-.75,2.89,2.89,0,0,1-.71-2.08,3.21,3.21,0,0,1,.66-2.13,2.19,2.19,0,0,1,1.77-.79,2.09,2.09,0,0,1,1.65.68,2.62,2.62,0,0,1,.61,1.81v.53h-3.81a2.2,2.2,0,0,0,.49,1.48,1.7,1.7,0,0,0,1.32.5,4.46,4.46,0,0,0,1.77-.37v.75a4.43,4.43,0,0,1-.84.28A4.72,4.72,0,0,1,306.73,23.91Zm-.23-5a1.37,1.37,0,0,0-1.06.43,2,2,0,0,0-.47,1.2h2.89a1.84,1.84,0,0,0-.35-1.21A1.25,1.25,0,0,0,306.5,18.87Z"/><path class="cls-13" d="M313.76,22.3a1.38,1.38,0,0,1-.58,1.19,2.71,2.71,0,0,1-1.62.42,3.52,3.52,0,0,1-1.72-.35v-.78a4.12,4.12,0,0,0,.86.32,3.6,3.6,0,0,0,.88.12,2,2,0,0,0,1-.21.72.72,0,0,0,.07-1.19,4.37,4.37,0,0,0-1.09-.54,6,6,0,0,1-1.1-.5,1.51,1.51,0,0,1-.49-.49,1.28,1.28,0,0,1-.16-.65,1.24,1.24,0,0,1,.55-1.07,2.56,2.56,0,0,1,1.51-.39,4.42,4.42,0,0,1,1.75.36l-.3.68a4,4,0,0,0-1.51-.34,1.74,1.74,0,0,0-.9.19.58.58,0,0,0-.3.52.63.63,0,0,0,.11.38,1.13,1.13,0,0,0,.37.3,8.26,8.26,0,0,0,1,.41,3.63,3.63,0,0,1,1.33.72A1.28,1.28,0,0,1,313.76,22.3Z"/><path class="cls-13" d="M317.47,23.91a2.54,2.54,0,0,1-1.94-.75,2.89,2.89,0,0,1-.71-2.08,3.21,3.21,0,0,1,.66-2.13,2.19,2.19,0,0,1,1.77-.79,2.09,2.09,0,0,1,1.65.68,2.62,2.62,0,0,1,.61,1.81v.53h-3.81a2.2,2.2,0,0,0,.49,1.48,1.7,1.7,0,0,0,1.32.5,4.46,4.46,0,0,0,1.77-.37v.75a4.43,4.43,0,0,1-.84.28A4.72,4.72,0,0,1,317.47,23.91Zm-.23-5a1.37,1.37,0,0,0-1.06.43,2,2,0,0,0-.47,1.2h2.89a1.84,1.84,0,0,0-.35-1.21A1.25,1.25,0,0,0,317.24,18.87Z"/><path class="cls-13" d="M323.46,18.17a3.24,3.24,0,0,1,.66.06L324,19a2.89,2.89,0,0,0-.61-.08,1.48,1.48,0,0,0-1.15.54,2,2,0,0,0-.48,1.36v3h-.84V18.27h.69l.1,1h0a2.42,2.42,0,0,1,.74-.83A1.67,1.67,0,0,1,323.46,18.17Z"/><path class="cls-13" d="M326.37,23.81l-2.1-5.54h.9l1.19,3.28q.4,1.15.48,1.5h0a11.44,11.44,0,0,1,.35-1.11q.3-.84,1.33-3.67h.9l-2.1,5.54Z"/><path class="cls-13" d="M332.67,23.91a2.54,2.54,0,0,1-1.94-.75,2.89,2.89,0,0,1-.71-2.08,3.21,3.21,0,0,1,.66-2.13,2.19,2.19,0,0,1,1.77-.79,2.09,2.09,0,0,1,1.65.68,2.62,2.62,0,0,1,.61,1.81v.53H330.9a2.2,2.2,0,0,0,.49,1.48,1.7,1.7,0,0,0,1.32.5,4.46,4.46,0,0,0,1.77-.37v.75a4.43,4.43,0,0,1-.84.28A4.72,4.72,0,0,1,332.67,23.91Zm-.23-5a1.37,1.37,0,0,0-1.06.43,2,2,0,0,0-.47,1.2h2.89a1.84,1.84,0,0,0-.35-1.21A1.25,1.25,0,0,0,332.45,18.87Z"/></svg>