<svg id="Layer_1" data-name="Layer 1" xmlns="http://www.w3.org/2000/svg" xmlns:xlink="http://www.w3.org/1999/xlink" viewBox="0 0 512 314"><defs><style>.cls-1{fill:none;}.cls-2{clip-path:url(#clip-path);}.cls-3{fill:url(#Безымянный_градиент_675);}.cls-4{clip-path:url(#clip-path-2);}.cls-5{fill:url(#Новый_образец_градиента_5);}.cls-6{clip-path:url(#clip-path-3);}.cls-7{fill:url(#Безымянный_градиент_671);}.cls-8{clip-path:url(#clip-path-4);}.cls-9{fill:url(#Безымянный_градиент_192);}.cls-10{fill:#fff;}.cls-11{fill:#474a51;}.cls-12{clip-path:url(#clip-path-5);}.cls-13{fill:url(#Безымянный_градиент_208);}</style><clipPath id="clip-path"><polygon class="cls-1" points="260.61 304.33 146.72 304.93 257.95 157.26 374.5 304.93 260.61 304.33"/></clipPath><linearGradient id="Безымянный_градиент_675" x1="137.01" y1="203.84" x2="341.68" y2="125.7" gradientUnits="userSpaceOnUse"><stop offset="0" stop-color="#32f7aa"/><stop offset="1" stop-color="#1d47ff"/></linearGradient><clipPath id="clip-path-2"><polygon class="cls-1" points="257.95 0 257.95 157.26 108.17 109.14 108.17 0 257.95 0"/></clipPath><linearGradient id="Новый_образец_градиента_5" x1="169.79" y1="245.79" x2="340.46" y2="75.13" gradientUnits="userSpaceOnUse"><stop offset="0" stop-color="#ffffb0"/><stop offset="0.17" stop-color="#fff42a"/><stop offset="0.51" stop-color="#ffab00"/><stop offset="1" stop-color="#ff4081"/></linearGradient><clipPath id="clip-path-3"><polygon class="cls-1" points="108.17 109.14 257.95 157.26 108.17 165.69 108.17 109.14"/></clipPath><linearGradient id="Безымянный_градиент_671" x1="116.88" y1="157.69" x2="398.92" y2="157.69" gradientUnits="userSpaceOnUse"><stop offset="0" stop-color="#ff87ab"/><stop offset="0.08" stop-color="#ff75a7"/><stop offset="0.37" stop-color="#ff3997"/><stop offset="0.5" stop-color="#ff2191"/><stop offset="0.57" stop-color="#f02296"/><stop offset="0.69" stop-color="#ca23a2"/><stop offset="0.86" stop-color="#8d26b6"/><stop offset="1" stop-color="#5528c8"/></linearGradient><clipPath id="clip-path-4"><polygon class="cls-1" points="108.17 165.69 257.95 157.26 146.72 304.93 108.17 304.93 108.17 165.69"/></clipPath><linearGradient id="Безымянный_градиент_192" x1="111.8" y1="157.69" x2="404" y2="157.69" gradientUnits="userSpaceOnUse"><stop offset="0" stop-color="#6e00a1"/><stop offset="0.22" stop-color="#5f3cb7"/><stop offset="0.6" stop-color="#45a4dd"/><stop offset="0.87" stop-color="#34e6f6"/><stop offset="1" stop-color="#2effff"/></linearGradient><clipPath id="clip-path-5"><polygon class="cls-1" points="257.95 0 257.95 157.26 374.5 304.93 437 304.93 437 -2 257.95 0"/></clipPath><linearGradient id="Безымянный_градиент_208" x1="221.51" y1="37.37" x2="295.51" y2="282.04" gradientUnits="userSpaceOnUse"><stop offset="0" stop-color="#ffeb00"/><stop offset="1" stop-color="#00b970"/></linearGradient></defs><title>pie_left</title><g class="cls-2"><path class="cls-3" d="M240.79,297.44A140.8,140.8,0,1,0,118.14,140.58,140.8,140.8,0,0,0,240.79,297.44Zm24-195.66A56.33,56.33,0,1,1,202,150.84,56.33,56.33,0,0,1,264.74,101.78Z"/></g><g class="cls-4"><path class="cls-5" d="M239.53,307.74A151.17,151.17,0,1,0,107.85,139.31,151.17,151.17,0,0,0,239.53,307.74ZM265.25,97.66a60.48,60.48,0,1,1-67.38,52.68A60.48,60.48,0,0,1,265.25,97.66Z"/></g><g class="cls-6"><path class="cls-7" d="M240.76,297.65a141,141,0,1,0-122.82-157.1A141,141,0,0,0,240.76,297.65Zm24-196a56.41,56.41,0,1,1-62.85,49.14A56.41,56.41,0,0,1,264.75,101.7Z"/></g><g class="cls-8"><path class="cls-9" d="M240.14,302.69A146.09,146.09,0,1,0,112.89,139.93,146.09,146.09,0,0,0,240.14,302.69ZM265,99.68a58.44,58.44,0,1,1-65.11,50.91A58.44,58.44,0,0,1,265,99.68Z"/></g><path class="cls-10" d="M240.67,233.75c4.12,0,6.62,2.87,6.62,6.17,0,4.26-2.54,5.75-7.58,7.72-1.66.65-3.64,1.32-3.64,3.18v.82h10.23c.56,0,.73.2.73.73v1.07c0,.54-.17.73-.73.73H234c-.56,0-.76-.2-.76-.76v-2.06c0-3.8,2.85-5.07,5.72-6.2s5.5-2,5.5-5.13a3.7,3.7,0,0,0-3.86-3.75,4.59,4.59,0,0,0-4.65,3c-.23.54-.42.65-.93.48l-1.21-.45c-.51-.17-.65-.42-.45-.93C234.53,235.49,236.73,233.75,240.67,233.75Z"/><path class="cls-10" d="M257.5,233.75c4.62,0,7.3,2.59,7.3,6.68v7.5c0,4.09-2.68,6.68-7.3,6.68s-7.33-2.59-7.33-6.68v-7.5C250.17,236.34,252.85,233.75,257.5,233.75Zm0,2.54c-2.93,0-4.59,1.52-4.59,4.14v7.5c0,2.59,1.66,4.14,4.59,4.14s4.57-1.55,4.57-4.14v-7.5C262.06,237.8,260.4,236.28,257.5,236.28Z"/><path class="cls-10" d="M271.87,233.72c3,0,4.57,1.61,4.57,4.17v2.06c0,2.54-1.61,4.11-4.57,4.11s-4.57-1.58-4.57-4.11v-2.06C267.31,235.32,268.91,233.72,271.87,233.72Zm0,2c-1.61,0-2.45.82-2.45,2.25v1.8c0,1.41.84,2.25,2.45,2.25a2.13,2.13,0,0,0,2.42-2.25V238A2.11,2.11,0,0,0,271.87,235.75Zm14.18-.87-13.7,18.66c-.42.59-.59.65-1.47.65H270c-.56,0-.68-.37-.39-.76l13.72-18.63c.39-.56.56-.62,1.35-.62h1C286.22,234.17,286.33,234.51,286,234.87Zm-2.25,9.41c3,0,4.57,1.61,4.57,4.17v2c0,2.57-1.58,4.14-4.57,4.14s-4.57-1.58-4.57-4.14v-2C279.23,245.89,280.83,244.29,283.79,244.29Zm0,2a2.11,2.11,0,0,0-2.42,2.25v1.78a2.11,2.11,0,0,0,2.42,2.25c1.61,0,2.45-.82,2.45-2.25v-1.78C286.25,247.13,285.4,246.31,283.79,246.31Z"/><path class="cls-10" d="M149.16,184.64v18.54c0,.54-.17.73-.73.73h-1.24c-.56,0-.73-.2-.73-.73v-16l-5,2.79c-.56.34-.85.23-1.1-.25l-.56-1c-.25-.48-.14-.73.34-1l6.26-3.52a1.57,1.57,0,0,1,1-.31h1C149,183.91,149.16,184.1,149.16,184.64Z"/><path class="cls-10" d="M160.24,183.48c4.51,0,6.88,1.86,6.88,5.24a5.18,5.18,0,0,1-3.47,4.79c2.23.87,4.09,2.17,4.09,5.13,0,3.35-2.11,5.69-7.5,5.69s-7.47-2.09-7.47-5.3,2.62-4.59,4.06-5.19c-1.92-.93-3.44-2.25-3.44-4.93C153.39,185.46,156,183.48,160.24,183.48Zm-1,11.3c-.87.25-3.72,1.1-3.72,4,0,2,1.27,3.18,4.71,3.18s4.65-1.27,4.65-3.27C164.89,195.94,162.27,195.55,159.25,194.79Zm1-8.93c-2.62,0-4.11,1.07-4.11,3.1,0,2.28,1.89,2.93,4.14,3.52l.9.23c.87-.31,3.3-1.1,3.3-3.75C164.47,186.92,162.94,185.85,160.24,185.85Z"/><path class="cls-10" d="M174.53,183.46c3,0,4.57,1.61,4.57,4.17v2.06c0,2.54-1.61,4.11-4.57,4.11s-4.57-1.58-4.57-4.11v-2.06C170,185.06,171.57,183.46,174.53,183.46Zm0,2c-1.61,0-2.45.82-2.45,2.25v1.8c0,1.41.85,2.25,2.45,2.25a2.13,2.13,0,0,0,2.42-2.25v-1.8A2.11,2.11,0,0,0,174.53,185.48Zm14.18-.87L175,203.27c-.42.59-.59.65-1.47.65h-.85c-.56,0-.68-.37-.39-.76L186,184.53c.39-.56.56-.62,1.35-.62h1C188.87,183.91,189,184.24,188.7,184.61ZM186.45,194c3,0,4.57,1.61,4.57,4.17v2c0,2.57-1.58,4.14-4.57,4.14s-4.57-1.58-4.57-4.14v-2C181.88,195.63,183.49,194,186.45,194Zm0,2a2.11,2.11,0,0,0-2.42,2.25v1.78a2.11,2.11,0,0,0,2.42,2.25c1.61,0,2.45-.82,2.45-2.25v-1.78C188.9,196.87,188.05,196.05,186.45,196.05Z"/><path class="cls-10" d="M178.67,50.57c4.11,0,6.62,2.87,6.62,6.17,0,4.26-2.54,5.75-7.58,7.72-1.66.65-3.64,1.32-3.64,3.18v.82h10.23c.56,0,.73.2.73.73v1.07c0,.54-.17.73-.73.73H172c-.56,0-.76-.2-.76-.76V68.18c0-3.8,2.85-5.07,5.72-6.2s5.5-2,5.5-5.13a3.7,3.7,0,0,0-3.86-3.75,4.59,4.59,0,0,0-4.65,3c-.23.54-.42.65-.93.48l-1.21-.45c-.51-.17-.65-.42-.45-.93C172.53,52.32,174.73,50.57,178.67,50.57Z"/><path class="cls-10" d="M196.74,51.73V70.27c0,.54-.17.73-.73.73h-1.24c-.56,0-.73-.2-.73-.73v-16l-5,2.79c-.56.34-.85.23-1.1-.25l-.56-1c-.25-.48-.14-.73.34-1l6.26-3.52a1.57,1.57,0,0,1,1-.31h1C196.57,51,196.74,51.19,196.74,51.73Z"/><path class="cls-10" d="M204.6,50.54c3,0,4.57,1.61,4.57,4.17v2.06c0,2.54-1.61,4.11-4.57,4.11S200,59.31,200,56.77V54.71C200,52.15,201.64,50.54,204.6,50.54Zm0,2c-1.61,0-2.45.82-2.45,2.25v1.8c0,1.41.85,2.25,2.45,2.25A2.13,2.13,0,0,0,207,56.63v-1.8A2.11,2.11,0,0,0,204.6,52.57Zm14.18-.87-13.7,18.66c-.42.59-.59.65-1.47.65h-.85c-.56,0-.68-.37-.39-.76L216.1,51.61c.39-.56.56-.62,1.35-.62h1C218.95,51,219.06,51.33,218.78,51.7Zm-2.25,9.41c3,0,4.57,1.61,4.57,4.17v2c0,2.56-1.58,4.14-4.57,4.14S212,69.88,212,67.31v-2C212,62.72,213.56,61.11,216.52,61.11Zm0,2a2.11,2.11,0,0,0-2.42,2.25v1.78a2.11,2.11,0,0,0,2.42,2.25c1.61,0,2.45-.82,2.45-2.25V65.39C219,64,218.13,63.14,216.52,63.14Z"/><path class="cls-10" d="M139.59,138.09v12.36c0,.36-.11.49-.49.49h-.83c-.38,0-.49-.13-.49-.49V139.8l-3.36,1.86c-.38.23-.56.15-.73-.17l-.38-.66c-.17-.32-.09-.49.23-.68l4.17-2.35a1,1,0,0,1,.7-.21h.69C139.47,137.6,139.59,137.73,139.59,138.09Z"/><path class="cls-10" d="M144.83,137.3c2,0,3,1.07,3,2.78v1.37c0,1.69-1.07,2.74-3,2.74s-3-1.05-3-2.74v-1.37C141.79,138.37,142.86,137.3,144.83,137.3Zm0,1.35c-1.07,0-1.63.54-1.63,1.5v1.2c0,.94.56,1.5,1.63,1.5a1.42,1.42,0,0,0,1.62-1.5v-1.2A1.41,1.41,0,0,0,144.83,138.65Zm9.45-.58-9.13,12.43c-.28.39-.39.43-1,.43h-.56c-.38,0-.45-.24-.26-.51L152.49,138c.26-.38.38-.41.9-.41h.66C154.39,137.6,154.46,137.83,154.28,138.07Zm-1.5,6.27c2,0,3,1.07,3,2.78v1.35c0,1.71-1.05,2.76-3,2.76s-3-1.05-3-2.76v-1.35C149.73,145.42,150.8,144.35,152.77,144.35Zm0,1.35a1.41,1.41,0,0,0-1.62,1.5v1.18a1.41,1.41,0,0,0,1.62,1.5c1.07,0,1.63-.54,1.63-1.5V147.2C154.41,146.24,153.85,145.7,152.77,145.7Z"/><path class="cls-10" d="M233.14,269.58h-.86V262.2h4.12V263h-3.26v2.7h3.06v.76h-3.06Z"/><path class="cls-10" d="M242.27,266.81a3.05,3.05,0,0,1-.68,2.11,2.4,2.4,0,0,1-1.88.76,2.5,2.5,0,0,1-1.32-.35,2.31,2.31,0,0,1-.89-1,3.49,3.49,0,0,1-.31-1.53,3,3,0,0,1,.68-2.11,2.39,2.39,0,0,1,1.88-.75,2.34,2.34,0,0,1,1.85.77A3,3,0,0,1,242.27,266.81Zm-4.22,0a2.63,2.63,0,0,0,.42,1.62,1.68,1.68,0,0,0,2.5,0,2.62,2.62,0,0,0,.43-1.62,2.57,2.57,0,0,0-.43-1.6,1.5,1.5,0,0,0-1.26-.55,1.48,1.48,0,0,0-1.24.54A2.6,2.6,0,0,0,238.06,266.81Z"/><path class="cls-10" d="M244.53,264v3.59a1.44,1.44,0,0,0,.31,1,1.25,1.25,0,0,0,1,.33,1.57,1.57,0,0,0,1.27-.48,2.39,2.39,0,0,0,.4-1.55V264h.84v5.54h-.69l-.12-.74h0a1.67,1.67,0,0,1-.71.63,2.41,2.41,0,0,1-1,.22,2.11,2.11,0,0,1-1.51-.48,2,2,0,0,1-.5-1.54V264Z"/><path class="cls-10" d="M253.88,269.58V266a1.45,1.45,0,0,0-.31-1,1.26,1.26,0,0,0-1-.33,1.59,1.59,0,0,0-1.27.47,2.37,2.37,0,0,0-.4,1.55v2.9h-.84V264h.68l.14.76h0a1.71,1.71,0,0,1,.72-.63,2.35,2.35,0,0,1,1-.22,2.1,2.1,0,0,1,1.5.48,2.05,2.05,0,0,1,.5,1.54v3.61Z"/><path class="cls-10" d="M260.21,268.84h0a2,2,0,0,1-1.74.84,2.06,2.06,0,0,1-1.69-.74,3.27,3.27,0,0,1-.6-2.11,3.33,3.33,0,0,1,.61-2.13,2,2,0,0,1,1.69-.76,2,2,0,0,1,1.73.82h.07l0-.4,0-.39v-2.25H261v7.86h-.68Zm-1.68.14a1.53,1.53,0,0,0,1.25-.47,2.36,2.36,0,0,0,.39-1.51v-.18a2.78,2.78,0,0,0-.39-1.68,1.49,1.49,0,0,0-1.25-.5,1.28,1.28,0,0,0-1.13.57,2.85,2.85,0,0,0-.39,1.62,2.73,2.73,0,0,0,.39,1.6A1.32,1.32,0,0,0,258.53,269Z"/><path class="cls-10" d="M266.18,269.58l-.17-.79h0a2.33,2.33,0,0,1-.83.71,2.53,2.53,0,0,1-1,.18,1.85,1.85,0,0,1-1.29-.42,1.55,1.55,0,0,1-.47-1.21q0-1.68,2.68-1.76l.94,0v-.34a1.4,1.4,0,0,0-.28-1,1.15,1.15,0,0,0-.9-.31,3.66,3.66,0,0,0-1.57.42l-.26-.64a4,4,0,0,1,.9-.35,3.9,3.9,0,0,1,1-.13,2.11,2.11,0,0,1,1.47.44,1.83,1.83,0,0,1,.48,1.41v3.78Zm-1.89-.59a1.7,1.7,0,0,0,1.23-.43,1.59,1.59,0,0,0,.45-1.2v-.5l-.84,0a3.07,3.07,0,0,0-1.44.31.94.94,0,0,0-.44.86.86.86,0,0,0,.28.69A1.14,1.14,0,0,0,264.29,269Z"/><path class="cls-10" d="M270.32,269a2.67,2.67,0,0,0,.43,0l.33-.07v.64a1.51,1.51,0,0,1-.4.11,2.94,2.94,0,0,1-.48,0q-1.61,0-1.61-1.69V264.7h-.79v-.4l.79-.35.35-1.18h.49V264H271v.65h-1.61V268a1.12,1.12,0,0,0,.24.77A.83.83,0,0,0,270.32,269Z"/><path class="cls-10" d="M272.11,262.55a.56.56,0,0,1,.14-.42.52.52,0,0,1,.7,0,.55.55,0,0,1,.15.42.56.56,0,0,1-.15.42.49.49,0,0,1-.35.14.48.48,0,0,1-.35-.14A.57.57,0,0,1,272.11,262.55Zm.91,7h-.84V264H273Z"/><path class="cls-10" d="M279.58,266.81a3.05,3.05,0,0,1-.68,2.11,2.4,2.4,0,0,1-1.88.76,2.5,2.5,0,0,1-1.32-.35,2.31,2.31,0,0,1-.89-1,3.49,3.49,0,0,1-.31-1.53,3,3,0,0,1,.68-2.11,2.39,2.39,0,0,1,1.88-.75,2.34,2.34,0,0,1,1.85.77A3,3,0,0,1,279.58,266.81Zm-4.22,0a2.63,2.63,0,0,0,.42,1.62,1.68,1.68,0,0,0,2.5,0,2.62,2.62,0,0,0,.43-1.62,2.57,2.57,0,0,0-.43-1.6,1.5,1.5,0,0,0-1.26-.55,1.48,1.48,0,0,0-1.24.54A2.6,2.6,0,0,0,275.36,266.81Z"/><path class="cls-10" d="M284.84,269.58V266a1.45,1.45,0,0,0-.31-1,1.26,1.26,0,0,0-1-.33,1.59,1.59,0,0,0-1.27.47,2.37,2.37,0,0,0-.4,1.55v2.9H281V264h.68l.14.76h0a1.71,1.71,0,0,1,.72-.63,2.35,2.35,0,0,1,1-.22,2.1,2.1,0,0,1,1.5.48,2.05,2.05,0,0,1,.5,1.54v3.61Z"/><path class="cls-10" d="M289.47,262.85a1,1,0,0,1-.23.67,1.16,1.16,0,0,1-.66.35v0a1.23,1.23,0,0,1,.77.33,1,1,0,0,1,.25.7,1.13,1.13,0,0,1-.43.95,1.94,1.94,0,0,1-1.21.33,3.53,3.53,0,0,1-.63-.05,2.16,2.16,0,0,1-.55-.18v-.46a2.7,2.7,0,0,0,.6.21,2.66,2.66,0,0,0,.6.07q1.12,0,1.12-.87t-1.23-.78h-.42v-.42h.43a1.3,1.3,0,0,0,.8-.22.73.73,0,0,0,.29-.62.61.61,0,0,0-.22-.5.89.89,0,0,0-.59-.18,1.79,1.79,0,0,0-.53.08,2.39,2.39,0,0,0-.57.28l-.25-.33a2.08,2.08,0,0,1,.61-.33,2.23,2.23,0,0,1,.73-.12,1.49,1.49,0,0,1,1,.29A1,1,0,0,1,289.47,262.85Z"/><path class="cls-10" d="M146.6,216.43v3.07h-.86v-7.38h2a3.19,3.19,0,0,1,2,.52,1.89,1.89,0,0,1,.65,1.57,2,2,0,0,1-1.49,2l2,3.32h-1l-1.79-3.07Zm0-.74h1.18a2,2,0,0,0,1.33-.36,1.34,1.34,0,0,0,.42-1.08,1.23,1.23,0,0,0-.43-1.06,2.34,2.34,0,0,0-1.39-.32H146.6Z"/><path class="cls-10" d="M154.35,219.6a2.54,2.54,0,0,1-1.94-.75,2.89,2.89,0,0,1-.71-2.08,3.21,3.21,0,0,1,.66-2.13,2.19,2.19,0,0,1,1.77-.79,2.09,2.09,0,0,1,1.65.68,2.62,2.62,0,0,1,.61,1.81v.53h-3.81a2.19,2.19,0,0,0,.49,1.48,1.7,1.7,0,0,0,1.32.5,4.46,4.46,0,0,0,1.77-.37v.75a4.44,4.44,0,0,1-.84.28A4.72,4.72,0,0,1,154.35,219.6Zm-.23-5a1.37,1.37,0,0,0-1.06.43,2,2,0,0,0-.47,1.2h2.89a1.84,1.84,0,0,0-.35-1.21A1.24,1.24,0,0,0,154.12,214.57Z"/><path class="cls-10" d="M161.38,218a1.39,1.39,0,0,1-.58,1.19,2.71,2.71,0,0,1-1.62.42,3.52,3.52,0,0,1-1.72-.35v-.78a4.12,4.12,0,0,0,.86.32,3.59,3.59,0,0,0,.88.12,2,2,0,0,0,1-.21.72.72,0,0,0,.07-1.19,4.38,4.38,0,0,0-1.09-.54,6,6,0,0,1-1.1-.5,1.51,1.51,0,0,1-.48-.49,1.27,1.27,0,0,1-.16-.65,1.24,1.24,0,0,1,.55-1.07,2.56,2.56,0,0,1,1.51-.39,4.42,4.42,0,0,1,1.75.36l-.3.68a4,4,0,0,0-1.51-.34,1.74,1.74,0,0,0-.9.19.58.58,0,0,0-.3.52.63.63,0,0,0,.11.38,1.14,1.14,0,0,0,.37.3,8.26,8.26,0,0,0,1,.41,3.63,3.63,0,0,1,1.33.72A1.28,1.28,0,0,1,161.38,218Z"/><path class="cls-10" d="M165.09,219.6a2.54,2.54,0,0,1-1.94-.75,2.89,2.89,0,0,1-.71-2.08,3.21,3.21,0,0,1,.66-2.13,2.19,2.19,0,0,1,1.77-.79,2.09,2.09,0,0,1,1.65.68,2.62,2.62,0,0,1,.61,1.81v.53h-3.81a2.19,2.19,0,0,0,.49,1.48,1.7,1.7,0,0,0,1.32.5,4.46,4.46,0,0,0,1.77-.37v.75a4.44,4.44,0,0,1-.84.28A4.72,4.72,0,0,1,165.09,219.6Zm-.23-5a1.37,1.37,0,0,0-1.06.43,2,2,0,0,0-.47,1.2h2.89a1.84,1.84,0,0,0-.35-1.21A1.24,1.24,0,0,0,164.86,214.57Z"/><path class="cls-10" d="M171.08,213.87a3.24,3.24,0,0,1,.66.06l-.12.78a2.9,2.9,0,0,0-.61-.08,1.48,1.48,0,0,0-1.15.54,2,2,0,0,0-.48,1.36v3h-.84V214h.69l.1,1h0a2.43,2.43,0,0,1,.74-.83A1.67,1.67,0,0,1,171.08,213.87Z"/><path class="cls-10" d="M174,219.5l-2.1-5.54h.9l1.19,3.28q.4,1.15.47,1.5h0a11.21,11.21,0,0,1,.35-1.11q.3-.84,1.33-3.67h.9L175,219.5Z"/><path class="cls-10" d="M180.29,219.6a2.54,2.54,0,0,1-1.94-.75,2.89,2.89,0,0,1-.71-2.08,3.21,3.21,0,0,1,.66-2.13,2.19,2.19,0,0,1,1.77-.79,2.09,2.09,0,0,1,1.65.68,2.62,2.62,0,0,1,.61,1.81v.53h-3.81a2.19,2.19,0,0,0,.49,1.48,1.7,1.7,0,0,0,1.32.5,4.46,4.46,0,0,0,1.77-.37v.75a4.44,4.44,0,0,1-.84.28A4.72,4.72,0,0,1,180.29,219.6Zm-.23-5A1.37,1.37,0,0,0,179,215a2,2,0,0,0-.47,1.2h2.89a1.84,1.84,0,0,0-.35-1.21A1.24,1.24,0,0,0,180.07,214.57Z"/><path class="cls-10" d="M186.2,215.07h-.64v1h-.47v-1H183v-.43l2-2.91h.52v2.89h.64Zm-1.11-.45v-1.43q0-.42,0-1h0a4.43,4.43,0,0,1-.26.47l-1.35,1.91Z"/><path class="cls-10" d="M177.13,80.62a2.41,2.41,0,0,0-1.92.81,3.27,3.27,0,0,0-.7,2.22,3.33,3.33,0,0,0,.68,2.24,2.42,2.42,0,0,0,1.94.79,6.62,6.62,0,0,0,1.76-.28v.75a5.43,5.43,0,0,1-1.89.29,3.2,3.2,0,0,1-2.52-1,4.07,4.07,0,0,1-.89-2.81,4.44,4.44,0,0,1,.43-2,3.06,3.06,0,0,1,1.23-1.32,3.73,3.73,0,0,1,1.9-.46,4.58,4.58,0,0,1,2,.42l-.36.74A3.91,3.91,0,0,0,177.13,80.62Z"/><path class="cls-10" d="M185.15,84.57a3.05,3.05,0,0,1-.68,2.11,2.4,2.4,0,0,1-1.88.76,2.49,2.49,0,0,1-1.32-.35,2.3,2.3,0,0,1-.89-1,3.48,3.48,0,0,1-.31-1.53,3,3,0,0,1,.68-2.11,2.39,2.39,0,0,1,1.88-.75,2.34,2.34,0,0,1,1.85.77A3,3,0,0,1,185.15,84.57Zm-4.22,0a2.63,2.63,0,0,0,.42,1.62,1.68,1.68,0,0,0,2.5,0,2.61,2.61,0,0,0,.43-1.62,2.57,2.57,0,0,0-.43-1.6,1.5,1.5,0,0,0-1.26-.55,1.48,1.48,0,0,0-1.24.54A2.6,2.6,0,0,0,180.93,84.57Z"/><path class="cls-10" d="M193.67,87.34v-3.6a1.49,1.49,0,0,0-.28-1,1.09,1.09,0,0,0-.88-.33,1.42,1.42,0,0,0-1.16.45,2.13,2.13,0,0,0-.37,1.38v3.09h-.84v-3.6a1.49,1.49,0,0,0-.28-1,1.1,1.1,0,0,0-.88-.33,1.37,1.37,0,0,0-1.15.47,2.56,2.56,0,0,0-.37,1.55v2.9h-.84V81.8h.68l.14.76h0a1.64,1.64,0,0,1,.67-.63,2,2,0,0,1,1-.23,1.64,1.64,0,0,1,1.7.94h0a1.77,1.77,0,0,1,.72-.69,2.22,2.22,0,0,1,1.07-.25,1.88,1.88,0,0,1,1.41.48,2.16,2.16,0,0,1,.47,1.54v3.61Z"/><path class="cls-10" d="M198.81,87.44a2.39,2.39,0,0,1-1-.2,1.86,1.86,0,0,1-.75-.61H197a7.5,7.5,0,0,1,.06.92v2.28h-.84v-8h.68l.12.76h0a2,2,0,0,1,.75-.66,2.29,2.29,0,0,1,1-.2,2,2,0,0,1,1.7.75,4,4,0,0,1,0,4.23A2.05,2.05,0,0,1,198.81,87.44Zm-.12-5a1.49,1.49,0,0,0-1.23.47,2.42,2.42,0,0,0-.39,1.5v.19a2.77,2.77,0,0,0,.39,1.67,1.48,1.48,0,0,0,1.25.5,1.3,1.3,0,0,0,1.12-.58,2.75,2.75,0,0,0,.41-1.6,2.65,2.65,0,0,0-.41-1.59A1.34,1.34,0,0,0,198.69,82.41Z"/><path class="cls-10" d="M206,87.34l-.17-.79h0a2.33,2.33,0,0,1-.83.7,2.51,2.51,0,0,1-1,.18,1.85,1.85,0,0,1-1.29-.42,1.55,1.55,0,0,1-.47-1.21q0-1.68,2.68-1.76l.94,0v-.34a1.4,1.4,0,0,0-.28-1,1.15,1.15,0,0,0-.9-.31,3.66,3.66,0,0,0-1.57.42l-.26-.64a4,4,0,0,1,1.87-.48,2.11,2.11,0,0,1,1.47.44,1.84,1.84,0,0,1,.48,1.41v3.78Zm-1.89-.59a1.7,1.7,0,0,0,1.23-.43,1.59,1.59,0,0,0,.45-1.2v-.5l-.84,0a3,3,0,0,0-1.44.31.94.94,0,0,0-.44.86.86.86,0,0,0,.28.69A1.14,1.14,0,0,0,204.09,86.75Z"/><path class="cls-10" d="M212.12,87.34V83.76a1.44,1.44,0,0,0-.31-1,1.26,1.26,0,0,0-1-.33,1.59,1.59,0,0,0-1.27.47,2.37,2.37,0,0,0-.4,1.55v2.9h-.84V81.8H209l.14.76h0a1.72,1.72,0,0,1,.72-.63,2.35,2.35,0,0,1,1-.22,2.1,2.1,0,0,1,1.51.48,2.05,2.05,0,0,1,.5,1.54v3.61Z"/><path class="cls-10" d="M213.8,81.8h.9L215.91,85a12.06,12.06,0,0,1,.49,1.56h0q.07-.26.28-.88t1.37-3.84h.9l-2.38,6.3a3.15,3.15,0,0,1-.83,1.33,1.76,1.76,0,0,1-1.16.39,3.38,3.38,0,0,1-.76-.09v-.67a2.91,2.91,0,0,0,.62.06,1.28,1.28,0,0,0,1.23-1l.31-.79Z"/><path class="cls-10" d="M169.19,97.84a2,2,0,0,1,.35-1.16,3.8,3.8,0,0,1,1.26-1,6,6,0,0,1-.58-.73,2.5,2.5,0,0,1-.25-.52,1.72,1.72,0,0,1-.09-.56,1.47,1.47,0,0,1,.5-1.18,2.05,2.05,0,0,1,1.38-.42,1.86,1.86,0,0,1,1.29.42,1.5,1.5,0,0,1,.47,1.17,1.63,1.63,0,0,1-.34,1,3.9,3.9,0,0,1-1.14.93l2.06,2a2.44,2.44,0,0,0,.45-.73,6.27,6.27,0,0,0,.29-.92h.85a4.83,4.83,0,0,1-1,2.19l1.51,1.47H175l-.93-.9a3.59,3.59,0,0,1-2.59,1,2.44,2.44,0,0,1-1.68-.54A1.88,1.88,0,0,1,169.19,97.84Zm2.3,1.26a2.79,2.79,0,0,0,2-.78l-2.21-2.14a4.92,4.92,0,0,0-.79.57,1.5,1.5,0,0,0-.34.48,1.46,1.46,0,0,0-.11.59,1.19,1.19,0,0,0,.39.94A1.52,1.52,0,0,0,171.5,99.1Zm-.78-5.26a1.31,1.31,0,0,0,.18.66,4,4,0,0,0,.62.76,3.28,3.28,0,0,0,.91-.7,1.16,1.16,0,0,0,.26-.74.83.83,0,0,0-.26-.63,1,1,0,0,0-.69-.24,1.08,1.08,0,0,0-.73.24A.82.82,0,0,0,170.71,93.84Z"/><path class="cls-10" d="M184.52,99.75l-.92-2.35h-3l-.91,2.35h-.87l2.92-7.42h.72l2.9,7.42Zm-1.19-3.12-.86-2.29q-.17-.43-.34-1.07a9.58,9.58,0,0,1-.32,1.07l-.87,2.29Z"/><path class="cls-10" d="M190.06,99h0a2,2,0,0,1-1.74.84,2.05,2.05,0,0,1-1.69-.74A3.27,3.27,0,0,1,186,97a3.32,3.32,0,0,1,.61-2.13,2,2,0,0,1,1.69-.76,2,2,0,0,1,1.73.82h.07l0-.4,0-.39V91.89h.84v7.86h-.68Zm-1.68.14a1.53,1.53,0,0,0,1.25-.47,2.36,2.36,0,0,0,.39-1.51V97a2.78,2.78,0,0,0-.39-1.68,1.49,1.49,0,0,0-1.25-.5,1.28,1.28,0,0,0-1.13.57,2.85,2.85,0,0,0-.39,1.62,2.73,2.73,0,0,0,.39,1.6A1.32,1.32,0,0,0,188.39,99.15Z"/><path class="cls-10" d="M193.85,99.75l-2.1-5.54h.9l1.19,3.28q.4,1.15.47,1.5h0a11.25,11.25,0,0,1,.35-1.11Q195,97,196,94.22h.9l-2.1,5.54Z"/><path class="cls-10" d="M197.75,92.72a.56.56,0,0,1,.14-.42.52.52,0,0,1,.7,0,.55.55,0,0,1,.15.42.56.56,0,0,1-.15.42.51.51,0,0,1-.7,0A.57.57,0,0,1,197.75,92.72Zm.91,7h-.84V94.22h.84Z"/><path class="cls-10" d="M204,98.24a1.39,1.39,0,0,1-.58,1.19,2.7,2.7,0,0,1-1.62.42,3.51,3.51,0,0,1-1.72-.35v-.78A4.15,4.15,0,0,0,201,99a3.59,3.59,0,0,0,.88.12,2,2,0,0,0,1-.21.72.72,0,0,0,.07-1.19,4.41,4.41,0,0,0-1.09-.54,5.94,5.94,0,0,1-1.1-.5,1.51,1.51,0,0,1-.48-.49,1.27,1.27,0,0,1-.16-.65,1.24,1.24,0,0,1,.55-1.07,2.57,2.57,0,0,1,1.51-.39,4.42,4.42,0,0,1,1.75.36l-.3.68a4,4,0,0,0-1.51-.34,1.74,1.74,0,0,0-.9.19.58.58,0,0,0-.3.52.63.63,0,0,0,.11.38,1.12,1.12,0,0,0,.37.3,8,8,0,0,0,1,.41,3.62,3.62,0,0,1,1.33.72A1.27,1.27,0,0,1,204,98.24Z"/><path class="cls-10" d="M210.15,97a3.05,3.05,0,0,1-.68,2.11,2.4,2.4,0,0,1-1.88.76,2.49,2.49,0,0,1-1.32-.35,2.3,2.3,0,0,1-.89-1,3.48,3.48,0,0,1-.31-1.53,3,3,0,0,1,.68-2.11,2.39,2.39,0,0,1,1.88-.75,2.34,2.34,0,0,1,1.85.77A3,3,0,0,1,210.15,97Zm-4.22,0a2.63,2.63,0,0,0,.42,1.62,1.68,1.68,0,0,0,2.5,0,2.61,2.61,0,0,0,.43-1.62,2.57,2.57,0,0,0-.43-1.6,1.5,1.5,0,0,0-1.26-.55,1.48,1.48,0,0,0-1.24.54A2.6,2.6,0,0,0,205.93,97Z"/><path class="cls-10" d="M214.14,94.12a3.27,3.27,0,0,1,.66.06l-.12.78a2.84,2.84,0,0,0-.61-.08,1.48,1.48,0,0,0-1.15.55,2,2,0,0,0-.48,1.36v3h-.84V94.22h.69l.1,1h0a2.44,2.44,0,0,1,.74-.83A1.67,1.67,0,0,1,214.14,94.12Z"/><path class="cls-10" d="M219.41,98.24a1.39,1.39,0,0,1-.58,1.19,2.7,2.7,0,0,1-1.62.42,3.51,3.51,0,0,1-1.72-.35v-.78a4.15,4.15,0,0,0,.86.32,3.59,3.59,0,0,0,.88.12,2,2,0,0,0,1-.21.72.72,0,0,0,.07-1.19,4.41,4.41,0,0,0-1.09-.54,5.94,5.94,0,0,1-1.1-.5,1.51,1.51,0,0,1-.48-.49,1.27,1.27,0,0,1-.16-.65,1.24,1.24,0,0,1,.55-1.07,2.57,2.57,0,0,1,1.51-.39,4.42,4.42,0,0,1,1.75.36l-.3.68a4,4,0,0,0-1.51-.34,1.74,1.74,0,0,0-.9.19.58.58,0,0,0-.3.52.63.63,0,0,0,.11.38,1.12,1.12,0,0,0,.37.3,8,8,0,0,0,1,.41,3.62,3.62,0,0,1,1.33.72A1.27,1.27,0,0,1,219.41,98.24Z"/><path class="cls-10" d="M222,96.31h-.48V93.24q0-.38,0-.72l-.14.13-.7.57-.26-.34,1.14-.88H222Z"/><path class="cls-11" d="M67.79,140.57h2.09A3.94,3.94,0,0,1,72,141a1.55,1.55,0,0,1,.66,1.39,1.6,1.6,0,0,1-.37,1.08,1.76,1.76,0,0,1-1.07.55v.05q1.68.29,1.68,1.77a1.9,1.9,0,0,1-.67,1.55,2.85,2.85,0,0,1-1.87.56H67.79Zm.86,3.16h1.41a2.3,2.3,0,0,0,1.31-.29,1.1,1.1,0,0,0,.4-1,1,1,0,0,0-.44-.9,2.78,2.78,0,0,0-1.41-.28H68.65Zm0,.73v2.76h1.54a2.19,2.19,0,0,0,1.35-.35,1.28,1.28,0,0,0,.45-1.08,1.15,1.15,0,0,0-.46-1,2.47,2.47,0,0,0-1.41-.32Z"/><path class="cls-11" d="M79.14,145.18a3.05,3.05,0,0,1-.68,2.11,2.4,2.4,0,0,1-1.88.76,2.49,2.49,0,0,1-1.32-.35,2.3,2.3,0,0,1-.89-1,3.48,3.48,0,0,1-.31-1.53,3,3,0,0,1,.68-2.11,2.39,2.39,0,0,1,1.88-.75,2.34,2.34,0,0,1,1.85.77A3,3,0,0,1,79.14,145.18Zm-4.22,0a2.63,2.63,0,0,0,.42,1.62,1.68,1.68,0,0,0,2.5,0,2.61,2.61,0,0,0,.43-1.62,2.57,2.57,0,0,0-.43-1.6,1.5,1.5,0,0,0-1.26-.55,1.48,1.48,0,0,0-1.24.54A2.6,2.6,0,0,0,74.92,145.18Z"/><path class="cls-11" d="M81.4,142.42V146a1.45,1.45,0,0,0,.31,1,1.26,1.26,0,0,0,1,.33,1.57,1.57,0,0,0,1.27-.47,2.4,2.4,0,0,0,.4-1.55v-2.91h.84V148h-.69l-.12-.74h0a1.67,1.67,0,0,1-.71.63,2.4,2.4,0,0,1-1,.22,2.12,2.12,0,0,1-1.51-.48,2,2,0,0,1-.5-1.54v-3.62Z"/><path class="cls-11" d="M90.75,148v-3.58a1.44,1.44,0,0,0-.31-1,1.26,1.26,0,0,0-1-.33,1.59,1.59,0,0,0-1.27.47,2.37,2.37,0,0,0-.4,1.55V148H87v-5.54h.68l.14.76h0a1.72,1.72,0,0,1,.72-.63,2.35,2.35,0,0,1,1-.22,2.1,2.1,0,0,1,1.51.48,2.05,2.05,0,0,1,.5,1.54V148Z"/><path class="cls-11" d="M95.1,147.36a2.73,2.73,0,0,0,.43,0l.33-.07v.64a1.55,1.55,0,0,1-.4.11,3.05,3.05,0,0,1-.48,0q-1.61,0-1.61-1.69v-3.29h-.79v-.4l.79-.35.35-1.18h.48v1.28h1.61v.65H94.21v3.26a1.12,1.12,0,0,0,.24.77A.83.83,0,0,0,95.1,147.36Z"/><path class="cls-11" d="M96.08,142.42H97l1.21,3.16a12.06,12.06,0,0,1,.49,1.56h0q.07-.26.28-.88t1.37-3.84h.9l-2.38,6.3a3.15,3.15,0,0,1-.83,1.33,1.76,1.76,0,0,1-1.16.39,3.38,3.38,0,0,1-.76-.09v-.67a2.91,2.91,0,0,0,.62.06,1.28,1.28,0,0,0,1.23-1l.31-.79Z"/><g class="cls-12"><path class="cls-13" d="M240.18,302.36A145.75,145.75,0,1,0,113.23,140,145.75,145.75,0,0,0,240.18,302.36ZM265,99.81a58.31,58.31,0,1,1-65,50.79A58.31,58.31,0,0,1,265,99.81Z"/></g><path class="cls-10" d="M342.72,125.94v1c0,.54-.17.73-.73.73h-2.31V132c0,.54-.2.73-.73.73h-1.07c-.56,0-.73-.2-.73-.73v-4.34h-9.72c-.56,0-.73-.2-.73-.73v-.79a1.09,1.09,0,0,1,.25-.9l9.75-12.12a1.09,1.09,0,0,1,1-.54h1.18c.56,0,.76.17.76.73V125.2H342C342.55,125.2,342.72,125.4,342.72,125.94Zm-12.85-.73h7.27v-9Z"/><path class="cls-10" d="M352.36,112.27c4.62,0,7.3,2.59,7.3,6.68v7.5c0,4.09-2.68,6.68-7.3,6.68s-7.33-2.59-7.33-6.68v-7.5C345,114.86,347.71,112.27,352.36,112.27Zm0,2.54c-2.93,0-4.59,1.52-4.59,4.14v7.5c0,2.59,1.66,4.14,4.59,4.14s4.57-1.55,4.57-4.14v-7.5C356.92,116.33,355.26,114.8,352.36,114.8Z"/><path class="cls-10" d="M366.73,112.24c3,0,4.57,1.61,4.57,4.17v2.06c0,2.54-1.61,4.11-4.57,4.11s-4.57-1.58-4.57-4.11v-2.06C362.17,113.85,363.77,112.24,366.73,112.24Zm0,2c-1.61,0-2.45.82-2.45,2.25v1.8c0,1.41.84,2.25,2.45,2.25a2.13,2.13,0,0,0,2.42-2.25v-1.8A2.11,2.11,0,0,0,366.73,114.27Zm14.18-.87-13.7,18.66c-.42.59-.59.65-1.47.65h-.84c-.56,0-.68-.37-.39-.76l13.72-18.63c.39-.56.56-.62,1.35-.62h1C381.08,112.69,381.19,113,380.91,113.4Zm-2.25,9.41c3,0,4.57,1.61,4.57,4.17v2c0,2.57-1.58,4.14-4.57,4.14s-4.57-1.58-4.57-4.14v-2C374.09,124.42,375.69,122.81,378.65,122.81Zm0,2a2.11,2.11,0,0,0-2.42,2.25v1.78a2.11,2.11,0,0,0,2.42,2.25c1.61,0,2.45-.82,2.45-2.25v-1.78C381.1,125.65,380.26,124.84,378.65,124.84Z"/><path class="cls-10" d="M332.31,141.38a2.41,2.41,0,0,0-1.92.81,3.27,3.27,0,0,0-.7,2.22,3.33,3.33,0,0,0,.68,2.24,2.41,2.41,0,0,0,1.94.79,6.6,6.6,0,0,0,1.76-.28v.75a5.44,5.44,0,0,1-1.89.29,3.2,3.2,0,0,1-2.52-1,4.08,4.08,0,0,1-.89-2.81,4.43,4.43,0,0,1,.43-2,3.06,3.06,0,0,1,1.23-1.32,3.73,3.73,0,0,1,1.9-.46,4.57,4.57,0,0,1,2,.42l-.36.74A3.92,3.92,0,0,0,332.31,141.38Z"/><path class="cls-10" d="M338.08,142.47a3.24,3.24,0,0,1,.66.06l-.12.78a2.89,2.89,0,0,0-.61-.08,1.48,1.48,0,0,0-1.15.54,2,2,0,0,0-.48,1.36v3h-.84v-5.54h.69l.1,1h0a2.42,2.42,0,0,1,.74-.83A1.67,1.67,0,0,1,338.08,142.47Z"/><path class="cls-10" d="M344.55,145.33a3.05,3.05,0,0,1-.68,2.11,2.4,2.4,0,0,1-1.88.76,2.5,2.5,0,0,1-1.32-.35,2.31,2.31,0,0,1-.89-1,3.49,3.49,0,0,1-.31-1.53,3,3,0,0,1,.68-2.11,2.39,2.39,0,0,1,1.88-.75,2.34,2.34,0,0,1,1.85.77A3,3,0,0,1,344.55,145.33Zm-4.22,0a2.63,2.63,0,0,0,.42,1.62,1.68,1.68,0,0,0,2.5,0,2.62,2.62,0,0,0,.43-1.62,2.57,2.57,0,0,0-.43-1.6,1.5,1.5,0,0,0-1.26-.55,1.48,1.48,0,0,0-1.24.54A2.6,2.6,0,0,0,340.34,145.33Z"/><path class="cls-10" d="M350.54,148.1l-1-3.25q-.1-.3-.36-1.35h0q-.2.88-.35,1.36l-1,3.24h-1l-1.51-5.54h.88l.82,3.18a12.81,12.81,0,0,1,.32,1.47h0q.06-.29.18-.75c.08-.3.15-.55.21-.72l1-3.18h.91l1,3.18a10.75,10.75,0,0,1,.38,1.46h0a5.31,5.31,0,0,1,.11-.56q.09-.38,1.05-4.08h.87l-1.53,5.54Z"/><path class="cls-10" d="M357.84,147.36h0a2,2,0,0,1-1.74.84,2.06,2.06,0,0,1-1.69-.74,3.27,3.27,0,0,1-.6-2.11,3.33,3.33,0,0,1,.61-2.13,2,2,0,0,1,1.69-.76,2,2,0,0,1,1.73.82h.07l0-.4,0-.39v-2.25h.84v7.86h-.68Zm-1.68.14a1.53,1.53,0,0,0,1.25-.47,2.36,2.36,0,0,0,.39-1.51v-.18a2.78,2.78,0,0,0-.39-1.68,1.49,1.49,0,0,0-1.25-.5,1.28,1.28,0,0,0-1.13.57,2.85,2.85,0,0,0-.39,1.62A2.73,2.73,0,0,0,355,147,1.32,1.32,0,0,0,356.16,147.5Z"/><path class="cls-10" d="M364,146.59a1.38,1.38,0,0,1-.58,1.19,2.71,2.71,0,0,1-1.62.42,3.52,3.52,0,0,1-1.72-.35v-.78a4.12,4.12,0,0,0,.86.32,3.6,3.6,0,0,0,.88.12,2,2,0,0,0,1-.21.72.72,0,0,0,.07-1.19,4.37,4.37,0,0,0-1.09-.54,6,6,0,0,1-1.1-.5,1.51,1.51,0,0,1-.49-.49,1.28,1.28,0,0,1-.16-.65,1.24,1.24,0,0,1,.55-1.07,2.56,2.56,0,0,1,1.51-.39,4.42,4.42,0,0,1,1.75.36l-.3.68a4,4,0,0,0-1.51-.34,1.74,1.74,0,0,0-.9.19.58.58,0,0,0-.3.52.63.63,0,0,0,.11.38,1.13,1.13,0,0,0,.37.3,8.26,8.26,0,0,0,1,.41,3.63,3.63,0,0,1,1.33.72A1.28,1.28,0,0,1,364,146.59Z"/><path class="cls-10" d="M368.75,148.1l-.17-.79h0a2.33,2.33,0,0,1-.83.71,2.53,2.53,0,0,1-1,.18,1.85,1.85,0,0,1-1.29-.42,1.55,1.55,0,0,1-.47-1.21q0-1.68,2.68-1.76l.94,0v-.34a1.4,1.4,0,0,0-.28-1,1.15,1.15,0,0,0-.9-.31,3.66,3.66,0,0,0-1.57.42l-.26-.64a4,4,0,0,1,.9-.35,3.9,3.9,0,0,1,1-.13,2.11,2.11,0,0,1,1.47.44,1.83,1.83,0,0,1,.48,1.41v3.78Zm-1.89-.59a1.7,1.7,0,0,0,1.23-.43,1.59,1.59,0,0,0,.45-1.2v-.5l-.84,0a3.07,3.07,0,0,0-1.44.31.94.94,0,0,0-.44.86.86.86,0,0,0,.28.69A1.14,1.14,0,0,0,366.85,147.51Z"/><path class="cls-10" d="M371.94,148.1h-.84v-7.86h.84Z"/><path class="cls-10" d="M376.05,148.2a2.54,2.54,0,0,1-1.94-.75,2.89,2.89,0,0,1-.71-2.08,3.21,3.21,0,0,1,.66-2.13,2.19,2.19,0,0,1,1.77-.79,2.09,2.09,0,0,1,1.65.68,2.62,2.62,0,0,1,.61,1.81v.53h-3.81a2.2,2.2,0,0,0,.49,1.48,1.7,1.7,0,0,0,1.32.5,4.46,4.46,0,0,0,1.77-.37v.75a4.43,4.43,0,0,1-.84.28A4.72,4.72,0,0,1,376.05,148.2Zm-.23-5a1.37,1.37,0,0,0-1.06.43,2,2,0,0,0-.47,1.2h2.89a1.84,1.84,0,0,0-.35-1.21A1.25,1.25,0,0,0,375.82,143.17Z"/><path class="cls-10" d="M381.75,144.66h-2.83v-.42l1.13-1.14a8.4,8.4,0,0,0,.68-.75,1.9,1.9,0,0,0,.25-.44,1.24,1.24,0,0,0,.08-.46.73.73,0,0,0-.21-.55.8.8,0,0,0-.58-.2,1.45,1.45,0,0,0-.51.09,2,2,0,0,0-.53.32l-.26-.33a2,2,0,0,1,1.3-.5,1.37,1.37,0,0,1,1,.31,1.07,1.07,0,0,1,.34.83,1.61,1.61,0,0,1-.23.81,5.13,5.13,0,0,1-.86,1l-.94.92v0h2.21Z"/></svg>