<svg id="Layer_1" data-name="Layer 1" xmlns="http://www.w3.org/2000/svg" xmlns:xlink="http://www.w3.org/1999/xlink" viewBox="0 0 512 314"><defs><style>.cls-1{fill:none;}.cls-2{clip-path:url(#clip-path);}.cls-3{fill:url(#Безымянный_градиент_394);}.cls-4{clip-path:url(#clip-path-2);}.cls-5{fill:url(#Безымянный_градиент_70);}.cls-6{clip-path:url(#clip-path-3);}.cls-7{fill:url(#Безымянный_градиент_3);}.cls-8{clip-path:url(#clip-path-4);}.cls-9{fill:url(#Безымянный_градиент_4);}.cls-10{clip-path:url(#clip-path-5);}.cls-11{fill:url(#Безымянный_градиент_11);}.cls-12{clip-path:url(#clip-path-6);}.cls-13{fill:url(#Безымянный_градиент_94);}.cls-14{fill:#fff;}.cls-15{fill:#474a51;}</style><clipPath id="clip-path"><polygon class="cls-1" points="147.45 9.68 285.85 9.1 256 157 79.84 77.77 147.45 9.68"/></clipPath><linearGradient id="Безымянный_градиент_394" x1="153.28" y1="1983.92" x2="358.72" y2="2189.36" gradientTransform="matrix(1, 0, 0, -1, 0, 2243.17)" gradientUnits="userSpaceOnUse"><stop offset="0.27" stop-color="#fc5fa2"/><stop offset="0.84" stop-color="#8d1ab3"/></linearGradient><clipPath id="clip-path-2"><polygon class="cls-1" points="427.88 91.02 256 157 436.42 147.85 427.88 91.02"/></clipPath><linearGradient id="Безымянный_градиент_70" x1="152.96" y1="2000.16" x2="359.04" y2="2173.08" gradientTransform="matrix(1, 0, 0, -1, 0, 2243.17)" gradientUnits="userSpaceOnUse"><stop offset="0" stop-color="#6e00a1"/><stop offset="0.21" stop-color="#5f3cb7"/><stop offset="0.71" stop-color="#45a4dd"/><stop offset="1" stop-color="#34e6f6"/></linearGradient><clipPath id="clip-path-3"><polygon class="cls-1" points="79.84 77.77 256 157 238.46 314.6 123 303.4 79.84 77.77"/></clipPath><linearGradient id="Безымянный_градиент_3" x1="121.5" y1="2086.64" x2="390.5" y2="2086.64" gradientTransform="matrix(1, 0, 0, -1, 0, 2243.17)" gradientUnits="userSpaceOnUse"><stop offset="0" stop-color="#42ccfb"/><stop offset="0.38" stop-color="#0993ff"/><stop offset="1" stop-color="#9e09c7"/></linearGradient><clipPath id="clip-path-4"><polygon class="cls-1" points="238.46 314.6 256 157 293.46 314 238.46 314.6"/></clipPath><linearGradient id="Безымянный_градиент_4" x1="236.09" y1="110.8" x2="310.09" y2="280.8" gradientUnits="userSpaceOnUse"><stop offset="0" stop-color="#ff00e5"/><stop offset="0.04" stop-color="#f91fca"/><stop offset="0.12" stop-color="#ed5995"/><stop offset="0.2" stop-color="#e28c67"/><stop offset="0.28" stop-color="#dab542"/><stop offset="0.36" stop-color="#d3d525"/><stop offset="0.44" stop-color="#cfec11"/><stop offset="0.51" stop-color="#ccfa04"/><stop offset="0.57" stop-color="#cbff00"/><stop offset="0.6" stop-color="#befd00"/><stop offset="0.65" stop-color="#9cf900"/><stop offset="0.73" stop-color="#65f200"/><stop offset="0.82" stop-color="#19e900"/><stop offset="0.85" stop-color="#00e600"/></linearGradient><clipPath id="clip-path-5"><polygon class="cls-1" points="293.46 314 256 157 436.42 147.85 436.42 314 293.46 314"/></clipPath><linearGradient id="Безымянный_градиент_11" x1="353.3" y1="40.57" x2="158.7" y2="272.49" gradientUnits="userSpaceOnUse"><stop offset="0.13" stop-color="#ff5c02"/><stop offset="0.64" stop-color="#f8be35"/></linearGradient><clipPath id="clip-path-6"><polygon class="cls-1" points="349.43 19.22 285.85 9.1 256 157 427.88 91.02 349.43 19.22"/></clipPath><linearGradient id="Безымянный_градиент_94" x1="105.5" y1="156.53" x2="406.5" y2="156.53" gradientUnits="userSpaceOnUse"><stop offset="0.17" stop-color="aqua"/><stop offset="0.57" stop-color="#001fa9"/><stop offset="0.95" stop-color="#bd00de"/></linearGradient></defs><title>pie_right</title><g class="cls-2"><path class="cls-3" d="M256,11.26A145.27,145.27,0,1,0,401.27,156.53,145.28,145.28,0,0,0,256,11.26Zm0,203.38a58.11,58.11,0,1,1,58.11-58.11A58.16,58.16,0,0,1,256,214.64Z"/></g><g class="cls-4"><path class="cls-5" d="M256,22a134.5,134.5,0,1,0,134.5,134.5A134.5,134.5,0,0,0,256,22Zm0,188.29a53.8,53.8,0,1,1,53.8-53.8A53.8,53.8,0,0,1,256,210.33Z"/></g><g class="cls-6"><path class="cls-7" d="M256,22a134.5,134.5,0,1,0,134.5,134.5A134.5,134.5,0,0,0,256,22Zm0,188.29a53.8,53.8,0,1,1,53.8-53.8A53.8,53.8,0,0,1,256,210.33Z"/></g><g class="cls-8"><path class="cls-9" d="M256,17A139.56,139.56,0,1,0,395.56,156.53,139.6,139.6,0,0,0,256,17Zm0,195.42a55.86,55.86,0,1,1,55.86-55.86A55.88,55.88,0,0,1,256,212.39Z"/></g><g class="cls-10"><path class="cls-11" d="M256,5.17A151.37,151.37,0,1,0,407.37,156.53,151.36,151.36,0,0,0,256,5.17Zm0,211.91a60.55,60.55,0,1,1,60.55-60.55A60.52,60.52,0,0,1,256,217.08Z"/></g><g class="cls-12"><path class="cls-13" d="M256,6a150.5,150.5,0,1,0,150.5,150.5A150.51,150.51,0,0,0,256,6Zm0,210.7a60.2,60.2,0,1,1,60.2-60.2A60.25,60.25,0,0,1,256,216.73Z"/></g><path class="cls-14" d="M259.8,246.76v.71c0,.36-.13.49-.49.49H253.5l-.34,3.43h2.72c3,0,4.42,1.87,4.42,4.14a4.26,4.26,0,0,1-4.59,4.33c-2.75,0-4.27-1.07-5-3-.13-.36-.06-.51.28-.64l.81-.28c.34-.13.49-.06.62.3.47,1.25,1.42,1.93,3.24,1.93a2.52,2.52,0,0,0,2.72-2.64,2.38,2.38,0,0,0-2.62-2.46h-4c-.43,0-.56-.19-.53-.6l.56-5.47c.06-.56.26-.73.82-.73h6.69C259.67,246.28,259.8,246.41,259.8,246.76Z"/><path class="cls-14" d="M264.73,246c2,0,3,1.07,3,2.77v1.37c0,1.69-1.07,2.74-3,2.74s-3-1-3-2.74v-1.37C261.69,247,262.76,246,264.73,246Zm0,1.35c-1.07,0-1.63.54-1.63,1.5V250c0,.94.56,1.5,1.63,1.5a1.41,1.41,0,0,0,1.61-1.5v-1.2A1.41,1.41,0,0,0,264.73,247.33Zm9.42-.58L265,259.15c-.28.39-.39.43-1,.43h-.56c-.37,0-.45-.24-.26-.51l9.13-12.39c.26-.37.38-.41.9-.41h.66C274.27,246.28,274.34,246.5,274.15,246.75Zm-1.5,6.26c2,0,3,1.07,3,2.77v1.35c0,1.71-1,2.75-3,2.75s-3-1-3-2.75v-1.35C269.62,254.07,270.69,253,272.65,253Zm0,1.35a1.41,1.41,0,0,0-1.61,1.5V257a1.41,1.41,0,0,0,1.61,1.5c1.07,0,1.63-.54,1.63-1.5v-1.18C274.28,254.9,273.72,254.35,272.65,254.35Z"/><path class="cls-14" d="M356.7,128.24V129c0,.36-.13.49-.49.49h-5.81l-.34,3.43h2.72c3,0,4.42,1.87,4.42,4.14a4.26,4.26,0,0,1-4.59,4.33c-2.75,0-4.27-1.07-5-3-.13-.36-.06-.51.28-.64l.81-.28c.34-.13.49-.06.62.3.47,1.25,1.42,1.93,3.24,1.93a2.52,2.52,0,0,0,2.72-2.64,2.38,2.38,0,0,0-2.62-2.46h-4c-.43,0-.56-.19-.53-.6l.56-5.47c.06-.56.26-.73.82-.73h6.69C356.57,127.76,356.7,127.89,356.7,128.24Z"/><path class="cls-14" d="M361.64,127.46c2,0,3,1.07,3,2.77v1.37c0,1.69-1.07,2.74-3,2.74s-3-1-3-2.74v-1.37C358.6,128.52,359.67,127.46,361.64,127.46Zm0,1.35c-1.07,0-1.63.54-1.63,1.5v1.2c0,.94.56,1.5,1.63,1.5a1.41,1.41,0,0,0,1.61-1.5v-1.2A1.41,1.41,0,0,0,361.64,128.8Zm9.42-.58L362,140.63c-.28.39-.39.43-1,.43h-.56c-.37,0-.45-.24-.26-.51l9.13-12.39c.26-.38.38-.41.9-.41h.66C371.17,127.76,371.25,128,371.06,128.22Zm-1.5,6.26c2,0,3,1.07,3,2.77v1.35c0,1.71-1,2.75-3,2.75s-3-1-3-2.75v-1.35C366.53,135.55,367.6,134.48,369.56,134.48Zm0,1.35a1.41,1.41,0,0,0-1.61,1.5v1.18a1.41,1.41,0,0,0,1.61,1.5c1.07,0,1.63-.54,1.63-1.5v-1.18C371.19,136.37,370.63,135.83,369.56,135.83Z"/><path class="cls-14" d="M196.71,32.93c4.11,0,6.61,2.87,6.61,6.16,0,4.25-2.53,5.74-7.56,7.71-1.66.65-3.63,1.32-3.63,3.18v.82h10.21c.56,0,.73.2.73.73v1.07c0,.53-.17.73-.73.73H190c-.56,0-.76-.2-.76-.76V50.5c0-3.8,2.84-5.06,5.71-6.19s5.48-2,5.48-5.12a3.7,3.7,0,0,0-3.85-3.74,4.58,4.58,0,0,0-4.64,3c-.23.54-.42.65-.93.48l-1.21-.45c-.51-.17-.65-.42-.45-.93C190.58,34.67,192.77,32.93,196.71,32.93Z"/><path class="cls-14" d="M213.49,32.93c4.61,0,7.28,2.59,7.28,6.67v7.48c0,4.08-2.67,6.67-7.28,6.67s-7.31-2.59-7.31-6.67V39.59C206.18,35.51,208.85,32.93,213.49,32.93Zm0,2.53c-2.92,0-4.58,1.52-4.58,4.13v7.48c0,2.59,1.66,4.13,4.58,4.13S218,49.66,218,47.07V39.59C218,37,216.39,35.46,213.49,35.46Z"/><path class="cls-14" d="M227.83,32.9c3,0,4.56,1.6,4.56,4.16v2.05c0,2.53-1.6,4.11-4.56,4.11s-4.56-1.58-4.56-4.11V37.06C223.28,34.5,224.88,32.9,227.83,32.9Zm0,2c-1.6,0-2.45.82-2.45,2.25V39c0,1.41.84,2.25,2.45,2.25A2.12,2.12,0,0,0,230.25,39v-1.8A2.11,2.11,0,0,0,227.83,34.92ZM242,34.05,228.31,52.67c-.42.59-.59.65-1.46.65H226c-.56,0-.67-.37-.39-.76L239.31,34c.39-.56.56-.62,1.35-.62h1C242.15,33.35,242.26,33.69,242,34.05Zm-2.25,9.39c3,0,4.56,1.6,4.56,4.16v2c0,2.56-1.57,4.13-4.56,4.13s-4.56-1.58-4.56-4.13v-2C235.17,45,236.78,43.44,239.73,43.44Zm0,2a2.11,2.11,0,0,0-2.42,2.25v1.77a2.11,2.11,0,0,0,2.42,2.25c1.6,0,2.45-.82,2.45-2.25V47.72C242.17,46.28,241.33,45.47,239.73,45.47Z"/><path class="cls-14" d="M184.28,71.31V63.94h.86v7.37Z"/><path class="cls-14" d="M190.81,71.31V67.74a1.45,1.45,0,0,0-.31-1,1.25,1.25,0,0,0-1-.33,1.59,1.59,0,0,0-1.27.47,2.36,2.36,0,0,0-.4,1.55v2.9H187V65.79h.68l.14.76h0a1.72,1.72,0,0,1,.72-.63,2.34,2.34,0,0,1,1-.22,2.1,2.1,0,0,1,1.5.48,2,2,0,0,1,.5,1.54v3.6Z"/><path class="cls-14" d="M195.85,66.44h-1.41v4.87h-.84V66.44h-1v-.38l1-.3v-.31q0-2,1.78-2a3.64,3.64,0,0,1,1,.18l-.22.67a2.75,2.75,0,0,0-.83-.16.8.8,0,0,0-.7.31,1.76,1.76,0,0,0-.23,1v.36h1.41Z"/><path class="cls-14" d="M199.38,65.69a3.29,3.29,0,0,1,.66.06l-.12.78a2.83,2.83,0,0,0-.61-.08,1.47,1.47,0,0,0-1.15.54,2,2,0,0,0-.48,1.36v3h-.84V65.79h.69l.1,1h0a2.42,2.42,0,0,1,.74-.83A1.67,1.67,0,0,1,199.38,65.69Z"/><path class="cls-14" d="M204.47,71.31l-.17-.79h0a2.34,2.34,0,0,1-.82.7,2.52,2.52,0,0,1-1,.18,1.85,1.85,0,0,1-1.29-.42,1.54,1.54,0,0,1-.47-1.21q0-1.67,2.68-1.75l.94,0v-.34a1.4,1.4,0,0,0-.28-1,1.15,1.15,0,0,0-.89-.31,3.64,3.64,0,0,0-1.56.42l-.26-.64a4,4,0,0,1,1.87-.47,2.11,2.11,0,0,1,1.46.44,1.83,1.83,0,0,1,.48,1.41v3.77Zm-1.89-.59a1.7,1.7,0,0,0,1.23-.43,1.59,1.59,0,0,0,.45-1.2v-.5l-.84,0a3.05,3.05,0,0,0-1.44.31.93.93,0,0,0-.44.85.86.86,0,0,0,.27.69A1.14,1.14,0,0,0,202.58,70.72Z"/><path class="cls-14" d="M210.38,69.8A1.38,1.38,0,0,1,209.8,71a2.7,2.7,0,0,1-1.61.42,3.5,3.5,0,0,1-1.71-.35v-.78a4.19,4.19,0,0,0,.85.32,3.57,3.57,0,0,0,.88.12,2,2,0,0,0,1-.21.72.72,0,0,0,.07-1.19,4.41,4.41,0,0,0-1.09-.54,5.93,5.93,0,0,1-1.1-.5,1.49,1.49,0,0,1-.48-.49,1.26,1.26,0,0,1-.16-.65,1.24,1.24,0,0,1,.55-1.07,2.57,2.57,0,0,1,1.51-.39,4.41,4.41,0,0,1,1.74.36l-.3.68a4,4,0,0,0-1.51-.34,1.73,1.73,0,0,0-.9.19.58.58,0,0,0-.3.51.63.63,0,0,0,.11.38,1.12,1.12,0,0,0,.37.3,7.93,7.93,0,0,0,1,.41,3.62,3.62,0,0,1,1.33.72A1.27,1.27,0,0,1,210.38,69.8Z"/><path class="cls-14" d="M213.52,70.72a2.79,2.79,0,0,0,.43,0l.33-.07v.64a1.52,1.52,0,0,1-.4.11,2.93,2.93,0,0,1-.48,0q-1.6,0-1.6-1.69V66.44H211V66l.79-.35.35-1.18h.48v1.28h1.6v.65h-1.6v3.25a1.12,1.12,0,0,0,.24.77A.83.83,0,0,0,213.52,70.72Z"/><path class="cls-14" d="M217.9,65.69a3.29,3.29,0,0,1,.66.06l-.12.78a2.83,2.83,0,0,0-.61-.08,1.47,1.47,0,0,0-1.15.54,2,2,0,0,0-.48,1.36v3h-.84V65.79h.69l.1,1h0a2.42,2.42,0,0,1,.74-.83A1.67,1.67,0,0,1,217.9,65.69Z"/><path class="cls-14" d="M220.38,65.79v3.58a1.44,1.44,0,0,0,.31,1,1.25,1.25,0,0,0,1,.33,1.57,1.57,0,0,0,1.27-.47,2.39,2.39,0,0,0,.4-1.55v-2.9h.84v5.52h-.69l-.12-.74h0a1.67,1.67,0,0,1-.71.63,2.4,2.4,0,0,1-1,.22,2.11,2.11,0,0,1-1.51-.48,2,2,0,0,1-.5-1.53V65.79Z"/><path class="cls-14" d="M228.13,71.41a2.36,2.36,0,0,1-1.86-.74,3,3,0,0,1-.66-2.09,3.13,3.13,0,0,1,.67-2.14,2.4,2.4,0,0,1,1.9-.76,3.8,3.8,0,0,1,.8.09,2.61,2.61,0,0,1,.63.2l-.26.71a3.92,3.92,0,0,0-.6-.18,2.7,2.7,0,0,0-.58-.07q-1.68,0-1.68,2.15a2.55,2.55,0,0,0,.41,1.56,1.43,1.43,0,0,0,1.22.54,3.72,3.72,0,0,0,1.42-.3v.74A3,3,0,0,1,228.13,71.41Z"/><path class="cls-14" d="M232.62,70.72a2.79,2.79,0,0,0,.43,0l.33-.07v.64a1.52,1.52,0,0,1-.4.11,2.93,2.93,0,0,1-.48,0q-1.6,0-1.6-1.69V66.44h-.79V66l.79-.35.35-1.18h.48v1.28h1.6v.65h-1.6v3.25a1.12,1.12,0,0,0,.24.77A.83.83,0,0,0,232.62,70.72Z"/><path class="cls-14" d="M235.27,65.79v3.58a1.44,1.44,0,0,0,.31,1,1.25,1.25,0,0,0,1,.33,1.57,1.57,0,0,0,1.27-.47,2.39,2.39,0,0,0,.4-1.55v-2.9H239v5.52h-.69l-.12-.74h0a1.67,1.67,0,0,1-.71.63,2.4,2.4,0,0,1-1,.22,2.11,2.11,0,0,1-1.51-.48,2,2,0,0,1-.5-1.53V65.79Z"/><path class="cls-14" d="M243.34,65.69a3.29,3.29,0,0,1,.66.06l-.12.78a2.83,2.83,0,0,0-.61-.08,1.47,1.47,0,0,0-1.15.54,2,2,0,0,0-.48,1.36v3h-.84V65.79h.69l.1,1h0a2.42,2.42,0,0,1,.74-.83A1.67,1.67,0,0,1,243.34,65.69Z"/><path class="cls-14" d="M247.36,71.41a2.54,2.54,0,0,1-1.93-.75,2.89,2.89,0,0,1-.71-2.07,3.2,3.2,0,0,1,.66-2.12,2.19,2.19,0,0,1,1.77-.79,2.08,2.08,0,0,1,1.64.68,2.62,2.62,0,0,1,.6,1.8v.53h-3.8a2.19,2.19,0,0,0,.49,1.48,1.7,1.7,0,0,0,1.31.5,4.44,4.44,0,0,0,1.76-.37v.75a4.41,4.41,0,0,1-.84.27A4.7,4.7,0,0,1,247.36,71.41Zm-.23-5a1.36,1.36,0,0,0-1.06.43,2,2,0,0,0-.47,1.2h2.89a1.84,1.84,0,0,0-.35-1.21A1.24,1.24,0,0,0,247.14,66.39Z"/><path class="cls-14" d="M188.94,83.7l-.17-.79h0a2.34,2.34,0,0,1-.82.7,2.52,2.52,0,0,1-1,.18,1.85,1.85,0,0,1-1.29-.42,1.54,1.54,0,0,1-.47-1.21q0-1.67,2.68-1.75l.94,0V80a1.4,1.4,0,0,0-.28-1,1.15,1.15,0,0,0-.89-.31,3.64,3.64,0,0,0-1.56.42l-.26-.64a4,4,0,0,1,1.87-.47,2.11,2.11,0,0,1,1.46.44,1.83,1.83,0,0,1,.48,1.41V83.7ZM187,83.11a1.7,1.7,0,0,0,1.23-.43,1.59,1.59,0,0,0,.45-1.2V81l-.84,0a3.05,3.05,0,0,0-1.44.31.93.93,0,0,0-.44.85.86.86,0,0,0,.27.69A1.14,1.14,0,0,0,187,83.11Z"/><path class="cls-14" d="M195.06,83.7V80.12a1.45,1.45,0,0,0-.31-1,1.25,1.25,0,0,0-1-.33,1.59,1.59,0,0,0-1.27.47,2.36,2.36,0,0,0-.4,1.55v2.9h-.84V78.17H192l.14.76h0a1.72,1.72,0,0,1,.72-.63,2.34,2.34,0,0,1,1-.22,2.1,2.1,0,0,1,1.5.48,2,2,0,0,1,.5,1.54v3.6Z"/><path class="cls-14" d="M201.38,83h0a2,2,0,0,1-1.73.84,2.05,2.05,0,0,1-1.69-.74,3.26,3.26,0,0,1-.6-2.11,3.32,3.32,0,0,1,.61-2.12,2,2,0,0,1,1.68-.76,2,2,0,0,1,1.72.82h.07l0-.4,0-.39V75.85h.84V83.7h-.68Zm-1.67.14a1.52,1.52,0,0,0,1.24-.47,2.35,2.35,0,0,0,.39-1.5v-.18a2.77,2.77,0,0,0-.39-1.68,1.48,1.48,0,0,0-1.25-.5,1.28,1.28,0,0,0-1.13.57,2.84,2.84,0,0,0-.39,1.62,2.73,2.73,0,0,0,.39,1.6A1.32,1.32,0,0,0,199.7,83.1Z"/><path class="cls-14" d="M210.91,81.74a1.81,1.81,0,0,1-.71,1.52,3.06,3.06,0,0,1-1.92.54,4.79,4.79,0,0,1-2-.34v-.83a5.33,5.33,0,0,0,1,.3,5.18,5.18,0,0,0,1.06.11,2.14,2.14,0,0,0,1.29-.32,1.07,1.07,0,0,0,.43-.91,1.16,1.16,0,0,0-.15-.63,1.43,1.43,0,0,0-.51-.45,7.21,7.21,0,0,0-1.1-.47,3.5,3.5,0,0,1-1.47-.87,1.92,1.92,0,0,1-.44-1.31,1.64,1.64,0,0,1,.64-1.36,2.67,2.67,0,0,1,1.69-.5,5,5,0,0,1,2,.4l-.27.75a4.57,4.57,0,0,0-1.77-.38,1.72,1.72,0,0,0-1.06.29,1,1,0,0,0-.38.81,1.24,1.24,0,0,0,.14.63,1.33,1.33,0,0,0,.48.45,5.86,5.86,0,0,0,1,.45,4.07,4.07,0,0,1,1.59.89A1.74,1.74,0,0,1,210.91,81.74Z"/><path class="cls-14" d="M217.05,80.93a3,3,0,0,1-.68,2.11,2.4,2.4,0,0,1-1.88.76,2.48,2.48,0,0,1-1.31-.35,2.29,2.29,0,0,1-.89-1,3.48,3.48,0,0,1-.31-1.52,3,3,0,0,1,.68-2.1,2.39,2.39,0,0,1,1.87-.75,2.34,2.34,0,0,1,1.84.77A3,3,0,0,1,217.05,80.93Zm-4.21,0a2.62,2.62,0,0,0,.42,1.61,1.68,1.68,0,0,0,2.49,0,2.61,2.61,0,0,0,.43-1.62,2.56,2.56,0,0,0-.43-1.6,1.49,1.49,0,0,0-1.26-.55,1.47,1.47,0,0,0-1.24.54A2.6,2.6,0,0,0,212.85,80.93Z"/><path class="cls-14" d="M221,78.82H219.6V83.7h-.84V78.82h-1v-.38l1-.3v-.31q0-2,1.78-2a3.64,3.64,0,0,1,1,.18l-.22.67a2.75,2.75,0,0,0-.83-.16.8.8,0,0,0-.7.31,1.76,1.76,0,0,0-.23,1v.36H221Z"/><path class="cls-14" d="M223.8,83.11a2.79,2.79,0,0,0,.43,0l.33-.07v.64a1.52,1.52,0,0,1-.4.11,2.93,2.93,0,0,1-.48,0q-1.6,0-1.6-1.69V78.82h-.79v-.4l.79-.35.35-1.18h.48v1.28h1.6v.65h-1.6v3.25a1.12,1.12,0,0,0,.24.77A.83.83,0,0,0,223.8,83.11Z"/><path class="cls-14" d="M230.17,83.7l-1-3.24q-.1-.3-.36-1.35h0q-.2.88-.35,1.36l-1,3.23h-1l-1.51-5.52h.88l.81,3.17a13,13,0,0,1,.32,1.47h0q.06-.29.18-.74c.08-.3.15-.54.21-.72l1-3.17h.91l1,3.17a10.84,10.84,0,0,1,.38,1.46h0a5.5,5.5,0,0,1,.11-.56q.09-.38,1.05-4.07h.87l-1.53,5.52Z"/><path class="cls-14" d="M237.08,83.7l-.17-.79h0a2.34,2.34,0,0,1-.82.7,2.52,2.52,0,0,1-1,.18,1.85,1.85,0,0,1-1.29-.42,1.54,1.54,0,0,1-.47-1.21q0-1.67,2.68-1.75l.94,0V80a1.4,1.4,0,0,0-.28-1,1.15,1.15,0,0,0-.89-.31,3.64,3.64,0,0,0-1.56.42l-.26-.64a4,4,0,0,1,1.87-.47,2.11,2.11,0,0,1,1.46.44,1.83,1.83,0,0,1,.48,1.41V83.7Zm-1.89-.59a1.7,1.7,0,0,0,1.23-.43,1.59,1.59,0,0,0,.45-1.2V81L236,81a3.05,3.05,0,0,0-1.44.31.93.93,0,0,0-.44.85.86.86,0,0,0,.27.69A1.14,1.14,0,0,0,235.19,83.11Z"/><path class="cls-14" d="M241.95,78.07a3.29,3.29,0,0,1,.66.06l-.12.78a2.83,2.83,0,0,0-.61-.08,1.47,1.47,0,0,0-1.15.54,2,2,0,0,0-.48,1.36v3h-.84V78.17h.69l.1,1h0a2.42,2.42,0,0,1,.74-.83A1.67,1.67,0,0,1,241.95,78.07Z"/><path class="cls-14" d="M246,83.8a2.54,2.54,0,0,1-1.93-.75,2.89,2.89,0,0,1-.71-2.07,3.2,3.2,0,0,1,.66-2.12,2.19,2.19,0,0,1,1.77-.79,2.08,2.08,0,0,1,1.64.68,2.62,2.62,0,0,1,.6,1.8v.53h-3.8a2.19,2.19,0,0,0,.49,1.48,1.7,1.7,0,0,0,1.31.5,4.44,4.44,0,0,0,1.76-.37v.75a4.41,4.41,0,0,1-.84.27A4.7,4.7,0,0,1,246,83.8Zm-.23-5a1.36,1.36,0,0,0-1.06.43,2,2,0,0,0-.47,1.2h2.89a1.84,1.84,0,0,0-.35-1.21A1.24,1.24,0,0,0,245.75,78.77Z"/><path class="cls-14" d="M183.84,91.78a6.62,6.62,0,0,1,.33-2.11,5.27,5.27,0,0,1,1-1.73h.69a6,6,0,0,0-.92,1.81,6.72,6.72,0,0,0-.31,2,6.45,6.45,0,0,0,.32,2,6.19,6.19,0,0,0,.91,1.78h-.68a5,5,0,0,1-1-1.69A6.44,6.44,0,0,1,183.84,91.78Z"/><path class="cls-14" d="M186.77,88.23a.47.47,0,0,1,.12-.36.42.42,0,0,1,.3-.11.42.42,0,0,1,.29.12.57.57,0,0,1,0,.71.41.41,0,0,1-.29.12.41.41,0,0,1-.3-.12A.48.48,0,0,1,186.77,88.23Zm.77,5.94h-.71V89.5h.71Z"/><path class="cls-14" d="M192.24,94.17v-3a1.22,1.22,0,0,0-.26-.85,1.06,1.06,0,0,0-.81-.28,1.34,1.34,0,0,0-1.07.4,2,2,0,0,0-.34,1.31v2.45H189V89.5h.58l.12.64h0a1.45,1.45,0,0,1,.61-.54,2,2,0,0,1,.87-.19,1.77,1.77,0,0,1,1.27.41,1.73,1.73,0,0,1,.43,1.3v3Z"/><path class="cls-14" d="M196.26,94.26a2,2,0,0,1-1.57-.62,2.57,2.57,0,0,1-.56-1.77,2.65,2.65,0,0,1,.57-1.81,2,2,0,0,1,1.61-.64,3.23,3.23,0,0,1,.67.07,2.23,2.23,0,0,1,.53.17l-.22.6a3.46,3.46,0,0,0-.51-.16,2.31,2.31,0,0,0-.49-.06q-1.42,0-1.42,1.82a2.17,2.17,0,0,0,.35,1.32,1.21,1.21,0,0,0,1,.46,3.16,3.16,0,0,0,1.2-.25V94A2.55,2.55,0,0,1,196.26,94.26Z"/><path class="cls-14" d="M199.26,94.17h-.71V87.54h.71Z"/><path class="cls-14" d="M200.66,93.72a.63.63,0,0,1,.13-.43.47.47,0,0,1,.37-.15.51.51,0,0,1,.39.15.61.61,0,0,1,.14.43.6.6,0,0,1-.14.43.56.56,0,0,1-.74,0A.58.58,0,0,1,200.66,93.72Z"/><path class="cls-14" d="M208.13,88.5a2,2,0,0,0-1.62.68,2.76,2.76,0,0,0-.6,1.87,2.81,2.81,0,0,0,.57,1.89,2,2,0,0,0,1.63.67,5.59,5.59,0,0,0,1.49-.23V94a4.58,4.58,0,0,1-1.6.24,2.71,2.71,0,0,1-2.13-.83,3.44,3.44,0,0,1-.75-2.38,3.75,3.75,0,0,1,.36-1.69,2.59,2.59,0,0,1,1-1.12,3.16,3.16,0,0,1,1.6-.39,3.86,3.86,0,0,1,1.71.36l-.31.62A3.31,3.31,0,0,0,208.13,88.5Z"/><path class="cls-14" d="M215.95,91a3.15,3.15,0,0,1-.84,2.36,3.32,3.32,0,0,1-2.41.82H211V87.94h1.91A2.8,2.8,0,0,1,215.95,91Zm-.77,0a2.52,2.52,0,0,0-.61-1.84,2.45,2.45,0,0,0-1.82-.62H211.7v5h.88a2.68,2.68,0,0,0,1.95-.64A2.52,2.52,0,0,0,215.18,91Z"/><path class="cls-14" d="M222.21,94.17h-.83L218,88.94h0q.07.92.07,1.69v3.54h-.67V87.94h.82l3.4,5.21h0q0-.12,0-.74t0-.89V87.94h.68Z"/><path class="cls-14" d="M224.56,93.16l.06.1q-.11.43-.32,1t-.43,1.05h-.53q.12-.44.25-1.1t.19-1Z"/><path class="cls-14" d="M233.31,91a3.15,3.15,0,0,1-.84,2.36,3.32,3.32,0,0,1-2.41.82h-1.73V87.94h1.91A2.8,2.8,0,0,1,233.31,91Zm-.77,0a2.52,2.52,0,0,0-.61-1.84,2.45,2.45,0,0,0-1.82-.62h-1.05v5h.88a2.68,2.68,0,0,0,1.95-.64A2.52,2.52,0,0,0,232.54,91Z"/><path class="cls-14" d="M235.42,91.58v2.59h-.72V87.94h1.71a2.69,2.69,0,0,1,1.69.44,1.59,1.59,0,0,1,.55,1.32,1.66,1.66,0,0,1-1.25,1.67l1.69,2.8h-.86l-1.51-2.59Zm0-.62h1a1.72,1.72,0,0,0,1.13-.3,1.14,1.14,0,0,0,.36-.92,1,1,0,0,0-.37-.89,2,2,0,0,0-1.17-.27h-.94Z"/><path class="cls-14" d="M242.85,94.17l-2.12-5.53h0q.06.66.06,1.56v4h-.67V87.94h1.09l2,5.14h0l2-5.14h1.08v6.23h-.72v-4q0-.69.06-1.5h0l-2.13,5.52Z"/><path class="cls-14" d="M249.36,91.78a6.44,6.44,0,0,1-.33,2.09,5,5,0,0,1-1,1.68h-.68a6.13,6.13,0,0,0,.91-1.78,6.5,6.5,0,0,0,.32-2,6.72,6.72,0,0,0-.31-2,6,6,0,0,0-.92-1.81h.69a5.24,5.24,0,0,1,1,1.73A6.64,6.64,0,0,1,249.36,91.78Z"/><path class="cls-14" d="M312.91,49.37v18.5c0,.53-.17.73-.73.73h-1.24c-.56,0-.73-.2-.73-.73V51.93l-5,2.78c-.56.34-.84.23-1.1-.25l-.56-1c-.25-.48-.14-.73.34-1l6.24-3.52a1.57,1.57,0,0,1,1-.31h1C312.74,48.64,312.91,48.83,312.91,49.37Z"/><path class="cls-14" d="M329.95,49.37v1.07c0,.53-.2.73-.73.73H320.5L320,56.31h4.08c4.53,0,6.64,2.81,6.64,6.21s-2.5,6.5-6.89,6.5c-4.13,0-6.41-1.6-7.45-4.5-.2-.53-.08-.76.42-1l1.21-.42c.51-.2.73-.08.93.45.7,1.88,2.14,2.9,4.87,2.9a3.78,3.78,0,0,0,4.08-4c0-2.17-1.46-3.68-3.94-3.68h-6c-.65,0-.84-.28-.79-.9l.84-8.21c.08-.84.39-1.1,1.24-1.1h10C329.75,48.64,329.95,48.83,329.95,49.37Z"/><path class="cls-14" d="M337.34,48.19c3,0,4.56,1.6,4.56,4.16V54.4c0,2.53-1.6,4.11-4.56,4.11s-4.56-1.58-4.56-4.11V52.35C332.78,49.79,334.39,48.19,337.34,48.19Zm0,2c-1.6,0-2.45.82-2.45,2.25v1.8c0,1.41.84,2.25,2.45,2.25a2.12,2.12,0,0,0,2.42-2.25v-1.8A2.11,2.11,0,0,0,337.34,50.21Zm14.15-.87L337.82,68c-.42.59-.59.65-1.46.65h-.84c-.56,0-.67-.37-.39-.76l13.7-18.59c.39-.56.56-.62,1.35-.62h1C351.65,48.64,351.77,49,351.48,49.34Zm-2.25,9.39c3,0,4.56,1.6,4.56,4.16v2c0,2.56-1.57,4.13-4.56,4.13s-4.56-1.58-4.56-4.13v-2C344.68,60.33,346.28,58.73,349.23,58.73Zm0,2A2.11,2.11,0,0,0,346.82,63v1.77A2.11,2.11,0,0,0,349.23,67c1.6,0,2.45-.82,2.45-2.25V63C351.68,61.57,350.84,60.76,349.23,60.76Z"/><path class="cls-14" d="M302.34,73.7h.92l-2.66,7.37h-.85l-2.64-7.37H298l1.69,4.77a13.47,13.47,0,0,1,.46,1.6,13.48,13.48,0,0,1,.47-1.63Z"/><path class="cls-14" d="M304.08,74.05a.56.56,0,0,1,.14-.42.52.52,0,0,1,.7,0,.55.55,0,0,1,.15.42.56.56,0,0,1-.15.42.51.51,0,0,1-.7,0A.57.57,0,0,1,304.08,74.05Zm.91,7h-.84V75.55H305Z"/><path class="cls-14" d="M310.52,80.33h0a2,2,0,0,1-1.73.84,2.05,2.05,0,0,1-1.69-.74,3.26,3.26,0,0,1-.6-2.11,3.32,3.32,0,0,1,.61-2.12,2,2,0,0,1,1.68-.76,2,2,0,0,1,1.72.82h.07l0-.4,0-.39V73.23h.84v7.84h-.68Zm-1.67.14a1.52,1.52,0,0,0,1.24-.47,2.35,2.35,0,0,0,.39-1.5v-.18a2.77,2.77,0,0,0-.39-1.68,1.48,1.48,0,0,0-1.25-.5,1.28,1.28,0,0,0-1.13.57,2.84,2.84,0,0,0-.39,1.62,2.73,2.73,0,0,0,.39,1.6A1.32,1.32,0,0,0,308.84,80.47Z"/><path class="cls-14" d="M315.41,81.17a2.54,2.54,0,0,1-1.93-.75,2.89,2.89,0,0,1-.71-2.07,3.2,3.2,0,0,1,.66-2.12,2.19,2.19,0,0,1,1.77-.79,2.08,2.08,0,0,1,1.64.68,2.62,2.62,0,0,1,.6,1.8v.53h-3.8a2.19,2.19,0,0,0,.49,1.48,1.7,1.7,0,0,0,1.31.5,4.44,4.44,0,0,0,1.76-.37v.75a4.41,4.41,0,0,1-.84.27A4.7,4.7,0,0,1,315.41,81.17Zm-.23-5a1.36,1.36,0,0,0-1.06.43,2,2,0,0,0-.47,1.2h2.89a1.84,1.84,0,0,0-.35-1.21A1.24,1.24,0,0,0,315.19,76.15Z"/><path class="cls-14" d="M323.64,78.3a3,3,0,0,1-.68,2.11,2.4,2.4,0,0,1-1.88.76,2.48,2.48,0,0,1-1.31-.35,2.29,2.29,0,0,1-.89-1,3.48,3.48,0,0,1-.31-1.52,3,3,0,0,1,.68-2.1,2.39,2.39,0,0,1,1.87-.75,2.34,2.34,0,0,1,1.84.77A3,3,0,0,1,323.64,78.3Zm-4.21,0a2.62,2.62,0,0,0,.42,1.61,1.68,1.68,0,0,0,2.49,0,2.61,2.61,0,0,0,.43-1.62,2.56,2.56,0,0,0-.43-1.6,1.49,1.49,0,0,0-1.26-.55,1.47,1.47,0,0,0-1.24.54A2.6,2.6,0,0,0,319.43,78.3Z"/><path class="cls-14" d="M331.15,77.21h2.5v3.58a7.92,7.92,0,0,1-1.19.28,9.1,9.1,0,0,1-1.4.1,3.39,3.39,0,0,1-2.6-1,3.92,3.92,0,0,1-.93-2.79,4.21,4.21,0,0,1,.46-2,3.12,3.12,0,0,1,1.33-1.32,4.31,4.31,0,0,1,2-.46,5.55,5.55,0,0,1,2.2.43l-.33.76a4.91,4.91,0,0,0-1.92-.42,2.75,2.75,0,0,0-2.1.8,3.11,3.11,0,0,0-.76,2.22,3.18,3.18,0,0,0,.73,2.26,2.8,2.8,0,0,0,2.14.77,6.38,6.38,0,0,0,1.5-.18V78h-1.65Z"/><path class="cls-14" d="M338.69,81.07l-.17-.79h0a2.34,2.34,0,0,1-.82.7,2.52,2.52,0,0,1-1,.18,1.85,1.85,0,0,1-1.29-.42,1.54,1.54,0,0,1-.47-1.21q0-1.67,2.68-1.75l.94,0v-.34a1.4,1.4,0,0,0-.28-1,1.15,1.15,0,0,0-.89-.31,3.64,3.64,0,0,0-1.56.42l-.26-.64a4,4,0,0,1,1.87-.47,2.11,2.11,0,0,1,1.46.44,1.83,1.83,0,0,1,.48,1.41v3.77Zm-1.89-.59a1.7,1.7,0,0,0,1.23-.43,1.59,1.59,0,0,0,.45-1.2v-.5l-.84,0a3.05,3.05,0,0,0-1.44.31.93.93,0,0,0-.44.85.86.86,0,0,0,.27.69A1.14,1.14,0,0,0,336.8,80.48Z"/><path class="cls-14" d="M348.08,81.07V77.48a1.49,1.49,0,0,0-.28-1,1.09,1.09,0,0,0-.88-.33,1.42,1.42,0,0,0-1.15.45,2.14,2.14,0,0,0-.37,1.38v3.08h-.84V77.48a1.49,1.49,0,0,0-.28-1,1.1,1.1,0,0,0-.88-.33,1.37,1.37,0,0,0-1.15.47,2.55,2.55,0,0,0-.37,1.54v2.9H341V75.55h.68l.14.76h0a1.65,1.65,0,0,1,.67-.63,2,2,0,0,1,1-.23,1.64,1.64,0,0,1,1.69.94h0a1.76,1.76,0,0,1,.72-.69,2.22,2.22,0,0,1,1.07-.25,1.87,1.87,0,0,1,1.4.48,2.15,2.15,0,0,1,.47,1.54v3.6Z"/><path class="cls-14" d="M353,81.17a2.54,2.54,0,0,1-1.93-.75,2.89,2.89,0,0,1-.71-2.07,3.2,3.2,0,0,1,.66-2.12,2.19,2.19,0,0,1,1.77-.79,2.08,2.08,0,0,1,1.64.68,2.62,2.62,0,0,1,.6,1.8v.53h-3.8a2.19,2.19,0,0,0,.49,1.48,1.7,1.7,0,0,0,1.31.5,4.44,4.44,0,0,0,1.76-.37v.75a4.41,4.41,0,0,1-.84.27A4.7,4.7,0,0,1,353,81.17Zm-.23-5a1.36,1.36,0,0,0-1.06.43,2,2,0,0,0-.47,1.2h2.89a1.84,1.84,0,0,0-.35-1.21A1.24,1.24,0,0,0,352.74,76.15Z"/><path class="cls-14" d="M360,79.56a1.38,1.38,0,0,1-.57,1.19,2.7,2.7,0,0,1-1.61.42,3.5,3.5,0,0,1-1.71-.35V80a4.19,4.19,0,0,0,.85.32,3.57,3.57,0,0,0,.88.12,2,2,0,0,0,1-.21.72.72,0,0,0,.07-1.19,4.41,4.41,0,0,0-1.09-.54,5.93,5.93,0,0,1-1.1-.5,1.49,1.49,0,0,1-.48-.49,1.26,1.26,0,0,1-.16-.65,1.24,1.24,0,0,1,.55-1.07,2.57,2.57,0,0,1,1.51-.39,4.41,4.41,0,0,1,1.74.36l-.3.68a4,4,0,0,0-1.51-.34,1.73,1.73,0,0,0-.9.19.58.58,0,0,0-.3.51.63.63,0,0,0,.11.38,1.12,1.12,0,0,0,.37.3,7.93,7.93,0,0,0,1,.41,3.62,3.62,0,0,1,1.33.72A1.27,1.27,0,0,1,360,79.56Z"/><path class="cls-14" d="M303.28,89.7a3.72,3.72,0,0,1-1,2.79,3.92,3.92,0,0,1-2.85,1h-2V86.09h2.26a3.31,3.31,0,0,1,3.62,3.61Zm-.91,0a3,3,0,0,0-.72-2.17,2.9,2.9,0,0,0-2.15-.73h-1.25v5.89h1a3.17,3.17,0,0,0,2.3-.75A3,3,0,0,0,302.37,89.73Z"/><path class="cls-14" d="M307.13,93.56a2.54,2.54,0,0,1-1.93-.75,2.89,2.89,0,0,1-.71-2.07,3.2,3.2,0,0,1,.66-2.12,2.19,2.19,0,0,1,1.77-.79,2.08,2.08,0,0,1,1.64.68,2.62,2.62,0,0,1,.6,1.8v.53h-3.8a2.19,2.19,0,0,0,.49,1.48,1.7,1.7,0,0,0,1.31.5,4.44,4.44,0,0,0,1.76-.37v.75a4.41,4.41,0,0,1-.84.27A4.7,4.7,0,0,1,307.13,93.56Zm-.23-5a1.36,1.36,0,0,0-1.06.43,2,2,0,0,0-.47,1.2h2.89a1.84,1.84,0,0,0-.35-1.21A1.24,1.24,0,0,0,306.9,88.53Z"/><path class="cls-14" d="M311.8,93.46l-2.1-5.52h.9l1.19,3.28a15.48,15.48,0,0,1,.47,1.49h0a11.08,11.08,0,0,1,.35-1.11q.3-.84,1.32-3.66h.9l-2.1,5.52Z"/><path class="cls-14" d="M318.09,93.56a2.54,2.54,0,0,1-1.93-.75,2.89,2.89,0,0,1-.71-2.07,3.2,3.2,0,0,1,.66-2.12,2.19,2.19,0,0,1,1.77-.79,2.08,2.08,0,0,1,1.64.68,2.62,2.62,0,0,1,.6,1.8v.53h-3.8a2.19,2.19,0,0,0,.49,1.48,1.7,1.7,0,0,0,1.31.5,4.44,4.44,0,0,0,1.76-.37v.75a4.41,4.41,0,0,1-.84.27A4.7,4.7,0,0,1,318.09,93.56Zm-.23-5a1.36,1.36,0,0,0-1.06.43,2,2,0,0,0-.47,1.2h2.89a1.84,1.84,0,0,0-.35-1.21A1.24,1.24,0,0,0,317.86,88.53Z"/><path class="cls-14" d="M322.38,93.46h-.84V85.61h.84Z"/><path class="cls-14" d="M328.92,90.69a3,3,0,0,1-.68,2.11,2.4,2.4,0,0,1-1.88.76,2.48,2.48,0,0,1-1.31-.35,2.29,2.29,0,0,1-.89-1,3.48,3.48,0,0,1-.31-1.52,3,3,0,0,1,.68-2.1,2.39,2.39,0,0,1,1.87-.75,2.34,2.34,0,0,1,1.84.77A3,3,0,0,1,328.92,90.69Zm-4.21,0a2.62,2.62,0,0,0,.42,1.61,1.68,1.68,0,0,0,2.49,0,2.61,2.61,0,0,0,.43-1.62,2.56,2.56,0,0,0-.43-1.6,1.49,1.49,0,0,0-1.26-.55,1.47,1.47,0,0,0-1.24.54A2.6,2.6,0,0,0,324.72,90.69Z"/><path class="cls-14" d="M333,93.56a2.39,2.39,0,0,1-1-.2,1.84,1.84,0,0,1-.75-.61h-.06a7.48,7.48,0,0,1,.06.92v2.27h-.84v-8h.68l.12.76h0A1.94,1.94,0,0,1,332,88a2.27,2.27,0,0,1,1-.2,2,2,0,0,1,1.7.75,4,4,0,0,1,0,4.22A2,2,0,0,1,333,93.56Zm-.12-5a1.48,1.48,0,0,0-1.22.47,2.41,2.41,0,0,0-.39,1.49v.19a2.77,2.77,0,0,0,.39,1.67,1.48,1.48,0,0,0,1.25.5,1.3,1.3,0,0,0,1.12-.58,2.75,2.75,0,0,0,.41-1.6,2.65,2.65,0,0,0-.41-1.58A1.33,1.33,0,0,0,332.84,88.54Z"/><path class="cls-14" d="M343.76,93.46V89.86a1.49,1.49,0,0,0-.28-1,1.09,1.09,0,0,0-.88-.33,1.42,1.42,0,0,0-1.15.45,2.14,2.14,0,0,0-.37,1.38v3.08h-.84V89.86a1.49,1.49,0,0,0-.28-1,1.1,1.1,0,0,0-.88-.33,1.37,1.37,0,0,0-1.15.47,2.55,2.55,0,0,0-.37,1.54v2.9h-.84V87.93h.68l.14.76h0a1.65,1.65,0,0,1,.67-.63,2,2,0,0,1,1-.23,1.64,1.64,0,0,1,1.69.94h0a1.76,1.76,0,0,1,.72-.69,2.22,2.22,0,0,1,1.07-.25,1.87,1.87,0,0,1,1.4.48,2.15,2.15,0,0,1,.47,1.54v3.6Z"/><path class="cls-14" d="M348.65,93.56a2.54,2.54,0,0,1-1.93-.75,2.89,2.89,0,0,1-.71-2.07,3.2,3.2,0,0,1,.66-2.12,2.19,2.19,0,0,1,1.77-.79,2.08,2.08,0,0,1,1.64.68,2.62,2.62,0,0,1,.6,1.8v.53h-3.8a2.19,2.19,0,0,0,.49,1.48,1.7,1.7,0,0,0,1.31.5,4.44,4.44,0,0,0,1.76-.37v.75a4.41,4.41,0,0,1-.84.27A4.7,4.7,0,0,1,348.65,93.56Zm-.23-5a1.36,1.36,0,0,0-1.06.43,2,2,0,0,0-.47,1.2h2.89a1.84,1.84,0,0,0-.35-1.21A1.24,1.24,0,0,0,348.42,88.53Z"/><path class="cls-14" d="M355.88,93.46V89.88a1.45,1.45,0,0,0-.31-1,1.25,1.25,0,0,0-1-.33,1.59,1.59,0,0,0-1.27.47,2.36,2.36,0,0,0-.4,1.55v2.9h-.84V87.93h.68l.14.76h0a1.72,1.72,0,0,1,.72-.63,2.34,2.34,0,0,1,1-.22,2.1,2.1,0,0,1,1.5.48,2,2,0,0,1,.5,1.54v3.6Z"/><path class="cls-14" d="M360.22,92.87a2.79,2.79,0,0,0,.43,0l.33-.07v.64a1.52,1.52,0,0,1-.4.11,2.93,2.93,0,0,1-.48,0q-1.6,0-1.6-1.69V88.58h-.79v-.4l.79-.35.35-1.18h.48v1.28h1.6v.65h-1.6v3.25a1.12,1.12,0,0,0,.24.77A.83.83,0,0,0,360.22,92.87Z"/><path class="cls-14" d="M295.75,103.93a2,2,0,0,1,.35-1.16,3.79,3.79,0,0,1,1.26-1,6.07,6.07,0,0,1-.58-.73,2.47,2.47,0,0,1-.24-.51,1.72,1.72,0,0,1-.09-.55,1.47,1.47,0,0,1,.49-1.18,2,2,0,0,1,1.38-.42,1.85,1.85,0,0,1,1.29.42,1.49,1.49,0,0,1,.47,1.17,1.62,1.62,0,0,1-.34,1,3.9,3.9,0,0,1-1.13.92l2.05,2a2.42,2.42,0,0,0,.45-.73,6.24,6.24,0,0,0,.29-.92h.85a4.82,4.82,0,0,1-1,2.19l1.51,1.47h-1.15l-.93-.9a3.57,3.57,0,0,1-2.58,1,2.43,2.43,0,0,1-1.68-.53A1.88,1.88,0,0,1,295.75,103.93Zm2.3,1.26a2.78,2.78,0,0,0,2-.78l-2.2-2.14a4.87,4.87,0,0,0-.79.57,1.51,1.51,0,0,0-.34.48,1.46,1.46,0,0,0-.11.58,1.18,1.18,0,0,0,.39.93A1.51,1.51,0,0,0,298,105.19Zm-.78-5.25a1.31,1.31,0,0,0,.18.66,4,4,0,0,0,.62.76,3.29,3.29,0,0,0,.9-.7,1.15,1.15,0,0,0,.25-.74.83.83,0,0,0-.26-.63,1,1,0,0,0-.69-.24,1.07,1.07,0,0,0-.73.24A.82.82,0,0,0,297.27,99.94Z"/><path class="cls-14" d="M312.29,102.09a3.72,3.72,0,0,1-1,2.79,3.92,3.92,0,0,1-2.85,1h-2V98.47h2.26a3.31,3.31,0,0,1,3.62,3.61Zm-.91,0a3,3,0,0,0-.72-2.17,2.9,2.9,0,0,0-2.15-.73h-1.25v5.89h1a3.17,3.17,0,0,0,2.3-.75A3,3,0,0,0,311.38,102.12Z"/><path class="cls-14" d="M313.74,98.82a.56.56,0,0,1,.14-.42.52.52,0,0,1,.7,0,.55.55,0,0,1,.15.42.56.56,0,0,1-.15.42.51.51,0,0,1-.7,0A.57.57,0,0,1,313.74,98.82Zm.91,7h-.84v-5.52h.84Z"/><path class="cls-14" d="M320,104.33a1.38,1.38,0,0,1-.57,1.19,2.7,2.7,0,0,1-1.61.42,3.5,3.5,0,0,1-1.71-.35v-.78a4.19,4.19,0,0,0,.85.32,3.57,3.57,0,0,0,.88.12,2,2,0,0,0,1-.21.72.72,0,0,0,.07-1.19,4.41,4.41,0,0,0-1.09-.54,5.93,5.93,0,0,1-1.1-.5,1.49,1.49,0,0,1-.48-.49,1.26,1.26,0,0,1-.16-.65,1.24,1.24,0,0,1,.55-1.07,2.57,2.57,0,0,1,1.51-.39,4.41,4.41,0,0,1,1.74.36l-.3.68a4,4,0,0,0-1.51-.34,1.73,1.73,0,0,0-.9.19.58.58,0,0,0-.3.51.63.63,0,0,0,.11.38,1.12,1.12,0,0,0,.37.3,7.93,7.93,0,0,0,1,.41,3.62,3.62,0,0,1,1.33.72A1.27,1.27,0,0,1,320,104.33Z"/><path class="cls-14" d="M323.12,105.25a2.79,2.79,0,0,0,.43,0l.33-.07v.64a1.52,1.52,0,0,1-.4.11,2.93,2.93,0,0,1-.48,0q-1.6,0-1.6-1.69V101h-.79v-.4l.79-.35.35-1.18h.48v1.28h1.6V101h-1.6v3.25a1.12,1.12,0,0,0,.24.77A.83.83,0,0,0,323.12,105.25Z"/><path class="cls-14" d="M327.5,100.22a3.29,3.29,0,0,1,.66.06l-.12.78a2.83,2.83,0,0,0-.61-.08,1.47,1.47,0,0,0-1.15.54,2,2,0,0,0-.48,1.36v3H325v-5.52h.69l.1,1h0a2.42,2.42,0,0,1,.74-.83A1.67,1.67,0,0,1,327.5,100.22Z"/><path class="cls-14" d="M329.13,98.82a.56.56,0,0,1,.14-.42.52.52,0,0,1,.7,0,.55.55,0,0,1,.15.42.56.56,0,0,1-.15.42.51.51,0,0,1-.7,0A.57.57,0,0,1,329.13,98.82Zm.91,7h-.84v-5.52H330Z"/><path class="cls-14" d="M334.38,100.23a2.05,2.05,0,0,1,1.69.74,4,4,0,0,1,0,4.22,2,2,0,0,1-1.69.75,2.39,2.39,0,0,1-1-.2,1.84,1.84,0,0,1-.75-.61h-.06l-.18.71h-.6V98h.84v1.9q0,.64,0,1.15h0A2,2,0,0,1,334.38,100.23Zm-.12.7a1.46,1.46,0,0,0-1.23.49,3.79,3.79,0,0,0,0,3.32,1.48,1.48,0,0,0,1.25.5,1.29,1.29,0,0,0,1.15-.56,2.89,2.89,0,0,0,.38-1.62,2.77,2.77,0,0,0-.38-1.61A1.34,1.34,0,0,0,334.26,100.93Z"/><path class="cls-14" d="M338.92,100.32v3.58a1.44,1.44,0,0,0,.31,1,1.25,1.25,0,0,0,1,.33,1.57,1.57,0,0,0,1.27-.47,2.39,2.39,0,0,0,.4-1.55v-2.9h.84v5.52H342l-.12-.74h0a1.67,1.67,0,0,1-.71.63,2.4,2.4,0,0,1-1,.22,2.11,2.11,0,0,1-1.51-.48,2,2,0,0,1-.5-1.53v-3.61Z"/><path class="cls-14" d="M346.25,105.25a2.79,2.79,0,0,0,.43,0l.33-.07v.64a1.52,1.52,0,0,1-.4.11,2.93,2.93,0,0,1-.48,0q-1.6,0-1.6-1.69V101h-.79v-.4l.79-.35.35-1.18h.48v1.28H347V101h-1.6v3.25a1.12,1.12,0,0,0,.24.77A.83.83,0,0,0,346.25,105.25Z"/><path class="cls-14" d="M348,98.82a.56.56,0,0,1,.14-.42.52.52,0,0,1,.7,0,.55.55,0,0,1,.15.42.56.56,0,0,1-.15.42.51.51,0,0,1-.7,0A.57.57,0,0,1,348,98.82Zm.91,7h-.84v-5.52h.84Z"/><path class="cls-14" d="M355.49,103.07a3,3,0,0,1-.68,2.11,2.4,2.4,0,0,1-1.88.76,2.48,2.48,0,0,1-1.31-.35,2.29,2.29,0,0,1-.89-1,3.48,3.48,0,0,1-.31-1.52,3,3,0,0,1,.68-2.1,2.39,2.39,0,0,1,1.87-.75,2.34,2.34,0,0,1,1.84.77A3,3,0,0,1,355.49,103.07Zm-4.21,0a2.62,2.62,0,0,0,.42,1.61,1.68,1.68,0,0,0,2.49,0,2.61,2.61,0,0,0,.43-1.62,2.56,2.56,0,0,0-.43-1.6,1.49,1.49,0,0,0-1.26-.55,1.47,1.47,0,0,0-1.24.54A2.6,2.6,0,0,0,351.28,103.07Z"/><path class="cls-14" d="M360.73,105.84v-3.57a1.45,1.45,0,0,0-.31-1,1.25,1.25,0,0,0-1-.33,1.59,1.59,0,0,0-1.27.47,2.36,2.36,0,0,0-.4,1.55v2.9H357v-5.52h.68l.14.76h0a1.72,1.72,0,0,1,.72-.63,2.34,2.34,0,0,1,1-.22,2.1,2.1,0,0,1,1.5.48,2,2,0,0,1,.5,1.54v3.6Z"/><path class="cls-14" d="M157.22,186.06a4.8,4.8,0,0,1,3,4.81c0,3.6-2.25,6-7,6-4.3,0-6.41-1.74-7.45-4.84-.17-.53-.06-.76.48-1l1.15-.42c.53-.17.76-.06,1,.48.7,2.11,1.8,3.21,4.87,3.21,2.9,0,4.19-1.35,4.19-3.51a3,3,0,0,0-3.37-3.32h-3.57c-.56,0-.73-.17-.73-.73v-1c0-.56.17-.73.73-.73h3.18a3,3,0,0,0,3.26-3.09c0-2.19-1.26-3.37-3.74-3.37-2.9,0-3.94,1-4.64,3.15-.2.53-.42.59-1,.45l-1.15-.42c-.53-.17-.65-.42-.48-.93,1-3.09,3.07-4.78,7.28-4.78s6.38,2.14,6.38,5.65A4.46,4.46,0,0,1,157.22,186.06Z"/><path class="cls-14" d="M170.38,176.07c4.61,0,7.28,2.59,7.28,6.67v7.48c0,4.08-2.67,6.67-7.28,6.67s-7.31-2.59-7.31-6.67v-7.48C163.07,178.66,165.74,176.07,170.38,176.07Zm0,2.53c-2.92,0-4.58,1.52-4.58,4.13v7.48c0,2.59,1.66,4.13,4.58,4.13s4.56-1.55,4.56-4.13v-7.48C174.94,180.12,173.28,178.6,170.38,178.6Z"/><path class="cls-14" d="M184.72,176c3,0,4.56,1.6,4.56,4.16v2.05c0,2.53-1.6,4.11-4.56,4.11s-4.56-1.58-4.56-4.11v-2.05C180.17,177.65,181.77,176,184.72,176Zm0,2c-1.6,0-2.45.82-2.45,2.25v1.8c0,1.41.84,2.25,2.45,2.25a2.12,2.12,0,0,0,2.42-2.25v-1.8A2.11,2.11,0,0,0,184.72,178.07Zm14.15-.87L185.2,195.81c-.42.59-.59.65-1.46.65h-.84c-.56,0-.67-.37-.39-.76l13.7-18.59c.39-.56.56-.62,1.35-.62h1C199,176.49,199.15,176.83,198.87,177.2Zm-2.25,9.39c3,0,4.56,1.6,4.56,4.16v2c0,2.56-1.57,4.13-4.56,4.13s-4.56-1.58-4.56-4.13v-2C192.06,188.19,193.67,186.59,196.62,186.59Zm0,2a2.11,2.11,0,0,0-2.42,2.25v1.77a2.11,2.11,0,0,0,2.42,2.25c1.6,0,2.45-.82,2.45-2.25v-1.77C199.06,189.43,198.22,188.61,196.62,188.61Z"/><path class="cls-14" d="M153.23,214l-2.5-6.53h0q.07.78.07,1.84V214H150v-7.37h1.29l2.33,6.08h0l2.35-6.08h1.28V214h-.86V209.3q0-.82.07-1.77h0L153.92,214Z"/><path class="cls-14" d="M162.56,214l-.17-.79h0a2.34,2.34,0,0,1-.82.7,2.52,2.52,0,0,1-1,.18,1.85,1.85,0,0,1-1.29-.42,1.54,1.54,0,0,1-.47-1.21q0-1.67,2.68-1.75l.94,0v-.34a1.4,1.4,0,0,0-.28-1,1.15,1.15,0,0,0-.89-.31,3.64,3.64,0,0,0-1.56.42l-.26-.64a4,4,0,0,1,1.87-.47,2.11,2.11,0,0,1,1.46.44,1.83,1.83,0,0,1,.48,1.41V214Zm-1.89-.59a1.7,1.7,0,0,0,1.23-.43,1.59,1.59,0,0,0,.45-1.2v-.5l-.84,0a3.05,3.05,0,0,0-1.44.31.93.93,0,0,0-.44.85.86.86,0,0,0,.27.69A1.14,1.14,0,0,0,160.67,213.45Z"/><path class="cls-14" d="M167.42,208.42a3.29,3.29,0,0,1,.66.06l-.12.78a2.83,2.83,0,0,0-.61-.08,1.47,1.47,0,0,0-1.15.54,2,2,0,0,0-.48,1.36v3h-.84v-5.52h.69l.1,1h0a2.42,2.42,0,0,1,.74-.83A1.67,1.67,0,0,1,167.42,208.42Z"/><path class="cls-14" d="M169.94,211.22a9.89,9.89,0,0,1,.66-.81l1.78-1.89h1l-2.24,2.35,2.39,3.17h-1l-2-2.61-.63.54V214h-.83V206.2h.83v4.16c0,.18,0,.47,0,.86Z"/><path class="cls-14" d="M176.87,214.15a2.54,2.54,0,0,1-1.93-.75,2.89,2.89,0,0,1-.71-2.07,3.2,3.2,0,0,1,.66-2.12,2.19,2.19,0,0,1,1.77-.79,2.08,2.08,0,0,1,1.64.68,2.62,2.62,0,0,1,.6,1.8v.53h-3.8a2.19,2.19,0,0,0,.49,1.48,1.7,1.7,0,0,0,1.31.5,4.44,4.44,0,0,0,1.76-.37v.75a4.41,4.41,0,0,1-.84.27A4.7,4.7,0,0,1,176.87,214.15Zm-.23-5a1.36,1.36,0,0,0-1.06.43,2,2,0,0,0-.47,1.2H178a1.84,1.84,0,0,0-.35-1.21A1.24,1.24,0,0,0,176.64,209.12Z"/><path class="cls-14" d="M182.11,213.45a2.79,2.79,0,0,0,.43,0l.33-.07V214a1.52,1.52,0,0,1-.4.11,2.93,2.93,0,0,1-.48,0q-1.6,0-1.6-1.69v-3.29h-.79v-.4l.79-.35.35-1.18h.48v1.28h1.6v.65h-1.6v3.25a1.12,1.12,0,0,0,.24.77A.83.83,0,0,0,182.11,213.45Z"/><path class="cls-14" d="M183.9,207a.56.56,0,0,1,.14-.42.52.52,0,0,1,.7,0,.55.55,0,0,1,.15.42.56.56,0,0,1-.15.42.51.51,0,0,1-.7,0A.57.57,0,0,1,183.9,207Zm.91,7H184v-5.52h.84Z"/><path class="cls-14" d="M190.36,214v-3.57a1.45,1.45,0,0,0-.31-1,1.25,1.25,0,0,0-1-.33,1.59,1.59,0,0,0-1.27.47,2.36,2.36,0,0,0-.4,1.55V214h-.84v-5.52h.68l.14.76h0a1.72,1.72,0,0,1,.72-.63,2.34,2.34,0,0,1,1-.22,2.1,2.1,0,0,1,1.5.48,2,2,0,0,1,.5,1.54V214Z"/><path class="cls-14" d="M197.43,208.52v.53l-1,.12a1.73,1.73,0,0,1,.25.46,1.76,1.76,0,0,1,.11.64,1.63,1.63,0,0,1-.55,1.29,2.23,2.23,0,0,1-1.52.48,2.49,2.49,0,0,1-.46,0,.82.82,0,0,0-.53.71.36.36,0,0,0,.19.33,1.36,1.36,0,0,0,.64.11h1a2.19,2.19,0,0,1,1.38.38,1.31,1.31,0,0,1,.48,1.1,1.57,1.57,0,0,1-.74,1.4,3.94,3.94,0,0,1-2.15.48,2.94,2.94,0,0,1-1.67-.4,1.3,1.3,0,0,1-.59-1.14,1.28,1.28,0,0,1,.32-.87,1.65,1.65,0,0,1,.91-.5.88.88,0,0,1-.35-.3.78.78,0,0,1-.14-.47.88.88,0,0,1,.16-.53,1.69,1.69,0,0,1,.51-.44,1.49,1.49,0,0,1-.7-.6,1.76,1.76,0,0,1-.27-1,1.79,1.79,0,0,1,.54-1.4,2.22,2.22,0,0,1,1.54-.49,2.83,2.83,0,0,1,.78.1ZM193,215a.75.75,0,0,0,.38.68,2.09,2.09,0,0,0,1.08.23,3,3,0,0,0,1.56-.31,1,1,0,0,0,.51-.85.68.68,0,0,0-.28-.62,2.15,2.15,0,0,0-1-.17h-1a1.32,1.32,0,0,0-.89.27A1,1,0,0,0,193,215Zm.45-4.68a1.12,1.12,0,0,0,.33.88,1.31,1.31,0,0,0,.91.3,1.07,1.07,0,0,0,1.22-1.19,1.1,1.1,0,0,0-1.24-1.24,1.23,1.23,0,0,0-.91.32A1.28,1.28,0,0,0,193.48,210.29Z"/><path class="cls-14" d="M323,193.11c4.11,0,6.61,2.87,6.61,6.16,0,4.25-2.53,5.74-7.56,7.71-1.66.65-3.63,1.32-3.63,3.18V211h10.21c.56,0,.73.2.73.73v1.07c0,.53-.17.73-.73.73H316.37c-.56,0-.76-.2-.76-.76v-2.05c0-3.8,2.84-5.06,5.71-6.19s5.48-2,5.48-5.12a3.7,3.7,0,0,0-3.85-3.74,4.58,4.58,0,0,0-4.64,3c-.23.54-.42.65-.93.48l-1.21-.45c-.51-.17-.65-.42-.45-.93C316.9,194.86,319.1,193.11,323,193.11Z"/><path class="cls-14" d="M345.67,194.26v1.07c0,.53-.2.73-.73.73h-8.72l-.51,5.15h4.08c4.53,0,6.64,2.81,6.64,6.21s-2.5,6.5-6.89,6.5c-4.13,0-6.41-1.6-7.45-4.5-.2-.53-.08-.76.42-1l1.21-.42c.51-.2.73-.08.93.45.7,1.88,2.14,2.9,4.87,2.9a3.78,3.78,0,0,0,4.08-4c0-2.17-1.46-3.68-3.94-3.68h-6c-.65,0-.84-.28-.79-.9l.84-8.21c.08-.84.39-1.1,1.24-1.1h10C345.47,193.53,345.67,193.73,345.67,194.26Z"/><path class="cls-14" d="M353.06,193.08c3,0,4.56,1.6,4.56,4.16v2.05c0,2.53-1.6,4.11-4.56,4.11s-4.56-1.58-4.56-4.11v-2.05C348.51,194.69,350.11,193.08,353.06,193.08Zm0,2c-1.6,0-2.45.82-2.45,2.25v1.8c0,1.41.84,2.25,2.45,2.25a2.12,2.12,0,0,0,2.42-2.25v-1.8A2.11,2.11,0,0,0,353.06,195.11Zm14.15-.87-13.67,18.62c-.42.59-.59.65-1.46.65h-.84c-.56,0-.67-.37-.39-.76l13.7-18.59c.39-.56.56-.62,1.35-.62h1C367.38,193.53,367.49,193.87,367.21,194.24ZM365,203.63c3,0,4.56,1.6,4.56,4.16v2c0,2.56-1.57,4.13-4.56,4.13s-4.56-1.58-4.56-4.13v-2C360.4,205.23,362,203.63,365,203.63Zm0,2a2.11,2.11,0,0,0-2.42,2.25v1.77a2.11,2.11,0,0,0,2.42,2.25c1.6,0,2.45-.82,2.45-2.25V207.9C367.4,206.47,366.56,205.65,365,205.65Z"/><path class="cls-14" d="M318.86,227.33a3.72,3.72,0,0,1-1,2.79,3.92,3.92,0,0,1-2.85,1h-2v-7.37h2.26a3.31,3.31,0,0,1,3.62,3.61Zm-.91,0a3,3,0,0,0-.72-2.17,2.9,2.9,0,0,0-2.15-.73h-1.25v5.89h1a3.17,3.17,0,0,0,2.3-.75A3,3,0,0,0,318,227.36Z"/><path class="cls-14" d="M322.71,231.18a2.54,2.54,0,0,1-1.93-.75,2.89,2.89,0,0,1-.71-2.07,3.2,3.2,0,0,1,.66-2.12,2.19,2.19,0,0,1,1.77-.79,2.08,2.08,0,0,1,1.64.68,2.62,2.62,0,0,1,.6,1.8v.53h-3.8a2.19,2.19,0,0,0,.49,1.48,1.7,1.7,0,0,0,1.31.5,4.44,4.44,0,0,0,1.76-.37v.75a4.41,4.41,0,0,1-.84.27A4.7,4.7,0,0,1,322.71,231.18Zm-.23-5a1.36,1.36,0,0,0-1.06.43,2,2,0,0,0-.47,1.2h2.89a1.84,1.84,0,0,0-.35-1.21A1.24,1.24,0,0,0,322.49,226.16Z"/><path class="cls-14" d="M327.38,231.08l-2.1-5.52h.9l1.19,3.28a15.48,15.48,0,0,1,.47,1.49h0a11.08,11.08,0,0,1,.35-1.11q.3-.84,1.32-3.66h.9l-2.1,5.52Z"/><path class="cls-14" d="M333.67,231.18a2.54,2.54,0,0,1-1.93-.75,2.89,2.89,0,0,1-.71-2.07,3.2,3.2,0,0,1,.66-2.12,2.19,2.19,0,0,1,1.77-.79,2.08,2.08,0,0,1,1.64.68,2.62,2.62,0,0,1,.6,1.8v.53h-3.8a2.19,2.19,0,0,0,.49,1.48,1.7,1.7,0,0,0,1.31.5,4.44,4.44,0,0,0,1.76-.37v.75a4.41,4.41,0,0,1-.84.27A4.7,4.7,0,0,1,333.67,231.18Zm-.23-5a1.36,1.36,0,0,0-1.06.43,2,2,0,0,0-.47,1.2h2.89a1.84,1.84,0,0,0-.35-1.21A1.24,1.24,0,0,0,333.45,226.16Z"/><path class="cls-14" d="M338,231.08h-.84v-7.84H338Z"/><path class="cls-14" d="M344.51,228.32a3,3,0,0,1-.68,2.11,2.4,2.4,0,0,1-1.88.76,2.48,2.48,0,0,1-1.31-.35,2.29,2.29,0,0,1-.89-1,3.48,3.48,0,0,1-.31-1.52,3,3,0,0,1,.68-2.1,2.39,2.39,0,0,1,1.87-.75,2.34,2.34,0,0,1,1.84.77A3,3,0,0,1,344.51,228.32Zm-4.21,0a2.62,2.62,0,0,0,.42,1.61,1.68,1.68,0,0,0,2.49,0,2.61,2.61,0,0,0,.43-1.62,2.56,2.56,0,0,0-.43-1.6,1.49,1.49,0,0,0-1.26-.55,1.47,1.47,0,0,0-1.24.54A2.6,2.6,0,0,0,340.3,228.32Z"/><path class="cls-14" d="M348.55,231.18a2.39,2.39,0,0,1-1-.2,1.84,1.84,0,0,1-.75-.61h-.06a7.48,7.48,0,0,1,.06.92v2.27H346v-8h.68l.12.76h0a1.94,1.94,0,0,1,.75-.65,2.27,2.27,0,0,1,1-.2,2,2,0,0,1,1.7.75,4,4,0,0,1,0,4.22A2,2,0,0,1,348.55,231.18Zm-.12-5a1.48,1.48,0,0,0-1.22.47,2.41,2.41,0,0,0-.39,1.49v.19a2.77,2.77,0,0,0,.39,1.67,1.48,1.48,0,0,0,1.25.5,1.3,1.3,0,0,0,1.12-.58,2.75,2.75,0,0,0,.41-1.6,2.65,2.65,0,0,0-.41-1.58A1.33,1.33,0,0,0,348.42,226.17Z"/><path class="cls-14" d="M359.34,231.08v-3.59a1.49,1.49,0,0,0-.28-1,1.09,1.09,0,0,0-.88-.33,1.42,1.42,0,0,0-1.15.45,2.14,2.14,0,0,0-.37,1.38v3.08h-.84v-3.59a1.49,1.49,0,0,0-.28-1,1.1,1.1,0,0,0-.88-.33,1.37,1.37,0,0,0-1.15.47,2.55,2.55,0,0,0-.37,1.54v2.9h-.84v-5.52H353l.14.76h0a1.65,1.65,0,0,1,.67-.63,2,2,0,0,1,1-.23,1.64,1.64,0,0,1,1.69.94h0a1.76,1.76,0,0,1,.72-.69,2.22,2.22,0,0,1,1.07-.25,1.87,1.87,0,0,1,1.4.48,2.15,2.15,0,0,1,.47,1.54v3.6Z"/><path class="cls-14" d="M364.23,231.18a2.54,2.54,0,0,1-1.93-.75,2.89,2.89,0,0,1-.71-2.07,3.2,3.2,0,0,1,.66-2.12,2.19,2.19,0,0,1,1.77-.79,2.08,2.08,0,0,1,1.64.68,2.62,2.62,0,0,1,.6,1.8v.53h-3.8a2.19,2.19,0,0,0,.49,1.48,1.7,1.7,0,0,0,1.31.5,4.44,4.44,0,0,0,1.76-.37v.75a4.41,4.41,0,0,1-.84.27A4.7,4.7,0,0,1,364.23,231.18Zm-.23-5a1.36,1.36,0,0,0-1.06.43,2,2,0,0,0-.47,1.2h2.89a1.84,1.84,0,0,0-.35-1.21A1.24,1.24,0,0,0,364,226.16Z"/><path class="cls-14" d="M371.47,231.08v-3.57a1.45,1.45,0,0,0-.31-1,1.25,1.25,0,0,0-1-.33,1.59,1.59,0,0,0-1.27.47,2.36,2.36,0,0,0-.4,1.55v2.9h-.84v-5.52h.68l.14.76h0a1.72,1.72,0,0,1,.72-.63,2.34,2.34,0,0,1,1-.22,2.1,2.1,0,0,1,1.5.48,2,2,0,0,1,.5,1.54v3.6Z"/><path class="cls-14" d="M375.81,230.49a2.79,2.79,0,0,0,.43,0l.33-.07V231a1.52,1.52,0,0,1-.4.11,2.93,2.93,0,0,1-.48,0q-1.6,0-1.6-1.69v-3.29h-.79v-.4l.79-.35.35-1.18h.48v1.28h1.6v.65h-1.6v3.25a1.12,1.12,0,0,0,.24.77A.83.83,0,0,0,375.81,230.49Z"/><path class="cls-15" d="M394.95,130.09v3.06h-.86v-7.37h2a3.18,3.18,0,0,1,2,.52,1.88,1.88,0,0,1,.65,1.56,2,2,0,0,1-1.48,2l2,3.31h-1l-1.78-3.06Zm0-.74h1.17a2,2,0,0,0,1.33-.36,1.34,1.34,0,0,0,.42-1.08,1.23,1.23,0,0,0-.43-1.05,2.33,2.33,0,0,0-1.38-.32h-1.11Z"/><path class="cls-15" d="M402.68,133.25a2.54,2.54,0,0,1-1.93-.75,2.89,2.89,0,0,1-.71-2.07,3.2,3.2,0,0,1,.66-2.12,2.19,2.19,0,0,1,1.77-.79,2.08,2.08,0,0,1,1.64.68,2.62,2.62,0,0,1,.6,1.8v.53h-3.8a2.19,2.19,0,0,0,.49,1.48,1.7,1.7,0,0,0,1.31.5,4.44,4.44,0,0,0,1.76-.37v.75a4.41,4.41,0,0,1-.84.27A4.7,4.7,0,0,1,402.68,133.25Zm-.23-5a1.36,1.36,0,0,0-1.06.43,2,2,0,0,0-.47,1.2h2.89a1.84,1.84,0,0,0-.35-1.21A1.24,1.24,0,0,0,402.45,128.23Z"/><path class="cls-15" d="M409.7,131.65a1.38,1.38,0,0,1-.57,1.19,2.7,2.7,0,0,1-1.61.42,3.5,3.5,0,0,1-1.71-.35v-.78a4.19,4.19,0,0,0,.85.32,3.57,3.57,0,0,0,.88.12,2,2,0,0,0,1-.21.72.72,0,0,0,.07-1.19,4.41,4.41,0,0,0-1.09-.54,5.93,5.93,0,0,1-1.1-.5,1.49,1.49,0,0,1-.48-.49,1.26,1.26,0,0,1-.16-.65,1.24,1.24,0,0,1,.55-1.07,2.57,2.57,0,0,1,1.51-.39,4.41,4.41,0,0,1,1.74.36l-.3.68a4,4,0,0,0-1.51-.34,1.73,1.73,0,0,0-.9.19.58.58,0,0,0-.3.51.63.63,0,0,0,.11.38,1.12,1.12,0,0,0,.37.3,7.93,7.93,0,0,0,1,.41,3.62,3.62,0,0,1,1.33.72A1.27,1.27,0,0,1,409.7,131.65Z"/><path class="cls-15" d="M413.39,133.25a2.54,2.54,0,0,1-1.93-.75,2.89,2.89,0,0,1-.71-2.07,3.2,3.2,0,0,1,.66-2.12,2.19,2.19,0,0,1,1.77-.79,2.08,2.08,0,0,1,1.64.68,2.62,2.62,0,0,1,.6,1.8v.53h-3.8a2.19,2.19,0,0,0,.49,1.48,1.7,1.7,0,0,0,1.31.5,4.44,4.44,0,0,0,1.76-.37v.75a4.41,4.41,0,0,1-.84.27A4.7,4.7,0,0,1,413.39,133.25Zm-.23-5a1.36,1.36,0,0,0-1.06.43,2,2,0,0,0-.47,1.2h2.89a1.84,1.84,0,0,0-.35-1.21A1.24,1.24,0,0,0,413.16,128.23Z"/><path class="cls-15" d="M419.37,127.53a3.29,3.29,0,0,1,.66.06l-.12.78a2.83,2.83,0,0,0-.61-.08,1.47,1.47,0,0,0-1.15.54,2,2,0,0,0-.48,1.36v3h-.84v-5.52h.69l.1,1h0a2.42,2.42,0,0,1,.74-.83A1.67,1.67,0,0,1,419.37,127.53Z"/><path class="cls-15" d="M422.27,133.15l-2.1-5.52h.9l1.19,3.28a15.48,15.48,0,0,1,.47,1.49h0a11.08,11.08,0,0,1,.35-1.11q.3-.84,1.32-3.66h.9l-2.1,5.52Z"/><path class="cls-15" d="M428.56,133.25a2.54,2.54,0,0,1-1.93-.75,2.89,2.89,0,0,1-.71-2.07,3.2,3.2,0,0,1,.66-2.12,2.19,2.19,0,0,1,1.77-.79,2.08,2.08,0,0,1,1.64.68,2.62,2.62,0,0,1,.6,1.8v.53h-3.8a2.19,2.19,0,0,0,.49,1.48,1.7,1.7,0,0,0,1.31.5,4.44,4.44,0,0,0,1.76-.37v.75a4.41,4.41,0,0,1-.84.27A4.7,4.7,0,0,1,428.56,133.25Zm-.23-5a1.36,1.36,0,0,0-1.06.43,2,2,0,0,0-.47,1.2h2.89a1.84,1.84,0,0,0-.35-1.21A1.24,1.24,0,0,0,428.34,128.23Z"/><path class="cls-14" d="M251.61,276.63v-7.37h.86v6.59h3.25v.78Z"/><path class="cls-14" d="M259.17,276.73a2.54,2.54,0,0,1-1.93-.75,2.89,2.89,0,0,1-.71-2.07,3.2,3.2,0,0,1,.66-2.12A2.19,2.19,0,0,1,259,271a2.08,2.08,0,0,1,1.64.68,2.62,2.62,0,0,1,.6,1.8V274h-3.8a2.19,2.19,0,0,0,.49,1.48,1.7,1.7,0,0,0,1.31.5,4.44,4.44,0,0,0,1.76-.37v.75a4.41,4.41,0,0,1-.84.27A4.7,4.7,0,0,1,259.17,276.73Zm-.23-5a1.36,1.36,0,0,0-1.06.43,2,2,0,0,0-.47,1.2h2.89a1.84,1.84,0,0,0-.35-1.21A1.24,1.24,0,0,0,258.95,271.71Z"/><path class="cls-14" d="M267.15,271.11v.53l-1,.12a1.73,1.73,0,0,1,.25.46,1.76,1.76,0,0,1,.11.64,1.63,1.63,0,0,1-.55,1.29,2.23,2.23,0,0,1-1.52.48,2.49,2.49,0,0,1-.46,0,.82.82,0,0,0-.53.71.36.36,0,0,0,.19.33,1.36,1.36,0,0,0,.64.11h1a2.19,2.19,0,0,1,1.38.38,1.31,1.31,0,0,1,.48,1.1,1.57,1.57,0,0,1-.74,1.4,3.94,3.94,0,0,1-2.15.48,2.94,2.94,0,0,1-1.67-.4,1.3,1.3,0,0,1-.59-1.14,1.28,1.28,0,0,1,.32-.87,1.65,1.65,0,0,1,.91-.5.88.88,0,0,1-.35-.3.78.78,0,0,1-.14-.47.88.88,0,0,1,.16-.53,1.69,1.69,0,0,1,.51-.44,1.49,1.49,0,0,1-.7-.6,1.76,1.76,0,0,1-.27-1,1.79,1.79,0,0,1,.54-1.4,2.22,2.22,0,0,1,1.54-.49,2.83,2.83,0,0,1,.78.1Zm-4.4,6.45a.75.75,0,0,0,.38.68,2.09,2.09,0,0,0,1.08.23,3,3,0,0,0,1.56-.31,1,1,0,0,0,.51-.85.68.68,0,0,0-.28-.62,2.15,2.15,0,0,0-1-.17h-1a1.32,1.32,0,0,0-.89.27A1,1,0,0,0,262.75,277.56Zm.45-4.68a1.12,1.12,0,0,0,.33.88,1.31,1.31,0,0,0,.91.3,1.07,1.07,0,0,0,1.22-1.19,1.1,1.1,0,0,0-1.24-1.24,1.23,1.23,0,0,0-.91.32A1.28,1.28,0,0,0,263.2,272.88Z"/><path class="cls-14" d="M271.68,276.63l-.17-.79h0a2.34,2.34,0,0,1-.82.7,2.52,2.52,0,0,1-1,.18,1.85,1.85,0,0,1-1.29-.42,1.54,1.54,0,0,1-.47-1.21q0-1.67,2.68-1.75l.94,0V273a1.4,1.4,0,0,0-.28-1,1.15,1.15,0,0,0-.89-.31,3.64,3.64,0,0,0-1.56.42l-.26-.64a4,4,0,0,1,1.87-.47,2.11,2.11,0,0,1,1.46.44,1.83,1.83,0,0,1,.48,1.41v3.77Zm-1.89-.59a1.7,1.7,0,0,0,1.23-.43,1.59,1.59,0,0,0,.45-1.2v-.5l-.84,0a3.05,3.05,0,0,0-1.44.31.93.93,0,0,0-.44.85.86.86,0,0,0,.27.69A1.14,1.14,0,0,0,269.79,276Z"/><path class="cls-14" d="M274.86,276.63H274v-7.84h.84Z"/></svg>