<?xml version="1.0" encoding="utf-8"?>
<!-- Generator: Adobe Illustrator 21.0.0, SVG Export Plug-In . SVG Version: 6.00 Build 0)  -->
<svg version="1.1" id="Слой_1" xmlns="http://www.w3.org/2000/svg" xmlns:xlink="http://www.w3.org/1999/xlink" x="0px" y="0px"
	 viewBox="0 0 99.8 99.8" style="enable-background:new 0 0 99.8 99.8;" xml:space="preserve">
<style type="text/css">
	.st0{fill:url(#SVGID_1_);}
	.st1{fill:#FFFFFF;}
</style>
<title>App</title>
<linearGradient id="SVGID_1_" gradientUnits="userSpaceOnUse" x1="11.12" y1="11.12" x2="88.3736" y2="88.3736">
	<stop  offset="0" style="stop-color:#3886EF"/>
	<stop  offset="1" style="stop-color:#1F47AF"/>
</linearGradient>
<path class="st0" d="M22.4,0h54.9c12.4,0,22.4,10,22.4,22.4v54.9c0,12.4-10,22.4-22.4,22.4H22.4C10,99.8,0,89.7,0,77.3V22.4
	C0,10,10,0,22.4,0z"/>
<path class="st1" d="M86.1,69.3L72.7,46l-11-19l-2.9-5c-1.4-2.4-2.6-5.4-5.2-6.8L42.3,34.8L30.6,55.1l-6.1,10.7h2.8
	c0.4,0,0.8,0,1.2,0c0.6-0.1,0.5-0.2,0.9-0.8l2.5-4.3l6.1-10.6l11.4-19.7l5-8.6l13.1,22.7L80,66.4L86.1,77
	C87.5,74.6,87.5,71.7,86.1,69.3"/>
<path class="st1" d="M82.5,78.4L71.1,58.6l-11-19.1l-5.9-10.1l-1.4,2.4c-0.2,0.3-0.4,0.7-0.6,1c-0.2,0.6-0.1,0.6,0.3,1.2l2.5,4.3
	l6.1,10.6l11.4,19.8l4.9,8.6H13.6c1.7,2.8,4.5,3.8,7.6,3.8h53.1c3,0,6.4,0.5,9-1.1L82.5,78.4"/>
<path class="st1" d="M15.6,73.3h55.1l-1.4-2.4c-0.2-0.3-0.4-0.7-0.6-1c-0.4-0.5-0.5-0.4-1.2-0.4H17.8l13.1-22.7l12.7-22.1l6.1-10.6
	c-5.6,0-7.7,5.7-10.1,9.8l-8.9,15.4l-12,20.7l-2.6,4.6c-1.5,2.6-3.8,5.5-3.7,8.6H15.6z"/>
<path class="st1" d="M60.5,65.8h5.9L53,42.4L49.8,37L36.4,60.3l-3.1,5.4H60.5z M40.5,60.7l9.3-16l8,13.6l2.1,3.6h-20L40.5,60.7"/>
</svg>
