<?xml version="1.0" encoding="utf-8"?>
<!-- Generator: Adobe Illustrator 21.0.0, SVG Export Plug-In . SVG Version: 6.00 Build 0)  -->
<svg version="1.1"
	 id="svg834" inkscape:version="0.92.2 5c3e80d, 2017-08-06" sodipodi:docname="PhasedRelease-CS.svg" xmlns:cc="http://creativecommons.org/ns#" xmlns:dc="http://purl.org/dc/elements/1.1/" xmlns:inkscape="http://www.inkscape.org/namespaces/inkscape" xmlns:rdf="http://www.w3.org/1999/02/22-rdf-syntax-ns#" xmlns:sodipodi="http://sodipodi.sourceforge.net/DTD/sodipodi-0.dtd" xmlns:svg="http://www.w3.org/2000/svg"
	 xmlns="http://www.w3.org/2000/svg" xmlns:xlink="http://www.w3.org/1999/xlink" x="0px" y="0px" viewBox="0 0 409.3 166.8"
	 style="enable-background:new 0 0 409.3 166.8;" xml:space="preserve">
<style type="text/css">
	.st0{clip-path:url(#SVGID_2_);}
	.st1{fill:#FFFFFF;}
	.st2{fill:none;}
</style>
<image style="overflow:visible;enable-background:new    ;" width="522" height="297" id="image1292" xlink:href="3A99A5F7.png"  transform="matrix(1.915709e-03 0 0 3.367003e-03 0 -1.464844e-05)">
</image>
<image style="overflow:visible;enable-background:new    ;" width="1097" height="604" id="image1272" xlink:href="3A99A5F5.png"  transform="matrix(9.115770e-04 0 0 1.655629e-03 0 -1.464844e-05)">
</image>
<image style="overflow:visible;enable-background:new    ;" width="1118" height="501" id="image1262" xlink:href="3A99A5FB.png"  transform="matrix(8.944544e-04 0 0 1.996008e-03 0 -1.464844e-05)">
</image>
<sodipodi:namedview  bordercolor="#666666" borderopacity="1" fit-margin-bottom="0" fit-margin-left="0" fit-margin-right="0" fit-margin-top="0" gridtolerance="10" guidetolerance="10" id="namedview836" inkscape:current-layer="g1518" inkscape:cx="224.1701" inkscape:cy="171.71097" inkscape:pageopacity="0" inkscape:pageshadow="2" inkscape:window-height="945" inkscape:window-maximized="0" inkscape:window-width="1382" inkscape:window-x="168" inkscape:window-y="20" inkscape:zoom="1" objecttolerance="10" pagecolor="#ffffff" showgrid="false">
	</sodipodi:namedview>
<g>
	<defs>
		<rect id="SVGID_1_" x="-2820.9" y="-213.1" width="3431.7" height="4441"/>
	</defs>
	<clipPath id="SVGID_2_">
		<use xlink:href="#SVGID_1_"  style="overflow:visible;"/>
	</clipPath>
	<g id="g1392" class="st0">
	</g>
</g>
<g id="g1402" transform="translate(518.1763,724.9189)">
	<path id="path1404" inkscape:connector-curvature="0" class="st1" d="M-433.5-561.9c-34.4-10.4-59.3-42.2-59.3-79.7
		c0-37.9,25.5-69.9,60.4-80.1c3.6-1.1,2.6-3.3-1.7-3.3c-46.4,0-84,37.4-84,83.4s37.7,83.4,84,83.4
		C-429.8-558.2-429.5-560.7-433.5-561.9"/>
</g>
<g id="g1406" transform="translate(510.4474,735.6639)">
	<path id="path1408" inkscape:connector-curvature="0" class="st1" d="M-469.1-632.9c-0.3-2.2-0.4-4.5-0.4-6.7
		c0-36.6,29.6-66.2,66.2-66.2c34.6,0,44.9,15.5,46.2,14.4c1.5-1.1-12.6-31.7-53.1-31.7c-36.6,0-66.2,29.6-66.2,66.2
		c0,8.5,1.6,16.5,4.5,23.9C-470.7-629.8-468.8-629.8-469.1-632.9"/>
</g>
<g id="g1410" transform="translate(515.3958,744.1704)">
	<path id="path1412" inkscape:connector-curvature="0" class="st1" d="M-446.3-689.1c17.2-7.5,38.8-7.8,60.1-0.3
		c14.3,5,22.6,12.2,23.3,11.8c1.2-0.5-8.3-15.5-25.4-21.9c-20.6-7.8-42.8-3.7-58.9,9C-449.1-689.1-448.4-688.1-446.3-689.1"/>
</g>
<g id="g1414" transform="translate(576.072,738.6094)">
	<path id="path1416" inkscape:connector-curvature="0" class="st1" d="M-166.7-652.3c0,4.8-4,8.7-8.7,8.7c-4.8,0-8.7-3.8-8.7-8.7
		c0-4.8,3.8-8.7,8.7-8.7S-166.7-657.2-166.7-652.3"/>
</g>
<path id="path1420" inkscape:connector-curvature="0" class="st1" d="M125.5,135l1.1,11.6h18.4l-6.2-67.5h-27.3l-34.6,67.5h18.8
	l5.8-11.6H125.5z M124.6,122h-16.8l14.4-29.2h0.1L124.6,122z"/>
<path id="path1424" inkscape:connector-curvature="0" class="st1" d="M170.4,117.2h2.8l13.1-17.8h17l-18.1,22.7l11.1,24.6h-18.1
	l-7.3-19.2h-2.6l-4.1,19.2h-15.5L163,79.1h15.5L170.4,117.2z"/>
<rect x="-2820.9" y="-213.1" class="st2" width="3431.7" height="4441"/>
<g id="g1428">
	<g id="g1434" transform="translate(543.6485,727.8408)">
		<path id="path1436" inkscape:connector-curvature="0" class="st1" d="M-316.1-581.2h15.5l6.2-29.5c3.4-16.3-2.8-18.2-18.6-18.2
			c-11.1,0-21.8-0.1-24.8,14.5h15.5c0.9-4.2,3.6-5.1,7.4-5.1c6.7,0,6.5,2.8,5.5,7.1l-1.6,7.5h-0.7c-0.5-5.4-7.4-5.3-11.8-5.3
			c-11.2,0-17.8,3.6-20.2,14.9c-2.5,12,3.2,14.7,14,14.7c5.4,0,12.7-1.1,15.2-7.5h0.5L-316.1-581.2z M-320.5-600.7
			c5,0,8.3,0.4,7.5,4.4c-1.1,4.9-3.2,5.8-9.6,5.8c-2.4,0-6.7,0-5.7-5.2C-327.4-600.1-324.3-600.7-320.5-600.7"/>
	</g>
	<g id="g1438" transform="translate(551.99,736.2766)">
		<path id="path1440" inkscape:connector-curvature="0" class="st1" d="M-277.7-636.9l-1.5,6.6h0.7c3-5.6,9.2-7.1,14.5-7.1
			c6.6,0,13.2,1.2,12.3,9.2h0.7c2.2-6.7,9.1-9.2,15.1-9.2c11,0,15.6,4.5,13.2,15.5l-6.9,32.4h-15.5l5.8-27.4
			c0.8-4.9,1.6-8.6-4.4-8.6c-6.1,0-8.1,4-9.1,9.1l-5.7,26.8h-15.5l6.1-28.7c0.8-4.4,1.1-7.3-4.4-7.3c-6.3,0-8.3,3.4-9.5,9.1
			l-5.7,26.8h-15.5l10-47.3H-277.7z"/>
	</g>
	<g id="g1442" transform="translate(566.9058,727.8408)">
		<path id="path1444" inkscape:connector-curvature="0" class="st1" d="M-209-581.2h15.5l6.3-29.5c3.4-16.3-2.8-18.2-18.6-18.2
			c-11.1,0-21.8-0.1-24.8,14.5h15.5c0.9-4.2,3.6-5.1,7.4-5.1c6.7,0,6.5,2.8,5.6,7.1l-1.6,7.5h-0.7c-0.5-5.4-7.4-5.3-11.8-5.3
			c-11.2,0-17.8,3.6-20.2,14.9c-2.5,12,3.2,14.7,14,14.7c5.4,0,12.7-1.1,15.2-7.5h0.5L-209-581.2z M-213.2-600.7
			c5,0,8.3,0.4,7.5,4.4c-1.1,4.9-3.2,5.8-9.6,5.8c-2.4,0-6.7,0-5.7-5.2C-220.1-600.1-217-600.7-213.2-600.7"/>
	</g>
</g>
<path id="path1448" inkscape:connector-curvature="0" class="st1" d="M395.9,146.7h-15.5l9.9-47.3h15.6L395.9,146.7z"/>
</svg>
