<?xml version="1.0" encoding="utf-8"?>
<!-- Generator: Adobe Illustrator 16.0.0, SVG Export Plug-In . SVG Version: 6.00 Build 0)  -->
<!DOCTYPE svg PUBLIC "-//W3C//DTD SVG 1.1//EN" "http://www.w3.org/Graphics/SVG/1.1/DTD/svg11.dtd">
<svg version="1.1" id="Layer_1" xmlns="http://www.w3.org/2000/svg" xmlns:xlink="http://www.w3.org/1999/xlink" x="0px" y="0px"
	 width="299px" height="81.743px" viewBox="0 0 299 81.743" enable-background="new 0 0 299 81.743" xml:space="preserve">
<g>
	<g>
		<path fill="#555555" d="M111.365,68.573h-8.962V68.09h8.962V68.573L111.365,68.573z"/>
		<path fill="#555555" d="M193.113,68.573h-8.961V68.09h8.961V68.573L193.113,68.573z"/>
		<path fill="#555555" d="M122.583,63.043v0.24c-0.403,0.098-0.719,0.445-0.951,1.049l-2.832,7.301h-0.095h-0.095l-2.94-7.577
			c-0.194-0.499-0.471-0.755-0.833-0.771v-0.239c0.323,0.024,0.751,0.037,1.29,0.037c0.691,0,1.205-0.013,1.542-0.037v0.239
			c-0.306,0.019-0.522,0.056-0.658,0.117c-0.132,0.06-0.198,0.17-0.198,0.33c0,0.139,0.048,0.325,0.145,0.567l2.181,5.793
			l1.963-5.096c0.16-0.436,0.241-0.764,0.241-0.988c0-0.25-0.086-0.432-0.26-0.543c-0.171-0.11-0.436-0.174-0.788-0.18v-0.24
			c0.456,0.023,0.918,0.035,1.385,0.035C122.04,63.079,122.341,63.069,122.583,63.043z"/>
		<path fill="#555555" d="M124.628,70.45c0,0.33,0.067,0.559,0.204,0.682c0.138,0.127,0.374,0.188,0.71,0.188v0.252
			c-0.74-0.03-1.224-0.049-1.458-0.049s-0.72,0.019-1.457,0.049V71.32c0.335,0,0.574-0.062,0.71-0.188
			c0.135-0.123,0.205-0.352,0.205-0.682v-3.771c0-0.369-0.07-0.637-0.205-0.807c-0.136-0.166-0.375-0.253-0.71-0.253v-0.252
			c0.255,0.025,0.504,0.037,0.747,0.037c0.505,0,0.923-0.055,1.251-0.168v5.215L124.628,70.45L124.628,70.45z M124.544,62.586
			c0.152,0.152,0.228,0.334,0.228,0.543s-0.077,0.389-0.228,0.543c-0.152,0.152-0.334,0.228-0.543,0.228s-0.39-0.076-0.543-0.228
			c-0.152-0.154-0.229-0.334-0.229-0.543s0.077-0.391,0.229-0.543c0.153-0.152,0.334-0.229,0.543-0.229
			S124.393,62.432,124.544,62.586z"/>
		<path fill="#555555" d="M130.688,65.584c0.379,0.25,0.566,0.56,0.566,0.93c0,0.209-0.062,0.373-0.179,0.494
			c-0.122,0.121-0.273,0.181-0.458,0.181s-0.343-0.054-0.471-0.162c-0.127-0.108-0.192-0.254-0.192-0.438
			c0-0.168,0.047-0.313,0.144-0.431c0.097-0.112,0.217-0.192,0.361-0.233c-0.079-0.144-0.223-0.265-0.428-0.361
			c-0.204-0.096-0.423-0.143-0.657-0.143c-0.297,0-0.573,0.094-0.831,0.28c-0.255,0.188-0.47,0.502-0.639,0.938
			c-0.168,0.438-0.252,1.015-0.252,1.728c0,0.996,0.16,1.724,0.483,2.175c0.321,0.452,0.739,0.68,1.253,0.68
			c0.343,0,0.672-0.103,0.98-0.301c0.311-0.201,0.566-0.515,0.766-0.938l0.229,0.082c-0.135,0.459-0.392,0.854-0.764,1.182
			c-0.375,0.33-0.856,0.494-1.452,0.494c-0.498,0-0.949-0.129-1.356-0.387c-0.405-0.256-0.723-0.627-0.957-1.113
			c-0.232-0.486-0.35-1.049-0.35-1.691c0-0.649,0.121-1.229,0.355-1.733c0.238-0.506,0.569-0.901,0.995-1.187
			c0.426-0.287,0.91-0.43,1.458-0.43C129.83,65.2,130.294,65.327,130.688,65.584z"/>
		<path fill="#555555" d="M134.193,65.379h1.783v0.244h-1.783v4.66c0,0.363,0.064,0.625,0.196,0.783
			c0.134,0.159,0.325,0.238,0.574,0.238c0.25,0,0.462-0.098,0.639-0.301c0.178-0.199,0.326-0.53,0.446-0.986l0.242,0.061
			c-0.201,1.107-0.723,1.662-1.565,1.662c-0.273,0-0.499-0.033-0.675-0.098c-0.176-0.063-0.333-0.164-0.469-0.303
			c-0.178-0.179-0.299-0.394-0.369-0.65c-0.067-0.256-0.101-0.602-0.101-1.035v-4.037h-1.158v-0.238h1.158v-1.844
			c0.449-0.018,0.81-0.072,1.083-0.17L134.193,65.379L134.193,65.379z"/>
		<path fill="#555555" d="M141.571,66.012c0.501,0.543,0.754,1.363,0.754,2.467c0,1.1-0.252,1.918-0.754,2.455
			c-0.502,0.539-1.162,0.807-1.981,0.807c-0.819,0-1.48-0.268-1.982-0.807c-0.502-0.537-0.753-1.355-0.753-2.455
			c0-1.105,0.251-1.924,0.753-2.467s1.164-0.813,1.982-0.813C140.408,65.2,141.069,65.469,141.571,66.012z M138.445,66.18
			c-0.282,0.496-0.421,1.26-0.421,2.295s0.139,1.799,0.421,2.289c0.282,0.49,0.662,0.734,1.145,0.734
			c0.481,0,0.862-0.244,1.144-0.734c0.282-0.488,0.423-1.254,0.423-2.289s-0.141-1.801-0.423-2.295
			c-0.282-0.492-0.663-0.738-1.144-0.738C139.107,65.442,138.727,65.688,138.445,66.18z"/>
		<path fill="#555555" d="M147.896,65.475c0.205,0.186,0.308,0.408,0.308,0.676c0,0.207-0.064,0.387-0.188,0.537
			c-0.124,0.148-0.291,0.223-0.499,0.223c-0.176,0-0.328-0.055-0.452-0.17c-0.125-0.111-0.188-0.265-0.188-0.459
			c0-0.264,0.138-0.48,0.408-0.648c-0.054-0.082-0.138-0.121-0.252-0.121c-0.314,0-0.597,0.123-0.854,0.367
			c-0.257,0.244-0.458,0.543-0.602,0.896c-0.145,0.354-0.219,0.688-0.219,1v2.555c0,0.371,0.107,0.627,0.318,0.771
			c0.214,0.146,0.531,0.215,0.96,0.215v0.252l-0.289-0.012c-0.82-0.023-1.343-0.035-1.566-0.035c-0.208,0-0.682,0.016-1.421,0.047
			v-0.252c0.339,0,0.574-0.063,0.711-0.186c0.135-0.127,0.203-0.353,0.203-0.681V66.68c0-0.369-0.068-0.641-0.203-0.807
			c-0.138-0.171-0.376-0.252-0.711-0.252v-0.255c0.256,0.023,0.504,0.035,0.747,0.035c0.505,0,0.924-0.056,1.253-0.166v1.504
			c0.144-0.401,0.375-0.76,0.693-1.069c0.317-0.314,0.666-0.472,1.055-0.472C147.428,65.2,147.691,65.292,147.896,65.475z"/>
		<path fill="#555555" d="M159.34,63.381c-0.131,0.045-0.223,0.139-0.271,0.274c-0.047,0.14-0.07,0.358-0.07,0.664v5.976
			c0,0.306,0.023,0.524,0.07,0.664c0.051,0.137,0.139,0.229,0.271,0.274c0.133,0.049,0.344,0.082,0.633,0.099v0.239
			c-0.338-0.022-0.85-0.037-1.541-0.037c-0.652,0-1.162,0.015-1.529,0.037v-0.239c0.287-0.019,0.498-0.05,0.631-0.099
			c0.132-0.045,0.224-0.14,0.273-0.274c0.047-0.14,0.07-0.357,0.07-0.664v-2.892h-3.916v2.892c0,0.306,0.023,0.524,0.074,0.664
			c0.049,0.137,0.139,0.229,0.271,0.274c0.133,0.049,0.344,0.082,0.631,0.099v0.239c-0.369-0.022-0.879-0.037-1.528-0.037
			c-0.693,0-1.205,0.015-1.543,0.037v-0.239c0.29-0.019,0.5-0.05,0.633-0.099c0.133-0.045,0.222-0.14,0.271-0.274
			c0.049-0.14,0.073-0.357,0.073-0.664V64.32c0-0.306-0.026-0.524-0.073-0.664c-0.047-0.137-0.138-0.229-0.271-0.276
			c-0.133-0.049-0.343-0.08-0.633-0.097v-0.239c0.338,0.022,0.852,0.034,1.543,0.034c0.641,0,1.151-0.012,1.528-0.034v0.239
			c-0.287,0.017-0.5,0.048-0.631,0.097c-0.135,0.047-0.223,0.141-0.271,0.276s-0.074,0.356-0.074,0.662v2.847h3.916v-2.847
			c0-0.306-0.023-0.526-0.07-0.662c-0.049-0.137-0.139-0.229-0.273-0.278c-0.133-0.047-0.344-0.078-0.631-0.097v-0.239
			c0.367,0.024,0.877,0.036,1.529,0.036c0.689,0,1.203-0.012,1.541-0.036v0.239C159.684,63.299,159.473,63.333,159.34,63.381z"/>
		<path fill="#555555" d="M166.285,70.272c0,0.367,0.068,0.637,0.207,0.807c0.135,0.166,0.371,0.252,0.711,0.252v0.254
			c-0.25-0.024-0.5-0.037-0.748-0.037c-0.506,0-0.924,0.056-1.252,0.168v-1.42c-0.193,0.498-0.467,0.861-0.82,1.094
			c-0.354,0.234-0.738,0.351-1.156,0.351c-0.547,0-0.965-0.153-1.25-0.459c-0.146-0.162-0.25-0.364-0.309-0.612
			c-0.063-0.25-0.093-0.57-0.093-0.968v-3.024c0-0.369-0.067-0.637-0.204-0.808c-0.139-0.166-0.375-0.252-0.709-0.252v-0.252
			c0.25,0.024,0.498,0.037,0.745,0.037c0.507,0,0.925-0.054,1.253-0.168v4.733c0,0.306,0.018,0.554,0.055,0.74
			c0.037,0.189,0.121,0.344,0.252,0.465c0.135,0.119,0.336,0.18,0.609,0.18c0.305,0,0.584-0.096,0.83-0.288
			c0.25-0.19,0.443-0.455,0.585-0.789c0.142-0.332,0.214-0.699,0.214-1.103v-2.494c0-0.369-0.07-0.637-0.205-0.807
			c-0.139-0.168-0.375-0.252-0.709-0.252v-0.252c0.25,0.024,0.496,0.037,0.744,0.037c0.506,0,0.924-0.056,1.254-0.17v5.037H166.285z
			"/>
		<path fill="#555555" d="M172.893,66.305c-0.102-0.094-0.152-0.234-0.152-0.418c0-0.162,0.041-0.348,0.123-0.555
			c-0.209,0.088-0.375,0.188-0.495,0.295c-0.119,0.108-0.229,0.244-0.324,0.403c0.187,0.281,0.276,0.64,0.276,1.072
			c0,0.635-0.19,1.11-0.577,1.428c-0.386,0.315-0.896,0.476-1.529,0.476h-0.012c-0.265,0.153-0.466,0.293-0.603,0.422
			s-0.205,0.271-0.205,0.434c0,0.256,0.191,0.385,0.578,0.385h1.506c0.547,0,0.998,0.121,1.355,0.355
			c0.357,0.236,0.537,0.594,0.537,1.068c0,0.385-0.127,0.739-0.375,1.069c-0.25,0.33-0.613,0.597-1.096,0.795
			c-0.483,0.199-1.064,0.3-1.748,0.3c-0.697,0-1.283-0.105-1.754-0.319c-0.469-0.212-0.703-0.528-0.703-0.944
			c0-0.273,0.109-0.508,0.332-0.711c0.221-0.201,0.527-0.357,0.92-0.47l0.072,0.192c-0.177,0.055-0.316,0.168-0.42,0.338
			c-0.105,0.168-0.156,0.356-0.156,0.563c0,0.369,0.164,0.653,0.498,0.851c0.334,0.195,0.783,0.293,1.346,0.293
			c0.617,0,1.146-0.117,1.59-0.354c0.439-0.238,0.662-0.604,0.662-1.102c0-0.289-0.104-0.515-0.309-0.674
			c-0.203-0.162-0.566-0.24-1.09-0.24h-0.892c-0.474,0-0.854-0.063-1.14-0.183c-0.285-0.12-0.428-0.36-0.428-0.723
			c0-0.25,0.09-0.484,0.271-0.709c0.18-0.224,0.479-0.445,0.896-0.664c-0.531-0.058-0.953-0.24-1.271-0.556
			c-0.318-0.313-0.477-0.754-0.477-1.323c0-0.636,0.19-1.111,0.578-1.429c0.385-0.317,0.896-0.477,1.53-0.477
			c0.754,0,1.313,0.209,1.674,0.627c0.152-0.215,0.347-0.396,0.578-0.537s0.466-0.211,0.699-0.211c0.207,0,0.377,0.061,0.506,0.182
			c0.129,0.119,0.19,0.291,0.19,0.519s-0.063,0.394-0.186,0.506c-0.125,0.113-0.264,0.168-0.416,0.168
			C173.115,66.452,172.992,66.403,172.893,66.305z M170.939,68.409c0.166-0.252,0.25-0.688,0.25-1.308
			c0-0.618-0.082-1.054-0.25-1.306c-0.164-0.252-0.406-0.381-0.728-0.381s-0.565,0.125-0.729,0.381
			c-0.166,0.252-0.25,0.688-0.25,1.306s0.082,1.056,0.25,1.308c0.164,0.252,0.406,0.379,0.729,0.379
			C170.532,68.788,170.775,68.661,170.939,68.409z"/>
		<path fill="#555555" d="M179.229,66.012c0.502,0.543,0.754,1.363,0.754,2.467c0,1.1-0.252,1.918-0.754,2.455
			c-0.5,0.539-1.16,0.807-1.98,0.807c-0.822,0-1.479-0.268-1.98-0.807c-0.502-0.537-0.754-1.355-0.754-2.455
			c0-1.105,0.252-1.924,0.754-2.467c0.498-0.543,1.158-0.813,1.98-0.813C178.068,65.2,178.727,65.469,179.229,66.012z
			 M176.104,66.18c-0.283,0.496-0.422,1.26-0.422,2.295s0.141,1.799,0.422,2.289s0.662,0.734,1.146,0.734
			c0.481,0,0.862-0.244,1.144-0.734c0.282-0.488,0.424-1.254,0.424-2.289s-0.144-1.801-0.424-2.295
			c-0.281-0.492-0.662-0.738-1.144-0.738C176.766,65.442,176.385,65.688,176.104,66.18z"/>
	</g>
	<path fill="#555555" d="M287.366,68.616H189.25v-0.5h98.116c2.618,0,4.75-2.131,4.75-4.75V22.717c0-2.619-2.132-4.75-4.75-4.75
		H8.368c-2.619,0-4.75,2.131-4.75,4.75v40.648c0,2.619,2.131,4.75,4.75,4.75h98.517v0.5H8.368c-2.895,0-5.25-2.354-5.25-5.25V22.717
		c0-2.895,2.355-5.25,5.25-5.25h278.999c2.896,0,5.25,2.355,5.25,5.25v40.648C292.616,66.26,290.262,68.616,287.366,68.616z"/>
	<path fill="#555555" d="M135.788,21.034c-0.479-0.718-0.86-1.601-1.147-2.653c-0.287-1.051-0.43-2.152-0.43-3.299
		c0-2.482,0.633-4.729,1.899-6.737c1.266-2.007,3.142-3.583,5.627-4.73l0.646,1.291c-1.386,0.572-2.593,1.457-3.62,2.652
		c-1.028,1.196-1.638,2.414-1.828,3.655c-0.144,0.575-0.215,1.124-0.215,1.649c0,0.479,0.071,0.933,0.215,1.361
		c1.051-1.146,2.438-1.72,4.158-1.72c1.672,0,3.035,0.49,4.085,1.471c1.051,0.979,1.578,2.33,1.578,4.05
		c0,1.625-0.55,2.95-1.648,3.979c-1.101,1.027-2.509,1.541-4.229,1.541C138.535,23.545,136.839,22.706,135.788,21.034z
		 M150.557,21.034c-0.479-0.718-0.862-1.601-1.147-2.653c-0.288-1.051-0.43-2.152-0.43-3.299c0-2.482,0.633-4.729,1.899-6.737
		c1.267-2.007,3.142-3.583,5.628-4.73l0.645,1.291c-1.387,0.572-2.592,1.457-3.621,2.652c-1.025,1.196-1.637,2.414-1.827,3.655
		c-0.144,0.575-0.216,1.124-0.216,1.649c0,0.479,0.072,0.933,0.216,1.361c1.052-1.146,2.438-1.72,4.157-1.72
		c1.673,0,3.035,0.49,4.086,1.471c1.052,0.979,1.578,2.33,1.578,4.05c0,1.625-0.551,2.95-1.647,3.979
		c-1.101,1.027-2.51,1.541-4.229,1.541C153.303,23.545,151.605,22.706,150.557,21.034z"/>
</g>
<g>
	<path fill="#555555" d="M25.582,39.37l-0.978-2.497h-3.147L20.49,39.37h-0.924l3.104-7.885h0.768l3.088,7.885H25.582z
		 M24.32,36.051l-0.913-2.434c-0.118-0.308-0.24-0.686-0.365-1.133c-0.079,0.344-0.191,0.722-0.338,1.133l-0.924,2.434H24.32z"/>
	<path fill="#555555" d="M29.374,38.742c0.158,0,0.31-0.012,0.457-0.035s0.263-0.048,0.349-0.072v0.682
		c-0.097,0.047-0.239,0.085-0.427,0.115c-0.188,0.03-0.357,0.046-0.508,0.046c-1.139,0-1.708-0.6-1.708-1.8v-3.502h-0.843v-0.43
		l0.843-0.37l0.376-1.257h0.516v1.364h1.708v0.692h-1.708v3.465c0,0.354,0.084,0.627,0.252,0.816S29.081,38.742,29.374,38.742z"/>
	<path fill="#555555" d="M36.115,38.742c0.158,0,0.31-0.012,0.457-0.035s0.263-0.048,0.349-0.072v0.682
		c-0.097,0.047-0.239,0.085-0.427,0.115c-0.188,0.03-0.357,0.046-0.507,0.046c-1.139,0-1.708-0.6-1.708-1.8v-3.502h-0.843v-0.43
		l0.843-0.37l0.376-1.257h0.516v1.364h1.708v0.692h-1.708v3.465c0,0.354,0.084,0.627,0.252,0.816S35.821,38.742,36.115,38.742z"/>
	<path fill="#555555" d="M42.125,39.37v-3.808c0-0.48-0.109-0.838-0.328-1.074s-0.561-0.355-1.026-0.355
		c-0.62,0-1.071,0.169-1.356,0.506c-0.284,0.336-0.427,0.888-0.427,1.654v3.077h-0.892v-8.357h0.892v2.53
		c0,0.304-0.014,0.557-0.043,0.757h0.054c0.175-0.283,0.425-0.506,0.749-0.669c0.324-0.163,0.694-0.244,1.109-0.244
		c0.72,0,1.26,0.171,1.619,0.513c0.36,0.342,0.54,0.886,0.54,1.63v3.841H42.125z"/>
	<path fill="#555555" d="M47.335,39.478c-0.87,0-1.557-0.265-2.06-0.795c-0.503-0.53-0.755-1.266-0.755-2.208
		c0-0.948,0.233-1.702,0.701-2.261c0.467-0.559,1.095-0.838,1.882-0.838c0.738,0,1.321,0.242,1.751,0.728s0.645,1.125,0.645,1.92
		v0.564h-4.055c0.018,0.691,0.192,1.216,0.523,1.574c0.332,0.357,0.798,0.537,1.399,0.537c0.634,0,1.26-0.133,1.88-0.398v0.795
		c-0.315,0.137-0.613,0.234-0.895,0.293C48.072,39.448,47.732,39.478,47.335,39.478z M47.093,34.123c-0.473,0-0.85,0.153-1.13,0.461
		c-0.281,0.309-0.447,0.734-0.497,1.279h3.078c0-0.563-0.125-0.993-0.376-1.292S47.559,34.123,47.093,34.123z"/>
	<path fill="#555555" d="M55.778,38.742c0.158,0,0.31-0.012,0.457-0.035s0.263-0.048,0.349-0.072v0.682
		c-0.097,0.047-0.239,0.085-0.427,0.115c-0.188,0.03-0.357,0.046-0.508,0.046c-1.139,0-1.708-0.6-1.708-1.8v-3.502h-0.843v-0.43
		l0.843-0.37l0.376-1.257h0.516v1.364h1.708v0.692h-1.708v3.465c0,0.354,0.084,0.627,0.252,0.816S55.485,38.742,55.778,38.742z"/>
	<path fill="#555555" d="M62.841,36.422c0,0.959-0.242,1.708-0.725,2.247s-1.151,0.809-2.003,0.809c-0.526,0-0.994-0.124-1.402-0.37
		c-0.408-0.248-0.723-0.602-0.945-1.064c-0.222-0.461-0.333-1.002-0.333-1.621c0-0.96,0.24-1.708,0.72-2.243
		s1.146-0.803,1.998-0.803c0.824,0,1.478,0.274,1.963,0.821C62.599,34.746,62.841,35.486,62.841,36.422z M58.356,36.422
		c0,0.752,0.15,1.324,0.451,1.719c0.301,0.394,0.743,0.59,1.327,0.59s1.027-0.195,1.33-0.588c0.302-0.392,0.454-0.966,0.454-1.721
		c0-0.749-0.151-1.317-0.454-1.706c-0.303-0.389-0.75-0.583-1.34-0.583c-0.583,0-1.024,0.192-1.321,0.575
		S58.356,35.662,58.356,36.422z"/>
	<path fill="#555555" d="M67.144,39.478c-0.383,0-0.733-0.07-1.05-0.212c-0.317-0.142-0.583-0.359-0.798-0.652h-0.064
		c0.043,0.344,0.064,0.669,0.064,0.977v2.422h-0.892v-8.529h0.725l0.124,0.806h0.043c0.229-0.322,0.496-0.555,0.8-0.698
		s0.653-0.215,1.047-0.215c0.781,0,1.383,0.267,1.808,0.8c0.424,0.534,0.636,1.282,0.636,2.246c0,0.967-0.216,1.718-0.647,2.253
		C68.509,39.21,67.91,39.478,67.144,39.478z M67.015,34.133c-0.602,0-1.037,0.167-1.305,0.5s-0.406,0.863-0.414,1.59v0.199
		c0,0.826,0.138,1.418,0.414,1.774s0.718,0.534,1.327,0.534c0.508,0,0.907-0.205,1.195-0.617c0.288-0.412,0.432-0.979,0.432-1.703
		c0-0.733-0.144-1.297-0.432-1.688C67.943,34.329,67.538,34.133,67.015,34.133z"/>
	<path fill="#555555" d="M79.083,36.422c0,0.959-0.242,1.708-0.725,2.247s-1.151,0.809-2.003,0.809c-0.526,0-0.994-0.124-1.402-0.37
		c-0.408-0.248-0.723-0.602-0.945-1.064c-0.222-0.461-0.333-1.002-0.333-1.621c0-0.96,0.24-1.708,0.72-2.243
		s1.146-0.803,1.998-0.803c0.824,0,1.478,0.274,1.963,0.821C78.841,34.746,79.083,35.486,79.083,36.422z M74.599,36.422
		c0,0.752,0.15,1.324,0.451,1.719c0.301,0.394,0.743,0.59,1.327,0.59s1.027-0.195,1.33-0.588c0.302-0.392,0.454-0.966,0.454-1.721
		c0-0.749-0.151-1.317-0.454-1.706c-0.303-0.389-0.75-0.583-1.34-0.583c-0.583,0-1.024,0.192-1.321,0.575
		S74.599,35.662,74.599,36.422z"/>
	<path fill="#555555" d="M83.3,34.176h-1.499v5.194H80.91v-5.194h-1.053v-0.402l1.053-0.322v-0.328c0-1.446,0.632-2.17,1.896-2.17
		c0.312,0,0.677,0.063,1.096,0.188l-0.231,0.714c-0.344-0.11-0.637-0.166-0.881-0.166c-0.336,0-0.585,0.112-0.747,0.336
		s-0.242,0.582-0.242,1.076v0.382H83.3V34.176z"/>
	<path fill="#555555" d="M89.133,38.742c0.158,0,0.31-0.012,0.457-0.035s0.263-0.048,0.349-0.072v0.682
		c-0.097,0.047-0.239,0.085-0.427,0.115c-0.188,0.03-0.357,0.046-0.508,0.046c-1.139,0-1.708-0.6-1.708-1.8v-3.502h-0.843v-0.43
		l0.843-0.37l0.376-1.257h0.516v1.364h1.708v0.692h-1.708v3.465c0,0.354,0.084,0.627,0.252,0.816S88.839,38.742,89.133,38.742z"/>
	<path fill="#555555" d="M95.143,39.37v-3.808c0-0.48-0.109-0.838-0.328-1.074s-0.561-0.355-1.026-0.355
		c-0.62,0-1.072,0.169-1.356,0.506c-0.285,0.336-0.427,0.888-0.427,1.654v3.077h-0.892v-8.357h0.892v2.53
		c0,0.304-0.014,0.557-0.043,0.757h0.054c0.175-0.283,0.425-0.506,0.75-0.669c0.324-0.163,0.693-0.244,1.109-0.244
		c0.72,0,1.259,0.171,1.62,0.513c0.359,0.342,0.54,0.886,0.54,1.63v3.841H95.143z"/>
	<path fill="#555555" d="M100.353,39.478c-0.87,0-1.557-0.265-2.06-0.795c-0.503-0.53-0.754-1.266-0.754-2.208
		c0-0.948,0.234-1.702,0.701-2.261c0.468-0.559,1.095-0.838,1.883-0.838c0.738,0,1.321,0.242,1.751,0.728s0.645,1.125,0.645,1.92
		v0.564h-4.055c0.018,0.691,0.192,1.216,0.524,1.574c0.331,0.357,0.797,0.537,1.399,0.537c0.634,0,1.26-0.133,1.88-0.398v0.795
		c-0.315,0.137-0.613,0.234-0.894,0.293C101.09,39.448,100.75,39.478,100.353,39.478z M100.111,34.123
		c-0.473,0-0.85,0.153-1.131,0.461c-0.281,0.309-0.446,0.734-0.497,1.279h3.078c0-0.563-0.125-0.993-0.376-1.292
		S100.577,34.123,100.111,34.123z"/>
	<path fill="#555555" d="M114.398,39.37v-3.829c0-0.47-0.1-0.821-0.301-1.056s-0.512-0.353-0.935-0.353
		c-0.555,0-0.965,0.16-1.23,0.479s-0.397,0.81-0.397,1.472v3.287h-0.892v-3.829c0-0.47-0.1-0.821-0.301-1.056
		s-0.514-0.353-0.94-0.353c-0.559,0-0.968,0.168-1.228,0.503c-0.259,0.335-0.389,0.884-0.389,1.646v3.089h-0.892v-5.887h0.725
		l0.145,0.806h0.043c0.168-0.286,0.406-0.51,0.711-0.672c0.307-0.16,0.649-0.241,1.029-0.241c0.92,0,1.522,0.333,1.805,0.999h0.043
		c0.175-0.308,0.43-0.552,0.763-0.73s0.712-0.269,1.139-0.269c0.666,0,1.165,0.171,1.496,0.513c0.332,0.342,0.497,0.889,0.497,1.641
		v3.841H114.398z"/>
	<path fill="#555555" d="M122.208,36.422c0,0.959-0.242,1.708-0.725,2.247s-1.151,0.809-2.003,0.809
		c-0.526,0-0.994-0.124-1.402-0.37c-0.408-0.248-0.723-0.602-0.945-1.064c-0.222-0.461-0.333-1.002-0.333-1.621
		c0-0.96,0.24-1.708,0.72-2.243s1.146-0.803,1.998-0.803c0.824,0,1.478,0.274,1.963,0.821
		C121.965,34.746,122.208,35.486,122.208,36.422z M117.723,36.422c0,0.752,0.15,1.324,0.451,1.719
		c0.301,0.394,0.743,0.59,1.327,0.59s1.027-0.195,1.329-0.588c0.303-0.392,0.454-0.966,0.454-1.721c0-0.749-0.151-1.317-0.454-1.706
		c-0.302-0.389-0.749-0.583-1.34-0.583c-0.583,0-1.024,0.192-1.321,0.575S117.723,35.662,117.723,36.422z"/>
	<path fill="#555555" d="M124.609,33.483v3.819c0,0.479,0.109,0.838,0.328,1.074s0.561,0.354,1.026,0.354
		c0.616,0,1.066-0.168,1.351-0.504c0.284-0.337,0.427-0.887,0.427-1.649v-3.094h0.892v5.887h-0.736l-0.129-0.79h-0.048
		c-0.183,0.291-0.436,0.513-0.76,0.666c-0.324,0.154-0.694,0.231-1.109,0.231c-0.716,0-1.252-0.17-1.608-0.511
		c-0.356-0.34-0.535-0.884-0.535-1.633v-3.851H124.609z"/>
	<path fill="#555555" d="M134.551,39.37v-3.808c0-0.48-0.109-0.838-0.328-1.074s-0.561-0.355-1.026-0.355
		c-0.616,0-1.067,0.167-1.354,0.5s-0.43,0.883-0.43,1.648v3.089h-0.892v-5.887h0.725l0.145,0.806h0.043
		c0.183-0.29,0.438-0.515,0.768-0.674s0.696-0.239,1.101-0.239c0.709,0,1.243,0.171,1.601,0.513s0.537,0.889,0.537,1.641v3.841
		H134.551z"/>
	<path fill="#555555" d="M139.175,38.742c0.158,0,0.31-0.012,0.457-0.035s0.263-0.048,0.349-0.072v0.682
		c-0.097,0.047-0.239,0.085-0.427,0.115c-0.188,0.03-0.357,0.046-0.507,0.046c-1.139,0-1.708-0.6-1.708-1.8v-3.502h-0.843v-0.43
		l0.843-0.37l0.376-1.257h0.516v1.364h1.708v0.692h-1.708v3.465c0,0.354,0.084,0.627,0.252,0.816S138.882,38.742,139.175,38.742z"/>
	<path fill="#555555" d="M144.777,39.37l-0.177-0.838h-0.043c-0.293,0.369-0.586,0.618-0.878,0.749
		c-0.292,0.131-0.656,0.196-1.093,0.196c-0.583,0-1.041-0.15-1.372-0.451c-0.332-0.301-0.497-0.729-0.497-1.284
		c0-1.188,0.951-1.812,2.852-1.869l0.999-0.031v-0.365c0-0.463-0.099-0.804-0.298-1.023c-0.198-0.221-0.516-0.33-0.953-0.33
		c-0.491,0-1.045,0.15-1.665,0.451l-0.274-0.683c0.29-0.157,0.608-0.281,0.954-0.37c0.345-0.09,0.692-0.135,1.039-0.135
		c0.702,0,1.222,0.156,1.561,0.467c0.338,0.313,0.507,0.812,0.507,1.499v4.018H144.777z M142.763,38.742
		c0.555,0,0.991-0.152,1.308-0.457c0.316-0.305,0.475-0.73,0.475-1.278v-0.532l-0.892,0.038c-0.709,0.025-1.22,0.135-1.534,0.33
		c-0.313,0.195-0.47,0.499-0.47,0.911c0,0.322,0.098,0.567,0.293,0.735C142.139,38.657,142.412,38.742,142.763,38.742z"/>
	<path fill="#555555" d="M147.2,31.889c0-0.205,0.05-0.354,0.15-0.449s0.226-0.143,0.376-0.143c0.143,0,0.267,0.049,0.371,0.146
		s0.156,0.245,0.156,0.446c0,0.2-0.052,0.35-0.156,0.448s-0.228,0.147-0.371,0.147c-0.15,0-0.276-0.049-0.376-0.147
		S147.2,32.089,147.2,31.889z M148.167,39.37h-0.892v-5.887h0.892V39.37z"/>
	<path fill="#555555" d="M154.086,39.37v-3.808c0-0.48-0.109-0.838-0.328-1.074s-0.561-0.355-1.025-0.355
		c-0.616,0-1.067,0.167-1.354,0.5c-0.287,0.333-0.43,0.883-0.43,1.648v3.089h-0.893v-5.887h0.726l0.146,0.806h0.043
		c0.182-0.29,0.438-0.515,0.768-0.674s0.696-0.239,1.102-0.239c0.709,0,1.242,0.171,1.6,0.513c0.358,0.342,0.537,0.889,0.537,1.641
		v3.841H154.086z"/>
	<path fill="#555555" d="M157.743,38.092l0.081,0.123c-0.094,0.358-0.229,0.774-0.403,1.249s-0.358,0.916-0.548,1.324h-0.672
		c0.098-0.371,0.203-0.833,0.32-1.379c0.116-0.549,0.197-0.987,0.244-1.316H157.743z"/>
	<path fill="#555555" d="M167.17,39.37l-1.08-3.454c-0.068-0.211-0.195-0.69-0.381-1.439h-0.043c-0.144,0.627-0.27,1.11-0.377,1.451
		l-1.111,3.442h-1.031l-1.605-5.887h0.934c0.38,1.479,0.669,2.604,0.868,3.378c0.198,0.773,0.312,1.295,0.341,1.563h0.043
		c0.039-0.204,0.104-0.468,0.19-0.792c0.088-0.324,0.164-0.581,0.229-0.771l1.079-3.378h0.967l1.053,3.378
		c0.201,0.616,0.337,1.134,0.408,1.553h0.043c0.015-0.129,0.053-0.328,0.116-0.596c0.063-0.27,0.436-1.714,1.12-4.335h0.924
		l-1.628,5.887H167.17z"/>
	<path fill="#555555" d="M173.405,39.478c-0.87,0-1.557-0.265-2.06-0.795c-0.504-0.53-0.755-1.266-0.755-2.208
		c0-0.948,0.233-1.702,0.701-2.261c0.467-0.559,1.095-0.838,1.882-0.838c0.738,0,1.322,0.242,1.752,0.728s0.645,1.125,0.645,1.92
		v0.564h-4.056c0.019,0.691,0.192,1.216,0.523,1.574c0.331,0.357,0.798,0.537,1.399,0.537c0.634,0,1.26-0.133,1.88-0.398v0.795
		c-0.315,0.137-0.613,0.234-0.895,0.293C174.143,39.448,173.803,39.478,173.405,39.478z M173.164,34.123
		c-0.473,0-0.85,0.153-1.131,0.461c-0.281,0.309-0.447,0.734-0.497,1.279h3.077c0-0.563-0.125-0.993-0.375-1.292
		C173.987,34.272,173.629,34.123,173.164,34.123z"/>
	<path fill="#555555" d="M182.687,39.478c-0.384,0-0.733-0.07-1.05-0.212c-0.317-0.142-0.583-0.359-0.798-0.652h-0.064
		c0.043,0.344,0.064,0.669,0.064,0.977v2.422h-0.892v-8.529h0.725l0.124,0.806h0.043c0.229-0.322,0.496-0.555,0.8-0.698
		c0.305-0.144,0.654-0.215,1.048-0.215c0.78,0,1.383,0.267,1.808,0.8c0.424,0.534,0.637,1.282,0.637,2.246
		c0,0.967-0.217,1.718-0.647,2.253C184.052,39.21,183.453,39.478,182.687,39.478z M182.558,34.133c-0.602,0-1.036,0.167-1.306,0.5
		c-0.268,0.333-0.406,0.863-0.413,1.59v0.199c0,0.826,0.138,1.418,0.413,1.774c0.276,0.356,0.719,0.534,1.327,0.534
		c0.509,0,0.907-0.205,1.195-0.617s0.433-0.979,0.433-1.703c0-0.733-0.145-1.297-0.433-1.688
		C183.486,34.329,183.08,34.133,182.558,34.133z"/>
	<path fill="#555555" d="M189.175,39.478c-0.87,0-1.557-0.265-2.06-0.795c-0.504-0.53-0.755-1.266-0.755-2.208
		c0-0.948,0.233-1.702,0.701-2.261c0.467-0.559,1.095-0.838,1.882-0.838c0.738,0,1.322,0.242,1.752,0.728s0.645,1.125,0.645,1.92
		v0.564h-4.056c0.019,0.691,0.192,1.216,0.523,1.574c0.331,0.357,0.798,0.537,1.399,0.537c0.634,0,1.26-0.133,1.88-0.398v0.795
		c-0.315,0.137-0.613,0.234-0.895,0.293C189.912,39.448,189.572,39.478,189.175,39.478z M188.934,34.123
		c-0.473,0-0.85,0.153-1.131,0.461c-0.281,0.309-0.447,0.734-0.497,1.279h3.077c0-0.563-0.125-0.993-0.375-1.292
		C189.757,34.272,189.398,34.123,188.934,34.123z"/>
	<path fill="#555555" d="M195.346,39.478c-0.869,0-1.557-0.265-2.06-0.795s-0.755-1.266-0.755-2.208
		c0-0.948,0.234-1.702,0.701-2.261c0.468-0.559,1.096-0.838,1.883-0.838c0.738,0,1.321,0.242,1.751,0.728s0.645,1.125,0.645,1.92
		v0.564h-4.056c0.019,0.691,0.193,1.216,0.524,1.574c0.331,0.357,0.798,0.537,1.399,0.537c0.633,0,1.26-0.133,1.879-0.398v0.795
		c-0.314,0.137-0.613,0.234-0.894,0.293C196.083,39.448,195.744,39.478,195.346,39.478z M195.104,34.123
		c-0.473,0-0.85,0.153-1.131,0.461c-0.28,0.309-0.446,0.734-0.497,1.279h3.078c0-0.563-0.125-0.993-0.376-1.292
		S195.57,34.123,195.104,34.123z"/>
	<path fill="#555555" d="M201.717,33.376c0.261,0,0.496,0.021,0.703,0.064l-0.123,0.827c-0.244-0.054-0.459-0.08-0.645-0.08
		c-0.477,0-0.884,0.193-1.223,0.58c-0.338,0.387-0.508,0.868-0.508,1.444v3.158h-0.891v-5.887h0.735l0.103,1.091h0.043
		c0.218-0.384,0.48-0.679,0.789-0.887S201.348,33.376,201.717,33.376z"/>
	<path fill="#555555" d="M206.303,31.889c0-0.205,0.051-0.354,0.15-0.449c0.101-0.095,0.227-0.143,0.377-0.143
		c0.143,0,0.266,0.049,0.37,0.146s0.155,0.245,0.155,0.446c0,0.2-0.051,0.35-0.155,0.448s-0.228,0.147-0.37,0.147
		c-0.15,0-0.276-0.049-0.377-0.147C206.354,32.238,206.303,32.089,206.303,31.889z M207.27,39.37h-0.891v-5.887h0.891V39.37z"/>
	<path fill="#555555" d="M213.189,39.37v-3.808c0-0.48-0.109-0.838-0.328-1.074s-0.561-0.355-1.025-0.355
		c-0.616,0-1.067,0.167-1.354,0.5c-0.287,0.333-0.43,0.883-0.43,1.648v3.089h-0.893v-5.887h0.726l0.146,0.806h0.043
		c0.182-0.29,0.438-0.515,0.768-0.674s0.696-0.239,1.102-0.239c0.709,0,1.242,0.171,1.6,0.513c0.358,0.342,0.537,0.889,0.537,1.641
		v3.841H213.189z"/>
	<path fill="#555555" d="M217.813,38.742c0.157,0,0.31-0.012,0.456-0.035c0.147-0.023,0.264-0.048,0.35-0.072v0.682
		c-0.097,0.047-0.239,0.085-0.427,0.115c-0.188,0.03-0.357,0.046-0.508,0.046c-1.139,0-1.708-0.6-1.708-1.8v-3.502h-0.844v-0.43
		l0.844-0.37l0.376-1.257h0.516v1.364h1.708v0.692h-1.708v3.465c0,0.354,0.084,0.627,0.253,0.816
		C217.289,38.646,217.52,38.742,217.813,38.742z"/>
	<path fill="#555555" d="M224.877,36.422c0,0.959-0.242,1.708-0.726,2.247s-1.151,0.809-2.003,0.809
		c-0.527,0-0.994-0.124-1.402-0.37c-0.408-0.248-0.723-0.602-0.945-1.064c-0.223-0.461-0.333-1.002-0.333-1.621
		c0-0.96,0.239-1.708,0.72-2.243s1.146-0.803,1.998-0.803c0.824,0,1.479,0.274,1.963,0.821
		C224.634,34.746,224.877,35.486,224.877,36.422z M220.392,36.422c0,0.752,0.15,1.324,0.451,1.719
		c0.301,0.394,0.743,0.59,1.327,0.59c0.583,0,1.026-0.195,1.329-0.588c0.302-0.392,0.454-0.966,0.454-1.721
		c0-0.749-0.152-1.317-0.454-1.706c-0.303-0.389-0.749-0.583-1.341-0.583c-0.583,0-1.023,0.192-1.32,0.575
		C220.54,35.091,220.392,35.662,220.392,36.422z"/>
	<path fill="#555555" d="M231.198,38.742c0.157,0,0.31-0.012,0.456-0.035c0.147-0.023,0.264-0.048,0.35-0.072v0.682
		c-0.097,0.047-0.239,0.085-0.427,0.115c-0.188,0.03-0.357,0.046-0.508,0.046c-1.139,0-1.708-0.6-1.708-1.8v-3.502h-0.844v-0.43
		l0.844-0.37l0.376-1.257h0.516v1.364h1.708v0.692h-1.708v3.465c0,0.354,0.084,0.627,0.253,0.816
		C230.674,38.646,230.904,38.742,231.198,38.742z"/>
	<path fill="#555555" d="M237.209,39.37v-3.808c0-0.48-0.109-0.838-0.328-1.074s-0.561-0.355-1.025-0.355
		c-0.62,0-1.072,0.169-1.356,0.506c-0.285,0.336-0.427,0.888-0.427,1.654v3.077h-0.893v-8.357h0.893v2.53
		c0,0.304-0.015,0.557-0.043,0.757h0.053c0.176-0.283,0.426-0.506,0.75-0.669s0.693-0.244,1.109-0.244
		c0.719,0,1.259,0.171,1.619,0.513c0.359,0.342,0.539,0.886,0.539,1.63v3.841H237.209z"/>
	<path fill="#555555" d="M242.418,39.478c-0.869,0-1.557-0.265-2.06-0.795s-0.755-1.266-0.755-2.208
		c0-0.948,0.234-1.702,0.701-2.261c0.468-0.559,1.096-0.838,1.883-0.838c0.738,0,1.321,0.242,1.751,0.728s0.645,1.125,0.645,1.92
		v0.564h-4.056c0.019,0.691,0.193,1.216,0.524,1.574c0.331,0.357,0.798,0.537,1.399,0.537c0.633,0,1.26-0.133,1.879-0.398v0.795
		c-0.314,0.137-0.613,0.234-0.894,0.293C243.155,39.448,242.816,39.478,242.418,39.478z M242.177,34.123
		c-0.473,0-0.85,0.153-1.131,0.461c-0.28,0.309-0.446,0.734-0.497,1.279h3.078c0-0.563-0.125-0.993-0.376-1.292
		S242.643,34.123,242.177,34.123z"/>
	<path fill="#555555" d="M252.581,39.37l-0.178-0.838h-0.043c-0.294,0.369-0.586,0.618-0.878,0.749s-0.656,0.196-1.093,0.196
		c-0.584,0-1.042-0.15-1.373-0.451s-0.496-0.729-0.496-1.284c0-1.188,0.95-1.812,2.852-1.869l0.999-0.031v-0.365
		c0-0.463-0.1-0.804-0.298-1.023c-0.199-0.221-0.517-0.33-0.953-0.33c-0.491,0-1.046,0.15-1.666,0.451l-0.273-0.683
		c0.29-0.157,0.607-0.281,0.953-0.37c0.346-0.09,0.692-0.135,1.039-0.135c0.702,0,1.223,0.156,1.561,0.467
		c0.339,0.313,0.508,0.812,0.508,1.499v4.018H252.581z M250.566,38.742c0.555,0,0.991-0.152,1.308-0.457
		c0.317-0.305,0.476-0.73,0.476-1.278v-0.532l-0.892,0.038c-0.709,0.025-1.22,0.135-1.533,0.33s-0.471,0.499-0.471,0.911
		c0,0.322,0.098,0.567,0.293,0.735S250.216,38.742,250.566,38.742z"/>
	<path fill="#555555" d="M257.817,33.387c0.773,0,1.374,0.264,1.802,0.792s0.642,1.276,0.642,2.243s-0.215,1.718-0.646,2.253
		s-1.03,0.803-1.797,0.803c-0.383,0-0.733-0.07-1.05-0.212c-0.317-0.142-0.583-0.359-0.798-0.652h-0.064l-0.188,0.757h-0.64v-8.357
		h0.892v2.03c0,0.455-0.015,0.863-0.043,1.225h0.043C256.385,33.681,257.001,33.387,257.817,33.387z M257.688,34.133
		c-0.608,0-1.047,0.175-1.316,0.524c-0.268,0.349-0.402,0.937-0.402,1.765c0,0.826,0.138,1.418,0.414,1.774
		c0.275,0.356,0.718,0.534,1.326,0.534c0.548,0,0.956-0.199,1.225-0.599s0.402-0.973,0.402-1.722c0-0.766-0.134-1.337-0.402-1.713
		S258.251,34.133,257.688,34.133z"/>
	<path fill="#555555" d="M260.885,33.483h0.956l1.289,3.356c0.283,0.767,0.458,1.32,0.526,1.66h0.043
		c0.047-0.183,0.145-0.495,0.293-0.938s0.635-1.802,1.458-4.079h0.956l-2.53,6.703c-0.25,0.662-0.543,1.132-0.878,1.41
		s-0.745,0.416-1.232,0.416c-0.272,0-0.541-0.029-0.806-0.09v-0.715c0.197,0.043,0.417,0.064,0.66,0.064
		c0.613,0,1.05-0.344,1.311-1.032l0.328-0.838L260.885,33.483z"/>
	<path fill="#555555" d="M271.159,37.764c0,0.549-0.203,0.971-0.611,1.268c-0.408,0.298-0.981,0.446-1.719,0.446
		c-0.781,0-1.39-0.124-1.826-0.37v-0.828c0.282,0.144,0.586,0.257,0.91,0.339s0.637,0.124,0.938,0.124
		c0.465,0,0.823-0.075,1.074-0.224c0.25-0.148,0.375-0.375,0.375-0.679c0-0.229-0.099-0.426-0.298-0.589
		c-0.198-0.163-0.586-0.355-1.163-0.577c-0.547-0.204-0.937-0.382-1.168-0.534c-0.23-0.152-0.402-0.325-0.516-0.519
		c-0.112-0.193-0.169-0.424-0.169-0.693c0-0.479,0.195-0.858,0.585-1.136c0.391-0.277,0.926-0.416,1.606-0.416
		c0.634,0,1.253,0.129,1.858,0.387l-0.316,0.726c-0.592-0.244-1.127-0.365-1.606-0.365c-0.423,0-0.741,0.065-0.956,0.198
		s-0.322,0.315-0.322,0.548c0,0.157,0.04,0.292,0.121,0.402c0.08,0.111,0.21,0.217,0.389,0.317c0.18,0.101,0.523,0.245,1.031,0.435
		c0.699,0.255,1.171,0.511,1.416,0.769S271.159,37.374,271.159,37.764z"/>
	<path fill="#555555" d="M276.407,37.764c0,0.549-0.205,0.971-0.613,1.268c-0.408,0.298-0.98,0.446-1.719,0.446
		c-0.78,0-1.389-0.124-1.826-0.37v-0.828c0.283,0.144,0.587,0.257,0.911,0.339s0.636,0.124,0.937,0.124
		c0.466,0,0.824-0.075,1.074-0.224c0.251-0.148,0.377-0.375,0.377-0.679c0-0.229-0.1-0.426-0.299-0.589
		c-0.198-0.163-0.586-0.355-1.162-0.577c-0.549-0.204-0.938-0.382-1.169-0.534c-0.23-0.152-0.402-0.325-0.516-0.519
		c-0.112-0.193-0.169-0.424-0.169-0.693c0-0.479,0.195-0.858,0.586-1.136c0.39-0.277,0.925-0.416,1.605-0.416
		c0.634,0,1.253,0.129,1.858,0.387l-0.317,0.726c-0.59-0.244-1.126-0.365-1.605-0.365c-0.423,0-0.741,0.065-0.956,0.198
		s-0.322,0.315-0.322,0.548c0,0.157,0.04,0.292,0.121,0.402c0.08,0.111,0.21,0.217,0.39,0.317c0.179,0.101,0.522,0.245,1.031,0.435
		c0.697,0.255,1.17,0.511,1.415,0.769S276.407,37.374,276.407,37.764z"/>
	<path fill="#555555" d="M277.728,38.801c0-0.24,0.055-0.422,0.164-0.545c0.109-0.124,0.266-0.186,0.47-0.186
		c0.208,0,0.37,0.062,0.486,0.186c0.116,0.123,0.175,0.305,0.175,0.545c0,0.232-0.06,0.412-0.178,0.537s-0.279,0.188-0.483,0.188
		c-0.183,0-0.334-0.056-0.454-0.169C277.787,39.244,277.728,39.059,277.728,38.801z"/>
	<path fill="#555555" d="M64.272,52.571l-0.978-2.498h-3.147l-0.967,2.498h-0.924l3.104-7.885h0.768l3.088,7.885H64.272z
		 M63.01,49.25l-0.913-2.432c-0.118-0.309-0.24-0.688-0.365-1.135c-0.079,0.344-0.191,0.723-0.338,1.135L60.47,49.25H63.01z"/>
	<path fill="#555555" d="M70.191,52.571v-3.809c0-0.48-0.109-0.838-0.328-1.074s-0.561-0.354-1.026-0.354
		c-0.616,0-1.067,0.166-1.354,0.498c-0.287,0.334-0.43,0.883-0.43,1.65v3.088h-0.892v-5.887h0.725l0.145,0.805h0.043
		c0.183-0.289,0.438-0.514,0.768-0.674c0.33-0.158,0.696-0.238,1.101-0.238c0.709,0,1.243,0.17,1.601,0.512s0.537,0.891,0.537,1.643
		v3.84H70.191z"/>
	<path fill="#555555" d="M76.921,51.782h-0.048c-0.412,0.598-1.028,0.896-1.848,0.896c-0.77,0-1.369-0.264-1.797-0.789
		c-0.428-0.527-0.642-1.275-0.642-2.246s0.215-1.725,0.645-2.262s1.028-0.805,1.794-0.805c0.798,0,1.411,0.289,1.837,0.869h0.07
		l-0.038-0.424l-0.021-0.414v-2.395h0.892v8.357H77.04L76.921,51.782z M75.138,51.932c0.609,0,1.05-0.166,1.324-0.498
		c0.274-0.33,0.411-0.865,0.411-1.604v-0.188c0-0.834-0.139-1.43-0.416-1.785c-0.278-0.357-0.721-0.535-1.33-0.535
		c-0.523,0-0.923,0.203-1.201,0.609c-0.277,0.406-0.416,0.98-0.416,1.723c0,0.752,0.138,1.318,0.414,1.701
		S74.604,51.932,75.138,51.932z"/>
	<path fill="#555555" d="M85.166,47.377h-1.499v5.193h-0.892v-5.193h-1.053v-0.404l1.053-0.322v-0.326
		c0-1.447,0.632-2.17,1.896-2.17c0.312,0,0.677,0.063,1.096,0.188l-0.231,0.715c-0.344-0.111-0.637-0.168-0.881-0.168
		c-0.336,0-0.585,0.113-0.747,0.336c-0.161,0.225-0.242,0.584-0.242,1.078v0.381h1.499V47.377z"/>
	<path fill="#555555" d="M89.86,52.571l-0.177-0.838H89.64c-0.293,0.369-0.586,0.617-0.878,0.748
		c-0.292,0.131-0.656,0.197-1.093,0.197c-0.583,0-1.041-0.15-1.372-0.451c-0.332-0.301-0.497-0.729-0.497-1.283
		c0-1.189,0.951-1.813,2.852-1.869l0.999-0.033v-0.365c0-0.461-0.099-0.803-0.298-1.023c-0.198-0.221-0.516-0.33-0.953-0.33
		c-0.491,0-1.045,0.15-1.665,0.451l-0.274-0.682c0.29-0.158,0.608-0.281,0.954-0.371c0.345-0.09,0.692-0.135,1.039-0.135
		c0.702,0,1.222,0.156,1.561,0.469c0.338,0.311,0.507,0.811,0.507,1.498v4.018H89.86z M87.846,51.942
		c0.555,0,0.991-0.152,1.308-0.457c0.316-0.305,0.475-0.73,0.475-1.277v-0.531l-0.892,0.037c-0.709,0.025-1.22,0.135-1.534,0.33
		c-0.313,0.195-0.47,0.498-0.47,0.91c0,0.322,0.098,0.568,0.293,0.736C87.222,51.858,87.495,51.942,87.846,51.942z"/>
	<path fill="#555555" d="M93.25,52.571h-0.892v-8.357h0.892V52.571z"/>
	<path fill="#555555" d="M96.032,52.571H95.14v-8.357h0.892V52.571z"/>
	<path fill="#555555" d="M97.847,45.088c0-0.203,0.05-0.354,0.15-0.449c0.1-0.094,0.226-0.141,0.376-0.141
		c0.143,0,0.267,0.047,0.371,0.145c0.104,0.096,0.156,0.244,0.156,0.445s-0.052,0.35-0.156,0.449
		c-0.104,0.098-0.228,0.146-0.371,0.146c-0.15,0-0.276-0.049-0.376-0.146C97.897,45.438,97.847,45.29,97.847,45.088z M98.814,52.571
		h-0.892v-5.887h0.892V52.571z"/>
	<path fill="#555555" d="M104.733,52.571v-3.809c0-0.48-0.109-0.838-0.328-1.074s-0.561-0.354-1.026-0.354
		c-0.616,0-1.067,0.166-1.354,0.498c-0.287,0.334-0.43,0.883-0.43,1.65v3.088h-0.892v-5.887h0.725l0.145,0.805h0.043
		c0.183-0.289,0.438-0.514,0.768-0.674c0.33-0.158,0.696-0.238,1.101-0.238c0.709,0,1.243,0.17,1.601,0.512s0.537,0.891,0.537,1.643
		v3.84H104.733z"/>
	<path fill="#555555" d="M112.274,46.684v0.564l-1.09,0.129c0.1,0.125,0.19,0.289,0.269,0.49c0.079,0.203,0.118,0.432,0.118,0.686
		c0,0.576-0.197,1.037-0.591,1.381s-0.935,0.516-1.622,0.516c-0.175,0-0.34-0.016-0.494-0.043c-0.379,0.199-0.569,0.451-0.569,0.756
		c0,0.162,0.066,0.281,0.199,0.357c0.132,0.078,0.36,0.115,0.682,0.115h1.042c0.637,0,1.127,0.135,1.469,0.404
		c0.342,0.268,0.513,0.658,0.513,1.17c0,0.652-0.261,1.148-0.784,1.49s-1.286,0.514-2.288,0.514c-0.77,0-1.363-0.145-1.781-0.43
		c-0.417-0.287-0.625-0.691-0.625-1.215c0-0.357,0.115-0.668,0.344-0.928c0.229-0.262,0.551-0.439,0.967-0.533
		c-0.15-0.068-0.277-0.174-0.378-0.316c-0.103-0.143-0.153-0.311-0.153-0.5c0-0.215,0.057-0.402,0.172-0.563
		c0.115-0.162,0.295-0.318,0.542-0.469c-0.304-0.125-0.552-0.338-0.744-0.639c-0.192-0.301-0.288-0.645-0.288-1.031
		c0-0.645,0.193-1.141,0.58-1.49s0.935-0.523,1.644-0.523c0.308,0,0.585,0.035,0.833,0.107H112.274z M107.58,53.559
		c0,0.318,0.134,0.561,0.403,0.725s0.653,0.248,1.155,0.248c0.749,0,1.302-0.113,1.663-0.336c0.359-0.225,0.54-0.527,0.54-0.91
		c0-0.32-0.099-0.541-0.295-0.664s-0.567-0.186-1.112-0.186h-1.069c-0.405,0-0.72,0.098-0.945,0.291S107.58,53.198,107.58,53.559z
		 M108.063,48.569c0,0.412,0.116,0.723,0.349,0.936c0.233,0.211,0.557,0.316,0.972,0.316c0.87,0,1.305-0.424,1.305-1.268
		c0-0.885-0.44-1.326-1.321-1.326c-0.419,0-0.741,0.111-0.967,0.338C108.176,47.79,108.063,48.125,108.063,48.569z"/>
	<path fill="#555555" d="M118.241,51.942c0.158,0,0.31-0.012,0.457-0.035s0.263-0.047,0.349-0.072v0.682
		c-0.097,0.047-0.239,0.086-0.427,0.115c-0.188,0.031-0.357,0.047-0.508,0.047c-1.139,0-1.708-0.6-1.708-1.799v-3.502h-0.843v-0.43
		l0.843-0.371l0.376-1.258h0.516v1.365h1.708v0.693h-1.708v3.463c0,0.355,0.084,0.627,0.252,0.816S117.948,51.942,118.241,51.942z"
		/>
	<path fill="#555555" d="M124.251,52.571v-3.809c0-0.48-0.109-0.838-0.328-1.074s-0.561-0.354-1.026-0.354
		c-0.62,0-1.072,0.168-1.356,0.504c-0.285,0.336-0.427,0.889-0.427,1.654v3.078h-0.892v-8.357h0.892v2.529
		c0,0.305-0.014,0.557-0.043,0.758h0.054c0.175-0.283,0.425-0.506,0.75-0.67c0.324-0.162,0.693-0.244,1.109-0.244
		c0.72,0,1.259,0.172,1.62,0.514c0.359,0.342,0.54,0.885,0.54,1.631v3.84H124.251z"/>
	<path fill="#555555" d="M129.461,52.678c-0.87,0-1.557-0.266-2.06-0.795c-0.503-0.531-0.754-1.266-0.754-2.207
		c0-0.949,0.234-1.703,0.701-2.262c0.468-0.559,1.095-0.838,1.883-0.838c0.738,0,1.321,0.242,1.751,0.727
		c0.43,0.486,0.645,1.127,0.645,1.922v0.563h-4.055c0.018,0.691,0.192,1.217,0.524,1.574c0.331,0.357,0.797,0.537,1.399,0.537
		c0.634,0,1.26-0.133,1.88-0.396v0.795c-0.315,0.135-0.613,0.232-0.894,0.291C130.198,52.649,129.859,52.678,129.461,52.678z
		 M129.22,47.323c-0.473,0-0.85,0.154-1.131,0.463c-0.281,0.307-0.446,0.732-0.497,1.277h3.078c0-0.563-0.125-0.992-0.376-1.291
		S129.685,47.323,129.22,47.323z"/>
	<path fill="#555555" d="M135.832,46.577c0.261,0,0.496,0.021,0.704,0.064l-0.124,0.826c-0.244-0.053-0.458-0.08-0.645-0.08
		c-0.476,0-0.883,0.193-1.222,0.58c-0.338,0.387-0.507,0.869-0.507,1.445v3.158h-0.892v-5.887h0.736l0.102,1.09h0.043
		c0.218-0.383,0.481-0.678,0.79-0.887C135.125,46.68,135.463,46.577,135.832,46.577z"/>
	<path fill="#555555" d="M140.123,52.678c-0.87,0-1.557-0.266-2.06-0.795c-0.503-0.531-0.755-1.266-0.755-2.207
		c0-0.949,0.233-1.703,0.701-2.262c0.467-0.559,1.095-0.838,1.882-0.838c0.738,0,1.321,0.242,1.751,0.727
		c0.43,0.486,0.645,1.127,0.645,1.922v0.563h-4.055c0.018,0.691,0.192,1.217,0.523,1.574c0.332,0.357,0.798,0.537,1.399,0.537
		c0.634,0,1.26-0.133,1.88-0.396v0.795c-0.315,0.135-0.613,0.232-0.895,0.291C140.86,52.649,140.521,52.678,140.123,52.678z
		 M139.881,47.323c-0.473,0-0.85,0.154-1.13,0.463c-0.281,0.307-0.447,0.732-0.497,1.277h3.078c0-0.563-0.125-0.992-0.376-1.291
		S140.347,47.323,139.881,47.323z"/>
	<path fill="#555555" d="M151.473,52.571l-1.08-3.453c-0.068-0.213-0.195-0.691-0.381-1.439h-0.043
		c-0.143,0.625-0.269,1.109-0.376,1.449l-1.112,3.443h-1.031l-1.606-5.887h0.935c0.379,1.479,0.668,2.605,0.868,3.379
		c0.198,0.773,0.312,1.293,0.341,1.563h0.043c0.04-0.205,0.103-0.469,0.19-0.793c0.088-0.324,0.164-0.58,0.229-0.77l1.08-3.379
		h0.966l1.053,3.379c0.201,0.615,0.337,1.133,0.408,1.551h0.043c0.015-0.129,0.053-0.326,0.116-0.596
		c0.063-0.268,0.436-1.713,1.12-4.334h0.924l-1.628,5.887H151.473z"/>
	<path fill="#555555" d="M157.708,52.678c-0.87,0-1.557-0.266-2.06-0.795c-0.504-0.531-0.755-1.266-0.755-2.207
		c0-0.949,0.233-1.703,0.701-2.262c0.467-0.559,1.095-0.838,1.882-0.838c0.738,0,1.322,0.242,1.752,0.727
		c0.43,0.486,0.645,1.127,0.645,1.922v0.563h-4.056c0.019,0.691,0.192,1.217,0.523,1.574s0.798,0.537,1.399,0.537
		c0.634,0,1.26-0.133,1.88-0.396v0.795c-0.315,0.135-0.613,0.232-0.895,0.291C158.445,52.649,158.105,52.678,157.708,52.678z
		 M157.467,47.323c-0.473,0-0.85,0.154-1.131,0.463c-0.281,0.307-0.447,0.732-0.497,1.277h3.077c0-0.563-0.125-0.992-0.375-1.291
		C158.29,47.473,157.932,47.323,157.467,47.323z"/>
	<path fill="#555555" d="M166.989,46.586c0.773,0,1.374,0.264,1.802,0.793c0.428,0.527,0.643,1.275,0.643,2.242
		s-0.217,1.719-0.647,2.254c-0.432,0.535-1.03,0.803-1.797,0.803c-0.384,0-0.733-0.07-1.05-0.213
		c-0.317-0.141-0.583-0.359-0.798-0.652h-0.064l-0.188,0.758h-0.639v-8.357h0.892v2.029c0,0.455-0.015,0.863-0.043,1.225h0.043
		C165.557,46.881,166.173,46.586,166.989,46.586z M166.86,47.334c-0.608,0-1.048,0.174-1.315,0.523
		c-0.27,0.348-0.403,0.938-0.403,1.764c0,0.828,0.138,1.418,0.413,1.775c0.276,0.355,0.719,0.535,1.327,0.535
		c0.548,0,0.956-0.201,1.225-0.6c0.269-0.4,0.403-0.973,0.403-1.721c0-0.768-0.135-1.338-0.403-1.715
		C167.838,47.522,167.422,47.334,166.86,47.334z"/>
	<path fill="#555555" d="M173.478,52.678c-0.87,0-1.557-0.266-2.06-0.795c-0.504-0.531-0.755-1.266-0.755-2.207
		c0-0.949,0.233-1.703,0.701-2.262c0.467-0.559,1.095-0.838,1.882-0.838c0.738,0,1.322,0.242,1.752,0.727
		c0.43,0.486,0.645,1.127,0.645,1.922v0.563h-4.056c0.019,0.691,0.192,1.217,0.523,1.574s0.798,0.537,1.399,0.537
		c0.634,0,1.26-0.133,1.88-0.396v0.795c-0.315,0.135-0.613,0.232-0.895,0.291C174.215,52.649,173.875,52.678,173.478,52.678z
		 M173.236,47.323c-0.473,0-0.85,0.154-1.131,0.463c-0.281,0.307-0.447,0.732-0.497,1.277h3.077c0-0.563-0.125-0.992-0.375-1.291
		C174.06,47.473,173.701,47.323,173.236,47.323z"/>
	<path fill="#555555" d="M181.19,52.571v-3.809c0-0.48-0.109-0.838-0.327-1.074c-0.219-0.236-0.561-0.354-1.026-0.354
		c-0.62,0-1.071,0.168-1.356,0.504c-0.284,0.336-0.427,0.889-0.427,1.654v3.078h-0.892v-8.357h0.892v2.529
		c0,0.305-0.015,0.557-0.043,0.758h0.054c0.176-0.283,0.426-0.506,0.749-0.67c0.324-0.162,0.694-0.244,1.109-0.244
		c0.72,0,1.26,0.172,1.619,0.514c0.36,0.342,0.54,0.885,0.54,1.631v3.84H181.19z"/>
	<path fill="#555555" d="M188.994,49.622c0,0.959-0.241,1.709-0.725,2.248s-1.151,0.809-2.004,0.809
		c-0.525,0-0.993-0.123-1.401-0.371c-0.408-0.246-0.724-0.602-0.945-1.063c-0.222-0.463-0.333-1.004-0.333-1.623
		c0-0.959,0.24-1.707,0.72-2.242s1.146-0.803,1.998-0.803c0.823,0,1.478,0.273,1.963,0.822
		C188.752,47.946,188.994,48.688,188.994,49.622z M184.51,49.622c0,0.752,0.15,1.324,0.451,1.719s0.743,0.592,1.326,0.592
		c0.584,0,1.027-0.197,1.33-0.59c0.303-0.391,0.453-0.965,0.453-1.721c0-0.748-0.15-1.316-0.453-1.705s-0.75-0.582-1.34-0.582
		c-0.584,0-1.024,0.191-1.322,0.574C184.658,48.292,184.51,48.862,184.51,49.622z"/>
	<path fill="#555555" d="M191.449,52.571h-0.892v-8.357h0.892V52.571z"/>
	<path fill="#555555" d="M197.347,51.782h-0.048c-0.412,0.598-1.028,0.896-1.848,0.896c-0.771,0-1.369-0.264-1.797-0.789
		c-0.428-0.527-0.643-1.275-0.643-2.246s0.215-1.725,0.645-2.262s1.028-0.805,1.795-0.805c0.798,0,1.41,0.289,1.836,0.869h0.07
		l-0.037-0.424l-0.021-0.414v-2.395h0.891v8.357h-0.725L197.347,51.782z M195.563,51.932c0.608,0,1.05-0.166,1.324-0.498
		c0.273-0.33,0.411-0.865,0.411-1.604v-0.188c0-0.834-0.139-1.43-0.417-1.785c-0.277-0.357-0.72-0.535-1.329-0.535
		c-0.523,0-0.923,0.203-1.2,0.609c-0.278,0.406-0.417,0.98-0.417,1.723c0,0.752,0.139,1.318,0.414,1.701
		S195.029,51.932,195.563,51.932z"/>
	<path fill="#555555" d="M204.84,51.942c0.157,0,0.309-0.012,0.456-0.035s0.263-0.047,0.349-0.072v0.682
		c-0.096,0.047-0.238,0.086-0.427,0.115c-0.188,0.031-0.356,0.047-0.507,0.047c-1.139,0-1.709-0.6-1.709-1.799v-3.502h-0.843v-0.43
		l0.843-0.371l0.377-1.258h0.516v1.365h1.707v0.693h-1.707v3.463c0,0.355,0.084,0.627,0.252,0.816S204.546,51.942,204.84,51.942z"/>
	<path fill="#555555" d="M210.85,52.571v-3.809c0-0.48-0.109-0.838-0.328-1.074c-0.218-0.236-0.561-0.354-1.025-0.354
		c-0.619,0-1.071,0.168-1.356,0.504c-0.284,0.336-0.427,0.889-0.427,1.654v3.078h-0.892v-8.357h0.892v2.529
		c0,0.305-0.014,0.557-0.043,0.758h0.054c0.175-0.283,0.425-0.506,0.749-0.67c0.324-0.162,0.693-0.244,1.109-0.244
		c0.72,0,1.26,0.172,1.619,0.514c0.36,0.342,0.54,0.885,0.54,1.631v3.84H210.85z"/>
	<path fill="#555555" d="M216.06,52.678c-0.87,0-1.557-0.266-2.06-0.795c-0.504-0.531-0.755-1.266-0.755-2.207
		c0-0.949,0.233-1.703,0.701-2.262c0.467-0.559,1.095-0.838,1.882-0.838c0.738,0,1.322,0.242,1.752,0.727
		c0.43,0.486,0.645,1.127,0.645,1.922v0.563h-4.056c0.019,0.691,0.192,1.217,0.523,1.574s0.798,0.537,1.399,0.537
		c0.634,0,1.26-0.133,1.88-0.396v0.795c-0.315,0.135-0.613,0.232-0.895,0.291C216.797,52.649,216.457,52.678,216.06,52.678z
		 M215.818,47.323c-0.473,0-0.85,0.154-1.131,0.463c-0.281,0.307-0.447,0.732-0.497,1.277h3.077c0-0.563-0.125-0.992-0.375-1.291
		C216.642,47.473,216.283,47.323,215.818,47.323z"/>
	<path fill="#555555" d="M226.398,50.965c0,0.547-0.203,0.969-0.611,1.268c-0.408,0.297-0.981,0.445-1.719,0.445
		c-0.781,0-1.39-0.123-1.826-0.371v-0.826c0.282,0.143,0.586,0.256,0.91,0.338s0.637,0.123,0.938,0.123
		c0.465,0,0.823-0.074,1.074-0.223c0.25-0.148,0.375-0.375,0.375-0.68c0-0.229-0.099-0.426-0.298-0.588
		c-0.198-0.164-0.586-0.355-1.163-0.578c-0.547-0.203-0.937-0.381-1.168-0.533c-0.23-0.152-0.402-0.326-0.516-0.52
		c-0.112-0.193-0.169-0.424-0.169-0.691c0-0.48,0.195-0.859,0.585-1.137c0.391-0.277,0.926-0.416,1.606-0.416
		c0.634,0,1.253,0.129,1.858,0.387l-0.316,0.725c-0.592-0.244-1.127-0.365-1.606-0.365c-0.423,0-0.741,0.066-0.956,0.199
		s-0.322,0.314-0.322,0.547c0,0.158,0.04,0.293,0.121,0.404c0.08,0.109,0.21,0.215,0.389,0.316c0.18,0.1,0.523,0.244,1.031,0.436
		c0.699,0.254,1.17,0.51,1.416,0.768C226.276,50.25,226.398,50.575,226.398,50.965z"/>
	<path fill="#555555" d="M228.73,49.557c0.153-0.219,0.389-0.504,0.703-0.859l1.901-2.014h1.058l-2.385,2.508l2.552,3.379h-1.079
		l-2.079-2.783l-0.671,0.58v2.203h-0.881v-8.357h0.881v4.432c0,0.195-0.015,0.5-0.043,0.912H228.73z"/>
	<path fill="#555555" d="M232.688,46.684h0.956l1.289,3.357c0.283,0.766,0.459,1.318,0.526,1.658h0.043
		c0.046-0.182,0.144-0.494,0.293-0.938c0.148-0.441,0.634-1.801,1.458-4.078h0.956l-2.53,6.703c-0.25,0.662-0.543,1.133-0.878,1.41
		s-0.745,0.416-1.232,0.416c-0.272,0-0.54-0.031-0.806-0.092v-0.715c0.197,0.043,0.417,0.064,0.66,0.064
		c0.613,0,1.05-0.344,1.311-1.031l0.328-0.838L232.688,46.684z"/>
	<path fill="#555555" d="M239.037,52c0-0.24,0.055-0.422,0.164-0.545s0.266-0.186,0.47-0.186c0.208,0,0.37,0.063,0.486,0.186
		s0.175,0.305,0.175,0.545c0,0.232-0.06,0.412-0.178,0.537s-0.279,0.189-0.483,0.189c-0.183,0-0.334-0.057-0.454-0.17
		C239.098,52.444,239.037,52.258,239.037,52z"/>
</g>
</svg>
