<?xml version="1.0" encoding="utf-8"?>
<!-- Generator: Adobe Illustrator 21.0.0, SVG Export Plug-In . SVG Version: 6.00 Build 0)  -->
<svg version="1.1" id="Слой_1" xmlns="http://www.w3.org/2000/svg" xmlns:xlink="http://www.w3.org/1999/xlink" x="0px" y="0px"
	 viewBox="0 0 593.3 105.5" style="enable-background:new 0 0 593.3 105.5;" xml:space="preserve">
<style type="text/css">
	.st0{opacity:0.5;fill:#DDDDDD;enable-background:new    ;}
	.st1{fill:#FFFFFF;}
	.st2{opacity:0.5;}
	.st3{fill:#DDDDDD;}
</style>
<title>eth</title>
<g>
	<g id="Layer_2">
		<g id="Layer_1-2">
			<path class="st0" d="M11.9,83.4l-1.4-0.1c15.9,23.2,47.7,29.1,70.9,13.2c17.1-11.7,25.4-32.6,21-52.9
				C80.2,70.5,46.6,85.3,11.9,83.4z"/>
			<path class="st1" d="M0,51C0,61.3,3.1,71.4,9,79.8l1.4,0.1c4.2,0.2,8.4,0.2,12.7-0.1V50.4c0-3.6,2.9-6.5,6.5-6.5h3.1
				c3.6,0,6.5,2.9,6.5,6.4c0,0,0,0,0,0v27.2c1.3-0.3,2.7-0.6,4-0.9V38.9c0-3.8,3.1-6.9,6.9-6.9h2.1c3.8,0,6.9,3.1,6.9,6.9
				c0,0,0,0,0,0v32.4c1.7-0.7,3.3-1.5,5-2.3V30.6c0-4.2,3.4-7.6,7.6-7.6l0,0h0.8c4.2,0,7.6,3.4,7.6,7.6v29
				c7.8-5.5,14.8-12.1,20.8-19.4c-6-27.5-33.2-45-60.7-39C16.7,6.3,0,27,0,51"/>
			<path class="st1" d="M119.3,20.3h20.4v5.9H126V33h12.5V39H126v7.2h14V52h-20.7V20.3z"/>
			<path class="st1" d="M173.1,26.2H163V52h-6.7V26.2h-10v-5.9h26.8L173.1,26.2z"/>
			<path class="st1" d="M199.7,38.9H187V52h-6.7V20.3h6.7V33h12.7V20.3h6.7V52h-6.7L199.7,38.9z"/>
			<path class="st1" d="M216,20.3h20.4v5.9h-13.7V33h12.5V39h-12.5v7.2h14V52H216V20.3z"/>
			<path class="st1" d="M245.3,20.6c0.7-0.1,1.5-0.2,2.4-0.3s1.7-0.2,2.6-0.3c0.9-0.1,1.7-0.1,2.6-0.1c0.8,0,1.6,0,2.3,0
				c1.6,0,3.2,0.1,4.7,0.4c1.5,0.2,2.9,0.7,4.2,1.4c1.2,0.6,2.2,1.6,3,2.7c0.8,1.3,1.2,2.8,1.1,4.4c0.1,2.3-0.6,4.5-1.9,6.4
				c-1.3,1.7-3.2,2.9-5.3,3.4l2.4,1.4l7.9,12h-7.8l-7.9-12.3l-3.6-0.6V52h-6.7L245.3,20.6z M255.6,25.7h-2c-0.5,0-1,0.1-1.6,0.2v8.7
				h2.9c1.6,0.1,3.1-0.3,4.5-1.1c1.1-0.9,1.8-2.3,1.6-3.7c0.1-1.2-0.5-2.3-1.4-3C258.4,26,257,25.6,255.6,25.7z"/>
			<path class="st1" d="M293.4,43.3c0-0.9-0.4-1.7-1.2-2.2c-0.9-0.6-1.9-1.1-2.9-1.5c-1.2-0.5-2.4-0.9-3.8-1.4
				c-1.3-0.4-2.6-1-3.8-1.8c-1.2-0.7-2.1-1.7-2.9-2.8c-0.8-1.3-1.3-2.9-1.2-4.5c0-1.4,0.3-2.8,0.8-4.1c0.5-1.2,1.3-2.2,2.4-2.9
				c1.1-0.8,2.3-1.4,3.7-1.7c1.5-0.4,3.1-0.6,4.7-0.6c1.9,0,3.8,0.2,5.7,0.5c1.5,0.3,3,0.8,4.4,1.5l-2.1,5.6
				c-0.4-0.3-0.9-0.5-1.4-0.7c-0.6-0.2-1.3-0.4-1.9-0.6c-0.7-0.2-1.5-0.3-2.3-0.4c-0.8-0.1-1.7-0.2-2.5-0.2
				c-1.2-0.1-2.4,0.2-3.5,0.8c-0.8,0.4-1.3,1.3-1.3,2.2c0,0.9,0.4,1.7,1.2,2.2c0.9,0.6,1.9,1.1,2.9,1.5c1.2,0.5,2.4,0.9,3.8,1.4
				c1.3,0.5,2.6,1.1,3.8,1.8c1.1,0.7,2.1,1.7,2.9,2.8c0.8,1.3,1.2,2.8,1.2,4.3c0,1.6-0.3,3.1-0.9,4.5c-0.6,1.2-1.5,2.3-2.6,3.2
				c-1.2,0.9-2.6,1.5-4,1.8c-1.7,0.4-3.4,0.6-5.1,0.6c-1.2,0-2.3-0.1-3.5-0.2c-1.1-0.1-2.1-0.3-3.1-0.5c-0.8-0.2-1.7-0.4-2.5-0.6
				c-0.6-0.2-1.2-0.4-1.7-0.7l2.3-5.6c0.4,0.2,0.9,0.4,1.4,0.6c0.6,0.2,1.3,0.4,2,0.6c0.8,0.2,1.5,0.4,2.3,0.5
				c0.8,0.1,1.7,0.2,2.5,0.2c1.6,0.1,3.1-0.2,4.5-0.9C292.9,45.5,293.5,44.4,293.4,43.3z"/>
			<path class="st1" d="M331.6,50.6c-1.2,0.8-2.5,1.3-3.9,1.5c-1.6,0.3-3.3,0.5-5,0.5c-2,0-3.9-0.3-5.8-0.9
				c-1.8-0.6-3.5-1.6-4.9-2.9c-1.5-1.4-2.7-3.2-3.4-5.1c-0.9-2.4-1.3-5-1.3-7.6c-0.1-2.7,0.4-5.3,1.5-7.8c0.9-1.9,2.1-3.7,3.7-5.1
				c1.5-1.3,3.2-2.2,5-2.8c1.8-0.6,3.6-0.9,5.4-0.9c1.7,0,3.3,0.1,5,0.4c1.1,0.2,2.2,0.5,3.3,0.9l-1.3,5.6c-0.8-0.4-1.7-0.6-2.6-0.7
				c-1.3-0.2-2.5-0.2-3.8-0.2c-1.3,0-2.5,0.2-3.7,0.7c-1.1,0.4-2.1,1.1-2.8,2c-0.8,1-1.5,2.1-1.8,3.3c-0.5,1.5-0.7,3.1-0.7,4.7
				c0,1.5,0.2,2.9,0.6,4.3c0.4,1.2,1,2.4,1.8,3.3c0.8,1,1.8,1.7,3,2.2c1.3,0.5,2.8,0.8,4.2,0.8c1.3,0,2.5-0.1,3.7-0.4
				c0.9-0.2,1.8-0.6,2.7-1L331.6,50.6z"/>
			<path class="st1" d="M354.4,45.2h-10.7l-2.6,6.8h-6.7l12.4-31.9h4.9L364.2,52h-7.1L354.4,45.2z M345.6,39.9h7.3l-2.5-6.6l-1.1-5
				H349l-1,5L345.6,39.9z"/>
			<path class="st1" d="M379.4,35.4l-2.7-4.8h-0.2l0.7,4.8V52h-6.3V20h4.9L388.8,37l2.6,4.6h0.3l-0.7-4.7V20.3h6.3v31.9h-4.9
				L379.4,35.4z"/>
			<g class="st2">
				<path class="st3" d="M128.7,70.2h-4.6V82h-1.9V70.2h-4.6v-1.7h11L128.7,70.2z"/>
				<path class="st3" d="M138.4,82v-5.6c0-0.5,0-1-0.1-1.4c-0.1-0.4-0.2-0.7-0.4-1c-0.2-0.3-0.4-0.5-0.8-0.6
					c-0.4-0.1-0.8-0.2-1.2-0.2c-0.3,0-0.7,0.1-1,0.2c-0.3,0.1-0.6,0.3-0.9,0.5c-0.6,0.4-1,1-1.1,1.7V82h-1.8V68.5h1.8v4.6h0.2
					c0.4-0.5,0.9-0.9,1.4-1.1c0.6-0.3,1.3-0.4,2-0.4c0.5,0,1.1,0.1,1.6,0.2c0.4,0.1,0.8,0.4,1.1,0.7c0.3,0.4,0.5,0.9,0.6,1.4
					c0.2,0.7,0.2,1.4,0.2,2.2v6L138.4,82z"/>
				<path class="st3" d="M152.2,81.1c-0.5,0.4-1.1,0.6-1.7,0.8c-0.7,0.2-1.4,0.3-2.2,0.3c-0.8,0-1.5-0.1-2.2-0.4
					c-0.6-0.2-1.1-0.6-1.5-1.1c-0.4-0.5-0.7-1.1-0.9-1.7c-0.2-0.7-0.3-1.5-0.3-2.2c-0.1-1.4,0.4-2.9,1.3-4c1-1,2.3-1.5,3.6-1.4
					c0.5,0,1,0.1,1.5,0.2c0.5,0.1,1,0.3,1.4,0.6c0.4,0.3,0.8,0.8,1,1.2c0.3,0.7,0.4,1.4,0.4,2.1c0,0.2,0,0.4,0,0.7
					c0,0.3,0,0.5-0.1,0.8h-7.2c-0.1,1,0.3,1.9,0.9,2.7c0.7,0.7,1.7,1,2.8,0.9c0.5,0,1-0.1,1.5-0.3c0.4-0.1,0.8-0.4,1.1-0.7
					L152.2,81.1z M150.9,75.9c0.1-0.8-0.1-1.6-0.6-2.2c-0.5-0.5-1.2-0.7-1.9-0.6c-0.8,0-1.5,0.2-2.1,0.6c-0.6,0.6-0.9,1.4-0.9,2.2
					H150.9z"/>
				<path class="st3" d="M162,68.5h8.1v1.7h-6.2v4.1h5.7V76h-5.7v4.3h6.3V82H162V68.5z"/>
				<path class="st3" d="M172.4,71.9h1.7v-2l1.8-0.5v2.5h3v1.5h-3v5.2c0,0.6,0.1,1.2,0.3,1.7c0.2,0.3,0.6,0.5,1.1,0.5
					c0.3,0,0.6,0,0.9-0.1c0.3-0.1,0.6-0.2,0.9-0.3l0.4,1.3c-0.4,0.2-0.9,0.3-1.3,0.4c-0.5,0.1-1,0.2-1.5,0.2
					c-0.7,0.1-1.4-0.2-1.9-0.7c-0.4-0.7-0.6-1.6-0.6-2.4v-5.8h-1.7L172.4,71.9z"/>
				<path class="st3" d="M189.1,82v-5.6c0-0.5,0-0.9-0.1-1.4c-0.1-0.4-0.2-0.7-0.4-1c-0.2-0.3-0.4-0.5-0.8-0.6
					c-0.4-0.1-0.8-0.2-1.2-0.2c-0.3,0-0.7,0.1-1,0.2c-0.3,0.1-0.6,0.3-0.9,0.5c-0.6,0.4-1,1-1.1,1.7V82h-1.8V68.5h1.8v4.6h0.2
					c0.4-0.5,0.9-0.9,1.4-1.1c0.6-0.3,1.3-0.4,2-0.4c0.5,0,1.1,0.1,1.6,0.2c0.4,0.1,0.8,0.4,1.1,0.7c0.3,0.4,0.5,0.9,0.6,1.4
					c0.2,0.7,0.2,1.4,0.2,2.2v6L189.1,82z"/>
				<path class="st3" d="M202.9,81.1c-0.5,0.4-1.1,0.6-1.7,0.8c-0.7,0.2-1.4,0.3-2.2,0.3c-0.8,0-1.5-0.1-2.2-0.4
					c-0.6-0.2-1.1-0.6-1.5-1.1c-0.4-0.5-0.7-1.1-0.9-1.7c-0.2-0.7-0.3-1.5-0.3-2.2c-0.1-1.4,0.4-2.9,1.3-4c1-1,2.3-1.5,3.6-1.4
					c0.5,0,1,0.1,1.5,0.2c0.5,0.1,1,0.3,1.4,0.6c0.4,0.3,0.8,0.8,1,1.2c0.3,0.7,0.4,1.4,0.4,2.1c0,0.2,0,0.4,0,0.7
					c0,0.3,0,0.5-0.1,0.8H196c-0.1,1,0.3,1.9,0.9,2.7c0.7,0.7,1.7,1,2.8,0.9c0.5,0,1-0.1,1.5-0.3c0.4-0.1,0.8-0.4,1.1-0.7
					L202.9,81.1z M201.6,75.9c0.1-0.8-0.1-1.6-0.6-2.2c-0.5-0.5-1.2-0.7-1.9-0.6c-0.8,0-1.5,0.2-2.1,0.6c-0.6,0.6-0.9,1.4-0.9,2.2
					H201.6z"/>
				<path class="st3" d="M212,73.5l-0.6-0.2c-0.2,0-0.4-0.1-0.6-0.1c-0.6,0-1.1,0.2-1.6,0.5c-0.4,0.3-0.6,0.8-0.7,1.3V82h-1.8V71.9
					h1.2l0.4,1.3h0.2c0.2-0.5,0.6-0.9,1-1.2c0.4-0.3,0.9-0.4,1.5-0.4c0.2,0,0.4,0,0.6,0c0.2,0,0.5,0.1,0.7,0.2L212,73.5z"/>
				<path class="st3" d="M222.7,81.1c-0.5,0.4-1.1,0.7-1.7,0.8c-0.7,0.2-1.4,0.3-2.2,0.3c-0.8,0-1.5-0.1-2.2-0.4
					c-0.6-0.2-1.1-0.6-1.5-1.1c-0.4-0.5-0.7-1.1-0.9-1.7c-0.2-0.7-0.3-1.5-0.3-2.2c-0.1-1.4,0.4-2.9,1.3-4c1-1,2.3-1.5,3.6-1.4
					c0.5,0,1,0.1,1.5,0.2c0.5,0.1,1,0.3,1.4,0.6c0.4,0.3,0.8,0.8,1,1.2c0.3,0.7,0.4,1.4,0.4,2.1c0,0.2,0,0.4,0,0.7
					c0,0.3,0,0.5-0.1,0.8h-7.2c-0.1,1,0.3,1.9,0.9,2.7c0.7,0.7,1.7,1,2.8,0.9c0.5,0,1-0.1,1.5-0.3c0.4-0.1,0.8-0.4,1.1-0.7
					L222.7,81.1z M221.3,75.9c0.1-0.8-0.1-1.6-0.6-2.2c-0.5-0.5-1.2-0.7-1.9-0.6c-0.8,0-1.5,0.2-2.1,0.6c-0.6,0.6-0.9,1.4-0.9,2.2
					H221.3z"/>
				<path class="st3" d="M228.2,71.9v5.6c0,0.5,0,1,0.1,1.4c0.1,0.4,0.2,0.7,0.4,1c0.2,0.3,0.4,0.5,0.7,0.6c0.3,0.2,0.7,0.2,1.1,0.2
					c0.7,0,1.4-0.2,1.9-0.7c0.5-0.4,0.9-1,1.1-1.6v-6.6h1.8v7.2c0,0.5,0,1,0.1,1.5c0,0.5,0.1,0.9,0.2,1.4h-1.2l-0.5-1.7h-0.2
					c-0.3,0.6-0.8,1.1-1.4,1.4c-0.7,0.4-1.4,0.6-2.2,0.5c-0.5,0-1-0.1-1.6-0.2c-0.4-0.1-0.8-0.4-1.1-0.7c-0.3-0.4-0.6-0.9-0.7-1.4
					c-0.2-0.7-0.2-1.4-0.2-2.1v-6L228.2,71.9z"/>
				<path class="st3" d="M245.8,82v-5.6c0-0.5,0-1-0.1-1.4c0-0.3-0.1-0.7-0.3-1c-0.1-0.3-0.4-0.5-0.6-0.6c-0.3-0.1-0.7-0.2-1.1-0.2
					c-0.6,0-1.2,0.2-1.7,0.6c-0.5,0.4-0.8,0.9-1,1.4V82h-1.8V71.9h1.2l0.4,1.3h0.2c0.4-0.5,0.9-0.9,1.4-1.2c0.6-0.3,1.3-0.5,2-0.5
					c0.6,0,1.2,0.1,1.7,0.4c0.5,0.4,0.9,0.9,1.1,1.5c0.4-0.6,0.9-1.1,1.5-1.4c0.6-0.4,1.3-0.5,2-0.5c0.5,0,1.1,0.1,1.6,0.2
					c0.4,0.1,0.8,0.4,1.1,0.7c0.3,0.4,0.5,0.9,0.6,1.4c0.1,0.7,0.2,1.5,0.2,2.2V82h-1.8v-5.8c0-0.4,0-0.9-0.1-1.3
					c0-0.3-0.2-0.6-0.3-0.9c-0.2-0.2-0.4-0.4-0.6-0.6c-0.3-0.1-0.7-0.2-1.1-0.2c-0.6,0-1.2,0.2-1.7,0.6c-0.5,0.5-0.8,1.1-0.9,1.7V82
					H245.8z"/>
				<path class="st3" d="M273.1,71.6c0,0.7-0.2,1.4-0.7,1.9c-0.2,0.3-0.5,0.6-0.9,0.8c-0.4,0.2-0.8,0.4-1.2,0.5v0.1
					c0.4,0.1,0.8,0.2,1.2,0.3c0.4,0.2,0.7,0.4,1,0.6c0.3,0.3,0.5,0.6,0.7,1c0.2,0.4,0.3,0.9,0.3,1.4c0,0.6-0.2,1.3-0.5,1.8
					c-0.3,0.5-0.8,0.9-1.3,1.3c-0.5,0.3-1.2,0.6-1.8,0.7c-0.7,0.2-1.3,0.2-2,0.2h-0.9h-1L265,82c-0.3,0-0.7-0.1-1-0.1V68.6
					c0.5-0.1,1.1-0.2,1.9-0.2s1.5-0.1,2.3-0.1c0.6,0,1.1,0,1.7,0.1c0.6,0.1,1.1,0.3,1.6,0.5c0.5,0.2,0.9,0.6,1.2,1
					C272.9,70.5,273.1,71,273.1,71.6z M267,74.4h0.8l0.8-0.1c0.3-0.1,0.6-0.2,0.9-0.3c0.3-0.1,0.5-0.3,0.8-0.5
					c0.2-0.2,0.4-0.4,0.5-0.7c0.1-0.3,0.2-0.6,0.2-0.8c0-0.4-0.1-0.7-0.3-1.1c-0.2-0.3-0.4-0.5-0.7-0.6c-0.3-0.2-0.7-0.3-1-0.3
					c-0.4-0.1-0.7-0.1-1.1-0.1c-0.4,0-0.9,0-1.2,0c-0.4,0-0.6,0-0.7,0v4.4H267z M265.9,80.4c0.1,0,0.3,0.1,0.4,0.1h0.6h0.6h0.6
					c0.4,0,0.8,0,1.3-0.1c0.4-0.1,0.7-0.2,1.1-0.4c0.3-0.2,0.6-0.4,0.7-0.7c0.2-0.3,0.3-0.7,0.3-1.1c0-0.4-0.1-0.9-0.3-1.2
					c-0.2-0.3-0.5-0.5-0.9-0.7c-0.4-0.2-0.8-0.3-1.2-0.3c-0.4,0-0.9-0.1-1.3-0.1H266L265.9,80.4z"/>
				<path class="st3" d="M278.8,79.3c0,0.4,0.1,0.8,0.3,1.1c0.2,0.2,0.5,0.3,0.8,0.3c0.2,0,0.4,0,0.6,0c0.2,0,0.5-0.1,0.7-0.2
					l0.2,1.3c-0.1,0-0.3,0.1-0.4,0.1l-0.6,0.1l-0.6,0.1h-0.5c-0.6,0-1.2-0.2-1.7-0.5c-0.5-0.4-0.7-1.1-0.7-1.7V68.5h1.8L278.8,79.3z
					"/>
				<path class="st3" d="M283.2,76.9c0-0.8,0.1-1.5,0.3-2.2c0.2-0.6,0.5-1.2,1-1.7c0.4-0.4,0.9-0.8,1.5-1c0.7-0.3,1.4-0.4,2.1-0.4
					c0.7,0,1.5,0.1,2.2,0.4c0.6,0.3,1.1,0.6,1.5,1.1c0.4,0.5,0.7,1.1,0.9,1.7c0.2,0.7,0.3,1.4,0.3,2.1c0,0.8-0.1,1.5-0.3,2.2
					c-0.2,0.6-0.6,1.2-1,1.7c-0.4,0.5-1,0.8-1.5,1.1c-0.7,0.3-1.4,0.4-2.1,0.4c-0.8,0-1.5-0.1-2.2-0.4c-0.6-0.3-1.1-0.6-1.5-1.1
					c-0.4-0.5-0.7-1.1-0.9-1.7C283.2,78.4,283.1,77.7,283.2,76.9z M285.1,76.9c0,0.5,0.1,0.9,0.2,1.4c0.1,0.4,0.3,0.8,0.5,1.2
					c0.2,0.4,0.6,0.7,0.9,0.9c0.4,0.2,0.9,0.3,1.4,0.3c2,0,3-1.3,3-3.8c0-0.5-0.1-1-0.2-1.4c-0.1-0.4-0.3-0.8-0.5-1.2
					c-1-1.3-2.9-1.6-4.2-0.5c-0.1,0.1-0.2,0.2-0.3,0.3C285.3,74.9,285,75.9,285.1,76.9z"/>
				<path class="st3" d="M303.9,81.3c-0.5,0.3-1,0.6-1.6,0.7c-0.6,0.2-1.3,0.2-1.9,0.2c-0.7,0-1.5-0.1-2.2-0.4
					c-0.6-0.2-1.1-0.6-1.5-1.1c-0.4-0.5-0.7-1.1-0.8-1.7c-0.2-0.7-0.3-1.4-0.3-2.2c-0.1-1.4,0.3-2.8,1.2-3.9c0.9-1,2.2-1.5,3.6-1.4
					c0.6,0,1.2,0.1,1.8,0.2c0.5,0.1,0.9,0.3,1.4,0.4l-0.5,1.4c-0.4-0.2-0.7-0.3-1.1-0.4c-0.4-0.1-0.9-0.2-1.3-0.2
					c-2.1,0-3.1,1.3-3.1,3.8c0,0.5,0.1,1,0.2,1.4c0.1,0.4,0.3,0.8,0.5,1.2c0.3,0.4,0.6,0.7,1,0.9c0.5,0.2,1,0.3,1.5,0.3
					c0.5,0,1-0.1,1.4-0.2c0.4-0.1,0.7-0.3,1-0.5L303.9,81.3z"/>
				<path class="st3" d="M309.8,77.4h-1.1V82H307V68.5h1.8v8l1-0.3l3.4-4.3h2.1l-3.2,3.9l0,0l-1.1,0.8l1.2,0.9l3.6,4.5h-2.2
					L309.8,77.4z"/>
				<path class="st3" d="M323.6,68.5h8.1v1.7h-6.2v4.1h5.7V76h-5.7v4.3h6.3V82h-8.3V68.5z"/>
				<path class="st3" d="M338.1,76.8l-3.6-4.9h2.3l2,2.6l0.7,1.4l0.8-1.4l2-2.6h2l-3.7,4.8l2,2.6c0.7,0.9,1.3,1.8,2,2.6h-2.2
					l-2.3-2.9l-0.8-1.4l-0.8,1.4l-2.2,2.9h-2L338.1,76.8z"/>
				<path class="st3" d="M347.2,71.9h1.2l0.4,1.3h0.2c0.3-0.5,0.8-0.9,1.3-1.2c1.7-0.8,3.7-0.4,5.1,0.8c0.8,1.1,1.2,2.5,1.1,3.9
					c0,0.8-0.1,1.6-0.4,2.3c-0.2,0.6-0.5,1.2-1,1.8c-0.4,0.5-1,0.9-1.6,1.1c-0.7,0.3-1.4,0.4-2.1,0.4c-0.3,0-0.5,0-0.7,0
					c-0.2,0-0.4-0.1-0.6-0.1l-0.5-0.2l-0.6-0.2v4.1h-1.8L347.2,71.9z M351.7,73.1c-0.7,0-1.3,0.2-1.8,0.6c-0.5,0.5-0.8,1.1-0.9,1.8
					v4.7c0.3,0.2,0.6,0.4,1,0.5c0.4,0.1,0.9,0.2,1.3,0.2c0.9,0.1,1.8-0.3,2.4-1c0.6-0.9,0.9-1.9,0.9-3c0-0.9-0.2-1.8-0.6-2.6
					C353.4,73.4,352.5,73,351.7,73.1z"/>
				<path class="st3" d="M361.7,79.3c0,0.4,0.1,0.8,0.3,1.1c0.2,0.2,0.5,0.3,0.8,0.3c0.2,0,0.4,0,0.6,0c0.2,0,0.5-0.1,0.7-0.2
					l0.2,1.3c-0.1,0.1-0.3,0.1-0.5,0.1l-0.6,0.1l-0.6,0.1h-0.5c-0.6,0-1.2-0.2-1.7-0.5c-0.4-0.5-0.6-1.1-0.6-1.7V68.5h1.8
					L361.7,79.3z"/>
				<path class="st3" d="M366.1,76.9c0-0.8,0.1-1.5,0.3-2.2c0.2-0.6,0.5-1.2,1-1.7c0.4-0.4,0.9-0.8,1.5-1c0.7-0.3,1.4-0.4,2.1-0.4
					c0.7,0,1.5,0.1,2.2,0.4c0.6,0.3,1.1,0.6,1.5,1.1c0.4,0.5,0.7,1.1,0.9,1.7c0.2,0.7,0.3,1.4,0.3,2.1c0,0.8-0.1,1.5-0.3,2.2
					c-0.2,0.6-0.6,1.2-1,1.7c-0.4,0.5-1,0.8-1.5,1.1c-0.7,0.3-1.4,0.4-2.1,0.4c-0.8,0-1.5-0.1-2.2-0.4c-0.6-0.3-1.1-0.6-1.5-1.1
					c-0.4-0.5-0.7-1.1-0.9-1.7C366.2,78.4,366.1,77.7,366.1,76.9z M368,76.9c0,0.5,0.1,0.9,0.2,1.4c0.1,0.4,0.3,0.8,0.5,1.2
					c0.2,0.4,0.6,0.7,0.9,0.9c0.4,0.2,0.9,0.3,1.4,0.3c2,0,3-1.3,3-3.8c0-0.5-0.1-1-0.2-1.4c-0.1-0.4-0.3-0.8-0.5-1.2
					c-1-1.3-2.9-1.6-4.2-0.6c-0.1,0.1-0.3,0.2-0.4,0.3C368.2,74.8,367.9,75.9,368,76.9L368,76.9z"/>
				<path class="st3" d="M384.5,73.5l-0.6-0.2c-0.2,0-0.4-0.1-0.6-0.1c-0.6,0-1.1,0.2-1.6,0.5c-0.4,0.3-0.6,0.8-0.7,1.3V82h-1.8
					V71.9h1.2l0.4,1.3h0.2c0.2-0.5,0.6-0.9,1-1.2c0.4-0.3,0.9-0.4,1.5-0.4c0.2,0,0.4,0,0.6,0c0.2,0,0.5,0.1,0.7,0.2L384.5,73.5z"/>
				<path class="st3" d="M395.2,81.1c-0.5,0.4-1.1,0.6-1.7,0.8c-0.7,0.2-1.4,0.3-2.2,0.3c-0.8,0-1.5-0.1-2.2-0.4
					c-0.6-0.2-1.1-0.6-1.5-1.1c-0.4-0.5-0.7-1.1-0.9-1.7c-0.2-0.7-0.3-1.5-0.3-2.2c-0.1-1.4,0.4-2.9,1.3-4c1-1,2.3-1.5,3.6-1.4
					c0.5,0,1,0.1,1.5,0.2c0.5,0.1,1,0.3,1.4,0.6c0.4,0.3,0.8,0.8,1,1.2c0.3,0.7,0.4,1.4,0.4,2.1c0,0.2,0,0.4,0,0.7
					c0,0.3,0,0.5-0.1,0.8h-7.2c-0.1,1,0.3,1.9,0.9,2.7c0.7,0.7,1.7,1,2.8,0.9c0.5,0,1-0.1,1.5-0.3c0.4-0.1,0.8-0.4,1.1-0.7
					L395.2,81.1z M393.9,75.9c0.1-0.8-0.1-1.6-0.6-2.2c-0.5-0.5-1.2-0.7-1.9-0.6c-0.8,0-1.5,0.2-2.1,0.6c-0.6,0.6-0.9,1.4-0.9,2.2
					H393.9z"/>
			</g>
		</g>
	</g>
	<g>
		<path class="st1" d="M580.7,57h-1c-2.1,0-3.8,1.7-3.8,3.8v0.7V62v11.8c0,9.9-8,17.8-17.8,17.8h-33.5c-9.9,0-17.8-8-17.8-17.8V40.3
			c0-9.9,8-17.8,17.8-17.8h11.8h0.5h0.7c2.1,0,3.8-1.7,3.8-3.8v-1c0-2.1-1.7-3.8-3.8-3.8h-0.7h-0.5h-14.6
			c-13.1,0-23.8,10.7-23.8,23.8v38.8c0,13.1,10.7,23.8,23.8,23.8h38.8c13.1,0,23.8-10.7,23.8-23.8V62v-0.5v-0.7
			C584.5,58.7,582.8,57,580.7,57z"/>
		<path class="st1" d="M589.5,5.2h-1.2h-25.8c-2.1,0-3.8,1.7-3.8,3.8v1.2c0,2.1,1.7,3.8,3.8,3.8h15.9l-4.2,4.2l-6.9,6.9l-30.1,30.1
			c-0.1,0.1-0.2,0.2-0.3,0.4c-1.3,1.6-1.3,3.8,0,5.4v0.7h0.7c1.6,1.3,3.8,1.3,5.4,0c0.1-0.1,0.3-0.2,0.4-0.3l30.1-30.1l6.9-6.9
			l4.2-4.2v15.9c0,2.1,1.7,3.8,3.8,3.8h1.2c2.1,0,3.8-1.7,3.8-3.8V10.1V8.9C593.3,6.9,591.6,5.2,589.5,5.2z"/>
	</g>
</g>
</svg>
