<?xml version="1.0" encoding="utf-8"?>
<!-- Generator: Adobe Illustrator 21.0.0, SVG Export Plug-In . SVG Version: 6.00 Build 0)  -->
<svg version="1.1" id="Слой_1" xmlns="http://www.w3.org/2000/svg" xmlns:xlink="http://www.w3.org/1999/xlink" x="0px" y="0px"
	 viewBox="0 0 18 22.5" enable-background="new 0 0 18 22.5" xml:space="preserve">
<g>
	<g>
		<path fill="#4C92F3" d="M15.8,0H8.7H7.8L0,8.5v1.2v10.6c0,1.2,1,2.3,2.3,2.3h13.5c1.2,0,2.3-1,2.3-2.3v-18C18,1,17,0,15.8,0z
			 M5.8,5.1l0.8-0.9l0,3.1c0,0.2-0.1,0.3-0.3,0.3H3.5L5.8,5.1z M16,20.3c0,0.1-0.1,0.3-0.3,0.3H2.3c-0.1,0-0.3-0.1-0.3-0.3V9.6h4.4
			c1.3,0,2.3-1,2.3-2.3l0-5.3h7.1C15.9,2,16,2.1,16,2.3V20.3z"/>
		<path fill="#4C92F3" d="M13.3,9.2h-2.5c-0.6,0-1,0.4-1,1s0.4,1,1,1h2.5c0.6,0,1-0.4,1-1S13.8,9.2,13.3,9.2z"/>
		<path fill="#4C92F3" d="M13.3,12H4.8c-0.6,0-1,0.4-1,1s0.4,1,1,1h8.5c0.6,0,1-0.4,1-1S13.8,12,13.3,12z"/>
		<path fill="#4C92F3" d="M13.3,14.8H4.8c-0.6,0-1,0.4-1,1s0.4,1,1,1h8.5c0.6,0,1-0.4,1-1S13.8,14.8,13.3,14.8z"/>
	</g>
</g>
</svg>
