<?xml version="1.0" encoding="utf-8"?>
<!-- Generator: Adobe Illustrator 21.0.0, SVG Export Plug-In . SVG Version: 6.00 Build 0)  -->
<svg version="1.1" id="Layer_1" xmlns="http://www.w3.org/2000/svg" xmlns:xlink="http://www.w3.org/1999/xlink" x="0px" y="0px"
	 viewBox="0 0 810 160" style="enable-background:new 0 0 810 160;" xml:space="preserve">
<style type="text/css">
	.st0{fill:#FFFFFF;}
	.st1{fill:url(#SVGID_1_);}
	.st2{fill:url(#SVGID_2_);}
	.st3{fill:url(#SVGID_3_);}
	.st4{fill:url(#SVGID_4_);}
</style>
<g>
	<path class="st0" d="M216.8,35.7V20.8c0-2.8,0.8-4.8,2.5-6c1.4-1.1,3.6-1.6,6.5-1.6H237v4.4h-13c-0.8,0-1.5,0.4-2,1.1
		c-0.5,0.7-0.8,1.5-0.8,2.3v5.2H237v4.5h-15.7v6c0,0.3,0.1,0.6,0.2,0.9c0.5,0.9,1.1,1.5,2,1.7c0.4,0.1,1.4,0.2,2.7,0.2h10.7v4.4H225
		C219.6,43.9,216.8,41.2,216.8,35.7L216.8,35.7z M189.2,43.9V13.2h4.4v13.2H207V13.2h4.5v30.8H207v-13h-13.4v13H189.2z M168.4,17.6
		v-4.4h17.7v4.4h-6.6v26.3h-4.5V17.6H168.4z"/>
	<path class="st0" d="M723.8,148.9v-19.4h53.6c0.4,0,0.8-0.1,1.2-0.2h1c2.8,0,5.3-1.4,7.6-3.5c2.2-2.1,3.3-4.6,3.3-7.4v-17.1
		c0-6.3-4-9.9-12.1-10.9c-0.4-0.1-1.1-0.2-2.1-0.2h-20.2c-8.4,0-15.8-2.4-22.1-7.1c-6.7-5.1-10-11.8-10-20.2V45.7
		c0-14.1,5.5-23.7,16.5-28.8c3.6-1.6,8.8-2.5,15.8-2.5h49.1v19.4h-51.1c-0.4,0.2-0.7,0.2-0.9,0.2c-6.7,1-10,4.7-10,10.9v13.3
		c0,9.3,4.2,14,12.7,14h23.6c5.9,0,11.4,1.5,16.5,4.4c9.2,5.3,13.8,12.5,13.8,21.5v21.1c0,10.2-4.2,18.3-12.5,24
		c-5.3,3.7-11.3,5.6-17.8,5.6H723.8z M609.5,148.9v-19.4h53.6c0.4,0,0.8-0.1,1.1-0.2h1c2.8,0,5.4-1.4,7.6-3.5
		c2.2-2.1,3.3-4.6,3.3-7.4v-17.1c0-6.3-4-9.8-12.1-10.9c-0.4-0.1-1.1-0.2-2.1-0.2h-20.2c-8.4,0-15.8-2.4-22.1-7.1
		c-6.7-5.1-10-11.8-10-20.2V45.7c0-14.1,5.5-23.7,16.5-28.8c3.5-1.7,8.8-2.5,15.7-2.5h49.1v19.4h-51c-0.4,0.2-0.7,0.2-1,0.2
		c-6.7,1-10,4.7-10,10.9v13.3c0,9.3,4.2,14,12.7,14h23.6c5.9,0,11.4,1.5,16.5,4.4c9.2,5.3,13.9,12.5,13.9,21.5v21.1
		c0,10.2-4.2,18.3-12.5,24c-5.4,3.7-11.4,5.6-17.9,5.6H609.5z M477.5,14.5h23l34.6,55.9l35.5-55.9h23l-48.8,76.8v57.6h-19.6
		l-0.2-57.4L477.5,14.5z M303.5,101.4L281,40.2l-21.7,61.3H303.5z M221.1,148.9l44.8-121.9c3.4-9.3,8.4-14.1,14.9-14.1
		c7.4,0,12.9,4.7,16.3,14.1l44.3,121.9h-20.7l-10.2-28h-58.4l-10.4,28H221.1z M446.1,80.4c0.6,0.3,10.1,3,12.9,17
		c0.2,0.9,0.4,2.3,0.4,4.2v12.5c0,23.2-10.3,34.7-30.9,34.8c-1.7,0-7.2,0.2-16.5,0.2c-11,0-27.5,0-49.4-0.2c0-44.8,0-89.6,0-134.4
		h65.3c12.8,0,21.7,6.3,26.7,18.8c1.3,3.2,1.9,6.4,1.9,9.6V59C456.4,68.6,453,75.7,446.1,80.4L446.1,80.4z M423.8,72.3
		c4,0,7.2-1.2,9.6-3.5c2.4-2.4,3.6-5.6,3.6-9.5V46.3c0-6.5-3.8-10.5-11.3-12.1c-0.8-0.2-1.5-0.4-2.3-0.4h-41.5v38.4H423.8z
		 M381.6,129.5h44.2c5,0,8.9-2.4,11.7-7.3c1.4-2.5,2.1-4.7,2.1-6.9v-12.7c0-4-2.4-7.1-7.3-9.4c-1.9-0.9-4-1.4-6.2-1.4h-44.6V129.5z"
		/>
	<g>
		<linearGradient id="SVGID_1_" gradientUnits="userSpaceOnUse" x1="42.4312" y1="60.3608" x2="155.2878" y2="121.1033">
			<stop  offset="0" style="stop-color:#2D9CFF"/>
			<stop  offset="0.5" style="stop-color:#474A51"/>
			<stop  offset="1" style="stop-color:#0047AB"/>
		</linearGradient>
		<path class="st1" d="M150,125.3L89.8,21l-0.2-0.3l0,0c-0.5-0.8-1.1-1.6-1.7-2.3c-0.6-0.7-1.3-1.3-1.9-1.8c-0.7-0.5-1.4-1-2.2-1.5
			L24.3,118.1h9l51.8-89.7l65,112.6c0.5-0.9,1-1.9,1.3-2.9c0.4-1.3,0.7-2.6,0.7-3.9C152.3,131.2,151.7,128.2,150,125.3z"/>
		<linearGradient id="SVGID_2_" gradientUnits="userSpaceOnUse" x1="28.684" y1="85.9025" x2="141.5407" y2="146.6449">
			<stop  offset="0" style="stop-color:#2D9CFF"/>
			<stop  offset="0.5" style="stop-color:#474A51"/>
			<stop  offset="1" style="stop-color:#0047AB"/>
		</linearGradient>
		<path class="st2" d="M85.1,44l-4.5,7.8l51.7,89.5H2.2c0.5,0.9,1.2,1.8,1.9,2.6c0.9,1,1.9,1.8,3,2.6c2.4,1.6,5.4,2.6,8.7,2.6
			c0,0,120.8,0,120.9,0c1,0,1.9-0.1,2.8-0.3c0.9-0.2,1.7-0.4,2.6-0.8c0.8-0.3,1.6-0.7,2.3-1.1L85.1,44z"/>
		<linearGradient id="SVGID_3_" gradientUnits="userSpaceOnUse" x1="36.0111" y1="72.289" x2="148.8678" y2="133.0314">
			<stop  offset="0" style="stop-color:#2D9CFF"/>
			<stop  offset="0.5" style="stop-color:#474A51"/>
			<stop  offset="1" style="stop-color:#0047AB"/>
		</linearGradient>
		<path class="st3" d="M118.8,133.6l-4.5-7.7H10.8L75.9,13.1c-1.1,0-2.1,0.1-3.2,0.4c-1.3,0.3-2.6,0.7-3.8,1.3
			c-2.6,1.3-5,3.4-6.6,6.2L2.1,125.3c-0.1,0.2-0.2,0.4-0.3,0.5c-0.4,0.8-0.8,1.7-1.1,2.6c-0.3,0.9-0.5,1.7-0.6,2.6
			C0,131.9,0,132.7,0,133.6H118.8z"/>
		<linearGradient id="SVGID_4_" gradientUnits="userSpaceOnUse" x1="34.2952" y1="75.4772" x2="147.1519" y2="136.2196">
			<stop  offset="0" style="stop-color:#2D9CFF"/>
			<stop  offset="0.5" style="stop-color:#474A51"/>
			<stop  offset="1" style="stop-color:#0047AB"/>
		</linearGradient>
		<path class="st4" d="M109.9,118.1L76.1,59.6l-33.8,58.5H109.9z M76.1,75.2l20.3,35.2H55.7L76.1,75.2z"/>
	</g>
</g>
</svg>
