<?xml version="1.0" encoding="utf-8"?>
<!-- Generator: Adobe Illustrator 21.0.0, SVG Export Plug-In . SVG Version: 6.00 Build 0)  -->
<svg version="1.1" id="Layer_1" xmlns="http://www.w3.org/2000/svg" xmlns:xlink="http://www.w3.org/1999/xlink" x="0px" y="0px"
	 viewBox="0 0 100 100" style="enable-background:new 0 0 100 100;" xml:space="preserve">
<style type="text/css">
	.st0{fill:#888888;}
	.st1{fill-rule:evenodd;clip-rule:evenodd;fill:#888888;}
</style>
<path class="st0" d="M1.8,48.2l23,8.6l8.9,28.7c0.6,1.8,2.8,2.5,4.3,1.3l12.8-10.5c1.3-1.1,3.3-1.2,4.7-0.1L78.7,93
	c1.6,1.2,3.9,0.3,4.3-1.6l17-81.6c0.4-2.1-1.6-3.9-3.6-3.1L1.7,43.1C-0.6,44-0.6,47.3,1.8,48.2L1.8,48.2z M32.3,52.2l45-27.7
	c0.8-0.5,1.6,0.6,0.9,1.2L41.1,60.3c-1.3,1.2-2.1,2.8-2.4,4.6l-1.3,9.4c-0.2,1.3-1.9,1.4-2.3,0.2l-4.9-17.1
	C29.8,55.4,30.6,53.3,32.3,52.2L32.3,52.2z M32.3,52.2"/>
</svg>
