<?xml version="1.0" encoding="utf-8"?>
<!-- Generator: Adobe Illustrator 21.0.0, SVG Export Plug-In . SVG Version: 6.00 Build 0)  -->
<svg version="1.1" id="Layer_1" xmlns="http://www.w3.org/2000/svg" xmlns:xlink="http://www.w3.org/1999/xlink" x="0px" y="0px"
	 viewBox="0 0 100 100" style="enable-background:new 0 0 100 100;" xml:space="preserve">
<style type="text/css">
	.st0{fill:#FFFFFF;}
	.st1{fill-rule:evenodd;clip-rule:evenodd;fill:#FFFFFF;}
</style>
<g>
	<path class="st0" d="M99.3,22.9L67.6,7.1C67.4,7,67.3,7,67.1,7c0,0,0,0,0,0c-0.4,0-0.8,0.2-1,0.5L46.6,39.2l21.8,35.4L99.6,24
		C99.8,23.6,99.7,23.1,99.3,22.9z"/>
	<polygon class="st0" points="36.3,28.1 36.3,62.3 66.7,77.5 	"/>
	<path class="st0" d="M69.3,78.8l27.9,14c1.5,0.8,2.8,0,2.8-1.7V28.9L69.3,78.8z"/>
	<path class="st0" d="M32.9,23.1L3.7,8.5L1.8,7.5C1.6,7.4,1.3,7.3,1.1,7.3c-0.3,0-0.6,0.1-0.8,0.4C0.1,7.9,0,8.3,0,8.7v66.7
		c0,1.1,0.8,2.5,1.8,3l28.7,14.4c0.4,0.2,0.8,0.3,1.1,0.3c1,0,1.6-0.7,1.6-2V23.7C33.3,23.5,33.2,23.2,32.9,23.1z"/>
</g>
</svg>
