<?xml version="1.0" encoding="utf-8"?>
<!-- Generator: Adobe Illustrator 21.0.0, SVG Export Plug-In . SVG Version: 6.00 Build 0)  -->
<svg version="1.1" id="Layer_1" xmlns="http://www.w3.org/2000/svg" xmlns:xlink="http://www.w3.org/1999/xlink" x="0px" y="0px"
	 viewBox="0 0 100 100" style="enable-background:new 0 0 100 100;" xml:space="preserve">
<style type="text/css">
	.st0{fill:#034ea2;}
	.st1{fill-rule:evenodd;clip-rule:evenodd;fill:#034ea2;}
</style>
<path class="st0" d="M100,49.1c0-6.1-5-11-11.1-11c-3,0-5.7,1.2-7.7,3.1c-7.5-5-17.7-8.1-29-8.5l6.2-19.5l16.7,3.9l0,0.2
	c0,5,4.1,9,9.1,9c5,0,9.1-4,9.1-9c0-5-4.1-9-9.1-9c-3.8,0-7.1,2.4-8.4,5.7l-18-4.2c-0.8-0.2-1.6,0.3-1.8,1L49,32.6
	c-11.8,0.1-22.5,3.3-30.4,8.4c-2-1.8-4.6-3-7.5-3C5,38.1,0,43,0,49.1c0,4,2.2,7.5,5.5,9.5c-0.2,1.2-0.4,2.4-0.4,3.6
	c0,16.3,20,29.6,44.7,29.6c24.6,0,44.7-13.3,44.7-29.6c0-1.1-0.1-2.3-0.3-3.4C97.6,56.9,100,53.3,100,49.1z M28.2,56.6
	c0-3.6,3-6.6,6.6-6.6c3.6,0,6.6,2.9,6.6,6.6c0,3.6-3,6.6-6.6,6.6C31.2,63.2,28.2,60.3,28.2,56.6z M66,76.1C62.7,79.4,57.5,81,50,81
	L50,81l-0.1,0c-7.4,0-12.6-1.6-15.9-4.9c-0.6-0.6-0.6-1.6,0-2.2c0.6-0.6,1.6-0.6,2.2,0c2.7,2.7,7.2,4,13.7,4l0.1,0l0.1,0
	c6.5,0,11-1.3,13.7-4c0.6-0.6,1.6-0.6,2.2,0C66.6,74.5,66.6,75.5,66,76.1z M65.2,63.2c-3.6,0-6.6-2.9-6.6-6.6c0-3.6,2.9-6.6,6.6-6.6
	c3.6,0,6.6,2.9,6.6,6.6C71.8,60.3,68.8,63.2,65.2,63.2z"/>
</svg>
