<?xml version="1.0" encoding="utf-8"?>
<!-- Generator: Adobe Illustrator 21.0.0, SVG Export Plug-In . SVG Version: 6.00 Build 0)  -->
<svg version="1.1" id="Layer_1" xmlns="http://www.w3.org/2000/svg" xmlns:xlink="http://www.w3.org/1999/xlink" x="0px" y="0px"
	 viewBox="0 0 100 100" style="enable-background:new 0 0 100 100;" xml:space="preserve">
<style type="text/css">
	.st0{fill:#034ea2;}
	.st1{fill-rule:evenodd;clip-rule:evenodd;fill:#034ea2;}
</style>
<g>
	<path class="st0" d="M49.7,34.1l-2.7,11c3.1,0.8,12.6,3.9,14.2-2.3C62.8,36.3,52.8,34.9,49.7,34.1z"/>
	<path class="st0" d="M45.6,50.6l-3,12.1c3.7,0.9,15.2,4.6,16.9-2.2C61.3,53.3,49.3,51.5,45.6,50.6z"/>
	<path class="st0" d="M62.1,1.5C35.3-5.2,8.2,11.1,1.5,37.9c-6.7,26.8,9.6,53.9,36.4,60.6c26.8,6.7,53.9-9.6,60.6-36.4
		C105.2,35.3,88.9,8.2,62.1,1.5z M72,42.9L72,42.9c-0.7,4.9-3.4,7.2-7,8.1c4.9,2.6,7.4,6.5,5,13.3c-3,8.5-10,9.2-19.4,7.4l-2.3,9.1
		L43,79.4l2.2-9c-1.4-0.4-2.9-0.7-4.4-1.1l-2.2,9l-5.5-1.4l2.3-9.1c-1.3-0.3-2.6-0.7-3.9-1L24.3,65l2.7-6.3c0,0,4,1.1,4,1
		c1.6,0.4,2.2-0.6,2.5-1.3L37.1,44c0.2,0,0.4,0.1,0.6,0.1c-0.2-0.1-0.4-0.1-0.6-0.2l2.6-10.3c0.1-1.2-0.3-2.6-2.6-3.2
		c0.1-0.1-4-1-4-1l1.5-5.9l7.6,1.9l0,0c1.1,0.3,2.3,0.6,3.5,0.8l2.2-9l5.5,1.4l-2.2,8.8c1.5,0.3,3,0.7,4.4,1l2.2-8.8l5.5,1.4l-2.2,9
		C68,32.6,73,36.2,72,42.9z"/>
</g>
</svg>
