<?xml version="1.0" encoding="utf-8"?>
<!-- Generator: Adobe Illustrator 21.0.0, SVG Export Plug-In . SVG Version: 6.00 Build 0)  -->
<svg version="1.1" id="Layer_1" xmlns="http://www.w3.org/2000/svg" xmlns:xlink="http://www.w3.org/1999/xlink" x="0px" y="0px"
	 viewBox="0 0 100 100" style="enable-background:new 0 0 100 100;" xml:space="preserve">
<style type="text/css">
	.st0{fill:#034ea2;}
	.st1{fill-rule:evenodd;clip-rule:evenodd;fill:#034ea2;}
</style>
<path class="st0" d="M34.1,46.3c-4.8,0-8.7,4.3-8.7,9.4s3.9,9.4,8.7,9.4s8.7-4.3,8.7-9.4S38.8,46.3,34.1,46.3z M65.1,46.3
	c-4.8,0-8.7,4.3-8.7,9.4s3.9,9.4,8.7,9.4c4.8,0,8.7-4.3,8.7-9.4S69.8,46.3,65.1,46.3z M73.6,86c0,0-3.1-3.7-5.6-7
	C79.2,76,83.5,69,83.5,69c-3.6,2.2-6.8,3.9-9.9,4.9c-4.3,1.9-8.3,3.1-12.4,3.7C53,79.2,45.5,78.9,39,77.5c-4.8-1-9-2.2-12.4-3.7
	c-2-0.7-4.1-1.7-6.3-2.9c-0.3-0.2-0.5-0.3-0.9-0.5c-0.2-0.2-0.3-0.2-0.3-0.3c-1.5-0.9-2.4-1.4-2.4-1.4s4.1,6.8,15,10.1
	c-2.6,3.2-5.6,7.2-5.6,7.2C7.2,85.4,0,72.9,0,72.9c0-27.4,12.3-49.7,12.3-49.7c12.3-9.2,24-9,24-9l0.9,1
	c-15.3,4.4-22.3,11.1-22.3,11.1s1.9-1,5.1-2.6c9-3.9,16.4-5.1,19.4-5.5c0.5,0,0.9-0.2,1.4-0.2c5.1-0.7,11.1-0.9,17.2-0.2
	c8.2,0.9,16.7,3.4,25.7,8.2c0,0-6.6-6.5-21.1-10.7l1.2-1.4c0,0,11.6-0.3,24,9c0,0,12.3,22.3,12.3,49.7C99.7,73.1,92.5,85.5,73.6,86z
	"/>
</svg>
