<svg id="Layer_1" data-name="Layer 1" xmlns="http://www.w3.org/2000/svg" viewBox="0 0 100 100"><defs>
    <style>.cls-1{fill:#ffffff;}</style></defs><title>socl</title>
    <path class="cls-1" d="M97.91,25.77a12.57,12.57,0,0,0-8.84-8.9c-7.8-2.1-39.07-2.1-39.07-2.1s-31.27,0-39.07,2.1a12.57,12.57,0,0,0-8.84,8.9C0,33.62,0,50,0,50S0,66.38,2.09,74.23a12.57,12.57,0,0,0,8.84,8.9c7.8,2.1,39.07,2.1,39.07,2.1s31.27,0,39.07-2.1a12.57,12.57,0,0,0,8.84-8.9C100,66.38,100,50,100,50S100,33.62,97.91,25.77ZM39.77,64.87V35.13L65.91,50Z"/></svg>