<?xml version="1.0" encoding="utf-8"?>
<!-- Generator: Adobe Illustrator 21.0.0, SVG Export Plug-In . SVG Version: 6.00 Build 0)  -->
<svg version="1.1" id="Layer_1" xmlns="http://www.w3.org/2000/svg" xmlns:xlink="http://www.w3.org/1999/xlink" x="0px" y="0px"
	 viewBox="0 0 100 100" style="enable-background:new 0 0 100 100;" xml:space="preserve">
<style type="text/css">
	.st0{fill:#FFFFFF;}
	.st1{fill-rule:evenodd;clip-rule:evenodd;fill:#FFFFFF;}
</style>
<g id="Layer_2">
	<g>
		
			<rect x="43" y="43.3" transform="matrix(0.9482 -0.3176 0.3176 0.9482 -13.3159 18.4728)" class="st0" width="14.1" height="13.6"/>
		<g>
			
				<rect x="43" y="43.3" transform="matrix(0.9482 -0.3176 0.3176 0.9482 -13.3159 18.4728)" class="st0" width="14.1" height="13.6"/>
			<path class="st0" d="M95.8,36.2C85.5,1.9,70.6-6.1,36.2,4.2S-6.1,29.4,4.2,63.8s25.2,42.4,59.6,32.1S106.1,70.6,95.8,36.2z
				 M78.5,58.6L72,60.7l2.2,6.7c0.9,2.7-0.6,5.7-3.3,6.6c-0.6,0.2-1.2,0.3-1.8,0.2c-2.1-0.1-4.1-1.4-4.8-3.5L62.2,64l-13.4,4.5
				l2.2,6.7c0.9,2.7-0.6,5.7-3.3,6.6c-0.6,0.2-1.2,0.3-1.8,0.2c-2.1-0.1-4.1-1.4-4.8-3.5L39,71.7l-6.5,2.2c-0.6,0.2-1.2,0.3-1.8,0.2
				c-2.1-0.1-4.1-1.4-4.8-3.5c-0.9-2.7,0.6-5.7,3.3-6.6l6.5-2.2L31.4,49l-6.5,2.2c-0.6,0.2-1.2,0.3-1.8,0.2
				c-2.1-0.1-4.1-1.4-4.8-3.5c-0.9-2.7,0.6-5.7,3.3-6.6l6.5-2.2l-2.2-6.7c-0.9-2.7,0.6-5.7,3.3-6.6c2.7-0.9,5.7,0.6,6.6,3.3l2.2,6.7
				l13.4-4.5L49,24.7c-0.9-2.7,0.6-5.7,3.3-6.6c2.7-0.9,5.7,0.6,6.6,3.3l2.2,6.7l6.5-2.2c2.7-0.9,5.7,0.6,6.6,3.3
				c0.9,2.7-0.6,5.7-3.3,6.6L64.4,38l4.3,12.9l6.5-2.2c2.7-0.9,5.7,0.6,6.6,3.3C82.6,54.7,81.2,57.7,78.5,58.6z"/>
		</g>
	</g>
</g>
</svg>
