<?xml version="1.0" encoding="utf-8"?>
<!-- Generator: Adobe Illustrator 21.0.0, SVG Export Plug-In . SVG Version: 6.00 Build 0)  -->
<svg version="1.1" id="Layer_1" xmlns="http://www.w3.org/2000/svg" xmlns:xlink="http://www.w3.org/1999/xlink" x="0px" y="0px"
	 viewBox="0 0 100 100" style="enable-background:new 0 0 100 100;" xml:space="preserve">
<style type="text/css">
	.st0{fill:#034ea2;}
	.st1{fill-rule:evenodd;clip-rule:evenodd;fill:#034ea2;}
</style>
<g>
	<path class="st0" d="M100,16.7C100,7.9,92.1,0,83.3,0H16.7C7.9,0,0,7.9,0,16.7v66.7C0,92.1,7.9,100,16.7,100H50V62.2H37.8V45.6H50
		v-6.5c0-11.2,8.4-21.3,18.8-21.3h13.5v16.7H68.8c-1.5,0-3.2,1.8-3.2,4.5v6.6h16.7v16.7H65.6V100h17.8c8.8,0,16.7-7.9,16.7-16.7
		V16.7z M100,16.7"/>
</g>
</svg>
