<?xml version="1.0" encoding="utf-8"?>
<!-- Generator: Adobe Illustrator 21.0.0, SVG Export Plug-In . SVG Version: 6.00 Build 0)  -->
<svg version="1.1" id="Слой_1" xmlns="http://www.w3.org/2000/svg" xmlns:xlink="http://www.w3.org/1999/xlink" x="0px" y="0px"
	 viewBox="0 0 170.1 170.1" style="enable-background:new 0 0 170.1 170.1;" xml:space="preserve">
<style type="text/css">
	.st0{fill-rule:evenodd;clip-rule:evenodd;fill:#F99C1C;}
	.st1{fill-rule:evenodd;clip-rule:evenodd;fill:#FFC415;}
	.st2{fill:#FFFFFF;}
</style>
<circle class="st0" cx="85" cy="85" r="85"/>
<circle class="st1" cx="85" cy="85" r="65.4"/>
<g>
	<g>
		<path class="st2" d="M107.9,69.3L85,45.8L62.2,69.3L39.3,53.6c0,0,7.1,44.9,10,63c1.2,7.8,8.8,7.6,8.8,7.6h54.3
			c0,0,7.7,0.1,8.8-7.8c2.8-18.3,9.6-62.8,9.6-62.8L107.9,69.3z M109.7,102c0,0-1.7,9.1-10,9.1c-9.6,0-19.1,0-28.9,0
			c-8.6,0-10.5-9.1-10.5-9.1l-1.5-9.1L85,65.5l26.2,27.4L109.7,102z"/>
	</g>
</g>
</svg>
