<svg xmlns="http://www.w3.org/2000/svg" width="218" height="27" viewBox="0 0 218 27" class="_3HGGF" data-reactid="13"><path fill-rule="evenodd" fill="#FFF" d="M215.738 23.47c-1.54 1.504-3.617 2.257-6.23 2.257-2.613 0-4.69-.746-6.23-2.24C201.738 21.994 201 19.847 201 17V8h4v9c0 1.61.524 2.8 1.306 3.617.78.817 1.85 1.225 3.202 1.225 1.353 0 2.42-.408 3.203-1.225C213.493 19.8 214 18.61 214 17V8h4v9c0 2.824-.722 4.964-2.262 6.47zm-20.767-8.517c0-2.543-1.142-3.815-3.43-3.815-2.286 0-3.54 1.32-3.54 3.862v10h-4V15c0-2.543.63-4.51 1.994-5.805 1.365-1.295 3.214-1.942 5.547-1.942 2.334 0 4.178.654 5.53 1.96C198.425 10.52 199 12.433 199 15h-4l-.03-.047zM169 16c0-1.61-.502-2.82-1.284-3.637-.782-.817-1.85-1.225-3.202-1.225-1.354 0-2.42.408-3.203 1.225-.78.817-1.31 2.027-1.31 3.637v9l-4.026-.002v-8.996c0-2.822.77-4.987 2.31-6.492s3.616-2.257 6.23-2.257c2.613 0 4.69.747 6.23 2.24C172.284 10.986 173 13.153 173 16l.054 8.998L169 25v-9zM151.03 5.642c-.77 0-1.422-.268-1.96-.805-.536-.536-.804-1.19-.804-1.96 0-.792.268-1.457.805-1.994.538-.537 1.19-.805 1.96-.805.794 0 1.454.268 1.98.805.524.537.786 1.202.786 1.995 0 .77-.262 1.423-.787 1.96-.526.536-1.186.804-1.98.804zM142 22c-.49 1.12-1.16 1.824-2.234 2.49-1.074.664-2.334.997-3.78.997-2.264 0-4.253-.8-5.968-2.398-1.715-1.6-2.572-3.833-2.572-6.703 0-2.637.87-4.812 2.607-6.528 1.738-1.716 3.973-2.574 6.703-2.574 2.753 0 4.98.847 6.685 2.538 1.704 1.692 2.556 3.926 2.556 6.703L146 25h-4v-3zm-1.57-9.376c-.933-.968-2.158-1.452-3.674-1.452-1.517 0-2.748.484-3.693 1.452-.945.97-1.417 2.223-1.417 3.763s.472 2.794 1.417 3.763c.945.968 2.176 1.452 3.693 1.452 1.516 0 2.74-.484 3.675-1.452.934-.97 1.4-2.224 1.4-3.763 0-1.54-.466-2.794-1.4-3.763zM121 16c0-1.61-.575-2.82-1.356-3.637-.782-.817-1.85-1.225-3.203-1.225-1.33 0-2.39.42-3.184 1.26-.793.84-1.256 2.04-1.256 3.602v9h-4V0h4l.066 10.018h.07c1.12-1.843 2.812-2.765 5.075-2.765 2.194 0 4.038.735 5.53 2.204 1.494 1.47 2.24 3.653 2.24 6.545v8.996L121 25v-9zm-24.53 5.933c1.12 0 2.1-.273 2.94-.822.84-.547 1.445-1.288 1.82-2.222h4.2c-.42 2.077-1.442 3.75-3.064 5.023-1.622 1.273-3.587 1.908-5.897 1.908-2.73 0-4.966-.858-6.704-2.572-1.738-1.715-2.7-4.257-2.7-6.893 0-2.637.962-4.448 2.7-6.162C91.504 8.477 93.74 7.62 96.47 7.62c2.31 0 4.274.637 5.896 1.908 1.622 1.272 2.643 2.946 3.063 5.022h-4.2c-.375-.933-.98-1.674-1.82-2.222-.84-.55-1.82-.823-2.94-.823-1.518 0-2.75.485-3.694 1.453-.945.968-1.417 2.222-1.417 3.762s.47 2.795 1.416 3.763c.945.97 2.176 1.453 3.693 1.453zm-15.353 3.065l-7.005-7.73h-.065L74 25h-4V0h4l.047 15.198h.07L81 8h5l-7.893 8.178 8.435 8.82h-5.425zm-22.393-3.065c1.12 0 2.1-.273 2.94-.822.84-.547 1.446-1.288 1.82-2.222h4.2c-.42 2.077-1.44 3.75-3.063 5.023-1.62 1.273-3.586 1.908-5.896 1.908-2.73 0-4.965-.858-6.703-2.572-1.737-1.715-2.606-3.89-2.606-6.528 0-2.636.87-4.813 2.607-6.527 1.74-1.714 3.974-2.572 6.704-2.572 2.31 0 4.275.637 5.897 1.908 1.623 1.272 2.644 2.946 3.064 5.022h-4.2c-.374-.933-.98-1.674-1.82-2.222-.84-.55-1.82-.823-2.94-.823-1.517 0-2.748.485-3.693 1.453-.944.968-1.416 2.222-1.416 3.762s.472 2.795 1.417 3.763c.946.97 2.177 1.453 3.694 1.453zm-20.65 3.885c-2.73 0-4.965-.858-6.703-2.572-1.737-1.715-2.606-3.89-2.606-6.528 0-2.636.87-4.813 2.607-6.527 1.74-1.714 3.974-2.572 6.704-2.572 2.73 0 4.964.858 6.702 2.573 1.738 1.715 2.608 3.892 2.608 6.528 0 2.637-.87 4.813-2.608 6.528-1.738 1.714-3.972 2.572-6.702 2.572zm3.675-12.862c-.935-.968-2.16-1.453-3.676-1.453-1.517 0-2.748.485-3.693 1.453-.944.968-1.416 2.222-1.416 3.762s.472 2.795 1.417 3.763c.946.97 2.177 1.453 3.694 1.453 1.516 0 2.74-.484 3.675-1.452.932-.967 1.4-2.222 1.4-3.762s-.468-2.794-1.4-3.762zM22 1h4v24h-4V1zM10.195 26.26c-2.753 0-4.98-.844-6.685-2.536C1.807 22.032.956 19.8.956 17.022L1 1h4v10c.56-.886 1.532-1.655 2.536-2.168 1.002-.513 2.146-.77 3.43-.77 2.262 0 4.252.8 5.967 2.397 1.715 1.597 2.572 3.83 2.572 6.702 0 2.637-.87 4.812-2.607 6.527-1.74 1.714-3.972 2.57-6.703 2.57zm3.693-12.86c-.945-.97-2.176-1.454-3.693-1.454S7.453 12.43 6.52 13.4c-.933.967-1.4 2.22-1.4 3.762 0 1.54.467 2.794 1.4 3.762.933.968 2.158 1.453 3.675 1.453s2.748-.485 3.693-1.453c.945-.968 1.418-2.222 1.418-3.762s-.473-2.795-1.418-3.763zM153 25h-4V8h4v17z" data-reactid="14"></path><path fill-rule="evenodd" fill="#21D279" d="M181.333 23.053c0-.77-.268-1.423-.804-1.96-.54-.536-1.192-.805-1.96-.805-.772 0-1.425.27-1.96.805-.538.537-.807 1.19-.807 1.96s.27 1.424.806 1.96c.535.537 1.188.805 1.96.805.768 0 1.42-.268 1.96-.805.535-.536.803-1.19.803-1.96z" data-reactid="15"></path></svg>