<svg xmlns="http://www.w3.org/2000/svg" xmlns:xlink="http://www.w3.org/1999/xlink" width="94px" height="22px" viewBox="0 0 94 22" version="1.1">
    <!-- Generator: Sketch 40.2 (33826) - http://www.bohemiancoding.com/sketch -->
    <title>logo</title>
    <desc>Created with Sketch.</desc>
    <defs/>
    <g id="desktop" stroke="none" stroke-width="1" fill="none" fill-rule="evenodd">
        <g id="Fortune_dionami_desktop_1440px--" transform="translate(-68.000000, -14.000000)" fill="#FEFEFE">
            <g id="logo" transform="translate(68.000000, 14.000000)">
                <polygon id="Fill-1" points="76.6957024 0.47824065 76.6957024 12.0404033 73.0612309 0.47824065 69.4696862 0.47824065 69.4696862 21.6817691 73.0612309 21.6817691 73.0612309 11.2934764 76.3082878 21.6817691 80.2870683 21.6817691 80.2870683 0.47824065"/>
                <polygon id="Fill-2" points="3.59136585 0.47824065 0.299235772 0.47824065 0 0.47824065 0 21.6815902 3.59136585 21.6815902 3.59136585 12.5912976 6.92195122 12.5912976 6.92195122 8.99993171 3.59136585 8.99993171 3.59136585 4.0696065 8.75671545 4.0696065 8.75671545 0.47824065"/>
                <g id="Group-14" transform="translate(12.162602, 0.159902)">
                    <path d="M0.0970146341,5.00419512 L0.0970146341,16.8359024 C0.0970146341,19.589122 2.32885203,21.8211382 5.08207154,21.8211382 L5.08225041,21.8211382 C7.83546992,21.8211382 10.0673073,19.589122 10.0673073,16.8359024 L10.0673073,5.00276423 C10.0673073,2.25043902 7.8360065,0.0189593496 5.08350244,0.0189593496 L5.08207154,0.0189593496 C2.32885203,0.0189593496 0.0970146341,2.25097561 0.0970146341,5.00419512 M3.68838049,16.8359024 L3.68838049,5.00419512 C3.68838049,4.23437398 4.31242927,3.61050407 5.08207154,3.61050407 L5.08582764,3.61050407 C5.85350244,3.61050407 6.4757626,4.23276423 6.4757626,5.00043902 L6.4757626,16.8359024 C6.4757626,17.6057236 5.85189268,18.2295935 5.08207154,18.2295935 C4.31242927,18.2295935 3.68838049,17.6057236 3.68838049,16.8359024" id="Fill-3"/>
                    <polygon id="Fill-5" points="38.6138634 0.318338211 28.6609203 0.318338211 28.6609203 3.90970407 31.8416195 3.90970407 31.8416195 21.5218667 35.4331642 21.5218667 35.4331642 3.90970407 38.6138634 3.90970407"/>
                    <path d="M49.1342276,0.318338211 L49.1342276,16.8360455 C49.1342276,17.6056878 48.5101789,18.2297366 47.7405366,18.2297366 C46.9708943,18.2297366 46.3468455,17.6056878 46.3468455,16.8360455 L46.3468455,0.318338211 L42.7554797,0.318338211 L42.7554797,16.8360455 C42.7554797,19.589265 44.9873171,21.8211024 47.7405366,21.8211024 C50.4937561,21.8211024 52.7255935,19.589265 52.7255935,16.8360455 L52.7255935,0.318338211 L49.1342276,0.318338211 Z" id="Fill-7"/>
                    <g id="Group-11" transform="translate(72.796748, 0.178862)">
                        <polygon id="Fill-9" points="0.0254162602 0.139547967 0.0254162602 21.3428976 8.78213171 21.3428976 8.78213171 17.7515317 3.61696098 17.7515317 3.61696098 12.2526049 6.94736748 12.2526049 6.94736748 8.66123902 3.61696098 8.66123902 3.61696098 3.73091382 8.78213171 3.73091382 8.78213171 0.139547967"/>
                    </g>
                    <path d="M25.2428358,21.5218488 L21.532348,21.5218488 L18.8773236,11.4538976 C18.8773236,11.4538976 21.160852,11.043052 21.160852,8.6133935 L21.160852,5.2998 C21.160852,4.5321252 20.5385919,3.90986504 19.7707382,3.90986504 L18.3899252,3.90986504 L18.3899252,21.5218488 L14.7985593,21.5218488 L14.7985593,0.318320325 L19.7685919,0.318320325 C22.4468683,0.318320325 24.6254049,2.43264553 24.7413073,5.08230407 L24.7523967,5.08230407 L24.7523967,8.54846667 L24.7413073,8.54846667 C24.7413073,10.6404341 24.0569821,12.1503854 22.8038764,13.1112309 L25.2428358,21.5218488 Z" id="Fill-12"/>
                </g>
            </g>
        </g>
    </g>
</svg>